<?xml version="1.0" encoding="utf-8"?>
<!-- Generator: Adobe Illustrator 19.1.0, SVG Export Plug-In . SVG Version: 6.00 Build 0)  -->
<svg version="1.1" id="Layer_1" xmlns="http://www.w3.org/2000/svg" xmlns:xlink="http://www.w3.org/1999/xlink" x="0px" y="0px"
	 viewBox="-287 390.5 13 13" enable-background="new -287 390.5 13 13" xml:space="preserve">
<path fill="#79706B" d="M-285.5,393.2h10v9h-10V393.2z M-278.5,390.7v1.5h-4v-1.5h-1v1.5h-2h-1v1v9v1h12v-11h-1h-2v-1.5H-278.5z"/>
<g>
	<path fill="#79706B" d="M-283.5,397.5c0.6,0,1-0.4,1-1s-0.4-1-1-1s-1,0.4-1,1S-284.1,397.5-283.5,397.5"/>
	<path fill="#79706B" d="M-277.5,397.5c0.6,0,1-0.4,1-1s-0.4-1-1-1s-1,0.4-1,1S-278.1,397.5-277.5,397.5"/>
	<path fill="#79706B" d="M-280.5,397.5c0.6,0,1-0.4,1-1s-0.4-1-1-1s-1,0.4-1,1S-281.1,397.5-280.5,397.5"/>
	<path fill="#79706B" d="M-283.5,398.5c-0.6,0-1,0.4-1,1s0.4,1,1,1s1-0.4,1-1S-282.9,398.5-283.5,398.5"/>
	<path fill="#79706B" d="M-277.5,400.5c0.6,0,1-0.4,1-1s-0.4-1-1-1s-1,0.4-1,1S-278.1,400.5-277.5,400.5"/>
	<path fill="#79706B" d="M-280.5,400.5c0.6,0,1-0.4,1-1s-0.4-1-1-1s-1,0.4-1,1S-281.1,400.5-280.5,400.5"/>
</g>
</svg>
