<?xml version="1.0" encoding="utf-8"?>
<!-- Generator: Adobe Illustrator 19.1.0, SVG Export Plug-In . SVG Version: 6.00 Build 0)  -->
<svg version="1.1" id="Layer_1" xmlns="http://www.w3.org/2000/svg" xmlns:xlink="http://www.w3.org/1999/xlink" x="0px" y="0px"
	 viewBox="-541.8 726.4 78 78" enable-background="new -541.8 726.4 78 78" xml:space="preserve">
<g>
	<g>
		<path class="bg" fill="#13C0A4" d="M-502.8,796.4c17.1,0,31-13.9,31-31c0-17.1-13.9-31-31-31c-17.1,0-31,13.9-31,31S-519.9,796.4-502.8,796.4
		"/>
		<g class="arrow-top" opacity="0.2">
			<g>
				<path fill="#79706B" d="M-470.5,740c-0.8,0-1.5-0.7-1.5-1.5v-3.9h-3.9c-0.8,0-1.5-0.7-1.5-1.5s0.7-1.5,1.5-1.5h5.4
					c0.8,0,1.5,0.7,1.5,1.5v5.4C-469,739.3-469.7,740-470.5,740z"/>
				<path fill="#79706B" d="M-477.5,741.6c-0.4,0-0.8-0.1-1.1-0.4c-0.6-0.6-0.6-1.5,0-2.1l6.1-6.1c0.6-0.6,1.5-0.6,2.1,0
					c0.6,0.6,0.6,1.5,0,2.1l-6.1,6.1C-476.7,741.5-477.1,741.6-477.5,741.6z"/>
			</g>
		</g>
		<g class="arrow-bottom" opacity="0.2">
			<g>
				<path fill="#79706B" d="M-529.7,799.2h-5.4c-0.8,0-1.5-0.7-1.5-1.5v-5.4c0-0.8,0.7-1.5,1.5-1.5s1.5,0.7,1.5,1.5v3.9h3.9
					c0.8,0,1.5,0.7,1.5,1.5S-528.9,799.2-529.7,799.2z"/>
				<path fill="#79706B" d="M-534.2,798.3c-0.4,0-0.8-0.1-1.1-0.4c-0.6-0.6-0.6-1.5,0-2.1l6.1-6.1c0.6-0.6,1.5-0.6,2.1,0
					c0.6,0.6,0.6,1.5,0,2.1l-6.1,6.1C-533.5,798.2-533.8,798.3-534.2,798.3z"/>
			</g>
		</g>
	</g>
	<text transform="matrix(1 0 0 1 -524.5368 770.4803)" fill="#FFFFFF" font-family="'AdelleSans-Bold'" font-size="14px">l</text>
	<text transform="matrix(1 0 0 1 -520.8368 770.4803)" fill="#FFFFFF" font-family="'AdelleSans-Bold'" font-size="14px">a</text>
	<text transform="matrix(1 0 0 1 -513.0368 770.4803)" fill="#FFFFFF" font-family="'AdelleSans-Bold'" font-size="14px">u</text>
	<text transform="matrix(1 0 0 1 -504.9368 770.4803)" fill="#FFFFFF" font-family="'AdelleSans-Bold'" font-size="14px">nch</text>
</g>
</svg>
