<?xml version="1.0" encoding="utf-8"?>
<!-- Generator: Adobe Illustrator 19.1.0, SVG Export Plug-In . SVG Version: 6.00 Build 0)  -->
<svg version="1.1" id="Layer_1" xmlns="http://www.w3.org/2000/svg" xmlns:xlink="http://www.w3.org/1999/xlink" x="0px" y="0px"
	 viewBox="-873 1105.4 56.8 56.5" enable-background="new -873 1105.4 56.8 56.5" xml:space="preserve">
<path fill="#79706B" d="M-834.4,1124.3l1.5-0.3l2.9,0.3l2.6,0.7l2.6,0.7l1.4,0.9l0.3,1.1l-1.6,0.3l-2.5-0.3l-3.8-1.1l-2.8-0.6
	l-1.4-0.8v-0.5L-834.4,1124.3z"/>
<g>
	<path fill="#79706B" d="M-865.2,1124.1c0,0,3.9,0.6,5.6,1.1c1.7,0.4,4.9,1.2,5.3,2.7c0.4,1.5-0.8,0.8-1.5,0.8s-4.1-0.9-4.9-1
		c-0.8-0.1-3.1-1.1-3.1-1.1s-2.2-1-2.4-1.4c-0.2-0.5,0-0.7,0-0.7L-865.2,1124.1z M-827.9,1132.8c-1.3,0.2-1.4,2.4-0.8,3.6l-1.5-0.1
		c0,0-1.2-0.9-1.6-1.7c-0.4-0.8-0.4-3.1-0.4-3.1l5.8,0.6C-826.4,1132.1-826.6,1132.6-827.9,1132.8 M-824.4,1130.4l-5.8-0.4h-4
		c0,0,0.1,3.7,0.2,4.6c0.1,1,1.8,4.3,5.7,3.9C-824.4,1138.1-824.2,1131.8-824.4,1130.4 M-858.8,1133.4c-0.6-0.1-1.3,0-1.3,0.8
		s-0.4,2.4,0.5,2.5c-0.1,0.6-2.4,0.3-2.6-0.3c-0.2-0.6-1.4-2.2-1-4.6l5.9,0.6C-857.5,1133.1-858.2,1133.4-858.8,1133.4
		 M-855.3,1131.1l-9.8-0.6c0,0-0.3,2.1-0.1,3.9c0.1,1.7,1.9,4.4,5.5,4.4C-856.2,1138.6-855.2,1133.5-855.3,1131.1 M-860.6,1146.4
		c2.1,1.2,5.7,1.9,7.7,2.2s7.8,0.8,9.8,0.7c2.1-0.1,6.4-0.9,7.6-1.1c1.3-0.2,4-1,4.5-1.4c0.5-0.4,1.9-1.2,1.9-1.2
		c-0.7-0.1-0.6-1.5-0.1-1.8c0.6-0.3,1-0.3,1.3,0.1c0.4,0.4,1,1.5,1.7,1.6c0.6,0.1,2.4,0.6,2.1,1.3c-0.3,0.6-0.5,1.5-2.7,0.8
		c-1.6,0.6-4.7,2.4-8.2,3.1s-7.8,1.2-11.2,1c-3.4-0.1-6.9-0.8-10-1.3s-4.8-1.7-5.2-2.1s-1.2-1.1-1.5-1s-2.3,0.1-2.3-1
		c0-1,0.8-1.2,1.1-1s1.9,0.3,2.1,0.1c0.3-0.3,0.5-1.2,0.9-1.4c0.4-0.3,1.1-0.7,1.5-0.1c0.4,0.6,0.4,1.4,0.1,1.7
		C-859.6,1145.8-860.6,1146.4-860.6,1146.4"/>
</g>
<g>
	<path fill="#79706B" d="M-820.6,1146.9h-0.2c-0.5,0-1,0-1.5-0.1c-1.8,3.4-4.8,7.7-8.7,9.4c-5.3,2.4-10.3,4.4-16.8,3.4
		s-13.2-4.9-16.7-9c-3.5-4.1-6.7-12.6-6.2-17.4c0.3-2.4,0.9-5.7,1.9-8.9c-0.3-0.3-0.6-0.6-1-0.8c-0.2-0.1-0.5-0.2-0.8-0.2
		c-0.8,1.9-1.5,3.9-1.9,5.9c-1.3,6.4-0.1,10.3,1.9,16.1c2,5.8,8.4,11.5,13.2,13.7s10.4,3.6,18.8,2.5c7.5-1,14.1-6.3,18.5-14.2
		C-820.2,1147.2-820.4,1147-820.6,1146.9 M-819.5,1120.6c-2.8-7.6-9.9-10.8-13.9-12.8s-7.1-2.1-12.6-2.4c0,0-5.1,1.2-6.6,1.6
		s-6.4,2.2-10.5,5.7c-2.4,2.1-4.8,5.3-6.6,8.9c0,0,0,0.1,0.1,0.1c0.3,0.2,0.6,0.4,0.9,0.5c0.2,0,0.5,0,0.7,0.1
		c0.9-2.1,2-4.1,3.4-5.3c3.7-3.5,7.9-6.7,11-7.8c3.1-1.1,7.5-1.4,7.5-1.4c3,0,7,0.6,7,0.6s3.1,0.8,3.3,0.8c0.2,0.1,4.5,2,4.5,2
		l3.1,2.5l4.3,4.2c0,0,2.2,4.2,2.5,4.5c0.3,0.3,2.1,5.5,2.2,5.6c0.1,0.2,0.6,7,0.6,7.2s-1,5.5-2.2,8.5c-0.2,0.4-0.4,0.9-0.7,1.4
		c0.4,0.2,0.9,0.3,1.3,0.5h1.1c0.2-0.3,0.3-0.6,0.5-0.9C-814.3,1135.2-816.8,1128.2-819.5,1120.6 M-847.2,1106.5
		C-847.2,1106.4-847.3,1106.5-847.2,1106.5"/>
</g>
</svg>
