<svg id="Layer_1" data-name="Layer 1" xmlns="http://www.w3.org/2000/svg" xmlns:xlink="http://www.w3.org/1999/xlink" viewBox="0 0 27.28 20"><defs><style>.cls-1{fill:none;}.cls-2{clip-path:url(#clip-path);}.cls-3{fill:#e7e7df;}</style><clipPath id="clip-path"><rect class="cls-1" width="27.28" height="20"/></clipPath></defs><title>quote</title><g class="cls-2"><path class="cls-3" d="M27.28,5V0c-8.64.72-12.72,4.88-12.72,12.72,0,5,3.12,7.28,6.64,7.28s6-2.24,6-5.28A4.87,4.87,0,0,0,25,10.16c-1.28-.88-2.48-0.88-2.48-2.32s1.6-2.56,4.8-2.88M12.72,5V0C4.08,0.72,0,4.88,0,12.72,0,17.68,3.12,20,6.64,20s6-2.24,6-5.28a4.87,4.87,0,0,0-2.24-4.56C9.12,9.28,7.92,9.28,7.92,7.84S9.52,5.28,12.72,5"/></g></svg>