<?xml version="1.0" encoding="utf-8"?>
<!-- Generator: Adobe Illustrator 19.1.0, SVG Export Plug-In . SVG Version: 6.00 Build 0)  -->
<svg version="1.1" id="Layer_1" xmlns="http://www.w3.org/2000/svg" xmlns:xlink="http://www.w3.org/1999/xlink" x="0px" y="0px"
	 viewBox="-291 387 27.3 20" style="enable-background:new -291 387 27.3 20;" xml:space="preserve">
<style type="text/css">
	.st0{clip-path:url(#SVGID_2_);}
	.st1{fill:#E7E7DF;}
</style>
<title>quote</title>
<g>
	<defs>
		<rect id="SVGID_1_" x="-291" y="387" width="27.3" height="20"/>
	</defs>
	<clipPath id="SVGID_2_">
		<use xlink:href="#SVGID_1_"  style="overflow:visible;"/>
	</clipPath>
	<g class="st0">
		<path class="st1" d="M-263.7,392v-5c-8.6,0.7-12.7,4.9-12.7,12.7c0,5,3.1,7.3,6.6,7.3c3.5,0,6-2.2,6-5.3c0.2-1.8-0.7-3.6-2.2-4.6
			c-1.3-0.9-2.5-0.9-2.5-2.3S-266.9,392.3-263.7,392 M-278.3,392v-5c-8.6,0.7-12.7,4.9-12.7,12.7c0,5,3.1,7.3,6.6,7.3
			c3.5,0,6-2.2,6-5.3c0.2-1.8-0.7-3.6-2.2-4.6c-1.3-0.9-2.5-0.9-2.5-2.3S-281.5,392.3-278.3,392"/>
	</g>
</g>
</svg>
