<?xml version="1.0" encoding="utf-8"?>
<!-- Generator: Adobe Illustrator 19.1.0, SVG Export Plug-In . SVG Version: 6.00 Build 0)  -->
<svg version="1.1" id="Layer_1" xmlns="http://www.w3.org/2000/svg" xmlns:xlink="http://www.w3.org/1999/xlink" x="0px" y="0px"
	 viewBox="-600 783.9 10.4 10" enable-background="new -600 783.9 10.4 10" xml:space="preserve">
<title>search</title>
<g>
	<g>
		<path fill="#7A706C" d="M-595.4,793.1c-2.6,0-4.6-2.1-4.6-4.6c0-2.6,2.1-4.6,4.6-4.6s4.6,2.1,4.6,4.6
			C-590.7,791-592.8,793.1-595.4,793.1z M-595.4,785.1c-1.9,0-3.4,1.5-3.4,3.4c0,1.9,1.5,3.4,3.4,3.4c1.9,0,3.4-1.5,3.4-3.4
			C-592,786.6-593.5,785.1-595.4,785.1z"/>
	</g>
</g>
<path fill="#7A706C" d="M-590.2,793.9c-0.2,0-0.3-0.1-0.4-0.2l-2.1-2.1c-0.2-0.2-0.2-0.6,0-0.9c0.2-0.2,0.6-0.2,0.9,0l2.1,2.1
	c0.2,0.2,0.2,0.6,0,0.9C-589.9,793.8-590.1,793.9-590.2,793.9z"/>
</svg>
