<?xml version="1.0" encoding="utf-8"?>
<!-- Generator: Adobe Illustrator 19.1.0, SVG Export Plug-In . SVG Version: 6.00 Build 0)  -->
<svg version="1.1" id="Layer_1" xmlns="http://www.w3.org/2000/svg" xmlns:xlink="http://www.w3.org/1999/xlink" x="0px" y="0px"
	 viewBox="0 0 24 24" enable-background="new 0 0 24 24" xml:space="preserve">
<path fill="#79706B" d="M11.6,16C9,16,7,14,7,11.4S9,6.8,11.6,6.8s4.6,2.1,4.6,4.6S14.2,16,11.6,16z M11.6,8c-1.9,0-3.4,1.5-3.4,3.4
	s1.5,3.4,3.4,3.4s3.4-1.5,3.4-3.4S13.5,8,11.6,8z"/>
<path fill="#79706B" d="M16.7,16.9c-0.2,0-0.3-0.1-0.4-0.2l-2.1-2.1c-0.2-0.2-0.2-0.6,0-0.9s0.6-0.2,0.9,0l2.1,2.1
	c0.2,0.2,0.2,0.6,0,0.9C17.1,16.8,16.9,16.9,16.7,16.9z"/>
</svg>
