<?xml version="1.0" encoding="utf-8"?>
<!-- Generator: Adobe Illustrator 19.1.0, SVG Export Plug-In . SVG Version: 6.00 Build 0)  -->
<svg version="1.1" id="Layer_1" xmlns="http://www.w3.org/2000/svg" xmlns:xlink="http://www.w3.org/1999/xlink" x="0px" y="0px"
	 viewBox="-290 382 30 30" style="enable-background:new -290 382 30 30;" xml:space="preserve">
<style type="text/css">
	.st0{opacity:0.8;}
	.st1{fill:#EFEFE9;}
	.st2{display:none;}
	.st3{display:inline;}
	.st4{fill:#272A2B;}
</style>
<g id="icons">
	<g class="st0">
		<path class="st1" d="M-273.6,405v-7.3h2.5l0.4-2.8h-2.8V393c0-0.8,0.2-1.4,1.4-1.4h1.5v-2.5c-0.4,0-1.2-0.1-2.3-0.1
			c-2.2,0-3.7,1.3-3.7,3.8v2.1h-2.4v2.8h2.5v7.3H-273.6z"/>
	</g>
</g>
<g id="hover_states" class="st2">
	<g class="st3">
		<path class="st4" d="M-275,412c8.3,0,15-6.7,15-15s-6.7-15-15-15s-15,6.7-15,15S-283.3,412-275,412"/>
	</g>
	<g class="st3">
		<path class="st1" d="M-273.6,405v-7.3h2.5l0.4-2.8h-2.8V393c0-0.8,0.2-1.4,1.4-1.4h1.5v-2.5c-0.4,0-1.2-0.1-2.3-0.1
			c-2.2,0-3.7,1.3-3.7,3.8v2.1h-2.4v2.8h2.5v7.3H-273.6z"/>
	</g>
</g>
</svg>
