<?xml version="1.0" encoding="utf-8"?>
<!-- Generator: Adobe Illustrator 19.1.0, SVG Export Plug-In . SVG Version: 6.00 Build 0)  -->
<svg version="1.1" xmlns="http://www.w3.org/2000/svg" xmlns:xlink="http://www.w3.org/1999/xlink" x="0px" y="0px"
	 viewBox="0 0 30 30" style="enable-background:new 0 0 30 30;" xml:space="preserve">
<style type="text/css">
	.st0{opacity:0.8;}
	.st1{fill:#EFEFE9;}
	.st2{opacity:0.8;fill:#EFEFE9;}
	.st3{display:none;}
	.st4{display:inline;}
	.st5{fill:#272A2B;}
</style>
<g id="icons">
	<g class="st0">
		<path class="st1" d="M18.6,9.7c-1.5,0-2.8,1.2-2.8,2.8c0,0.2,0,0.4,0.1,0.6c-2.3-0.1-4.4-1.2-5.7-2.9c-0.2,0.4-0.4,0.9-0.4,1.4
			c0,1,0.5,1.8,1.2,2.3c-0.5,0-0.9-0.1-1.3-0.3v0c0,1.3,1,2.5,2.2,2.7c-0.2,0.1-0.5,0.1-0.7,0.1c-0.2,0-0.4,0-0.5,0
			c0.4,1.1,1.4,1.9,2.6,1.9c-1,0.7-2.1,1.2-3.4,1.2c-0.2,0-0.4,0-0.7,0c1.2,0.8,2.7,1.2,4.3,1.2c5.1,0,7.9-4.2,7.9-7.9
			c0-0.1,0-0.2,0-0.4c0.5-0.4,1-0.9,1.4-1.4c-0.5,0.2-1,0.4-1.6,0.4c0.6-0.3,1-0.9,1.2-1.5c-0.5,0.3-1.1,0.5-1.8,0.7
			C20.1,10,19.4,9.7,18.6,9.7"/>
	</g>
</g>
<g id="hover_states" class="st3">
	<g class="st4">
		<path class="st5" d="M15,30c8.3,0,15-6.7,15-15S23.3,0,15,0S0,6.7,0,15S6.7,30,15,30"/>
	</g>
	<g class="st4">
		<path class="st1" d="M18.6,9.7c-1.5,0-2.8,1.2-2.8,2.8c0,0.2,0,0.4,0.1,0.6c-2.3-0.1-4.4-1.2-5.7-2.9c-0.2,0.4-0.4,0.9-0.4,1.4
			c0,1,0.5,1.8,1.2,2.3c-0.5,0-0.9-0.1-1.3-0.3v0c0,1.3,1,2.5,2.2,2.7c-0.2,0.1-0.5,0.1-0.7,0.1c-0.2,0-0.4,0-0.5,0
			c0.4,1.1,1.4,1.9,2.6,1.9c-1,0.7-2.1,1.2-3.4,1.2c-0.2,0-0.4,0-0.7,0c1.2,0.8,2.7,1.2,4.3,1.2c5.1,0,7.9-4.2,7.9-7.9
			c0-0.1,0-0.2,0-0.4c0.5-0.4,1-0.9,1.4-1.4c-0.5,0.2-1,0.4-1.6,0.4c0.6-0.3,1-0.9,1.2-1.5c-0.5,0.3-1.1,0.5-1.8,0.7
			C20.1,10,19.4,9.7,18.6,9.7"/>
	</g>
</g>
</svg>
