<?xml version="1.0" encoding="utf-8"?>
<!-- Generator: Adobe Illustrator 19.1.0, SVG Export Plug-In . SVG Version: 6.00 Build 0)  -->
<svg version="1.1" xmlns="http://www.w3.org/2000/svg" xmlns:xlink="http://www.w3.org/1999/xlink" x="0px" y="0px"
	 viewBox="0 0 30 30" style="enable-background:new 0 0 30 30;" xml:space="preserve">
<style type="text/css">
	.st0{opacity:0.8;}
	.st1{fill:#EFEFE9;}
	.st2{opacity:0.8;fill:#EFEFE9;}
	.st3{display:none;}
	.st4{display:inline;}
	.st5{fill:#272A2B;}
</style>
<g id="icons">
	<g>
		<defs>
			<rect id="SVGID_1_" width="30" height="30"/>
		</defs>
		<clipPath id="SVGID_2_">
			<use xlink:href="#SVGID_1_"  style="overflow:visible;"/>
		</clipPath>
	</g>
	<g class="st0">
		<path class="st1" d="M16.4,23v-7.3h2.5l0.4-2.8h-2.8V11c0-0.8,0.2-1.4,1.4-1.4l1.5,0V7.1C19,7.1,18.2,7,17.1,7
			c-2.2,0-3.7,1.3-3.7,3.8v2.1H11v2.8h2.5V23H16.4z"/>
	</g>
</g>
<g id="hover_states" class="st3">
	<g class="st4">
		<path class="st5" d="M15,30c8.3,0,15-6.7,15-15S23.3,0,15,0S0,6.7,0,15S6.7,30,15,30"/>
	</g>
	<g class="st4">
		<defs>
			<rect id="SVGID_3_" width="30" height="30"/>
		</defs>
		<clipPath id="SVGID_4_">
			<use xlink:href="#SVGID_3_"  style="overflow:visible;"/>
		</clipPath>
	</g>
	<g class="st4">
		<path class="st1" d="M16.4,23v-7.3h2.5l0.4-2.8h-2.8V11c0-0.8,0.2-1.4,1.4-1.4l1.5,0V7.1C19,7.1,18.2,7,17.1,7
			c-2.2,0-3.7,1.3-3.7,3.8v2.1H11v2.8h2.5V23H16.4z"/>
	</g>
</g>
</svg>
