<?xml version="1.0" encoding="utf-8"?>
<!-- Generator: Adobe Illustrator 19.1.0, SVG Export Plug-In . SVG Version: 6.00 Build 0)  -->
<svg version="1.1" xmlns="http://www.w3.org/2000/svg" xmlns:xlink="http://www.w3.org/1999/xlink" x="0px" y="0px"
	 viewBox="0 0 30 30" style="enable-background:new 0 0 30 30;" xml:space="preserve">
<style type="text/css">
	.st0{opacity:0.8;}
	.st1{fill:#EFEFE9;}
	.st2{opacity:0.8;fill:#EFEFE9;}
	.st3{display:none;}
	.st4{display:inline;}
	.st5{fill:#272A2B;}
</style>
<g id="icons">
	<g class="st0">
		<path class="st2" d="M15,14L8,9v10c0,0.6,0.4,1,1,1h12c0.6,0,1-0.4,1-1V9L15,14z"/>
		<polygon class="st1" points="22,9 8,9 15,14 		"/>
	</g>
</g>
<g id="hover_states" class="st3">
	<g class="st4">
		<path class="st5" d="M15,30c8.3,0,15-6.7,15-15S23.3,0,15,0S0,6.7,0,15S6.7,30,15,30"/>
	</g>
	<g class="st4">
		<path class="st2" d="M15,14L8,9v10c0,0.6,0.4,1,1,1h12c0.6,0,1-0.4,1-1V9L15,14z"/>
		<polygon class="st1" points="22,9 8,9 15,14 		"/>
	</g>
</g>
</svg>
