<?xml version="1.0" encoding="utf-8"?>
<!-- Generator: Adobe Illustrator 19.1.0, SVG Export Plug-In . SVG Version: 6.00 Build 0)  -->
<svg version="1.1" id="Layer_1" xmlns="http://www.w3.org/2000/svg" xmlns:xlink="http://www.w3.org/1999/xlink" x="0px" y="0px"
	 viewBox="-290 382 30 30" style="enable-background:new -290 382 30 30;" xml:space="preserve">
<style type="text/css">
	.st0{opacity:0.8;}
	.st1{opacity:0.8;fill:#EFEFE9;enable-background:new    ;}
	.st2{fill:#EFEFE9;}
	.st3{display:none;}
	.st4{display:inline;}
	.st5{fill:#272A2B;}
</style>
<g id="icons">
	<g class="st0">
		<path class="st1" d="M-275,396l-7-5v10c0,0.6,0.4,1,1,1h12c0.6,0,1-0.4,1-1v-10L-275,396z"/>
		<polygon class="st2" points="-268,391 -282,391 -275,396 		"/>
	</g>
</g>
<g id="hover_states" class="st3">
	<g class="st4">
		<path class="st5" d="M-275,412c8.3,0,15-6.7,15-15s-6.7-15-15-15s-15,6.7-15,15S-283.3,412-275,412"/>
	</g>
	<g class="st4">
		<path class="st1" d="M-275,396l-7-5v10c0,0.6,0.4,1,1,1h12c0.6,0,1-0.4,1-1v-10L-275,396z"/>
		<polygon class="st2" points="-268,391 -282,391 -275,396 		"/>
	</g>
</g>
</svg>
