<?xml version="1.0" encoding="utf-8"?>
<!-- Generator: Adobe Illustrator 19.1.0, SVG Export Plug-In . SVG Version: 6.00 Build 0)  -->
<svg version="1.1" id="Layer_1" xmlns="http://www.w3.org/2000/svg" xmlns:xlink="http://www.w3.org/1999/xlink" x="0px" y="0px"
	 viewBox="-290 382 30 30" style="enable-background:new -290 382 30 30;" xml:space="preserve">
<style type="text/css">
	.st0{opacity:0.8;}
	.st1{opacity:0.8;fill:#EFEFE9;enable-background:new    ;}
	.st2{fill:#EFEFE9;}
	.st3{display:none;}
	.st4{display:inline;}
	.st5{fill:#272A2B;}
</style>
<g id="icons">
	<g class="st0">
		<path class="st1" d="M-277.1,400.9c-0.8,0.6-1.9,0.5-2.4-0.2c-0.5-0.7-0.2-1.8,0.6-2.4l1.5-1.1l0.9-0.6l0.3-0.2
			c0.4-0.3,1-0.4,1.4-0.4c0.3,0,0.6,0.2,0.8,0.4c0.1,0.3,0.3,0.6,0.7,0.6c0.5,0.1,0.9-0.2,1-0.7c0-0.2,0-0.4-0.1-0.5v-0.1
			c-0.1-0.2-0.3-0.3-0.4-0.5c-0.3-0.2-0.6-0.4-0.9-0.5c-0.7-0.3-1.5-0.4-2.2-0.2c-0.4,0.1-0.9,0.3-1.3,0.6h-0.1l-2.6,1.9
			c-1.6,1.1-2.1,3.2-1,4.7c1,1.5,3.2,1.8,4.8,0.6l2.6-1.8c-0.7,0-1.4-0.2-2.1-0.6L-277.1,400.9z"/>
		<path class="st2" d="M-267.6,392.3c-1-1.5-3.2-1.8-4.8-0.6l-2.6,1.8c0.7,0,1.4,0.2,2.1,0.6l1.5-1.1c0.8-0.6,1.9-0.5,2.4,0.2
			c0.5,0.7,0.2,1.8-0.6,2.4l-1.4,1.1l-0.9,0.6l-0.3,0.2c-0.4,0.3-1,0.4-1.4,0.4c-0.3,0-0.6-0.2-0.8-0.4c-0.1-0.3-0.3-0.6-0.7-0.6
			c-0.5-0.1-0.9,0.2-1,0.7c0,0.2,0,0.4,0.1,0.6l0,0l0,0l0,0c0.1,0.2,0.3,0.3,0.4,0.5c0.3,0.2,0.5,0.4,0.9,0.5
			c0.7,0.3,1.5,0.4,2.2,0.2c0.4-0.1,0.9-0.3,1.3-0.6h0.1l2.6-1.8C-267,395.9-266.5,393.8-267.6,392.3z"/>
	</g>
</g>
<g id="hover_states" class="st3">
	<g class="st4">
		<path class="st5" d="M-275,412c8.3,0,15-6.7,15-15s-6.7-15-15-15s-15,6.7-15,15S-283.3,412-275,412"/>
	</g>
	<g class="st4">
		<path class="st1" d="M-277.1,400.9c-0.8,0.6-1.9,0.5-2.4-0.2c-0.5-0.7-0.2-1.8,0.6-2.4l1.5-1.1l0.9-0.6l0.3-0.2
			c0.4-0.3,1-0.4,1.4-0.4c0.3,0,0.6,0.2,0.8,0.4c0.1,0.3,0.3,0.6,0.7,0.6c0.5,0.1,0.9-0.2,1-0.7c0-0.2,0-0.4-0.1-0.5v-0.1
			c-0.1-0.2-0.3-0.3-0.4-0.5c-0.3-0.2-0.6-0.4-0.9-0.5c-0.7-0.3-1.5-0.4-2.2-0.2c-0.4,0.1-0.9,0.3-1.3,0.6h-0.1l-2.6,1.9
			c-1.6,1.1-2.1,3.2-1,4.7c1,1.5,3.2,1.8,4.8,0.6l2.6-1.8c-0.7,0-1.4-0.2-2.1-0.6L-277.1,400.9z"/>
		<path class="st2" d="M-267.6,392.3c-1-1.5-3.2-1.8-4.8-0.6l-2.6,1.8c0.7,0,1.4,0.2,2.1,0.6l1.5-1.1c0.8-0.6,1.9-0.5,2.4,0.2
			c0.5,0.7,0.2,1.8-0.6,2.4l-1.4,1.1l-0.9,0.6l-0.3,0.2c-0.4,0.3-1,0.4-1.4,0.4c-0.3,0-0.6-0.2-0.8-0.4c-0.1-0.3-0.3-0.6-0.7-0.6
			c-0.5-0.1-0.9,0.2-1,0.7c0,0.2,0,0.4,0.1,0.6l0,0l0,0l0,0c0.1,0.2,0.3,0.3,0.4,0.5c0.3,0.2,0.5,0.4,0.9,0.5
			c0.7,0.3,1.5,0.4,2.2,0.2c0.4-0.1,0.9-0.3,1.3-0.6h0.1l2.6-1.8C-267,395.9-266.5,393.8-267.6,392.3z"/>
	</g>
</g>
</svg>
