<?xml version="1.0" encoding="utf-8"?>
<!-- Generator: Adobe Illustrator 19.1.0, SVG Export Plug-In . SVG Version: 6.00 Build 0)  -->
<svg version="1.1" id="Layer_1" xmlns="http://www.w3.org/2000/svg" xmlns:xlink="http://www.w3.org/1999/xlink" x="0px" y="0px"
	 viewBox="-507 343 502 108" enable-background="new -507 343 502 108" xml:space="preserve">
<g>
	<path fill="#FFFFFF" d="M-446,413.6c-0.5-0.4-1.1-0.6-1.6-0.8c0.4-0.3,3.8-1.8,3.9-1.3C-443.7,412.1-445.4,413.1-446,413.6
		 M-449.4,421.1c-0.7,0.4-1.1,0.2-1.4-0.2l0-0.1c5.8-3,6.4-3.5,7.3-2.9L-449.4,421.1z M-452.5,413.8c-0.3,0.1-1.1-0.3-0.8-0.4l2-0.7
		c1.1-0.4,1,0.2,0.5,0.5L-452.5,413.8z M-471.4,421.1l2.1-1.4c-0.5-0.3-1.6-0.3-2.8,0.6L-471.4,421.1z M-485.3,407.5
		c-1,0.1-1.3,1.3-1.3,1.9l1.4-0.1L-485.3,407.5z M-463.5,424.4c-5.3,1.4-16.2,6.3-22.9,10.2l0.1,0.4l24.4-10L-463.5,424.4z
		 M-490.6,415.6c-0.6,1.9-1.7,3.7-0.3,4.2l1.5-4L-490.6,415.6z M-453.5,419.9c-2,1.6-3.6,2.1-4.6,2c-1.2,0.1-1.5-0.1-1.7-0.4
		c-1.7,1.9,1.3,3.2,8,0c0.5-0.1,1.3,0.1,0.9,0.3c-1.9,1-5.9,3.6-7.3,3.7c-2.3,0.2-4,0.9-6.1,1.7c-6.2,2.7-16,7.2-23.1,10.6
		c-1.3,0.6-3.2,2.8-4.5,2.9c-1.2,0.3-3.7,0.7-5,0.8c-0.8,0.1-1.4-0.4-1.8-1l-2.3,0.2c-1.6-1.4-3.5-4.4-4.9-4.3l-1.2,0.1
		c0.5-17.9,16.7-46.3,25.1-58.8l-0.1-1.6c5.6-0.4,8.9,3.9,9.2,8.8c0.1,1.2-4.3,13.1-5.8,16.5c-1.1,2.2-4.1,5.4-5.6,8
		c-0.8,1.4-1.2,4-1.9,5.5c-1,2.1-4.3,4-2.9,6.9c6.7-2.6,8-2.9,8.8-3.1c1.1-0.4,2.4-0.8,3.7-0.9c1.6-0.1,3.2,0.3,4.1,1.6
		c0.5-0.5,4.4-2.4,4.9-2.5c1.4-0.1,1.5,0.4,3,0.3c1.3-0.1,6.4-2.2,9.8-3.4c0.1,0.2,0.5,0.4,1.2,0.4l0,0.1c-3.1,1.2-7.1,2.5-9.6,4.3
		l1,0.5c3-1.3,9.2-4.6,12.7-5.6c1.2,0.3,2.7,1.1,2.8,1.3c1.5-0.7,4-2.3,4.1-1.6C-442.2,414.8-448.4,418.2-453.5,419.9"/>
	<path fill="#FFFFFF" d="M-433.2,431.2l-0.9,2.8c-0.1,0.3,0.3,1.3,0.8,0.2l1.2-3.6C-433.7,429.3-433.2,430.8-433.2,431.2
		 M-412.5,389.3l-1.1,0.1c-2.5,4-3.6,11.2-8,14l0.5,1.2l-3.8,2.5c-3.5,5.9-4.8,13-6.6,18.9c-0.2,0.8-1.4,2.5-0.1,2.8
		c0.3,0.1,0.9-2.1,0.9-2.4c2-5.4,3.1-13.4,6.5-17.8c1.4-0.6,0.5,0.7,0.3,1c-3.1,6.2-4.3,13.2-6.8,20.4c-1.7,4.9-2.1,9.3-1.4,11.2
		c-1.9-0.5-3.5-1.1-5.2-1.9l-0.2-3.2c-0.7,0.7-0.9,1.4-0.9,2.5c-2.4-1.5-4.5-3.7-6.1-7.2c-1.3-18.1,15.7-44.2,22.1-58
		c0.5-0.8,1.8-1.5,2.9-1.6c1-0.1,2,0.3,3.2,0.5l0.2,2.4c2.1,0.7,3.8,2.9,4,5.1C-412,382.6-412.2,386.2-412.5,389.3"/>
	<path fill="#FFFFFF" d="M-345.5,369.8c0.3-0.4,0.8-0.8,1.2-0.8c0.3,0,0.6,0.1,0.9,0.5c-0.5,0.3-1,0.8-1.9,2c-0.2-0.3-0.6-0.3-1-0.2
		C-346.2,370.9-345.9,370.4-345.5,369.8 M-352.3,382l-2,2.3c-1.2,0.7-0.7,2.2,0.6,1.1c1.3-1.2,2.1-2.7,2.4-3.3
		C-351.9,382.3-352.2,381.7-352.3,382 M-355.6,391.7l-1-0.7c0.3-1,1-1.4,1.6-1L-355.6,391.7z M-362.4,392.2c0.6,0.5,1.3,0.5,1.7,0.5
		c1-0.2,1.5-1.3,1.5-2.6L-362.4,392.2z M-366.6,399.6l0.7,1.2c1.6-1.9,1.4-3.1,0.7-3.5L-366.6,399.6z M-396.5,403.5l-0.3,1.8
		l1.1,0.3C-395.7,404.7-394.9,403.4-396.5,403.5 M-396.9,406.4c0,0.8,0.3,1.6,1,1.5l0.1-1.6L-396.9,406.4z M-343.4,371.7
		c0.6-0.4,1.3-0.4,1.4,0.1c-4.7,4.5-7.7,13.2-12.8,17c-4.2-0.2-2.7,4.7-4.5,5c-1.4,0.1-2,2.2-2.9,3.6c-7.1,11.6-20.6,26.2-30.9,39.1
		l-6.4-1.7c-1.9-2.9-5-5.5-5.4-9.6c-0.6-5.7-1.1-38.9-1.1-44.9c-0.1-2.3-2.6-6.1-0.4-8.1c8,2.6,11.7,9.8,12.7,18.2
		c-1,3.5,1.3,6,1.2,8.9l-1.1,0.3c-0.3,3.2-0.8,6.3-1.5,9.3l1.9,4.3c9.3-9.8,16.8-20.2,24.1-31.6c4.2-0.1,2.9-3.9,8-3.8l3.6-4.5
		c0.7-1,2.3-0.9,2.7,0c-1,1.6-5,6.6-8.8,10.5c-0.4,0.4,0.2,0.7,1,0.3c3.6-3.4,9.5-10.5,10.7-12.4c1.3,0,2.3-2.8,4.3-1.4
		c-1,1-2.8,2.8-2.4,4.5c0.9-1.3,2.3-3,3.4-2.8l0.3,0.1c-1.4,1.8-3.7,5.3-5.1,8.1l0.7,0.2C-348.8,378.3-346.2,374.4-343.4,371.7"/>
	<path fill="#FFFFFF" d="M-311.3,377.8l0.4,1.2l1.8-0.9C-309.3,377.5-310.7,377.5-311.3,377.8 M-317.9,419.1c-2.7,2.3-6.1,4-7.4,2.1
		c4.6-1.3,9.1-3.2,12.7-4.9c0.4-0.2,0.5,0.1,0.3,0.4C-313.5,418.2-316,419.1-317.9,419.1 M-333.2,389.8l-1.5,2.9l1.3-0.4l1.5-2.9
		L-333.2,389.8z M-337.3,396.9l1.3-0.3l0.8-2.4C-335.9,394.3-337.1,395.8-337.3,396.9 M-342,411.9L-342,411.9
		c0.6-0.9,1.4-1.7,1.7-2.8c-1.3,0-1.7,0.6-1.8,1.6L-342,411.9z M-342.2,412.6l-0.8,3.8l0.8,0.9l1.1-4.8L-342.2,412.6z M-343.4,418.5
		c-0.3,1.8-0.3,3.2,0.6,3.7l0.3-2.8L-343.4,418.5z M-303.2,380.3c-8.9,4.8-18.2,5.7-26.9,8.9c-1,1.9-2.2,4.3-3.8,7.1
		c4-0.7,12.1-4.7,15-4.9c2.9-0.2,3.9,0.7,6.3,4.2c-0.3,1.1,0.2,2.1,1.3,2.5l-0.5,2.3c-6.1,1.4-20.9,4.9-25.8,7.5
		c-2.5,1.3-4.1,12.5-4,14.9c3.3,2.1,7.9,0.8,10.8-0.1l0.7,1c0.7,0,1.6-0.7,1.5-1.3c1.5-0.3,2.2,2.1,3.6,1.6c6.4-2.3,14-5.4,18.9-7.4
		c0.3-0.1,0.7-0.3,0.8,0c0.2,0.5-1.2,1.3-2,1.8l-6.7,3c0.6,0.4,1.8,1,2.5,1.3c0.3,0.1,0.1,0.3-0.2,0.4c-4.9,2.1-11,4.2-16.6,6
		c1.6,0.6,3.8,0.4,5.7-0.2c4-1.4,9.4-3.7,14.2-5.8c0.3-0.1,1-0.5,0.5,0.6c-0.5,1.1-1.3,1.8-2.7,2.4c-6.4,3-14.6,6.6-20.8,7
		c-11.8,0.8-20.5-3.9-21.2-18.7c-0.3-7.5,5.2-17.1,11.5-33c-0.7-2.5-0.7-4.9,0.9-7.8c5.1,0.3,7.5-7.7,11-8c1.9-0.1,7.4,1,8.7,1.3
		c0.3,2.2-0.1,4.6-1.3,7.4c1.7,0.3,6.6,0.4,8.8,0.3l1,1.9c0.5,0,1.4-0.7,2.5-0.8c1.1-0.1,3.6,0.8,5,0.9c0.2,0,0.4,0.2,0.2,0.4
		c-3.8,3.9-6.8,1.9-5.8,4.9c2.9-1.4,5.4-2.3,8.1-3.8c0.4-0.2,0.9-1,1.1-0.4C-300.5,378.7-302.3,379.5-303.2,380.3"/>
	<path fill="#FFFFFF" d="M-199.1,413.9l-1.1-1.1l2.7-0.6l1.4,0.5L-199.1,413.9z M-210.4,409.2c4-1,8.2-2.1,11.2-2.5
		c-0.4,1.7-3.8,2.6-6.8,2.8C-207.9,409.6-209.6,409.5-210.4,409.2 M-206.6,418.8c-1.8,1.2-3.7,2.5-5.4,2.6c-0.5,0-1,0-1.4-0.2
		c1.9-0.9,4.5-1.6,6.8-2.5L-206.6,418.8z M-217.8,423l3.2-1.3c1.3,0.8,0.2,1.5-1.3,1.6C-216.4,423.3-217.1,423.2-217.8,423
		 M-225.2,393.8c2-2.3,1.9-2.7,1.9-3.1c-1,0.1-1.8,1.1-2.9,2.5L-225.2,393.8z M-226.6,393.9l-0.5,1.1l0.7,0.6l0.7-1.1L-226.6,393.9z
		 M-230.4,400l-1.1,2c-0.4,0.7-1.3,2.4-0.8,3.3l2.8-4.9L-230.4,400z M-234.1,406.8l-0.6,1.5l0.7,0.8l1-2.3L-234.1,406.8z
		 M-236.8,390.3l1,0.5l0.7-1.5C-235.8,389.1-236.3,389.3-236.8,390.3 M-237.1,391l-1.2,2.4l1,0.6l1.2-2.2L-237.1,391z M-208.3,378.3
		c-2.8,2.3-4.8,4.9-6,6.1l-0.7-1c-1,1.9-4.6,5.2-7.2,7.9c-0.1,0.5-0.3,1.6-0.6,2.2c-1.7,2-10.9,14.2-10.5,19.2
		c0.1,1.2,0.6,1.9,1.7,1.8c3.6-0.3,11.8-3.3,17.8-4.6c1.4-0.3,2.5,0.2,3.1,0.8c-4.8,1.3-11.5,3-12.5,5.1c2,1.1,5.3,0,6.7-1.6
		c5.3-1.4,11.9-3.3,17-4.3l1.6,0.3l2.4-0.5l1.2,0.6l-5.2,1.2c-1.3,0.3-2.7,0.8-1.7,2l0.8,1c-0.9,0.5-11.8,4.6-18.3,7.2
		c-1.1,0.5-1.7,1.5-1.1,2.2c-2.1,0.7-5.2,1.8-7.6,1.9c-1.1,0.1-2.1-1.5-3.1-1.4c-2.4,0.2-3.2-2.3-6.4-1.7c-1.9-1.6-6.2-7.8-7.1-9.2
		c-0.6-0.8-0.9-2.3-0.9-3.4l-0.2-2.7c1.5-1.5,1.5-3.6,1.3-5.8l1.1,0.5c0.6-1.2-0.3-2.5,0.1-3.7c1.8-4.4,5.4-11.4,6.7-11.5
		c1.3-0.1-0.5,1.6,0.9,1.5c1.1-0.1,2.9-5.5,4-5.5l1.2-0.1c-0.4-0.7-0.5-1.9-0.7-2.8l0.7,0c2.2-6.5,20.6-19.3,24.2-19.5
		c1.2-0.1,3.7,0.9,5.3,1.6c1.6,3.2,4.6,5.6,4.2,9.8C-200.2,373.1-205,375.5-208.3,378.3"/>
	<path fill="#FFFFFF" d="M-143.8,397.8l-3.6,8.3c1.2-0.2,2-2,2.5-3.3l2.3-5.7C-143,397-143.7,397.3-143.8,397.8 M-148.6,413.1
		c-0.2,0.4-0.5,0.4-0.5,0.1l-0.2-1.1l1.4-2.3c0.2-0.3,0.5-0.5,0.7-0.4l0.3,0.3L-148.6,413.1z M-153.1,417.3l-0.9,2.1l0.7,0.8
		l1.5-3.5C-152.1,416.7-152.8,416.7-153.1,417.3 M-161.7,405.7l1.1,0.3c-0.4,2.8-1.8,3.8-2,3.8L-161.7,405.7z M-175.4,403.5l0.9,0.2
		l0.9-3.1C-174.5,400.7-175,402.2-175.4,403.5 M-147.7,414.6c1.4,0.6-0.2,3.8-1.2,6c-1.3,2.9-2.4,8.6-4,8.7
		c-2.8-1.4-9.1-4.9-9.4-9.4c-0.4-6,3.4-15.5,6-21.3l-0.6-0.9c-2.4,0.2-11,2-11.9,2c-0.3-0.4-0.9-0.7-1.4-0.6
		c-1.6,0.1-2.3,1.4-2.8,2.9c-1.6,4.8-4,16.9-4.7,21.6c-2.1,0.1-2.7-0.9-4-2.1c0,0-0.1,0.1-0.2,0.1c-0.1,0.1-0.2,0.1-0.3,0.1l-0.5,0
		c-0.4,0-0.7-0.2-1.1-0.2l0.4-1.2c-6.3-3.5-3.3-7.5-2.6-15.4c-2.4-0.3-5.6,0.3-8.2,0.5c1-2.1,3.1-2.6,4.8-3.7l-1.7-0.8l5.7-2.8
		c0.5-1.6,1.3-2.3,1.9-3.8c1.6-3.5,1.9-8.1,3.4-11.7c4.1-9.3,9.8-19.5,12.3-27.6c0.4-0.3,0-0.8,1.4-0.9c5.3-0.4,5.2,2.8,8.3,5.3
		c0.3,3.4,1.2,5.8,0.1,11l-0.7,0c-0.8,3.3-4.1,8.5-5.9,13.1c-1.9,1-2.9,3.1-2.8,5l2.1-0.8c2.6-3.5,6.6-4.2,10.5-4.5
		c1.3-0.1,3.4,0.4,4.9,0.8c5.7-8.2,9-17.4,13-26.6c0.4-0.7,1.2-1.3,2.2-1.4c3.5-0.2,5.2,4.8,5.5,8.6c0.2,2.3,0.1,5.1-1.5,6.4
		c-0.1,2.8-0.9,5.6-3.1,7.1c0.9,1.9-1.9,5.8-3.2,8.6c-1.3-0.3-3,1.2-3.6,2.5c-0.6,1.3-1.7,3.7-2.4,5.6c-0.2,0.4,0.7,0.9,1.1-0.2
		l1-2.6c0.4-1,1.3-1.9,2.2-1.9c-2.8,6-3.9,11.9-7.5,17.8l-1.1-0.3c-0.4-0.2-1.3,0.5-1.6,1.1c-0.4,0.7-1.1,2-1.8,3.5
		c-0.8,1.5,0.3,3.8,0.4,4.8c-0.6,1.3-2,2.4-1.9,3.7C-151.2,422.5-149.6,419.4-147.7,414.6 M-195.1,405.7l-1.9,0.5
		c0-0.3,1.2-1.4,2.1-2.3c0.2-0.2,0.5-0.2,0.3,0.2L-195.1,405.7z"/>
	<path fill="#FFFFFF" d="M-90.1,369L-91,369l0.6-2.8l0.9-0.5L-90.1,369z M-92.1,381.6l-0.4-0.1l-0.3,1.1l0.9-0.1L-92.1,381.6z
		 M-92.9,383.3c-0.3,1.2,0.4,1.2,1.1,1l0-1.1L-92.9,383.3z M-94.4,407.8l-0.3,1.3l0.6,0l0.3-1.6L-94.4,407.8z M-103.9,398.2l0-0.1
		c-2.2,0.3-3.1,0.5-3.4,2.2C-106.5,399.7-105,399-103.9,398.2 M-88.7,362.9c-1.9,0.2-6.1,6.2-10.1,12.2l-0.5-0.5
		c0.2-0.8,0.5-1.5,0.1-1.8c-1.5,1.9-2.1,2.9-1.1,4.7c-1.4,2.1-2.7,4-3.9,5.7c-1.7,2.4-4.1,7-6.2,10.5c1.9-1.3,3.3-3.6,7.2-5.6
		c3.4-1.8,5.5-2.3,9.1-3.6c0.1-2.6,1-4.6,1.3-6.1l1.8,1.4c1-3.2,1.8-11.5,2.6-16.1L-88.7,362.9z M-110.9,399.1
		c-0.8,0.4-1.4,0.5-2.1,0.9l-1.1,1.8C-113.6,401.5-111.4,400.5-110.9,399.1 M-114.9,403.6c-0.5,0.7-0.6,1.2-1,1.9l7.4-4.6
		C-109.9,400-113.1,402.5-114.9,403.6 M-83.5,393.3c-0.7,1.8-0.1,6.2-2,8.3c1.5,0.7,0.8,3.3-0.4,4.6c0.7,1.5,1.2,2.6-0.7,5.5
		c-0.1,0.4,0.9-0.2,1.1-0.4c0,3.4-0.6,6.2-1.4,9.3c-3.1,0.2-6.2-2.6-7.7-1.9c0-2-0.4-2.8-1.8-2.7l0-1.4c0.5,0,0.9-0.4,0.9-1.1
		c-0.5,0-0.9-0.2-1-0.9c0-2.3,1-5.3,1.4-8.4c0.7,0,0.8,1.3,0.8,2.8c0.7,0,1.5-4.3,1.6-6.6L-94,400c0,1.6,0.2,3.8-1.1,3.4
		c0.2-1.4,0.3-5,0.5-6.2l1.9,2c-0.2-1.2,0.3-1.5,0-3c-5.8,0.2-20.4,9.4-24.7,12.9l-0.4,1.3l0.5,1.2c-1.5,3.6-2.7,7.9-4.2,10.1
		l-6.5-2.3c-0.5-3.1-4.9-4.1-4-6.8l-1.6,0.1c1.2-15.4,16.8-32.9,25.4-46.2c4.3-6.6,8.7-11.1,12.4-14.5c0.7-0.7,3.6,0.2,3.6-1.8
		c1.3,0.3,4.2,1.3,5.8,2.4l-1.8,0.7c0,1.7,2.4-0.4,2.9,0c4,3,2.2,8.6,4.3,11.3c0.1,0.5,0.5,9.2-0.9,10.2c0.2,0.2,0.3,0.2,0.6,0.4
		c-0.4,2.3-1,5.2-1.1,8.1c0,1.2,4.1,4.4,4.1,8.8C-79.9,392.5-81.8,393-83.5,393.3"/>
	<path fill="#FFFFFF" d="M-44.7,380.6l-0.9,1.9l0.7,0.7l0.7-1.9L-44.7,380.6z M-33.8,353.5c6.6-1.9,13.9-4,18.5-4.9
		c4.4,0.8,8.1,2.4,9.6,5.9c-1.6,1.6-0.5,4.2,0.5,5.6c-0.5,0.3-1,0.6-1.6,0.8l-0.2-0.6c-0.6-0.3-1.1-0.3-1.4-0.3
		c-0.4,0-0.7,0.4-0.7,0.8c0,0.3,0.1,0.6,0.3,0.8c-6,1.6-14.9,1.4-23,5.7l-1.4,0.1l-0.1-1.1c-0.9,0-1.6,0.5-2.1,1.4
		c-3.4,0.6-4.4,2-6.1,8.5c-0.2,0.9-1.4,2.2-1.9,2.8l0.9,0.4c-0.4,2.1-1.6,6.3-2.6,6.3c-1.1,0-0.2-2.1-0.8-2c-1.1,0.3-1,2.5-1.4,4.1
		c0.6,1.3,0.8,2.1,0.8,2.9c-0.4,1.3-0.8,3.6-1.5,3.6c-1,0.1-0.5-1.9-1-2.7c-0.8,2-1.4,3.8-1.9,5.6l0.8,0.4c0.4-0.9,0.9-1.3,1.8-1.1
		c-1.5,5.4-2.9,10.7-3.7,15.3c-2.4,0.4-4.8,0.2-6.6,0l0.3-1.1c-2.7-0.7-2.7-4.2-3.4-8.1c-0.4-0.5-0.9-1.4-1-2.1
		c-0.2-2.5,4.5-17.8,8.8-29.7l-7.9,0.6c-4.4,0.3-4.6,1.7-7.9,1.2c-1.7-2.2-3.8-6.5-4-9.5c-0.1-1.2,0.2-2.3,1.2-3.4
		c4,0.1,13.4-0.1,19.4-1.8c10-2.8,4.9-12.1,14.3-12.7L-33.8,353.5z"/>
	<path fill="#FFFFFF" d="M-292.2,432c-0.4-0.1-0.8,0.1-1,0.6l-2,5.2C-294.3,437.7-294.1,437.1-292.2,432L-292.2,432z"/>
	<path id="bolt" fill="#EFA413" d="M-264.9,379.9l-1.5-0.1l4.5-8.2C-261.9,371.6-262.9,375.8-264.9,379.9 M-265.8,381.6
		c-2.6,4.5-1.9,0.6-1.9,0.6l0.6-1.1l1.4,0.4C-265.7,381.5-265.8,381.6-265.8,381.6 M-276.7,418.6l-2.4-0.7l1.9-4.6
		C-277.1,413.3-275.2,415.1-276.7,418.6 M-283.6,428.6l4-9.7l2.3,0.8C-279.4,423.7-283.1,428.5-283.6,428.6 M-287.4,409.7
		c-0.4,0.1-1,0.2-1.5,0.3l0.4-0.8c1.7-0.2,7.1-0.8,6.2-0.5C-283.5,409-283.8,409.1-287.4,409.7 M-290.4,410.2
		c-1.1,0.2-2,0.3-1.9,0.1c0.3-0.4,1.3-1.4,1.7-2.5c0,0,1.7-3.2,1.5-2.4c-0.1,0.4-0.2,1.4-0.2,2.3L-290.4,410.2z M-289.2,438.9
		c-0.1,0.4-4.1,5.8-4.4,5.5c-0.3-0.4,0.5-3,1.3-4.2c0.8-1.1,0.7-1,1.2-1.5c0.5-0.4,2.3-2.2,2.6-2.1
		C-288.2,436.6-289.3,438.3-289.2,438.9 M-250.6,343.8c0-0.1,0-0.3,0-0.3c0-0.2-1.2,1.8-1.3,1.8c-0.2-0.2-0.7,0.6-1.2,1.4
		c-0.2,0.2-0.5,0.5-0.7,0.6c-0.5,0.8-2.3,3.4-2.4,3.7c0,0.9-2.7,4.8-2.8,5c-0.1,0.2-1,1.5-1.3,1.7c-0.3,0.7-0.5,1.3-1,1.8
		c-0.2,0-4.4,6.1-4.9,6.3c-1,1.7-4.2,6.7-4.2,6.8c-0.8,1.1-1.4,2.4-2.3,4.2v-0.3c-0.5,0.6-1.2,1.7-1.7,2.4c0,0.3-7.5,11-7.5,11
		s-3.3,5.8-4.3,6.6c-0.7,1.8-2.2,3.7-3.1,5.6c-0.7,2.5-2.4,4.6-3.7,6.8c-0.7,1.3-1.7,2.3-2.4,3.5c0,0.4,0.2,0.7,1.4,0.7
		c0,0,5-1.1,4.8-1c0.5-0.3,4.6-1.3,5.2-1.5c-0.2,0.2,1.1,0.9,1.2,1c0,0.1-0.3,0.9-0.5,1.2c-0.1-0.2-1.7,3-1.9,3.8
		c-0.4,0.4-3.3,7.3-4.7,8.6c-0.8,0.8-1.7,3.8-2.4,5.4c-0.1,0.4,0.5,0.8,0.7,0.5c1.2-2.6,8-8.7,8-8.5c-0.5,2.2-8.1,14.4-8.1,14.6
		c1.2-1.8-5.9,9.7-5.7,12.6c0,0,0.4,0.4,0.4,0.6c0.4-0.3,2.2-2.3,2.2-2.3c2-1.2,6.4-6.9,6.9-10c0,0,2.2-2.7,3.1-3.8
		c0.3-0.5,0.4-1.6,0.4-1.6c0.1-0.3,6.1-8.2,6.1-8.2c0.3-0.4,0.6-0.9,1-1.6c1.2-2,4.2-6.2,4.2-6.2c1.1-1.7,12.6-19.4,12.9-20.5l0,0.1
		l0.9-1.9c0.6-0.8-0.1,0.6,0.4,0.1c1.4-3.7,6.6-9.5,6.6-9.5c0.2-0.7,0.4-0.6,0.5-1.1c0.6-1,1.3-2.1,2-3.2
		c-2.2,0.4-13.1,1.5-14.7,2.7c-0.1,0.1-0.5,0.3-0.7,0.4c0.1-0.9,1.9-5.9,1.5-4.4c0,0.2,1.4-3.2,1.5-3.4c1.9-3.8,6.6-16.6,6.9-17.3
		c0.6-0.6,1.2-1.7,1.6-3.4c1.9-3,2.9-8.7,3.2-11.1l-7.1,14.1l-1.7,0.7l6.8-12.2C-252.6,347.2-251.3,344.9-250.6,343.8"/>
</g>
</svg>
