<?xml version="1.0" encoding="utf-8"?>
<!-- Generator: Adobe Illustrator 19.1.0, SVG Export Plug-In . SVG Version: 6.00 Build 0)  -->
<svg version="1.1" id="Layer_1" xmlns="http://www.w3.org/2000/svg" xmlns:xlink="http://www.w3.org/1999/xlink" x="0px" y="0px"
	 viewBox="111 379.8 173 36" enable-background="new 111 379.8 173 36" xml:space="preserve">
<g>
	<path fill="#FFFFFF" d="M132.7,399c-0.2-0.1-0.3-0.2-0.5-0.3c0.1-0.1,1.3-0.5,1.3-0.3C133.5,398.5,132.9,398.8,132.7,399
		 M131.4,401.4c-0.2,0.1-0.4,0-0.5-0.1v0c2-0.9,2.3-1,2.5-0.8L131.4,401.4z M130.5,398.8c-0.1,0-0.4-0.1-0.3-0.2l0.7-0.2
		c0.4-0.1,0.3,0.1,0.2,0.2L130.5,398.8z M123.9,400.9l0.8-0.4c-0.2-0.1-0.6-0.1-1,0.1L123.9,400.9z M119.5,395.9
		c-0.3,0-0.5,0.4-0.5,0.6h0.5V395.9z M126.5,402.2c-1.8,0.3-5.6,1.8-8,2.9l0,0.1l8.5-2.8L126.5,402.2z M117.5,398.6
		c-0.2,0.6-0.7,1.2-0.2,1.4l0.6-1.3L117.5,398.6z M130,400.9c-0.7,0.5-1.3,0.6-1.6,0.6c-0.4,0-0.5-0.1-0.6-0.2
		c-0.6,0.6,0.4,1.1,2.7,0.2c0.2,0,0.4,0.1,0.3,0.1c-0.7,0.3-2.1,1.1-2.6,1.1c-0.8,0-1.4,0.2-2.1,0.4c-2.2,0.8-5.6,2.1-8.1,3.1
		c-0.4,0.2-1.2,0.9-1.6,0.9c-0.4,0.1-1.3,0.1-1.7,0.1c-0.3,0-0.5-0.2-0.6-0.4h-0.8c-0.5-0.5-1.1-1.6-1.5-1.6h-0.4
		c0.6-6,6.8-15.3,9.9-19.4v-0.6c1.9,0,2.9,1.5,2.9,3.2c0,0.4-1.8,4.3-2.4,5.5c-0.4,0.7-1.5,1.8-2.1,2.6c-0.3,0.4-0.5,1.3-0.8,1.8
		c-0.4,0.7-1.5,1.3-1.1,2.3c2.3-0.7,2.8-0.8,3.1-0.9c0.4-0.1,0.8-0.2,1.3-0.2c0.6,0,1.1,0.2,1.3,0.7c0.2-0.2,1.5-0.7,1.7-0.7
		c0.5,0,0.5,0.2,1,0.2c0.4,0,2.2-0.6,3.4-0.9c0,0.1,0.2,0.1,0.4,0.2v0c-1.1,0.3-2.5,0.7-3.4,1.2l0.3,0.2c1.1-0.4,3.2-1.3,4.4-1.6
		c0.4,0.1,0.9,0.4,0.9,0.5c0.5-0.2,1.4-0.7,1.4-0.4C133.9,399.4,131.7,400.5,130,400.9"/>
	<path fill="#FFFFFF" d="M136.6,405.2l-0.4,0.9c0,0.1,0.1,0.4,0.3,0.1l0.5-1.2C136.5,404.6,136.6,405.1,136.6,405.2 M144.6,391.5
		h-0.4c-0.9,1.3-1.5,3.7-3.1,4.6l0.1,0.4l-1.3,0.8c-1.3,1.9-1.9,4.3-2.7,6.3c-0.1,0.3-0.5,0.8-0.1,1c0.1,0,0.3-0.7,0.4-0.8
		c0.8-1.8,1.4-4.5,2.6-5.9c0.5-0.2,0.1,0.2,0.1,0.3c-1.2,2-1.8,4.4-2.8,6.8c-0.7,1.6-0.9,3.1-0.8,3.8c-0.6-0.2-1.2-0.4-1.7-0.8v-1.1
		c-0.2,0.2-0.3,0.4-0.4,0.8c-0.8-0.6-1.4-1.4-1.9-2.6c0-6.2,6.4-14.6,8.9-19.2c0.2-0.3,0.7-0.5,1-0.5c0.3,0,0.7,0.1,1.1,0.2v0.8
		c0.7,0.3,1.2,1.1,1.2,1.8C144.9,389.2,144.8,390.5,144.6,391.5"/>
	<path fill="#FFFFFF" d="M167.8,386.5c0.1-0.1,0.3-0.2,0.4-0.2c0.1,0,0.2,0,0.3,0.2c-0.2,0.1-0.3,0.2-0.7,0.6
		c-0.1-0.1-0.2-0.1-0.3-0.1C167.6,386.8,167.7,386.6,167.8,386.5 M165.2,390.4l-0.7,0.7c-0.4,0.2-0.3,0.7,0.2,0.4
		c0.5-0.4,0.8-0.9,0.9-1.1C165.4,390.6,165.3,390.4,165.2,390.4 M163.9,393.7l-0.3-0.3c0.1-0.3,0.4-0.4,0.6-0.3L163.9,393.7z
		 M161.6,393.7c0.2,0.2,0.4,0.2,0.5,0.2c0.3,0,0.6-0.4,0.6-0.9L161.6,393.7z M160,396.1l0.2,0.4c0.6-0.6,0.5-1,0.3-1.2L160,396.1z
		 M149.7,396.7l-0.1,0.6l0.4,0.1C150,397.1,150.2,396.7,149.7,396.7 M149.5,397.7c0,0.3,0.1,0.5,0.3,0.5l0.1-0.5H149.5z
		 M168.5,387.2c0.2-0.1,0.4-0.1,0.5,0.1c-1.7,1.4-2.9,4.3-4.7,5.5c-1.4-0.2-1,1.5-1.7,1.6c-0.5,0-0.7,0.7-1.1,1.2
		c-2.7,3.8-7.6,8.4-11.4,12.5l-2.1-0.7c-0.6-1-1.6-2-1.6-3.4c-0.1-2,0.6-13.2,0.7-15.3c0-0.8-0.7-2.1,0.1-2.8
		c2.6,1.1,3.7,3.6,3.9,6.5c-0.4,1.2,0.3,2.1,0.2,3.1l-0.4,0.1c-0.2,1.1-0.4,2.1-0.7,3.1l0.5,1.5c3.4-3.1,6.2-6.5,8.9-10.1
		c1.4,0.1,1.1-1.3,2.8-1.1l1.3-1.4c0.3-0.3,0.8-0.2,0.9,0.1c-0.4,0.5-1.9,2.1-3.2,3.4c-0.1,0.1,0.1,0.2,0.3,0.1
		c1.3-1.1,3.5-3.3,3.9-4c0.4,0,0.9-0.9,1.5-0.4c-0.4,0.3-1,0.9-0.9,1.5c0.3-0.4,0.9-1,1.2-0.9l0.1,0c-0.5,0.6-1.4,1.7-1.9,2.6
		l0.2,0.1C166.5,389.3,167.5,388,168.5,387.2"/>
	<path fill="#FFFFFF" d="M179.2,390l0.1,0.4l0.6-0.3C179.9,389.9,179.4,389.9,179.2,390 M176,403.9c-1,0.7-2.2,1.2-2.6,0.6
		c1.6-0.3,3.2-0.9,4.4-1.4c0.1-0.1,0.2,0,0.1,0.1C177.6,403.7,176.7,403.9,176,403.9 M171.5,393.6l-0.6,1l0.4-0.1l0.6-1L171.5,393.6
		z M170,395.9l0.4-0.1l0.3-0.8C170.5,395,170.1,395.5,170,395.9 M168,400.8L168,400.8c0.2-0.3,0.5-0.5,0.7-0.9
		c-0.4,0-0.6,0.2-0.7,0.5V400.8z M167.9,401.1l-0.4,1.3l0.2,0.3l0.5-1.6L167.9,401.1z M167.4,403c-0.1,0.6-0.2,1.1,0.1,1.3l0.2-0.9
		L167.4,403z M181.9,391c-3.1,1.4-6.3,1.5-9.3,2.4c-0.4,0.6-0.9,1.4-1.4,2.3c1.4-0.1,4.2-1.3,5.2-1.3c1,0,1.3,0.3,2,1.6
		c-0.1,0.4,0,0.7,0.4,0.9l-0.2,0.8c-2.1,0.3-7.2,1.2-8.9,1.9c-0.9,0.4-1.7,4.2-1.7,4.9c1.1,0.8,2.7,0.4,3.7,0.2l0.2,0.3
		c0.2,0,0.6-0.2,0.6-0.4c0.5-0.1,0.7,0.8,1.2,0.6c2.2-0.6,4.9-1.5,6.6-2.1c0.1,0,0.2-0.1,0.3,0c0.1,0.2-0.4,0.4-0.7,0.6l-2.3,0.9
		c0.2,0.1,0.6,0.4,0.8,0.5c0.1,0,0,0.1-0.1,0.1c-1.7,0.6-3.8,1.2-5.8,1.6c0.5,0.2,1.3,0.2,1.9,0.1c1.4-0.4,3.3-1,4.9-1.6
		c0.1,0,0.3-0.1,0.2,0.2c-0.2,0.3-0.5,0.6-1,0.8c-2.2,0.9-5.1,1.9-7.2,1.9c-4,0-6.9-1.8-6.7-6.8c0.1-2.5,2.2-5.7,4.7-10.9
		c-0.2-0.9-0.1-1.7,0.5-2.6c1.7,0.2,2.7-2.4,3.9-2.4c0.7,0,2.5,0.5,2.9,0.7c0,0.8-0.1,1.5-0.6,2.5c0.6,0.1,2.2,0.3,3,0.3l0.3,0.7
		c0.2,0,0.5-0.2,0.9-0.2c0.4,0,1.2,0.3,1.7,0.4c0.1,0,0.1,0.1,0.1,0.1c-1.4,1.2-2.3,0.5-2.1,1.5c1-0.4,1.9-0.7,2.9-1.1
		c0.1-0.1,0.3-0.3,0.4-0.1C182.9,390.6,182.3,390.8,181.9,391"/>
	<path fill="#FFFFFF" d="M216.5,404.9l-0.3-0.4l0.9-0.1l0.4,0.2L216.5,404.9z M212.7,403c1.4-0.2,2.8-0.5,3.8-0.6
		c-0.2,0.6-1.3,0.8-2.4,0.8C213.6,403.2,213,403.2,212.7,403 M213.8,406.4c-0.7,0.4-1.3,0.8-1.9,0.8c-0.2,0-0.3,0-0.5-0.1
		C212.1,406.8,213,406.6,213.8,406.4L213.8,406.4z M209.9,407.5l1.1-0.4c0.4,0.3,0,0.5-0.5,0.5C210.4,407.7,210.1,407.6,209.9,407.5
		 M208.1,397.5c0.7-0.7,0.7-0.9,0.7-1c-0.3,0-0.7,0.3-1,0.8L208.1,397.5z M207.6,397.5l-0.2,0.3l0.2,0.2l0.3-0.3L207.6,397.5z
		 M206.2,399.4l-0.4,0.7c-0.1,0.2-0.5,0.8-0.3,1.1l1.1-1.6L206.2,399.4z M204.8,401.7l-0.2,0.5l0.2,0.3l0.4-0.8H204.8z M204.2,396
		l0.3,0.2l0.3-0.5C204.6,395.6,204.4,395.7,204.2,396 M204.1,396.2l-0.5,0.8l0.3,0.2l0.4-0.7L204.1,396.2z M214.2,392.6
		c-1,0.7-1.8,1.5-2.2,1.9l-0.2-0.3c-0.4,0.6-1.7,1.6-2.6,2.5c0,0.2-0.1,0.5-0.2,0.7c-0.6,0.7-4,4.6-4,6.3c0,0.4,0.2,0.7,0.6,0.7
		c1.2,0,4.1-0.8,6.2-1.1c0.5-0.1,0.9,0.1,1,0.3c-1.6,0.3-4,0.8-4.4,1.4c0.7,0.4,1.8,0.1,2.3-0.4c1.8-0.3,4.1-0.8,5.9-1.1l0.5,0.1
		l0.8-0.1l0.4,0.2l-1.8,0.3c-0.4,0.1-0.9,0.2-0.6,0.7l0.2,0.3c-0.3,0.1-4.1,1.3-6.4,2c-0.4,0.1-0.6,0.5-0.4,0.7
		c-0.7,0.2-1.8,0.5-2.6,0.5c-0.4,0-0.7-0.5-1-0.5c-0.8,0-1-0.9-2.1-0.7c-0.6-0.6-1.9-2.8-2.2-3.3c-0.2-0.3-0.2-0.8-0.2-1.2v-0.9
		c0.6-0.5,0.6-1.2,0.6-1.9l0.3,0.2c0.2-0.4,0-0.9,0.1-1.2c0.7-1.4,2.1-3.7,2.5-3.7c0.4,0-0.2,0.5,0.3,0.5c0.4,0,1.1-1.8,1.5-1.8h0.4
		c-0.1-0.2-0.1-0.7-0.2-1h0.2c0.9-2.2,7.5-6.1,8.7-6.1c0.4,0,1.2,0.4,1.8,0.7c0.5,1.1,1.4,2,1.2,3.4
		C217.1,391,215.4,391.7,214.2,392.6"/>
	<path fill="#FFFFFF" d="M235.6,400.7l-1.4,2.8c0.4,0,0.7-0.6,0.9-1.1l0.9-1.9C235.9,400.5,235.7,400.6,235.6,400.7 M233.6,405.8
		c-0.1,0.1-0.2,0.1-0.2,0l0-0.4l0.5-0.8c0.1-0.1,0.2-0.2,0.2-0.1l0.1,0.1L233.6,405.8z M232,407.2l-0.3,0.7l0.2,0.3l0.6-1.2
		C232.4,407,232.1,407,232,407.2 M229.4,403l0.4,0.1c-0.2,0.9-0.7,1.2-0.8,1.2L229.4,403z M224.8,401.9l0.3,0.1l0.4-1
		C225.1,401,224.9,401.5,224.8,401.9 M233.9,406.4c0.4,0.2-0.2,1.3-0.6,2c-0.5,1-1,2.9-1.5,2.9c-0.9-0.5-3-1.9-3-3.4
		c0-2.1,1.5-5.2,2.5-7.1l-0.2-0.3c-0.8,0-3.8,0.4-4.1,0.4c-0.1-0.1-0.3-0.2-0.4-0.2c-0.5,0-0.8,0.4-1,0.9c-0.7,1.6-1.8,5.6-2.1,7.2
		c-0.7,0-0.9-0.4-1.3-0.8c0,0,0,0-0.1,0c0,0-0.1,0-0.1,0h-0.2c-0.1,0-0.2-0.1-0.4-0.1l0.2-0.4c-2.1-1.3-0.9-2.6-0.5-5.3
		c-0.8-0.2-1.9,0-2.8,0c0.4-0.7,1.1-0.8,1.7-1.1l-0.5-0.3l2-0.8c0.2-0.5,0.5-0.8,0.7-1.2c0.6-1.1,0.8-2.7,1.4-3.9
		c1.6-3.1,3.8-6.4,4.8-9.1c0.1-0.1,0-0.3,0.5-0.3c1.8,0,1.7,1.1,2.7,2c0,1.2,0.3,2-0.2,3.7h-0.2c-0.3,1.1-1.6,2.8-2.3,4.3
		c-0.7,0.3-1.1,1-1.1,1.6l0.7-0.2c1-1.1,2.3-1.3,3.7-1.3c0.4,0,1.1,0.2,1.6,0.4c2.1-2.6,3.5-5.7,5.1-8.7c0.1-0.2,0.4-0.4,0.8-0.4
		c1.2,0,1.7,1.8,1.7,3.1c0,0.8-0.1,1.7-0.7,2.1c-0.1,1-0.4,1.9-1.2,2.3c0.3,0.7-0.8,1.9-1.3,2.9c-0.4-0.1-1,0.3-1.3,0.8
		c-0.2,0.4-0.7,1.2-1,1.9c-0.1,0.1,0.2,0.3,0.4,0l0.4-0.9c0.2-0.3,0.5-0.6,0.8-0.6c-1.1,2-1.6,4-3,5.9l-0.4-0.1
		c-0.1-0.1-0.4,0.1-0.6,0.3c-0.1,0.2-0.4,0.7-0.7,1.1c-0.3,0.5,0,1.3,0,1.6c-0.2,0.4-0.7,0.8-0.7,1.2
		C232.5,409,233.1,408,233.9,406.4 M218,402.2l-0.7,0.1c0-0.1,0.4-0.4,0.8-0.7c0.1-0.1,0.2-0.1,0.1,0.1L218,402.2z"/>
	<path fill="#FFFFFF" d="M254.5,392.2h-0.3l0.3-0.9l0.3-0.1L254.5,392.2z M253.5,396.5l-0.1,0l-0.1,0.4h0.3L253.5,396.5z M253.2,397
		c-0.1,0.4,0.1,0.4,0.3,0.4l0-0.4H253.2z M252.2,405.3l-0.1,0.4h0.2l0.1-0.5L252.2,405.3z M249.1,401.8L249.1,401.8
		c-0.8,0-1.1,0.1-1.2,0.6C248.3,402.3,248.8,402.1,249.1,401.8 M255.2,390.2c-0.7,0-2.2,2-3.7,3.9l-0.2-0.2c0.1-0.3,0.2-0.5,0.1-0.6
		c-0.6,0.6-0.8,0.9-0.5,1.6c-0.5,0.7-1,1.3-1.4,1.9c-0.6,0.8-1.5,2.3-2.3,3.4c0.7-0.4,1.2-1.1,2.6-1.7c1.2-0.5,1.9-0.7,3.2-1
		c0.1-0.9,0.4-1.5,0.6-2l0.6,0.5c0.4-1.1,0.9-3.9,1.3-5.4L255.2,390.2z M246.8,402c-0.3,0.1-0.5,0.1-0.7,0.2l-0.4,0.6
		C245.8,402.7,246.6,402.5,246.8,402 M245.3,403.4c-0.2,0.2-0.2,0.4-0.4,0.6l2.6-1.4C247.1,402.3,246,403.1,245.3,403.4
		 M256.2,400.7c-0.3,0.6-0.2,2.1-0.9,2.8c0.5,0.3,0.2,1.1-0.2,1.5c0.2,0.5,0.3,0.9-0.4,1.9c0,0.1,0.3,0,0.4-0.1
		c-0.1,1.2-0.3,2.1-0.7,3.1c-1.1,0-2-1-2.6-0.8c0-0.7-0.1-1-0.5-1l0-0.5c0.2,0,0.3-0.1,0.3-0.3c-0.2,0-0.3-0.1-0.3-0.3
		c0.1-0.8,0.5-1.8,0.7-2.8c0.2,0,0.2,0.4,0.2,1c0.2,0,0.6-1.4,0.7-2.2l-0.4-0.2c0,0.5,0,1.3-0.4,1.1c0.1-0.5,0.2-1.7,0.3-2.1
		l0.6,0.7c0-0.4,0.1-0.5,0.1-1c-2-0.1-7.1,2.7-8.7,3.8l-0.2,0.4l0.1,0.4c-0.6,1.2-1.1,2.6-1.7,3.3l-2.2-0.9
		c-0.1-1.1-1.6-1.5-1.2-2.4h-0.6c0.8-5.2,6.5-10.8,9.7-15.1c1.6-2.1,3.2-3.6,4.6-4.6c0.2-0.2,1.2,0.1,1.3-0.5c0.4,0.1,1.4,0.6,1.9,1
		l-0.6,0.2c0,0.6,0.8-0.1,1,0.1c1.3,1.1,0.6,3,1.2,4c0,0.2,0,3.1-0.5,3.4c0.1,0.1,0.1,0.1,0.2,0.1c-0.2,0.8-0.5,1.8-0.5,2.7
		c0,0.4,1.3,1.6,1.2,3.1C257.4,400.5,256.8,400.6,256.2,400.7"/>
	<path fill="#FFFFFF" d="M269.7,397.3l-0.3,0.6l0.2,0.2l0.3-0.6L269.7,397.3z M274,388.3c2.3-0.5,4.8-1,6.4-1.2
		c1.5,0.4,2.7,1,3.1,2.2c-0.6,0.5-0.3,1.4,0,1.9c-0.2,0.1-0.3,0.2-0.6,0.2l-0.1-0.2c-0.2-0.1-0.4-0.1-0.5-0.1
		c-0.1,0-0.2,0.1-0.2,0.2c0,0.1,0,0.2,0.1,0.3c-2.1,0.4-5.1,0.1-7.9,1.4h-0.5v-0.4c-0.3,0-0.6,0.1-0.8,0.4c-1.2,0.1-1.5,0.6-2.3,2.8
		c-0.1,0.3-0.5,0.7-0.7,0.9l0.3,0.2c-0.2,0.7-0.7,2.1-1,2.1c-0.4,0,0-0.7-0.2-0.7c-0.4,0.1-0.4,0.8-0.6,1.4c0.2,0.4,0.2,0.7,0.2,1
		c-0.2,0.4-0.3,1.2-0.6,1.2c-0.3,0-0.1-0.7-0.3-0.9c-0.3,0.7-0.5,1.3-0.8,1.9l0.3,0.2c0.2-0.3,0.3-0.4,0.7-0.3
		c-0.7,1.8-1.2,3.6-1.6,5.1c-0.8,0.1-1.6,0-2.2-0.2l0.1-0.4c-0.9-0.3-0.8-1.5-1-2.8c-0.1-0.2-0.3-0.5-0.3-0.7c0-0.9,2-5.9,3.7-9.9
		h-2.7c-1.5,0-1.6,0.5-2.7,0.2c-0.5-0.8-1.1-2.3-1.1-3.3c0-0.4,0.1-0.8,0.5-1.1c1.3,0.1,4.5,0.3,6.6-0.1c3.5-0.7,2-4,5.2-4
		L274,388.3z"/>
	<path fill="#FFFFFF" d="M184.4,408.8c-0.1,0-0.3,0-0.4,0.2l-0.8,1.7C183.6,410.7,183.7,410.5,184.4,408.8L184.4,408.8z"/>
	<path id="bolt" fill="#EFA413" d="M195,391.8l-0.5-0.1l1.7-2.7C196.2,389.1,195.7,390.5,195,391.8 M194.6,392.4c-1,1.5-0.7,0.1-0.7,0.1
		l0.2-0.3L194.6,392.4C194.6,392.3,194.6,392.4,194.6,392.4 M190,404.7l-0.8-0.3l0.8-1.5C190,402.8,190.6,403.5,190,404.7
		 M187.5,407.9l1.6-3.2l0.8,0.3C189,406.3,187.6,407.9,187.5,407.9 M186.6,401.4c-0.2,0-0.3,0-0.5,0.1l0.2-0.3c0.6,0,2.4-0.1,2.1,0
		C188,401.2,187.9,401.3,186.6,401.4 M185.6,401.5c-0.4,0-0.7,0.1-0.6,0c0.1-0.1,0.5-0.5,0.6-0.8c0,0,0.6-1,0.6-0.8
		c0,0.1-0.1,0.5-0.1,0.8L185.6,401.5z M185.3,411.2c0,0.1-1.5,1.9-1.6,1.8c-0.1-0.1,0.2-1,0.5-1.4c0.3-0.4,0.3-0.3,0.4-0.5
		c0.2-0.1,0.8-0.7,0.9-0.7C185.7,410.5,185.3,411.1,185.3,411.2 M200.7,379.9c0,0,0-0.1,0-0.1c0-0.1-0.5,0.6-0.5,0.6
		c-0.1-0.1-0.3,0.2-0.4,0.5c-0.1,0.1-0.2,0.1-0.3,0.2c-0.2,0.3-0.9,1.1-0.9,1.2c0,0.3-1,1.6-1.1,1.6c0,0.1-0.4,0.5-0.5,0.5
		c-0.1,0.2-0.2,0.4-0.4,0.6c-0.1,0-1.6,2-1.8,2c-0.4,0.6-1.6,2.2-1.6,2.2c-0.3,0.3-0.5,0.8-0.9,1.4l0-0.1c-0.2,0.2-0.4,0.5-0.6,0.8
		c0,0.1-2.8,3.6-2.8,3.6s-1.3,1.9-1.6,2.1c-0.3,0.6-0.8,1.2-1.2,1.8c-0.3,0.8-0.9,1.5-1.4,2.2c-0.3,0.4-0.6,0.7-0.9,1.1
		c0,0.1,0,0.2,0.4,0.3c0,0,1.7-0.3,1.7-0.2c0.2-0.1,1.6-0.3,1.8-0.4c-0.1,0.1,0.4,0.3,0.4,0.4c0,0-0.1,0.3-0.2,0.4
		c0-0.1-0.6,1-0.7,1.2c-0.1,0.1-1.3,2.4-1.8,2.8c-0.3,0.3-0.7,1.2-0.9,1.8c-0.1,0.1,0.1,0.3,0.2,0.2c0.5-0.9,2.9-2.8,2.9-2.7
		c-0.2,0.7-3.1,4.7-3.1,4.8c0.4-0.6-2.2,3.1-2.2,4.1c0,0,0.1,0.1,0.1,0.2c0.2-0.1,0.8-0.7,0.8-0.7c0.7-0.4,2.3-2.2,2.6-3.2
		c0,0,0.8-0.9,1.1-1.2c0.1-0.1,0.2-0.5,0.2-0.5c0-0.1,2.3-2.6,2.3-2.6c0.1-0.1,0.2-0.3,0.4-0.5c0.5-0.7,1.6-2,1.6-2
		c0.4-0.6,4.7-6.3,4.9-6.6l0,0l0.3-0.6c0.2-0.2-0.1,0.2,0.1,0c0.6-1.2,2.5-3.1,2.5-3.1c0.1-0.2,0.1-0.2,0.2-0.3
		c0.2-0.3,0.5-0.7,0.7-1c-0.8,0.1-4.5,0.2-5.1,0.6c0,0-0.2,0.1-0.2,0.1c0-0.3,0.8-2,0.6-1.5c0,0.1,0.6-1,0.6-1.1
		c0.7-1.2,2.6-5.5,2.7-5.7c0.2-0.2,0.4-0.5,0.6-1.1c0.7-1,1.2-2.9,1.3-3.7l-2.7,4.6l-0.6,0.2l2.6-4
		C199.9,381,200.4,380.2,200.7,379.9"/>
</g>
</svg>
