<?xml version="1.0" encoding="utf-8"?>
<!-- Generator: Adobe Illustrator 19.1.0, SVG Export Plug-In . SVG Version: 6.00 Build 0)  -->
<svg version="1.1" xmlns="http://www.w3.org/2000/svg" xmlns:xlink="http://www.w3.org/1999/xlink" x="0px" y="0px"
	 viewBox="0 0 86 86" style="enable-background:new 0 0 86 86;" xml:space="preserve">
<style type="text/css">
	.st0{fill:#CEB49F;}
	.st1{fill:#F4914F;}
	.st2{fill:#F7B284;}
	.st3{fill:#FA8C97;}
	.st4{fill:#FCC5CB;}
	.st5{fill:#F1AD2B;}
	.st6{fill:#F8D695;}
	.st7{fill:#9D6A3E;}
	.st8{fill:#4BA9BD;}
	.st9{fill:#9ACFDA;}
</style>
<g id="color">
</g>
<g id="features">
	<path d="M57.6,60.7c0.6-0.1,1.4,0.2,2,0.3c0.7,0.1,1.5,0.3,2.2,0.4c1.3,0.2,2.7,0.5,3.9,0.8c1.5,0.4,2.9,1,4.3,1.5
		c1.2,0.5,2.5,0.9,3.7,1.5c0.1,0,0.2,0.1,0.3,0.2c0,0,0.1,0.1,0.1,0.2c-0.2,0.3-0.5,0.2-0.7,0.2c0.2,0.1,0.4,0.2,0.6,0.4
		c0.2,0.1,0,0.2,0.2,0.4c0.1,0.1,0.3,0.2,0.4,0.3c0,0-0.1,0.1-0.1,0.1c0.1,0,0.1,0,0.1,0c0,0.2,0,0.2,0.1,0.3c0,0,0,0.1-0.1,0.1
		c0,0,0.1,0.1,0.2,0.1c-0.1,0.1-0.2,0-0.2,0.2c0,0.1,0.1,0.1,0.1,0.2c0.1,0,0.2,0,0.3,0c-0.1,0.2-1.1,0.4-1,0.7
		c0,0.1-0.6,0.4-0.7,0.5c-0.2-0.1-0.4,0.1-0.6,0.1c0,0.1,0,0.1-0.1,0.1c-0.4,0-0.7,0.4-1,0.5c-0.4,0.2-1.4-0.4-1.8-0.5
		c-0.9-0.4-1.9-0.7-2.8-1.1c-1.8-0.7-3.6-1.4-5.5-1.9c-3.6-0.9-7.2-1.5-10.9-1.9c-3.9-0.5-8-0.8-11.9-0.5c-3.8,0.3-7.5,0.7-11.2,1.4
		c-2.2,0.4-4.4,0.7-6.4,1.5c-1,0.4-2.1,0.9-3.1,1.3c-0.9,0.4-1.9,1-2.9,1.3c-0.1,0-0.3,0-0.4-0.1c-0.1,0-0.2,0-0.3,0
		c-0.1,0-0.3-0.3-0.4-0.3c-0.3,0-0.1-1.7,0-1.9c0-0.1,0-0.1,0-0.2c0-0.1,0.1-0.3,0.2-0.4c1.9-2,5.1-3.4,7.7-4.3
		c2.8-0.9,5.7-1.4,8.6-1.9c5.7-1.1,11.6-1.2,17.4-0.8C51.1,59.9,54.3,60.2,57.6,60.7C57.6,60.7,57.6,60.7,57.6,60.7
		C57.6,60.6,57.6,60.7,57.6,60.7z"/>
	<path d="M79.3,12.6c-0.1,0.1-0.2,0.2-0.3,0.3c-0.1-0.2-0.4-0.4,0.1-0.5c-0.1-0.4,0.1-0.7,0.1-1.1c0-0.3-0.1-1-0.2-1.3
		c-0.2-0.4-0.8-0.7-1.2-0.9c-0.4-0.3-0.9-0.8-1.4-1C76.1,8,76,8.1,75.6,8c-0.2-0.1-0.2-0.2-0.4-0.2c-0.2-0.1-0.4,0.1-0.6-0.1
		c-0.3-0.3-0.4-0.6-0.8-0.8c-0.2-0.1-0.3,0-0.6-0.2c-0.2-0.2-0.2-0.5-0.5-0.5c-0.1,0-0.3,0.1-0.4,0.1c-0.1,0-0.3-0.1-0.4-0.1
		c-0.3,0-0.6,0.3-0.9,0.3c-0.3,0-0.4-0.2-0.7-0.1c-0.3,0-0.5,0.4-0.7,0.5C69.4,7,69.1,7,68.7,7c-0.3,0-0.6,0-0.8-0.2
		c-0.5-0.2-1.3-0.5-1.8-0.2c-0.1-0.1-0.3-0.2-0.4-0.2c0,0.1-0.1,0.2-0.2,0.2c-0.1-0.1-0.2-0.1-0.3-0.2c-0.6,0-1.2-0.8-1.7-1
		c-0.6-0.2-1.2,0.2-1.7,0.1c0-0.1,0-0.1,0-0.2c-0.1,0-0.1,0-0.2,0c0-0.1-0.1-0.3-0.1-0.5C61.3,5,61.2,5,61,5.1
		c-0.3-0.3-0.7-0.5-1-0.8c-0.7-0.8-1.7-0.3-2.6-0.3c0-0.1,0-0.1-0.1-0.2c-0.1,0.1-0.2,0.2-0.3,0.3c0,0,0-0.1,0-0.1
		c-0.5-0.2-0.9-0.1-1.4-0.3c-0.4-0.2-0.8-0.6-1.3-0.7C53.9,2.8,53.5,3,53,3c-0.4,0-0.9-0.3-1.3,0c-0.4,0.4-0.6,0.8-1.1,0.7
		c-0.5,0-0.9-0.3-1.4-0.4c-0.7,0-2.7-0.1-3.1,0.6c-0.2-0.3-0.8-0.2-1.3-0.4c-0.6-0.3-1.2-0.5-1.9-0.7c-0.5-0.1-1-0.1-1.4-0.6
		c-0.3-0.4-0.2-0.9-0.7-1.2c-1.3-0.7-2.3-0.8-3.7-0.7c-0.7,0.1-1.2,0.3-1.8,0.6c-0.5,0.3-0.5,0.1-1,0C34,0.9,33.4,1,33,1.1
		c-0.7,0.1-1.4,0-2.1,0.2c-0.4,0.2-0.6,0.3-1.1,0.3c-0.3,0-0.6-0.3-0.9-0.3c-0.9,0-1.8,0.1-2.6,0.2c-0.9,0.1-1.8,0.1-2.7,0
		c-0.3,0-0.8-0.2-1.1-0.1c-0.3,0-0.6,0.3-1,0.1c-1.2-0.8-2.7-0.8-4.1-0.7c-1.3,0.1-2.7,0.6-3.7,1.5c-0.4,0.4-0.7,0.8-0.9,1.3
		c-0.2,0.3-0.3,0.9-0.7,1c-3.9,1.7-4.2,6.1-3.4,9.7c0.4,1.9,0.7,3.8,1.5,5.6c0.2,0.5,0.4,1.1,0.8,1.5c0.1,0.1,0.2,0.4,0.4,0.5
		c0.3,0,0.1-0.3,0.4-0.4c0.1,0.2,0.3,0.5,0.4,0.7c0.3-0.1,1.5,1.8,1.7,2.1c0.1-0.2,0.3-0.2,0.5-0.4c0.2-0.2,0.2-0.5,0.4-0.7
		c0.2-0.2,0.8,0.4,1.1,0.7c0,0,0,0.1,0.1,0.1c0.2-0.4,0.5-0.2,0.8-0.5c0.2-0.1,0.2-0.5,0.3-0.7c0.2-0.4,0.6-1.1,1-0.4
		c0.1,0.2,0.2,0.3,0.4,0.3c0.2,0,0.4,0,0.5,0.1c0.1,0,0.1-0.1,0.2-0.2c0.3-0.7,0.6-1.4,1-2.1c0.2-0.5,0.7-0.2,1,0.1
		c0.4,0.3,0.3,0.4,0.7,0.1c0.4-0.3,0.7-0.7,1.2-0.3c0.5,0.4,0.5,1,1.1,1.3c0.3-0.3,0.3-0.3,0.7-0.1c0.4,0.2,0.5,0.4,0.9,0.6
		c0.5,0.2,1.3,0.3,1.7,0.6c0.3,0.2,1-1,1.2-1.2c0,0,1-1.1,1-0.5c0,0.2,0.1,0.3,0.2,0.5c0.3,0.6,1.5,0.4,2,0.9c0.3,0.3,0.8-0.7,1-0.8
		c0.5-0.4,1.4-0.4,2-0.5c-0.1,0.3-0.1,0.5,0.2,0.7c0.9,0.4,2,1.9,3.1,1.2c0.4-0.2,0.6-0.8,1-1c0.4-0.2,1.3,0.1,1.8,0.1
		c0.2,0,0.4,0,0.4,0.2c0.6,0.1,1.4,0.7,1.8,1.2c0.4,0.4,1.2-0.6,1.5-0.9c0.6-0.5,1.2-1,1.9-1.4c0.1-0.1,0.5,0.2,0.6,0.3
		c0,0,0,0,0,0.1c-0.1,0-0.2-0.1-0.3-0.1c0,0,0,0,0,0.1c0.1,0.1,0.2,0.2,0.3,0.3l0.2-0.3c0.4,0.4,0.1,0.8,0.5,1.2
		c0.3,0.2,0.7,0.2,0.8,0.7c0.1-0.2,0.1-0.2,0.3-0.1c0.1,0.1,0.1,0.2,0.2,0.2c0.2,0,0.5,0,0.7,0c0.5,0,1.2-0.4,1.7-0.5
		c0.5-0.2,0.9-0.5,1.3-0.7c0.1-0.1,1.8,1.7,2.1,1.9c0.9,0.7,2.2,0.4,3.2,0c0.5-0.2,0.8-0.5,1.3-0.7c0.5-0.2,0.9-0.1,1.4-0.1
		c1,0,1.7,0.5,2.7,0.8c0.9,0.3,1.3,0.7,2,1.3c0,0,0.3,0.3,0.2,0.3c0.4,0.3,1,0.2,1.5,0.2c0.3,0,0.6,0.1,0.7-0.2
		c0.1,0.1,0.1,0.1,0.1,0.2c0.1,0.2,0.2,0.2,0.3,0.1c0.1-0.1,0.3-0.1,0.5-0.1c0.7-0.1,1.1-0.2,1.7-0.6c0.4-0.3,1.2-1.2,1.7-1.2
		c0.2,0,0.6-0.1,0.7-0.1c0.1,0,0.1,0.3,0.3,0.3c0.4,0,0.6-0.4,0.9-0.4c0,0.1-0.1,0.1-0.1,0.2c0,0.1,0,0.1,0,0.2c0.2,0,0.4,0,0.6,0
		c1.3-0.9,2-2.6,2.6-3.9c0.7-1.5,1.1-3.1,1.7-4.7c0,0,0,0,0,0c0-0.3-0.1-0.6,0-0.9c0.1-0.3,0.2-0.5,0.3-0.8
		C79.4,13.4,79.3,13,79.3,12.6z"/>
	<g>
		<path d="M23,40c-0.7-1.6-2-3.7-3.6-4.4c-0.5-0.2-0.9-0.3-1.4-0.3c-0.4,0-0.9,0-1.3,0c-1.1,0-2.1,0.7-3,1.4c-0.8,0.6-1.7,1.1-2.1,2
			c-0.7,1.3-0.6,3-0.8,4.4c-0.1,0.6-0.3,1.3-0.3,1.9c0,0.4,0.1,1.4,0,1.6c0,0,0.1,0,0.1,0.1c0,0-0.1,0.1-0.1,0.1
			c0.2,0.3-0.1,0.3,0,0.5c0.1,0.3,0.4,0.6,0.6,0.8c0.1,0.1,0.7,0.3,0.8,0.3c0.2,0,0.5,0,0.7-0.1c0.4-0.1,0.8-0.3,1.2-0.5
			c0.2-0.1,0.7-0.1,0.9-0.2c0,0,0.1,0.1,0.1,0.1c0.3-0.1,0.5-0.3,0.8-0.4c0.5-0.1,1.1-0.4,1.7-0.3c1.5,0,2.8,0.4,4.3,0.7
			c-0.1,0.1-0.1,0.1-0.1,0.1c0.2,0.1,0.3,0.1,0.5,0.2c0-0.2,0-0.3,0-0.4c0.1,0,0.2,0.1,0.3,0c-0.1,0-0.1-0.1-0.2-0.2
			c0.3,0,0.5,0,0.7,0.1c0-0.1-0.1-0.2-0.1-0.3c0,0,0.1,0,0.1,0c0.2,0,0.4,0,0.6,0c0.2,0,0.4,0.1,0.6,0.1c0,0,0-0.1-0.1-0.1
			c0.2,0,0-0.4-0.1-0.5c0,0,0.1,0,0.1,0c0.1-0.1,0.1-0.2,0.2-0.3c0.1-0.1,0.2-0.1,0-0.3c0,0,0,0,0.1,0c0,0.1-0.1-0.3,0-0.2
			c0.1,0,0.3-0.2,0.4-0.2c0.3-0.3-0.2-2.5-0.3-2.9C23.6,41.9,23.4,40.9,23,40z M19.2,40c-0.2-0.1-0.3-0.1-0.4,0c0,0,0-0.1-0.1-0.1
			c-0.2,0.2-0.3-0.1-0.5,0.1c0,0-0.1-0.1-0.1-0.1c0,0,0,0,0,0c0-0.1,0-0.1,0-0.2c-0.1,0.1-0.1,0.3-0.2,0.4c0-0.1-0.1-0.1-0.1-0.2
			c-0.1,0-0.3,0.2-0.4,0.5c-0.1,0-0.1-0.1-0.2-0.1c0,0.1-0.1,0.2-0.1,0.3c-0.2,0.1-0.3,0.3-0.5,0.4c-0.2,0.1-0.4,0.3-0.4,0.5
			c0,0.1-0.1,0.3-0.2,0.5c0,0.2,0,0.5,0,0.7c0,0.5,0,0.9,0.2,1.4c-0.7,0.1-1.3,0.3-2,0.4c0-0.8,0-1.6,0.1-2.4
			c0.1-0.9,0.5-1.7,0.9-2.4c0.1-0.1,0.1-0.2,0.2-0.3c0.1-0.1,0.1-0.1,0.2-0.2c0.3-0.1,0.6-0.2,0.9-0.3c0.3-0.1,0.5-0.1,0.8,0
			c0,0,0,0,0-0.1c0.2,0,0.5,0,0.7,0.1c0.1,0,0.3,0,0.4,0.1C18.7,39.3,18.9,39.6,19.2,40C19.2,39.9,19.2,39.9,19.2,40z"/>
		<path d="M69.7,32.6c-0.1,0-0.1,0-0.1,0C69.3,32.5,69.7,32.7,69.7,32.6z"/>
		<path d="M84.1,42.1C84.1,42.1,84,42.1,84.1,42.1c-0.2-0.2-0.1-0.3,0-0.4c0-0.1-0.1-0.1-0.1-0.2c-0.2-1.1-0.3-2.1-0.7-3.2
			c-0.3-1.1-0.9-2.1-1.5-3.1c-1-1.8-2.3-3.4-4-4.7c-1.8-1.4-3.9-2.6-6.1-3.1c-1.1-0.2-2.4-0.4-3.5-0.3c-0.5,0-1.1,0.1-1.6,0.2
			c-0.4,0-0.9,0.3-1.3,0.2c-0.2,0-0.3-0.1-0.5-0.2c-0.2-0.1-0.2,0-0.3,0.1c0,0.1-0.1,0.2-0.2,0.3c-0.3,0.1-0.6,0-0.7,0.2
			c-0.1,0.1-0.8,0.2-1,0.2c-0.4,0.1-0.8,0.2-1.1,0.3c-0.6,0.2-1.2,0.5-1.8,0.8c-1.4,0.8-2.7,1.9-3.6,3.1c-0.8,1.1-1.3,2.3-1.7,3.6
			c-0.4,1.2-0.6,2.6-0.6,3.9c0,0.4-0.6,0.1-0.9,0.1c-1.6,0-3.3,0.1-5,0.3c-1.6,0.2-3,0.2-4.6,0.2c-3.2,0-6.4,0.3-9.6,0.8
			c-0.1,0-0.2,0-0.2-0.1c-1.1-3.7-2.8-7.9-6.3-10c-3.4-2.1-7.8-2.6-11.7-2.4c-0.6,0-1,0.3-1.5,0.5c-0.4,0.2-0.9,0.2-1.3,0.3
			c-1,0.3-2.1,0.8-3,1.3c-0.8,0.4-1.5,0.9-2.1,1.6C5.5,34.6,4,37,3.4,39.7c-0.3,1.4-0.4,2.9-0.2,4.4c0.2,1.4,0.9,2.7,1.4,4
			c0.5,1.1,1.1,2,1.8,2.9c0.5,0.6,1,1.1,1.6,1.6c1.9,1.6,4.5,2.5,6.8,3.1c1.2,0.3,2.4,0.6,3.6,0.6c1.2,0,2.5,0,3.6-0.1
			c2.1-0.2,4.4-1,6.1-2.2c0.3-0.2,1-0.8,1.1-1.2c0.1-0.2,0.6-0.6,0.8-0.8c0.3-0.4,0.6-0.8,0.9-1.1c0.6-0.7,1.6-1.4,1.9-2.3
			c0.2-0.6,0.2-1.2,0.3-1.8c0.1-0.4,0.3-0.8,0.4-1.2c0-0.1,0.1-0.2,0.2-0.2c2.2-0.3,4.4-0.2,6.6-0.3c2.2-0.1,4.4,0.1,6.6,0.1
			c2.3,0,4.8-0.1,7.1-0.3c1.6,4.3,3.8,8.3,8.1,10.3c1.1,0.5,2.3,0.8,3.5,0.9c2.6,0.2,5.1,0,7.7-0.8c1.1-0.3,2.2-0.9,3.2-1.5
			c1-0.5,2.1-0.9,2.9-1.7c0.1-0.1,0.1-0.2,0.1-0.3c0.2-0.1,0.3-0.3,0.4-0.5c0,0,0,0,0,0c0,0,0.1,0.1,0.1,0.1c0-0.1,0-0.1,0-0.2
			c0.2-0.2,0.3-0.4,0.5-0.6c0.1-0.2,0.4-0.3,0.5-0.4c0-0.1,0-0.2,0.1-0.3c0,0,0.2,0,0.2-0.1c0.1-0.1,0.2-0.3,0.3-0.4
			c0,0-0.1-0.1-0.1-0.1c0.3-0.4,0.9-1.2,0.9-1.7c0-0.1,0.2-0.3,0.2-0.3c-0.1-0.1-0.1-0.3,0-0.4c0.2-0.2,0.2-0.9,0.5-1
			c-0.1-0.1,0.1-1,0.3-1.1c0-0.5,0.2-0.9,0.2-1.4c0-0.1,0-0.1,0-0.2C84,43.1,84.1,42.6,84.1,42.1z M27.8,46
			c-1.1,1.8-2.6,3.3-4.2,4.6c-0.5,0.4-1.3,0.5-1.9,0.6c-0.9,0.2-1.8,0.3-2.6,0.4c-0.9,0-1.7,0-2.6,0c-0.7,0-1.6,0.1-2.3-0.2
			c-0.5-0.2-1.1-0.4-1.5-0.7c-3.1-1.8-5.1-4.9-5.6-8.5c-0.1-0.8,0-1.6,0.1-2.4c0.3-1.6,1.7-3.5,2.9-4.6c0.3-0.3,0.6-0.5,0.9-0.7
			c0.5-0.3,1.1-0.6,1.7-0.8c0.3-0.1,0.6-0.3,1-0.4c0,0,0,0,0,0c0.1,0,0.1,0,0.1,0c1.7,0,3.5-0.4,5.2-0.5c1.6-0.1,3.6,0.5,4.9,1.6
			c1.1,0.9,2,1.9,2.7,3.1c0.3,0.5,0.4,1.2,0.6,1.8c0.2,0.8,0.6,1.6,0.7,2.4c0.2,0.9,0.1,1.8,0.3,2.7C28.3,45.1,28,45.5,27.8,46z
			 M79.1,43.3c-0.1,0.9-0.3,1.7-0.7,2.6c-0.3,0.8-0.7,1.5-1.3,2.2c-0.3,0.3-0.7,0.7-1,1c-0.4,0.4-1.1,0.7-1.6,1
			c-0.7,0.4-1.3,0.7-2.1,1c-2,0.7-4.1,0.7-6.2,0.4c-0.8-0.1-1.5-0.4-2-0.9c-0.8-0.7-1.5-1.5-2.1-2.3c0.3-0.1,0.7-0.3,1-0.4
			c0.2-0.1,0.7-0.1,0.9-0.2c0,0,0.1,0.1,0.1,0.1c0.3-0.1,0.5-0.3,0.8-0.4c0.5-0.1,1.1-0.4,1.7-0.3c1.5,0,2.8,0.4,4.3,0.7
			c-0.1,0.1-0.1,0.1-0.1,0.1c0.2,0.1,0.3,0.1,0.5,0.2c0-0.2,0-0.3,0-0.4c0.1,0,0.2,0.1,0.3,0c-0.1,0-0.1-0.1-0.2-0.2
			c0.3,0,0.5,0,0.7,0.1c0-0.1-0.1-0.2-0.1-0.3c0,0,0.1,0,0.1,0c0.2,0,0.4,0,0.6,0c0.2,0,0.4,0.1,0.6,0.1c0,0,0-0.1-0.1-0.1
			c0.2,0,0-0.4-0.1-0.5c0,0,0.1,0,0.1,0c0.1-0.1,0.1-0.2,0.2-0.3c0.1-0.1,0.2-0.1,0-0.3c0,0,0,0,0.1,0c0,0.1-0.1-0.3,0-0.2
			c0.1,0,0.3-0.2,0.4-0.2c0.3-0.3-0.2-2.5-0.3-2.9c-0.2-0.9-0.4-1.9-0.8-2.8c-0.7-1.6-2-3.7-3.6-4.4c-0.5-0.2-0.9-0.3-1.4-0.3
			c-0.4,0-0.9,0-1.3,0c-1.1,0-2.1,0.7-3,1.4c-0.8,0.6-1.7,1.1-2.1,2c-0.7,1.3-0.6,3-0.8,4.4c-0.1,0.5-0.2,1.1-0.3,1.6
			c-0.4-1.1-0.8-2.2-0.9-3.3c-0.2-1.7,0.3-3.5,0.8-5c0.3-1,1.6-2.3,2.5-2.8c0,0,0,0,0,0c0.2-0.3,0.5-0.3,0.8-0.5
			c0.2-0.2,0.5-0.2,0.7-0.3c0,0,0.2-0.2,0.3-0.2c0.2,0.1,0.7-0.1,1-0.1c1.5-0.4,2.8-0.2,4.4,0.1c0,0,0.1,0,0.1,0
			c-0.1,0.1-0.1,0.1-0.1,0.2c0,0,0,0,0,0c0,0,0.1-0.1,0.1-0.1c0,0,0,0,0-0.1c1.1,0.3,2.2,0.5,3.2,0.9c0.8,0.3,1.5,1,2.3,1.4
			c0.7,0.4,1.3,1.1,1.8,1.7c1.1,1.3,1.7,3.2,2,4.9C79.2,42.1,79.1,42.7,79.1,43.3z M66.9,38.8c0,0,0,0,0-0.1c0.2,0,0.5,0,0.7,0.1
			c0.1,0,0.3,0,0.4,0.1c0.3,0.3,0.5,0.7,0.8,1c0,0,0,0,0,0c-0.2-0.1-0.3-0.1-0.4,0c0,0,0-0.1-0.1-0.1c-0.2,0.2-0.3-0.1-0.5,0.1
			c0,0-0.1-0.1-0.1-0.1c0,0,0,0,0,0c0-0.1,0-0.1,0-0.2c-0.1,0.1-0.1,0.3-0.2,0.4c0-0.1-0.1-0.1-0.1-0.2c-0.1,0-0.3,0.2-0.4,0.5
			c-0.1,0-0.1-0.1-0.2-0.1c0,0.1-0.1,0.2-0.1,0.3c-0.2,0.1-0.3,0.3-0.5,0.4c-0.2,0.1-0.4,0.3-0.4,0.5c0,0.1-0.1,0.3-0.2,0.5
			c0,0.2,0,0.5,0,0.7c0,0.5,0,0.9,0.2,1.4c-0.7,0.1-1.3,0.3-2,0.4c0-0.8,0-1.6,0.1-2.4c0.1-0.9,0.5-1.7,0.9-2.4
			c0.1-0.1,0.1-0.2,0.2-0.3c0.1-0.1,0.1-0.1,0.2-0.2c0.3-0.1,0.6-0.2,0.9-0.3C66.4,38.7,66.6,38.7,66.9,38.8z"/>
	</g>
</g>
</svg>
