<?xml version="1.0" encoding="utf-8"?>
<!-- Generator: Adobe Illustrator 19.1.0, SVG Export Plug-In . SVG Version: 6.00 Build 0)  -->
<svg version="1.1" xmlns="http://www.w3.org/2000/svg" xmlns:xlink="http://www.w3.org/1999/xlink" x="0px" y="0px"
	 viewBox="0 0 86 86" style="enable-background:new 0 0 86 86;" xml:space="preserve">
<style type="text/css">
	.st0{fill:#CEB49F;}
	.st1{fill:#F4914F;}
	.st2{fill:#F7B284;}
	.st3{fill:#FA8C97;}
	.st4{fill:#FCC5CB;}
	.st5{fill:#F1AD2B;}
	.st6{fill:#F8D695;}
	.st7{fill:#9D6A3E;}
	.st8{fill:#4BA9BD;}
	.st9{fill:#9ACFDA;}
</style>
<g id="color">
</g>
<g id="features">
	<path d="M72.7,17.2c-0.3-0.7-0.6-1.2-1-1.8c0-0.1-0.1-0.1-0.1-0.2c-0.1-0.2-0.3-0.4-0.4-0.5c-0.1-0.1-0.2-0.2-0.4-0.3
		c-1.4-0.9-2.8-1.6-4.2-2.4c-0.6-0.3-1.2-0.7-1.7-1c-0.3-0.2-1.4-0.5-1.5-0.8c-0.1-0.2-1.1-0.6-1.4-0.7c-0.5-0.3-0.9-0.6-1.4-0.8
		c-0.9-0.5-1.7-1-2.6-1.6c-1.1-0.7-2.2-1.3-3.2-2.1c-0.8-0.6-1.8-1.2-2.4-1.9c-0.3-0.4-0.5-0.9-0.9-1.2c-0.7-0.5-1.6-1-2.4-1.3
		c-0.4-0.2-1.3-0.5-1.8-0.5c-0.5,0-0.8,0-1.3,0.2c-0.1,0-0.2,0.1-0.3,0c-0.3,0.1-0.6,0.2-0.9,0.3c-0.5,0.2-0.5,0.2-0.7,0.8
		c-0.1,0.4-0.3,0.5-0.6,0.8c-0.6,0.6-0.6,0.7-0.2,1.3C43.5,3.7,43.8,4,44,4.3c0,0,0,0,0,0c0.1,0,0.1,0.1,0.2,0.1
		C44.5,4.6,44.7,5,45,5.3c0.8,0.9,2,1.6,3.1,2.2c0,0,0,0,0,0c0,0,0,0-0.1,0.1c0.5,0.3,1,0.5,1.4,0.8c0.8,0.5,1.7,1.3,2.4,2
		c0.8,0.6,1.5,1.2,2.3,1.8c1.7,1.2,3.4,2.5,5.2,3.7c0.2,0.1,0.8,0.5,0.9,0.7c0,0,0.1,0,0.1,0c1.9,1.2,4,2.2,6.1,3
		c0.3,0.1,0.3,0.1,0.7,0.1c0.6,0.1,1.1,0.4,1.6,0.6c0,0,0.1,0,0.1-0.1c-0.1-0.1-0.1-0.1-0.2-0.1c0.1-0.1,0.2-0.1,0.2-0.2
		c0.1,0,0.3,0,0.4,0c0.3-0.1,0.6-0.1,0.9-0.2c0.2-0.1,1.2-0.6,1.2-0.9c0.1,0,0.2,0,0.3,0c0-0.3,0.4-0.5,0.7-0.6c0-0.1,0-0.2,0-0.2
		c0-0.1-0.2-0.6-0.2-0.7c0,0-0.1-0.1-0.1-0.1c0,0,0,0,0,0c0.1,0.1,0.1,0.1,0.2,0.2c0.1-0.1,0.2,0,0.2,0c0,0,0.1,0,0.1,0
		C72.7,17.3,72.7,17.3,72.7,17.2z"/>
	<path d="M58.2,17.3c-0.1,0-0.1,0.1-0.1,0.1c0.1,0.1,0.3,0.2,0.5,0.3c-0.1,0-0.1,0-0.2,0.1c0,0.1,0.1,0.2,0.1,0.3
		c0,0.1,0.1,0.1,0.2,0.2c0.1,0.2,0.1,0.2,0.2,0.4c0.1,0.2-0.3,0.2,0,0.5c0.1,0.1,0.1,0.2,0.1,0.2c0,0.1,0,0.2-0.1,0.4
		c0,0,0.1,0,0.1,0.1c-0.1,0.1,0,0.4-0.1,0.5c0,0.2-0.3,0.2-0.4,0.2c-0.1,0-0.2,0.1-0.2,0.2c-0.1,0.1-0.1,0.1,0,0.2c0,0,0,0,0,0.1
		c-0.1,0-0.4,0.1-0.5,0.2c-0.1,0.1-0.3,0.2-0.4,0.3c-0.1,0.2-0.3,0.2-0.4,0.2c-0.4,0.1-0.7,0-1.1,0c-0.1-0.3-0.1,0-0.3-0.1
		c-0.9-0.2-1.8-0.5-2.7-0.9c-1.7-0.6-3.1-2.1-4.8-2.7c-0.2,0-0.3-0.1-0.5-0.1c-0.6-0.2-1.4-0.8-1.9-1.2c-0.6-0.5-1.3-0.9-1.9-1.5
		c-0.1-0.1-0.1-0.2-0.2-0.3c-0.2-0.3-0.9-0.7-1.2-0.9c-0.5-0.4-1-0.8-1.5-1.3c-1-0.9-2-1.8-2.8-2.8c0,0,0.1,0,0.1,0
		c-0.4-0.7-1.1-1.3-1.6-1.9c-0.6-0.8-1.3-1.5-1.9-2.3c-1.1-1.3-2-2.8-2.7-4.3c-0.1-0.2,0.1-0.2,0.2-0.3c0.1-0.1,0.6-0.4,0.6-0.4
		c0.1-0.2,0.3-0.1,0.4-0.3c0-0.1,0.3,0.1,0.3-0.1c0.1,0,0.2,0,0.3,0c0,0,0.1-0.1,0.1-0.2c0.2,0.1,0.7-0.2,0.8-0.3
		c0,0,0.8,0.2,0.8,0.2c0.4,0,0.6-0.1,1,0.1c0,0.2,0,0.3,0.1,0.4c0.4,0.5,0.8,0.9,1.2,1.4c2.9,2.8,6.2,5.4,9.4,7.8
		c1.7,1.2,3.4,2.4,5.1,3.5c0.9,0.5,1.7,1.1,2.6,1.6c0.9,0.5,2,1,2.7,1.7c0.1,0.1,0.2,0.3,0.3,0.4C57.9,17.2,58,17.3,58.2,17.3
		C58.1,17.4,58,17.3,58.2,17.3z"/>
	<path d="M26.1,15.3c0.4-0.6,0.7-1.2,1.1-1.7c0,0,0,0,0,0c-0.9,1-1.7,2.2-2.5,3.3c-0.4,0.5-0.8,1-1.2,1.5c-0.4,0.5-1.1,1.1-1.3,1.7
		c0,0,0.1,0,0.1,0c-0.2,0-0.3,0-0.4,0.2c0,0,0.1,0,0.1,0c-0.1,0.1-0.2,0.1-0.2,0c0,0,0,0,0,0c-0.5,0.5-1,0.8-1.6,1.1
		c-0.1,0.1-0.3,0.2-0.4,0.3c0,0-0.1,0-0.1,0c0-0.1,0.2-0.2,0.1-0.3c-0.1,0-0.2,0.1-0.3,0.1c-0.1,0.2-0.5,0.6-0.6,0.6
		c-0.1,0-0.2-0.2-0.4,0c0,0-0.1,0.1-0.1,0.1c-0.1,0.1-0.1,0.1-0.2,0c0,0-0.1-0.1-0.1,0c-0.3,0.1-0.6,0.3-1,0.4c-0.5,0-1-0.6-1.4-0.5
		c-0.1,0-0.2,0-0.2-0.1c-0.3-0.7-1.1-1-1-1.7c0.2-1,0.7-2.2,1.1-3.1c0.9-2,2.6-3.6,3.8-5.4c1.2-1.7,2.2-3.6,3.5-5.3
		c0.6-0.9,1.3-1.8,1.9-2.7c0.3-0.4,0.6-0.9,0.8-1.3c0.1-0.1,0.5-1.1,0.6-0.8c0.1-0.1,0.4-0.6,0.5-0.4c0.1-0.1,0.2-0.1,0.3-0.2
		c0,0,0,0.1,0,0.1c0.1,0,0.1,0.1,0.1,0.2c0.2-0.1,0.3-0.3,0.5-0.3c0,0,0,0.1,0,0.1c-0.1,0.2-0.2,0.4-0.3,0.6c0.1,0,1-0.5,1-0.6
		c0.1,0.3,0.3,0,0.3,0.3c0.2,0,0.3,0.2,0.5,0.1c0.3,0.1,0.4,0.2,0.6,0.4c0.3,0.1,0.7,0.1,1,0.3c0,0,0.1,0.1,0.1,0.1
		c0.1,0,0.2,0.1,0.3,0.1c-0.1,0.2,0,0.3-0.1,0.5c0.1,0,0.1,0,0.1,0c0,0.1,0,0.2,0,0.3c0.2,0.1,0.2,0.3,0.1,0.6c0,0,0.1,0,0.1,0
		c0,0.4,0,0.7,0,1.1C31.4,7,30,9,29.1,10.8c-0.4,0.8-1,1.6-1.5,2.4C27.1,13.8,26.7,14.8,26.1,15.3z"/>
	<path d="M72.4,58.7c0.2,0.1,0.3,0.1,0.6,0.1c0.6,0.3,0.8,0.8,1.4,1.1c0.1,0,0.2,0,0.3,0.1c-0.1,0-0.2,0-0.3,0
		c-0.1,0.3-0.1,0.3,0.1,0.4c-0.1,0-0.1,0.1-0.2,0.1c0,0,0,0.1,0.1,0.1c-0.1,0-0.1,0.1-0.1,0.3c0,0-0.1,0-0.1,0c0,0,0.1,0.1,0.1,0.1
		c-0.1,0.1-0.3,0.2-0.4,0.3c-0.1,0.1,0,0.2,0,0.3c-0.1,0.1-0.2,0.1-0.3,0.2c0,0-0.5,0.2-0.5,0.2c0,0,0,0,0,0c0.1,0,0.1,0,0.2,0
		c0.2-0.1,0.5,0,0.6,0.2c-0.1,0.1-0.2,0.2-0.3,0.3c-0.6,0.4-1.6,0.6-2.2,0.9c-0.7,0.3-1.5,0.6-2.2,0.9c-1.4,0.5-2.8,1.1-4.2,1.4
		c-1.2,0.3-2.5,0.5-3.8,0.8c-0.7,0.1-1.5,0.3-2.2,0.5c-0.4,0.1-1.4,0.4-1.7,0.2c-6,1-12.3,1.5-18.3,1.2c-2.9-0.2-5.9-0.4-8.7-1
		c-3-0.6-6-1-8.9-2c-1.5-0.5-2.9-1.2-4.4-2c-1.3-0.6-2.5-1.4-3.3-2.6c0.2-0.1-0.1-1.5,0-1.7c0.1-0.4,0.2-0.5,0.6-0.7
		c0.3,0.1,0.7-0.1,1,0c0.4,0.1,0.8,0.4,1.2,0.6c0.8,0.4,1.7,0.8,2.6,1.1c1.7,0.7,3.4,1.4,5.3,1.7c3.8,0.8,7.7,1.5,11.7,1.8
		c7.8,0.6,15.5-0.3,23.1-1.8c2.2-0.4,4.3-1.1,6.4-1.9c1.1-0.4,2.2-0.8,3.2-1.2c0.7-0.3,2.2-1.1,2.9-0.7c0.1,0.1,0.3,0.2,0.4,0.3
		C72,58.5,72.4,58.5,72.4,58.7C72.6,58.7,72.4,58.6,72.4,58.7z"/>
	<g>
		<path d="M70.6,50.7C70.8,50.8,70.8,50.7,70.6,50.7L70.6,50.7z"/>
		<path d="M80.4,29.3c-0.4-0.6-0.9-1-1.6-1c-0.3,0-0.6-0.1-0.8,0c-0.3,0.1-0.4-0.1-0.6-0.3c-0.8,0.6-2,0.3-3,0.3
			c-1.1,0-2.1,0-3.2-0.2c-2.1-0.2-4.1-0.2-6.1-0.1c-4.2,0.1-8.4,0.4-12.6,0.5c-0.6,0-1.9,0-2,0c-0.9,0.2-1.2,1-2,1.4
			c-0.3,0.2-0.5,0.4-0.7,0.7c-0.2,0.5-0.3,1.1-0.1,1.7c0.2,0.7-0.2,1.2,0.1,1.8c0,0.1,0.1,0.1,0.1,0.2c-0.5,0-1,0.1-1.5,0.1
			c-1.6,0.2-3,0.2-4.6,0.2c-2.2,0-4.4,0.1-6.5,0.4c0-0.1,0-0.2,0-0.3c-0.1-0.6-0.3-1.2-0.8-1.6c-0.3-0.2-0.4-0.4-0.4-0.8
			c0-0.6-0.2-1-0.6-1.5c-0.2-0.2-0.4-0.5-0.6-0.7c-0.5-0.7-1.2-1.1-2.1-1.1c-0.7,0-1.4-0.1-2-0.1c-3.9,0.1-7.8,0.1-11.7,0.2
			c-1.4,0-2.8,0.1-4.3,0.2c-1.7,0.2-3.4,0.4-5.2,0.6c-0.3,0-0.6,0.1-0.9,0c-0.4,0-0.5,0.4-0.8,0.4c-0.6,0.1-0.9,0.6-1.2,1
			c-0.3,0.4-0.8,0.7-0.8,1.3c0,0.1-0.1,0.2-0.2,0.3c-0.2-0.1-0.6,0.4-0.4,0.7c0.2,0.3,0.5,0.7,0.2,1.1c-0.1,0.1,0,0.3,0.1,0.5
			c0.2,0.3,0.3,0.5,0.5,0.7c0.6,0.7,1,1.5,1.3,2.3c1,2.5,2,5,3.4,7.3c0.6,1.1,1.3,2.1,2.4,2.9c0.8,0.6,1.6,1.1,2.6,1.3
			c0.9,0.1,1.8,0.5,2.7,0.3c2.1,0.4,4.2,0.5,6.3,0.4c0.9,0,1.8-0.2,2.6-0.7c0.6-0.3,1.3-0.6,2-0.8c0.3-0.1,0.6-0.1,0.7-0.3
			c0.3-0.5,0.8-0.7,1.2-1.1c0.5-0.5,0.9-1.1,1.4-1.6c0.4-0.5,0.7-1,1-1.5c0.8-1.8,1.6-3.6,2.5-5.3c0.5,0,1-0.1,1.5-0.1
			c0.6,0,12.7-0.1,14.1-0.1c0.4,1.1,0.8,2.2,1.2,3.3c1.1,2.7,2.2,5.1,4.5,7c0.2,0.1,0.3,0.2,0.5,0.3c2.2,0.8,4.4,1.1,6.8,1.2
			c1.2,0,2.3,0.1,3.5,0.1c1.1,0.1,2.4-0.1,3.6,0.2c0.4,0.1,0.8,0.1,1.2-0.3c0.3-0.4,1-0.5,1.5-0.6c0.6-0.2,1.1-0.7,1.6-1
			c0.6-0.4,1.2-0.7,1.6-1.2c0.9-0.9,1.5-2,2.1-3.1c1-1.6,1.2-3.3,1.6-5.1c0.4-1.8,1.1-3.4,1.5-5.2C81.5,32.9,81.5,31,80.4,29.3z
			 M70.6,50.7c0.2,0,0.3-0.1,0.3-0.1c0,0,0.1,0.1,0.1,0.1C70.9,50.8,70.8,50.8,70.6,50.7z"/>
	</g>
	<path d="M39,54.4c-0.1-0.1-0.1-0.2-0.3-0.2c-0.1,0-0.5,0.1-0.6,0.2C36,55.9,33.8,57,31.5,58c-2.4,1.1-5,1.9-7.2,3.4
		c-0.2,0.1-0.3,0.1-0.5,0c-0.3-0.3-0.6,0.1-1-0.1c0-0.1,0-0.2,0-0.3c-0.3-0.1-0.1-0.4-0.3-0.6c-0.3-0.3-0.4-0.7-0.3-1.1
		c0.1-0.7,0.3-1.4,0.5-2.1c0.1-0.2,0.4-0.6,0.5-0.7c2.1-1.3,4.4-2.4,6.6-3.5c1.1-0.5,2.2-0.9,3.3-1.3s2.2-0.8,3.3-1.3
		c0.2-0.1,0.5-0.5,0.7-0.6c0.1,0,0.1,0,0.2,0c0.3,0.1,0.4,0,0.6-0.1c0.1,0,0.1-0.1,0.1-0.1c0.1-0.1,0.2-0.1,0.3-0.1
		c0.1,0,0.1,0,0.1,0.1c0.1,0.1,0.2,0.1,0.3,0c0.1,0,0.2-0.1,0.3-0.1c0,0,0.1,0.1,0.1,0.1c0.6,0,1,0.3,1.6,0.3c0,0,0.1,0,0.2,0.1
		c-0.1,0.3,0.2,0.8,0.2,1.1c0,0.2,0,0.4-0.1,0.5c-0.3,0.3-0.4,0.8-0.7,1.1c-0.2,0.2-0.4,0.5-0.6,0.7c-0.2,0.2-0.4,0.5-0.5,0.7
		C39.3,54.2,39.2,54.3,39,54.4C39.1,54.4,39.1,54.4,39,54.4z"/>
	<path d="M42.8,50.7c0.2,0,0.3-0.1,0.3-0.3c0-0.2,0.2-0.3,0.3-0.5c0-0.1,0.1-0.2,0.3-0.2c0.1,0,0.1,0,0.2-0.1
		c0.1-0.2,0.6-0.4,0.8-0.5c0,0.1,0.1,0.2,0.1,0.2c0.3-0.2,0.6-0.2,1-0.1c0.1,0,0.2,0.1,0.4,0.1c0.3,0.1,0.6,0.1,0.7,0.5
		c0,0,0,0,0,0.1c0.2,0.3,0.5,0.4,0.8,0.5c2.1,0.6,4.1,1.3,6.1,2c2,0.7,4.1,1.4,5.9,2.4c0.2,0.1,0.4,0.2,0.5,0.4c0.5,0.6,1,1.2,1.2,2
		c0.1,0.2,0,0.5-0.2,0.7c-0.3,0.3-0.5,0.6-1,0.6c-0.3,0-0.4,0.2-0.7,0.2c-0.2,0-0.3,0.1-0.4,0.3c-0.1,0.2-0.1,0.1-0.3,0.1
		c-0.1,0-0.3,0-0.4,0c-0.1,0.2,0,0.5-0.3,0.6c-0.4-0.2-0.5-0.5-0.9-0.6c-0.1,0-0.2-0.1-0.4,0c-0.1-0.2-0.3-0.3-0.5-0.4
		c-1.9-0.8-3.7-1.6-5.6-2.4c-1.8-0.7-3.6-1.3-5.4-1.9c-0.4-0.1-0.7-0.4-1-0.5c-0.5-0.1-1-0.2-1.4-0.5c-0.1-0.1-0.1-0.1-0.1-0.2
		c0-0.2,0-0.5-0.1-0.7c0.1-0.3,0-0.7,0.1-1C42.9,51.2,42.7,51,42.8,50.7z"/>
</g>
</svg>
