<?xml version="1.0" encoding="utf-8"?>
<!-- Generator: Adobe Illustrator 19.1.0, SVG Export Plug-In . SVG Version: 6.00 Build 0)  -->
<svg version="1.1" xmlns="http://www.w3.org/2000/svg" xmlns:xlink="http://www.w3.org/1999/xlink" x="0px" y="0px"
	 viewBox="0 0 86 86" style="enable-background:new 0 0 86 86;" xml:space="preserve">
<style type="text/css">
	.st0{fill:#CEB49F;}
	.st1{fill:#F4914F;}
	.st2{fill:#F7B284;}
	.st3{fill:#FA8C97;}
	.st4{fill:#FCC5CB;}
	.st5{fill:#F1AD2B;}
	.st6{fill:#F8D695;}
	.st7{fill:#9D6A3E;}
	.st8{fill:#4BA9BD;}
	.st9{fill:#9ACFDA;}
</style>
<g id="color">
</g>
<g id="features">
	<path d="M64.4,39.4c1.1-0.7,2.2-1.3,3.2-2c1.1-0.7,1.6-1.4,2.3-2.5c0.3-0.5,0.2-0.8,0.2-1.4c0-0.3-0.3-0.2-0.4-0.4
		c-0.1-0.1-0.2-0.6-0.2-0.7c0-0.1,0-0.2-0.1-0.3c-0.4-0.4-0.5-0.9-1.1-0.8c-0.2,0-0.4,0.2-0.6,0.3c-0.2,0.1-0.5,0.1-0.8,0.2
		c-0.6,0.3-1.3,0.5-1.9,0.8c-0.6,0.3-1.2,0.8-1.8,1.2c-1.1,0.8-2.2,1.4-3.3,2.1c-1.2,0.9-2.5,1.7-3.7,2.6c-0.9,0.7-2,1.5-2.7,2.4
		c-0.8,0.6-0.7,1.5,0,2.1c0,0,0.1,0.1,0.1,0.1c0,0,0,0,0,0c0,0.1-0.2,0.1-0.3,0.2c0.1,0.1,0.5,0.1,0.5,0.3c0,0.1-0.1,0.3,0,0.2
		c0.1,0,0.6,0.2,0.7,0.2c1.2,0.2,2.4,0.3,3.6,0.4c1.2,0.1,2.4,0.1,3.6,0.1c2.4,0,4.7,0,7.1,0.1c0.8,0,1.6-0.5,2.4-0.6c0,0,0,0,0,0
		c0,0,0.1,0,0.1,0c0.1-0.1,0.3-0.1,0.4,0c0.5,0.1,0.4-1,0.5-1.3c0.1-0.2-0.2-0.7-0.3-0.8c-0.1-0.1,0-0.2,0-0.3c0,0,0,0,0,0
		c0,0,0-0.1,0-0.1c0-0.3,0-0.2-0.2-0.5c-0.3-0.7-1.4-1.3-2.1-1.5C68.1,39.1,66.2,39.3,64.4,39.4z"/>
	<path d="M30.9,42c0.6-0.7,0.5-1.6-0.3-2.1c-0.9-0.8-2.1-1.4-3.1-2c-1.3-0.7-2.7-1.4-4-2c-1.2-0.6-2.4-1-3.6-1.6
		c-0.6-0.3-1.3-0.7-2-0.9c-0.7-0.2-1.4-0.3-2.1-0.5c-0.2-0.1-0.5,0-0.8,0c-0.2,0-0.4-0.1-0.6-0.2c-0.6,0-0.6,0.5-0.9,0.9
		c-0.1,0.1-0.1,0.2-0.1,0.3c0,0.1,0,0.6,0,0.8c-0.1,0.2-0.4,0.1-0.3,0.5c0.1,0.5,0.1,0.9,0.4,1.3c0.8,1,1.5,1.6,2.6,2.1
		c1.1,0.5,2.3,1,3.5,1.5c-1.8,0.2-3.8,0.3-5.3,1c-0.7,0.3-1.7,1-1.9,1.8c-0.1,0.3-0.1,0.3-0.1,0.5c0,0,0,0.1,0,0.1c0,0,0,0,0,0
		c0.1,0.1,0.1,0.1,0.1,0.3c-0.1,0.2-0.2,0.7-0.1,0.9c0.1,0.3,0.1,1.3,0.7,1.2c0.1,0,0.2-0.1,0.4,0c0,0,0.1,0,0.1,0c0,0,0,0,0,0
		c0.8,0.1,1.7,0.4,2.4,0.3c2.3-0.4,4.7-0.8,7-1.2c1.2-0.2,2.3-0.4,3.5-0.7c1.2-0.3,2.3-0.6,3.4-0.9c0.1,0,0.5-0.3,0.7-0.3
		c0.2,0,0-0.2,0-0.3c0.1-0.2,0.4-0.2,0.5-0.4c-0.1,0-0.3,0-0.3-0.1c0,0,0,0,0,0C30.8,42,30.8,42,30.9,42z"/>
	<path d="M76.7,57.6c-0.1-0.2-0.2-0.5-0.3-0.7c-0.1-0.3-0.6-0.3-0.8-0.2c-0.4,0.2-0.7,0.3-1,0.6c-0.7,0.7-1.4,1.5-2.3,2
		c-0.4,0.2-0.8,0.4-1.2,0.4c-0.2,0-0.4,0.1-0.7-0.1c-0.9-0.6-1.7-1.5-2.6-2.1c-0.4-0.3-0.9-0.5-1.4-0.6c-1.1-0.3-2.6-0.7-3.8-0.4
		c-0.4,0.1-0.8,0.2-1.2,0.3c-0.6,0.2-1.1,0.5-1.6,0.8c-1,0.7-1.8,1.5-2.8,2.3c-0.2,0.1-0.4,0.2-0.6,0.3c-0.2,0.1-0.4,0.1-0.6,0.2
		c-0.5,0.1-1.6-1.1-2-1.4c-0.7-0.5-1.3-1.1-2.1-1.4c-2.2-1-5.4-0.7-7.2,1c-0.9,0.9-1.8,2.1-3,2.5c-0.1,0-0.2,0-0.2,0
		c-1.5-1.3-3-2.7-4.9-3.3c-1.6-0.5-3.2-0.2-4.8,0.3c-0.5,0.2-1,0.4-1.4,0.8c-0.6,0.5-1,1.1-1.5,1.6c-0.3,0.3-0.6,0.5-1.1,0.6
		c-0.5,0.1-0.9,0.1-1.4,0c-0.8-0.3-1.5-1-2.2-1.5c-0.7-0.5-1.5-1.2-2.4-1.5c-0.9-0.3-1.8-0.6-2.7-0.5c-0.2,0-0.4,0-0.6,0.1
		c0,0,0,0,0,0c-1.1,0.1-2.5,0.7-3.5,1.2c-0.4,0.2-0.8,0.5-1.1,0.8c-0.9,1-2,2.1-2,3.6c0,0.3,0,0.6,0,1c0,0.1,0,0.7,0.1,0.8
		c0.3,0.4,1.6,0,2-0.1c0,0,0,0,0,0c0.4-0.2,0.3-0.5,0.6-0.8c0.7-0.6,1.1-1.5,1.8-2.1c0.4-0.3,0.8-0.6,1.3-0.7
		c0.3-0.1,0.7-0.4,1.1-0.3c0.2,0,0.5,0.1,0.7,0.2c0.4,0.1,0.8,0.6,1.1,0.8c0.4,0.3,0.8,0.5,1.2,0.8c0.8,0.6,1.5,1.3,2.3,1.8
		c0.2,0.2,0.5,0.3,0.8,0.3c0.8-0.1,1.6,0.3,2.4,0.2c0.8-0.1,1.8-0.2,2.5-0.7c0.5-0.3,1-0.7,1.4-1.1c0.5-0.6,0.9-1.3,1.6-1.8
		c0.3-0.2,0.7-0.4,1.1-0.5c0.5-0.1,0.9,0,1.3,0.1c0.3,0.1,1,0.7,1.3,0.9c0.1,0.1,0.4,0.3,0.5,0.4c0.6,0.7,1.4,1.9,2.3,2.3
		c0.6,0.2,1.5,0.4,2.2,0.3c0.4,0,0.7-0.1,1.1-0.2c2-0.4,3.4-2.3,4.8-3.6c0.2-0.2,0.5-0.4,0.8-0.4c0.4-0.1,0.8-0.2,1.3-0.1
		c0.3,0,0.6,0.2,0.8,0.4c0.4,0.4,0.9,0.8,1.4,1.2c0.1,0.1,0.2,0.1,0.2,0.1c0.1,0.2,0.3,0.3,0.4,0.5c0,0,0,0.1,0,0.1
		c0.1,0.2,0.1,0.4,0.2,0.5c0.5,0.5,1.5,0.8,2.2,0.9c0.4,0.1,0.8,0.1,1.1,0.2c2.7,0.1,4.7-2.7,6.8-4c0.3-0.2,0.7-0.3,1.1-0.4
		c0.4-0.1,1.1,0,1.4,0.3c0.9,0.7,1.6,1.5,2.5,2.1c1,0.7,2.2,1.3,3.5,1.1c0.2,0,0.6-0.1,0.8-0.2c0.8-0.3,1.7-0.7,2.4-1.1
		c1.5-1,2.1-2.4,2.8-3.8C76.8,58.4,76.8,57.9,76.7,57.6z"/>
	<path d="M18.2,57.7C18.4,57.7,18.2,57.7,18.2,57.7L18.2,57.7z"/>
	<path d="M11.8,19.2c0,0.2,0.2,0.3,0.3,0.4c0.4-0.1,0.3,0.2,0.5,0.4c0.2,0.3,0.3,0.2,0.6,0.4c0.6,0.4,1,1.1,1.7,1.4
		c0.8,0.3,1.6-0.5,2.1-1c0.2-0.2,0.4-0.4,0.7-0.6c0.3-0.2,0.5-0.2,0.8-0.5c0.6-0.7,1.1-1.5,1.6-2.2c0.6-0.9,1.3-1.7,2-2.5
		c0.7-0.8,1.4-1.5,2-2.3c0.3-0.5,1-1.9,1.7-1.8c0,1.3-0.4,2.7-0.8,4c-0.4,1.2-0.6,3-0.6,4.3c0,0.7,0,1.2-0.2,2
		c-0.1,0.7,0,1.5-0.1,2.2c-0.1,0.7,0.3,1.1,0.3,1.8c0,0.7-0.2,1.2,0.2,1.8c0.1-0.1,0.1-0.1,0.2-0.2c0.1,0.3,0.1,0.5,0.2,0.7
		c0.4-0.1,0.6-0.4,0.8-0.8c0.1,0.5,0,1.1,0.2,1.6c0.7-0.4,0.4,0.7,1.1,0.2c2,1.6,4.1-0.5,4.7-2.3c0.5-1.5,1.1-2.9,1.3-4.4
		c0.1-0.4,0.2-0.8,0.2-1.2c0.1-0.2,0.1-0.3,0.1-0.5c0-0.2,0-0.2,0.2-0.3c0.2-0.7,0.1-1.5,0.1-2.2c0,0,0,0,0.1,0
		c0,0.1,0.1,0.1,0.1,0.2c0-1,0.1-2.1,0.2-3.1c0.1,0.1,0.1,0.1,0.2,0.2c0.1-0.3-0.3-0.3,0-0.5c0,0,0,0,0.1,0c0-0.5,0.1-1,0.1-1.5
		c0.1,0.2,0.1,0.3,0.2,0.5c0.1-0.3,0.1-3,0.4-3c0-0.6,0.1-1.1-0.2-1.7c0.1,0,0.2,0,0.2,0c0.1-0.9,0.1-1.9,0.2-2.8c0,0,0,0-0.1,0
		c-0.2,0.3-0.1,0.6-0.4,0.8c-0.3-0.7,0.1-1.5-0.1-2.2c-0.2-0.6-0.8-1.3-1.2-1.7c-0.6-0.5-1-0.5-1.7-0.5c-0.7,0-0.9,0.2-1.5,0.5
		c-0.5,0.3-1.2,0.5-1.5,0.9c-0.3,0.5-0.3,1.3-1.1,1.3c-1,0-0.4-1-0.2-1.5c0.3-0.9,0.5-1.3-0.2-2c-0.5-0.6-0.9-1-1.6-1.1
		c-0.6-0.1-1.5-0.1-2.1,0.1c-1.1,0.5-2.1,1.6-3,2.3c-1.3,1-2.5,1.9-3.7,3.1c-0.6,0.5-1.1,1.1-1.7,1.6c-0.3,0.3-1.6,1.2-1.5,1.8
		c-0.4,0.2-0.7,0.7-1.1,1.1c-0.4,0.4-0.9,0.8-1.2,1.3c-0.3,0.4-0.4,0.9-0.6,1.4c-0.1,0.5-0.1,0.7-0.1,1.1c0,0.5-0.2,1-0.2,1.5
		c0,0.6,0.2,1.2,0.2,1.8c0.1,0.7,0.1,0.5,0.7,0.8C11.5,18.6,11.7,18.8,11.8,19.2z"/>
	<path d="M48.7,16.9c0.1,0.6,0.2,1.1,0.3,1.8c0.1,0.5,0.1,1.1,0.3,1.4c0,0.1,0.2,0.1,0.3,0.1c0.2,0.2,0.2,1,0.3,1.3
		c0.5-0.3,0.2,0.2,0.4,0.3c0.4,0.3,0.3-0.2,0.5-0.4c0.3-0.2,0.3-0.1,0.4,0.3c0.1,0.5,0,0.5,0.4,0.9c0.1,0.1,0.5,0.4,0.6,0.4
		c0.2,0,0.3-0.2,0.5-0.1c0.1,0,0.2,0.2,0.3,0.2c0.1,0.1,0.4,0.3,0.5,0.3c0.2,0,0.1,0,0.2-0.1c0.1,0,0.7-0.3,0.6-0.5
		c0.3,0.1,0.9-0.4,1.1-0.2c0.2-0.4,0.4-1.2,0.9-1.4c0,0.1,0,0.1,0,0.2c0.3-0.3,0.3-0.6,0.3-1c0.1,0,0.1,0,0.2-0.1
		c0-0.3,0-0.3,0.3-0.3c0.2-1.5,0.8-3,1-4.5c0.1-0.7-0.1-1.4-0.1-2.1c0.1-0.7,0.4-1,0.4-1.7c0.6,0.3,1.4,1.3,1.7,1.8
		c0.5,0.8,0.5,1.5,1.3,2.2c0.6,0.5,0.8,1.2,1.4,1.7c0.5,0.4,1,0.2,1.2,0.9c0.4-0.4,0.4-0.5,0.8,0c0.3-0.2,0.2-0.6,0.6-0.5
		c0.2,0,0.5,0.7,0.7,0.9c0.1,0,0.1,0,0.2-0.1c0.2-0.1,0.3-0.1,0.3,0.1c0.1,0,0.2,0.2,0.4,0.1c0.1,0,0.2-0.3,0.4-0.3
		c0.3-0.1,0.7,0.1,0.9,0.3c0.2-0.3,0.5-0.6,0.8-0.8c0.4-0.3,0.6-0.6,0.9-1c0.1-0.3,0.3-0.3,0.4-0.6c0.1-0.3,0.1-0.7,0.1-1.1
		c0,0,0,0,0.1,0c0,0,0,0.1,0,0.2c0.6-1.2,0.1-2.6-0.5-3.7c-0.7-1.3-1.4-2.4-2.2-3.6c0,0.4,0.6,1,0.8,1.4c0.3,0.5,0.6,1.1,0.8,1.6
		c0.6,1.1,1,2.2,1,3.4c-0.3-0.6-0.4-1-0.5-1.7c0-0.2,0-0.5-0.1-0.8c-0.1-0.3-0.2-0.2-0.4-0.3c-0.1-0.1-0.3,0-0.4-0.1
		c-0.2-0.1-0.3-0.7-0.4-0.8c-0.2-0.6-0.5-1.1-0.9-1.7c0.2-0.2-1.5-3.1-1.7-3.4c-0.3-0.4-0.6-0.6-0.9-1c-0.1-0.2-0.3-0.4-0.5-0.6
		c-0.2-0.1-0.4,0-0.5-0.2c-0.1-0.2-0.1-0.5-0.2-0.7c-0.1-0.3-0.4-0.6-0.6-0.8c-0.2-0.2-0.4-0.6-0.7-0.6c-0.2,0-0.3,0.2-0.5,0.2
		c-0.2,0-0.4-0.2-0.6-0.2c-0.2,0-0.5,0.2-0.7,0.2c-0.6,0.2-1.1,0.3-1.7,0.6c-0.5,0.3-0.9,0.8-1.4,1.1c-0.5,0.3-1.2,0.1-1.7,0.1
		c-0.4,0-1.2,0.1-1.5,0.3c-0.5,0.3-0.6,0.7-1.3,0.7c-0.6,0-1.1-0.2-1.8,0c-0.4,0.1-0.8,0.5-1.1,0.8c-0.8,0.8-1.4,1.7-1.7,2.8
		c0.2-0.1-0.1,1.2-0.1,1.3c-0.2,0.6-0.4,1.2-0.7,1.7c-0.6,1-0.8,2.6-0.3,3.7C48.2,15.8,48.6,16.2,48.7,16.9z"/>
	<path d="M47.9,15.1C47.8,14.8,48.1,15.5,47.9,15.1L47.9,15.1z"/>
	<path d="M36.7,21.6c0.1,0.4,0.2,2.3,0.6,2.2c0,0.1,0.1,0.3,0.1,0.4c0.4,0,0.3-0.1,0.5-0.3c0.1,0.2,0.2,0.5,0.3,0.7
		c0,0.1,0,0.2,0,0.2c0.1,0.2,0.2,0.2,0.4,0.2c0.3,0.4,0.2,0.7,0.8,0.4c0.2,0.2,0.5,0.7,0.8,0.7c0,0,0.4-0.3,0.4-0.3
		c0.2-0.1,0.5-0.1,0.8-0.2c0.9-0.3,1.4-0.9,2.1-1.4c0.1-0.4,0.2-0.8,0.4-1.2c0.1-0.2,0.4-0.3,0.4-0.6c0-0.3-0.2-0.6-0.2-0.9
		c0-0.3,0.2-0.6,0.2-0.8c0.1-0.3,0-0.7,0.1-1c0.2-0.5,0.7-0.8,0.8-1.4c0-0.3-0.1-0.6,0-0.9c0.1-0.3,0.3-0.5,0.3-0.8
		c0.1-0.4,0.2-0.8,0.1-1.2c0-0.3-0.2-0.5-0.3-0.7c-0.1-0.6,0.1-1.3,0.2-1.9c0.1-0.7,0.1-1.4,0.1-2.1c0-1.2,0.6-2.7,0.2-3.9
		c-0.3-1.1-2-1.4-2.9-1.7C42.2,5,41.8,4.8,41,5.2c-0.8,0.3-0.9,0.7-1.5,1.3C39.3,6.6,39,6.7,38.8,7c-0.2,0.2-0.1,0.5-0.2,0.7
		c-0.2,0.6-0.6,1.2-0.9,1.7c-0.7,1.3-1.3,3-1.5,4.4c-0.1,0.9-0.2,1.8-0.3,2.7c-0.1,0.9,0.2,1.5,0.4,2.3
		C36.5,19.7,36.5,20.7,36.7,21.6z"/>
	<path d="M37.4,7.9c0-0.1,0-0.1,0.1-0.2c0.1-0.1,0.2-0.2,0.3-0.3c0,0,0-0.1,0-0.1c-0.1,0-0.2,0-0.3,0.1c-0.1,0.1-0.1,0.2-0.2,0.3
		C37,7.8,37,8,36.9,8.1c0.2,0,0.3,0,0.5,0C37.4,8.1,37.4,8,37.4,7.9z"/>
	<path d="M70.8,12.5c-0.1-0.3-0.2-0.6-0.2-0.9c0,0-0.1,0-0.1,0c0,0.1,0,0.1,0,0.2C70.5,12.1,70.6,12.3,70.8,12.5
		C70.8,12.5,70.8,12.5,70.8,12.5z"/>
	<path d="M37.1,8.6C37,8.9,37,9.1,37.2,9.3c0-0.1,0-0.1,0-0.2c0-0.1,0-0.3,0-0.4c0,0,0-0.1,0-0.1C37.2,8.6,37.1,8.6,37.1,8.6z"/>
	<path d="M70,11c0.1,0.2,0.2,0.4,0.4,0.6C70.4,11.2,70.3,11,70,11z"/>
	<path d="M36.6,9c0-0.2,0-0.4,0-0.6C36.3,8.7,36.3,8.9,36.6,9z"/>
	<path d="M67,7c0,0,0.1,0.1,0.1,0.1c0,0,0.1-0.1,0.1-0.1c0-0.1-0.1-0.2-0.1-0.3c0,0-0.1,0-0.1,0C67.1,6.9,67,7,67,7z"/>
	<path d="M67.1,6.7c-0.1-0.1-0.1-0.1-0.2-0.2c0,0-0.1,0-0.1,0C66.8,6.7,66.9,6.7,67.1,6.7z"/>
	<path d="M69.9,9.7c-0.1-0.1-0.2-0.3-0.3-0.4c0,0,0,0-0.1,0C69.6,9.5,69.7,9.6,69.9,9.7C69.9,9.8,69.9,9.8,69.9,9.7z"/>
</g>
</svg>
