<?xml version="1.0" encoding="utf-8"?>
<!-- Generator: Adobe Illustrator 19.1.0, SVG Export Plug-In . SVG Version: 6.00 Build 0)  -->
<svg version="1.1" xmlns="http://www.w3.org/2000/svg" xmlns:xlink="http://www.w3.org/1999/xlink" x="0px" y="0px"
	 viewBox="0 0 86 86" style="enable-background:new 0 0 86 86;" xml:space="preserve">
<style type="text/css">
	.st0{fill:#CEB49F;}
	.st1{fill:#F4914F;}
	.st2{fill:#F7B284;}
	.st3{fill:#FA8C97;}
	.st4{fill:#FCC5CB;}
	.st5{fill:#F1AD2B;}
	.st6{fill:#F8D695;}
	.st7{fill:#9D6A3E;}
	.st8{fill:#4BA9BD;}
	.st9{fill:#9ACFDA;}
</style>
<g id="color">
</g>
<g id="features">
	<g>
		<path d="M19.8,57.9C19.8,57.9,19.7,58.1,19.8,57.9L19.8,57.9z"/>
		<path d="M65,60.1C64.9,59.9,65,60.1,65,60.1L65,60.1z"/>
		<path d="M84.4,46.8c-0.3-5.3-0.7-10.5-1.6-15.7c0-0.1,0-0.1,0-0.2c-0.4-1.1-0.5-2.2-0.8-3.3c-0.3-0.8-0.6-1.6-0.9-2.5
			c-0.9-2.2-1.7-4.4-2.7-6.5c-1-2-2-3.9-3.2-5.7c-1.3-1.9-2.9-4.1-4.9-5.4c-3.4-2.3-7-4.3-10.9-5.7c-3.5-1.3-7.2-1.5-11-1.8
			c-0.3,0-0.3,0-0.3,0c-2,0-3.9,0.2-5.9,0.5c-1,0.2-2.1,0.2-3.1,0.6c-0.6,0.2-1.1,0.6-1.7,0.8c0,0.6-0.5,0.6-0.9,0.8
			c-0.2,0.1-0.2,0.3-0.4,0.5c-0.2,0.1-0.3,0-0.4,0.1c-0.1,0.1-0.2,0.2-0.4,0.3c-0.2,0.1-0.7,0.3-0.8,0.6c0,0.1-0.1,0.1-0.1,0.2
			c-0.2,0.2-0.4,0.4-0.6,0.5c-0.2,0.1-0.1,0.3,0,0.4c0.2,0.3,0.4,0,0.6,0.1c0.8,0.5,1.5,0.8,2.6,0.9c0.9,0.1,2.2,0,3,0.4
			c0.5,0.3,1,0.6,1.6,0.7c1,0.2,1.9,0.2,2.9,0.3c0.8,0.1,1.6,0.1,2.3,0.2c0.9,0.2,1.7,0.3,2.5,0.4c0.8,0.1,1.8,0.3,2.6,0.6
			c4.7,2.1,8.8,5.1,12.9,8.3c0.6,0.5,1.1,1.3,1.5,2c0.5,0.7,1,1.4,1.3,2.2c0.4,0.8,0.7,1.6,1.1,2.3c-0.1-0.1-0.2-0.2-0.4-0.2
			c-1.1-0.5-2.4-0.7-3.6-1c-1.2-0.3-2.4-0.7-3.6-1c-1.1-0.3-2.1-0.5-3.2-0.7c-1.1-0.3-2.3-0.3-3.4-0.5c0.1,0.2-0.1,0.2-0.3,0.2
			c0,0,0,0,0,0c-0.6,0.2-1.5,0.2-1.8,0.8c-0.3,0.4-0.1,0.9,0,1.3c0,0.2,0.4,0.5-0.1,0.4c0,0.2,0.4,0.2,0.4,0.4
			c0,0.1-0.1,0.1-0.1,0.2c0,0,0,0,0,0c0.9,0.4,1.8,0.9,2.7,1.3c1.2,0.5,2.5,1,3.8,1.4c0.5,0.2,1.1,0.3,1.6,0.5
			c-0.2,0-0.3-0.1-0.5-0.1c0,0,0,0,0,0c-0.1,0.1-0.6,0.2-0.6,0.2c-0.1,0.2-0.2,0.1-0.2,0.2c0,0.2-0.1,0.4-0.2,0.5c0,0-0.1,0-0.1-0.1
			C59.1,27.8,59,27.8,59,28c-0.1,0.1-0.1,0.1-0.2,0c-0.2,0.4-0.5,0.6-0.5,1.1c-0.1,0.5-0.2,0.9-0.3,1.4c0,0.4-0.4,0.9-0.3,1.3
			c0.1,0.7,0.3,1.4,0.5,2.1c-0.2,0.1-0.3,0.2-0.5,0.3c-0.1-0.2-0.1-0.5-0.2-0.7c-0.5-0.8-1-1.7-1.6-2.4c-0.2-0.2,0.1-0.4,0-0.5
			c-0.3-0.3-0.6-0.6-0.9-0.8c0,0,0,0,0,0c0.5,0.3,0.8,0.7,1.2,1.2c-0.7-1.3-2-2-3.4-1.3c0,0.3-0.1,0.4-0.4,0.4c0,0-0.1,0.5-0.1,0.4
			c0,0.1,0.1,0.2,0.1,0.4c0.1,0.3-0.4,0-0.3,0.3c0.1,0.1-0.1,0.2-0.2,0.2c0.1,0.1,0.1,0.1,0.1,0.3c0,0,0,0.1,0,0.1
			c-0.1,0.8,0.7,1.6,0.9,2.3c0,0.1,0,0.2,0.1,0.3c0.1,0.4,0.2,0.7,0.5,1c0.4,0.4,0.8,0.8,1.3,1.1c-0.2,0.3-0.4,0.6-0.6,1
			c-0.5,1.5-0.3,3.5,0.1,5c0.3,0.9,0.7,1.7,1.2,2.5c0.3,0.4,0.5,0.8,0.8,1.1c0.3,0.3,0.7,0.5,1,0.8c0.4,0.5,1.8,0.8,2.4,0.8
			c0.4,0,0.8,0.1,1.2,0c0.2,0,0.3-0.1,0.5-0.1c0.2,0,0.5-0.1,0.7-0.3c1.2-1.1,2.5-2.3,3.4-3.7c0.9-1.5,1.1-3.3,1-5.1
			c0-0.3-0.1-0.6-0.2-0.8c-0.2-0.6-0.7-1.2-1-1.8c-0.1-0.2,0.3-0.3,0.4-0.4c0.6-0.7,1.2-1.4,1.8-2.2c0.2-0.2,0.4,0,0.5-0.3
			c0.1-0.3,0.2-0.6,0.5-0.9c-0.1,0.3-0.1,0.5-0.3,0.7c-0.1,0.2-0.3,0.4-0.4,0.6c0.1-0.1,0.2-0.2,0.3-0.3c0.1-0.2,0.2-0.4,0.3-0.5
			c0.2-0.2,0.2-0.5,0.2-0.8c0-0.3,0-0.6-0.1-0.8c-0.1-0.2-0.1-0.4-0.2-0.5c-0.1-0.2-0.3-0.3-0.4-0.5c0,0,0,0-0.1,0
			c-0.2,0.1-0.4-0.3-0.5-0.2c-0.2,0.2-0.2-0.1-0.3,0c-0.1,0.1-0.2,0.2-0.3,0.3c-0.1,0.1-0.2,0.1-0.2-0.1c-0.1-0.3-0.3,0-0.5-0.3
			c0,0.2-0.7,0.4-1,0.5c-0.3,0.2-0.8,0.5-1.1,0.8c-0.4,0.6-1.2,0.8-1.4,1.5c0,0.1-0.1,0.1-0.1,0.1c-0.2,0-0.4,0-0.6,0.1c0,0,0,0,0,0
			c0.3-1,0.2-2.2,0.2-3.3c0-0.2,0.3-0.2,0.3-0.4c-0.1-0.4-0.2-0.8-0.3-1.2c0,0,0,0,0.1,0c0.2,0.5,0.3,1.1,0.3,1.7
			c0-0.2,0.1-0.4,0-0.6c-0.1-0.6-0.1-1-0.5-1.4c0,0,0,0,0,0c-0.1,0.1-0.1-0.1-0.1-0.1c-0.1-0.1-0.1-0.2-0.2-0.3
			c-0.2-0.2-0.4-0.3-0.7-0.4c0.8,0.2,1.6,0.4,2.4,0.7c1.1,0.4,2.2,0.7,3.3,1c0.5,0.1,1.3,0.1,1.8,0.2c0.3,0,0.7,0,0.9-0.1
			c0,0,0,0,0,0c0.4,0,0.6,0.2,0.9-0.1c0.1-0.1,0.1-0.2,0.2-0.3c0.7,2.2,1.4,4.5,1.8,6.8c0.6,3.1,0.7,6.3,0.7,9.5
			c0,3.3-0.1,6.7-0.3,10c-0.1,2-0.4,4.1-0.6,6.1c-0.3-0.1-0.8-0.2-1.1-0.3c-0.5-0.2-1-0.5-1.4-0.8c-0.9-0.7-1.5-1.5-2.3-2.3
			c-0.3-0.3-1-0.4-1.3-0.5c0,0-0.1,0-0.1,0c-0.2,0.1-0.3,0.1-0.4-0.1c0-0.1-0.1-0.1-0.1,0c0,0-0.1,0-0.1,0.1c0,0-0.1,0.1-0.1,0.1
			c0,0.1-0.1,0.1-0.1,0.2c0,0,0,0-0.1,0c0,0-0.1-0.1-0.1,0c-0.1,0.2-0.7,0.4-0.6,0.6c0.1,0.2-0.2,0.1-0.1,0.3
			c0.1,0.1,0.2,0.3,0.1,0.5c-0.1,0-0.2,0-0.1,0.1c0.1,0.2,0,0.1,0,0.3c0.1,0.1,0.1,0.3,0.2,0.4c0.2,0.3,0.5,0.5,0.7,0.7
			c-0.7,0.4-1.5,0.7-2.2,1.1c-0.1,0.1-0.2,0-0.4,0c-3,1.5-6.2,2-9.4,2.7c-5.7,1.2-11.8,1.2-17.6,0.5c-5.9-0.7-12.3-1.1-17.5-4.2
			c0,0,0.4-0.5,0.4-0.4c0,0,0,0,0,0c0-0.2,0.1-0.1,0.3-0.3c0.1-0.1,0.3-0.2,0.4-0.3c0.5-0.5,0.7-1.2,1-1.9c0-0.1,0-0.1,0-0.2
			c0,0,0,0,0,0c0,0,0,0.1-0.1,0.2c0,0-0.1-0.4-0.2-0.4c-0.2-0.2-0.2-0.5-0.4-0.7c-0.2-0.2-0.3,0-0.4-0.4c0.1-0.4-0.7-0.2-0.8-0.4
			c-0.4,0.2-0.6,0.1-1,0.4c0,0,0,0,0,0c0,0,0,0-0.1-0.1c-0.3,0.2-0.3,0.5-0.5,0.7c0-0.1,0-0.2,0-0.3c0,0,0,0,0,0
			c0.2,0.7-0.9,1.7-1.5,1.8c-0.3,0.1-0.7,0.2-1.1,0.3c-0.1,0-0.3,0.1-0.4,0c-0.1-0.6-0.1-1.2-0.2-1.7c0,0.6,0.1,1.2,0.1,1.7
			c0,0-0.1,0-0.1,0c-0.2-1.7-0.4-3.3-0.5-4.9c-0.2-3.6-0.4-7.2-0.5-10.8c0-0.1,0-0.2,0.1-0.3c0,0,0,0,0.1,0
			c0.1,4.5,0.2,9.1,0.7,13.6c0.2-0.8,0-1.7-0.1-2.6c0-1-0.2-2-0.2-3c-0.1-1.2-0.1-2.3-0.1-3.5c0-1.1-0.3-2.4,0-3.5
			c0-0.2,0-0.6,0-0.8c0-0.4,0-0.8,0-1.2c0-0.7,0.3-1.9,0-2.6c0,0,0.1-0.6,0.1-0.7c0-0.3,0-0.6,0-0.9c0-0.3,0.3-1.6,0.1-1.9
			c0,0,0.1-0.8,0.1-0.9c0-0.2-0.1-1,0.1-1.2c0,0,0.1-0.1,0.1-0.1c0.3-1.4,0.4-2.8,0.7-4.1c0.2-0.1,0.2,0,0.1-0.3
			c0.3-0.8,0.3-1.7,0.5-2.5c0.2-0.9,0.4-1.8,0.7-2.7c0-0.1,0.1-0.2,0.1-0.3c0.8,0.4,1.6,0.8,2.4,1.2c1.2,0.5,2.5,1,3.8,1.4
			c1.4,0.5,2.8,0.8,4.1,1.2c1.1,0.4,2.2,0.7,3.3,1c0.5,0.1,1.3,0.1,1.8,0.2c0.3,0,0.7,0,0.9-0.1c0,0,0,0,0,0c0.4,0,0.6,0.2,0.9-0.1
			c0.2-0.2,0.5-0.8,0.4-1.1c0-0.3-0.1-0.5-0.1-0.8c0.1-0.1,0.1-0.2,0.2-0.3c0.5-0.7-1.2-2.1-1.6-2.5c-0.2-0.2-0.5-0.3-0.7-0.4
			c-1.1-0.5-2.4-0.7-3.6-1c-1.2-0.3-2.4-0.7-3.6-1c-1.1-0.3-2.1-0.5-3.2-0.7c-1.1-0.3-2.3-0.3-3.4-0.5c0.1,0.2-0.1,0.2-0.2,0.2
			c0.2-0.4,0.4-0.9,0.6-1.3c1.4-2.8,3.6-6.4,6.6-7.9c1.4-0.7,2.8-1.2,4.2-1.8c1-0.4,2.3-0.9,3-1.8c0.1-0.1,0.2-0.3,0.3-0.4
			c0.2-0.3,0.2-0.7,0.3-1c-0.1,0-0.2-0.1-0.3-0.1c0-0.1,0.1-0.2,0.1-0.3c0.2-0.3-0.1-0.4-0.2-0.7c0-0.2,0.2-0.4,0.2-0.7
			c-0.1-0.4-1-0.6-1.2-1c0,0,0-0.1-0.1-0.1c-0.3-0.1-0.7-0.2-0.9-0.4c-0.2-0.1,0.1-0.2-0.1-0.3c-0.5-0.4-1.3-0.1-1.8,0
			c0-0.2,0.1-0.3,0.1-0.5c-0.4,0-0.9,0-1.4,0c0-0.1,0-0.2,0-0.2c-1.4,0.5-2.9,0.8-4.4,1.3c-1.3,0.5-2.6,1.1-3.9,1.7
			c-2.5,1.4-4.6,3.3-6.3,5.6C5.1,18.6,2,29.1,1.2,39.8C0.9,45.2,0.8,50.5,1,55.9C1.2,60.9,1.3,66,2.1,70.9c0.1,0,0.2,0.1,0.3,0.1
			c0.1,0.2,0.2,0.1,0.2,0c0-0.1,0.1-0.1,0.2-0.1c0.2,0,0.5-0.1,0.6-0.3c-0.2-0.1-0.1-0.3,0-0.5c0-0.1,0.1-0.1,0.2-0.1c0,0,0,0,0,0
			c0.1-0.1,0.1-0.2,0.2-0.4C3.8,69.8,3.9,69.9,4,70c0-0.1,0.1-0.1,0.1-0.1c0.1-0.1,0.1-0.2,0.2-0.2c0.2-0.1,0.3,0.7,0.4,0.7
			c0,0.1,0,0.2,0,0.3c0.1-0.2,0.2-0.3,0.3-0.5c0.1-0.1,0.2-0.1,0.3,0c0,0.1,0.1,0.1,0.1,0.2c0.2-0.1,0.4-0.1,0.5-0.2
			c0.1-0.1,0.3-0.6,0.5-0.5c0.1,0,0.2,0.4,0.2,0.5C6.8,70,7,69.9,7.2,69.8c0,0.3,0.2,0.4,0.3,0.3c0.2-0.1,0.3-0.1,0.6-0.1
			c0.1-0.2,0.3-0.5,0.4-0.7c0.1-0.1,0.2-0.2,0.4-0.2c0.1,0,0.2,0,0.4,0c0.3-0.1,0.4,0,0.6,0.2c0,0,0.1,0.1,0.1,0.1
			c0.2-0.3,0.3-0.6,0.7-0.7c0.3-0.1,0.5-0.3,0.8-0.4c0.7-0.2,1.2-1.5,1.5-2.1c0.2-0.3,0.6-0.3,0.8-0.6c0-0.1-0.1-0.1-0.1-0.1
			c-0.3-0.8,0.8-1.3,0.5-2.1C14,63.2,14,63,14,62.8c-0.1,0.5,0.1,1.1-0.3,1.5c-0.1-0.1-0.1-0.2-0.1-0.3c0-0.8,0-1.5,0-2.3
			c0.3,0,0.6-0.1,0.9-0.2c0.4-0.1,0.8,0.5,1,0.8c0.4,0.4,0.8,0.7,1.3,1c0.9,0.6,1.9,1.2,2.9,1.6c2.2,1,4.7,1.7,7.1,2.1
			c2,0.4,4.2,0.6,6.2,0.9c2.1,0.3,4.3,0.6,6.4,0.8c5.4,0.4,11.1,0.2,16.4-0.9c0,0,0,0,0,0c-0.3,0.1-0.7,0.2-1,0.4
			c0.9-0.1,1.7-0.3,2.5-0.5c0.6-0.1,1.4-0.2,1.9-0.5c0.1-0.1,0.3-0.2,0.4-0.2c0,0,0,0,0,0c0,0-0.1,0.1-0.1,0.1c0,0,0,0,0,0
			c0,0,0.1,0,0.1,0c0,0,0,0,0,0c0.1,0.1,0.1,0,0.2,0c1-0.2,2.1-0.6,3.1-1c1.1-0.4,2.3-0.9,3.3-1.5c0.1-0.1,0.2-0.2,0.3-0.3
			c0.4-0.2,0.8-0.4,1.2-0.6c0-0.1,0.1-0.2,0.1-0.2c0.1-0.1,0.3-0.1,0.4-0.2c0,0,0.1,0,0.1,0c0.9,0.3,1.7,0.5,2.7,0.6
			c0.1,0,0.2,0,0.2-0.2c0,0,0,0,0-0.1c0.1,0,0.2,0,0.3,0c0,0-0.1-0.1-0.1-0.1c0,0,0.1,0,0.1,0c0,0.4-0.1,0.7-0.1,1.1
			c0,0.4,0,0.9,0.1,1.3c0,0.1,0.1,0.2,0.3,0.2c0.2,0,0.4-0.1,0.5-0.3c0-0.1,0.1-0.1,0.2-0.2c0,0,0.1,0,0.1,0c0,0.7-0.1,1.4-0.3,2.1
			c0.6,0.1,0.8-0.8,1.5-0.5c0.2,0.1,0.3,0.2,0.2,0.5c0,0.1,0,0.1,0,0.2c0,0.2,0.1,0.4,0.2,0.6c0.2,0.4,0.2,0.9-0.1,1.4
			c0.5,0,1,0,1.5,0c0.5,0,0.8-0.2,1.3-0.2c0.5,0,0.9-0.1,1.1-0.6c0-0.1,0.1-0.2,0.2-0.3c0.1,0,0.2,0,0.4,0.1c0,0,0,0,0,0
			c0.2-0.2,0.4-0.4,0.6-0.5c0.3-0.2,0.6-0.2,0.9-0.4c0.1-0.1,0.2-0.2,0.3-0.3c0.4-0.3,0.9-0.6,1.3-1c0.5-0.5,1-0.9,1.2-1.6
			c0.1-0.4,0.2-0.9,0.4-1.3c0,0,0-0.1,0-0.1c0-0.2,0-0.4,0.2-0.5c0.2-0.1,0.3-0.3,0.4-0.4c0.1-0.1,0.2-0.3,0.3-0.4
			c0-0.1-0.1-0.1-0.1-0.2c0.4-2.5,0.4-5.1,0.5-7.6C84.6,51.9,84.5,49.3,84.4,46.8z M61.4,37.9c0,0.1-0.1,0.3-0.1,0.3
			c-0.2,0.1-0.1,0.2-0.2,0.3c0,0-0.1-0.1-0.1-0.1c0,0.1-0.1,0.2-0.1,0.4c0,0,0,0-0.1,0c0-0.1-0.1-0.1-0.1-0.2c0,0.1,0,0.1,0,0.2
			c0,0,0,0.1,0,0.1c-0.2,0.1-0.4,0.4-0.6,0.6c-0.2,0.2-0.3,1.4-0.2,1.7c0.2,0.6,0.3,1.1,0.5,1.7c0.2,0.6,0.8,0.8,1.2,1.1
			c0,0,0,0.1,0,0.1c-0.2,0.3-0.5,0.6-0.9,0.8c-0.3,0.2-0.6,0.2-1,0.1c-0.5-0.1-0.7-0.5-1-0.8c-0.3-0.4-0.6-0.8-0.8-1.2
			c-0.2-0.4-0.4-0.9-0.5-1.3c-0.2-0.8-0.2-1.7-0.2-2.6c0-0.1,0.2-0.2,0.3-0.3c0.1-0.1,0.1-0.2,0.2-0.3c0.1-0.1,0.1-0.2,0.2-0.2
			c0,0.2-0.1,0.4-0.1,0.6c0,0,0,0,0,0c0.1-0.3,0.3-0.5,0.4-0.8c0.2-0.3,0.5-0.5,0.8-0.8c0.2-0.2,0.4,0.1,0.7-0.1
			c0.3-0.2,0.8,0,1.1-0.1c0.2-0.1,0.3,0.1,0.4,0.2C61.3,37.4,61.3,37.7,61.4,37.9z M19.8,57.9C19.8,57.9,19.8,57.9,19.8,57.9
			c-0.1,0.2-0.1,0.4-0.2,0.6c0,0,0,0,0,0C19.6,58.3,19.7,58.1,19.8,57.9z M13.8,61.6c-0.1,0-0.1,0-0.2,0c0,0,0,0,0-0.1
			C13.7,61.6,13.8,61.6,13.8,61.6C13.8,61.6,13.8,61.6,13.8,61.6z"/>
		<path d="M30.7,33.9c0,0,0.1-0.1,0.1-0.1c0.3-0.3,0.4-0.6,0.6-0.9c0.1-0.2,0.2-0.5,0.2-0.8c0-0.3,0-0.6-0.1-0.9
			c-0.1-0.2-0.1-0.4-0.2-0.5c-0.1-0.2-0.3-0.3-0.4-0.5c-0.2,0-0.4,0.1-0.5-0.2c-0.1-0.3-0.7,0.2-0.8,0.2c-0.2,0-0.1-0.1-0.2-0.1
			c-0.1,0-0.4-0.1-0.5-0.3c0,0.2-0.8,0.4-1,0.5c-0.3,0.2-0.8,0.5-1,0.8c-0.4,0.6-1.2,0.8-1.4,1.5c-0.1,0.2-0.6,0.2-0.8,0.2
			c0-0.1,0.1-0.2,0.1-0.4c0.1-1,0.1-1.9,0.1-2.9c0-0.2,0.2-0.2,0.3-0.4c0-0.3-0.2-0.9-0.3-1.2c0.3,0.1,0.3,1,0.3,1.2
			c0,0.6-0.1,1.2-0.1,1.8c0.4-0.6,0.2-2.2,0.1-2.9c-0.1-0.2-0.5-0.7-0.6-0.8c-0.4-0.4-0.8-0.5-1.3-0.6c-0.1,0.2-0.2,0.1-0.4,0.2
			c-0.1,0.1-0.3,0.2-0.4,0.3c-0.1,0.1-0.1,0.4-0.2,0.5c0,0-0.1-0.1-0.1-0.1c0,0-0.5,0.1-0.4,0.1c-0.4,0.6-0.9,1.5-0.8,2.3
			c0.1,0.5-0.1,0.8-0.2,1.3c-0.2,0.6,0.2,1.6,0.4,2.2c0.1,0.3-0.2,0.4-0.4,0.5c-0.4-0.9-0.9-1.8-1.4-2.7c-0.1-0.1-0.3-0.4-0.4-0.5
			c0-0.1,0.1-0.3,0.1-0.3c-0.2-0.4-0.7-0.5-0.9-0.9c0.3-0.2,1.1,1.1,1.2,1.3c-0.3-1.5-2.2-1.9-3.4-1.4c0,0.4-0.4,0.4-0.4,0.9
			c0,0.1,0.1,0.3,0.1,0.4c0.1,0.1,0,0.2-0.1,0.2c0,0.2-0.2,0-0.1,0.3c-0.1,0-0.1,0.1-0.2,0.1c0.1,0.1,0.1,0.8,0.1,1.1
			c0.1,0.3,0.2,0.7,0.3,1c0.2,0.4,0.4,0.6,0.6,1.1c0.1,0.4,0.3,0.7,0.6,1c0.4,0.4,0.8,0.7,1.2,1.1c-0.9,1.6-1,3.9-0.5,5.7
			c0.5,1.6,1.3,3.1,2.6,4.3c0.3,0.3,0.6,0.4,0.9,0.6c0.3,0.2,0.6,0.2,0.8,0.4c0.6,0.3,1.7,0.4,2.3,0.3c0.4-0.1,0.9-0.1,1.2-0.3
			c0.6-0.6,1.2-1.2,1.8-1.8c1.6-1.6,2.4-3.2,2.5-5.4c0-0.8,0.2-1.8-0.2-2.5c-0.4-0.6-0.6-1.2-0.9-1.8c0.9-0.6,1.5-1.6,2.2-2.4
			c0.1-0.1,0.3,0,0.4-0.1c0.2-0.4,0.3-0.7,0.6-1.1c-0.1,0.2-0.2,0.5-0.3,0.7C31.1,33.5,30.9,33.7,30.7,33.9z M24.4,44.2
			c-0.2,0.3-0.5,0.5-0.7,0.7c-0.3,0.2-0.6,0.2-1,0.1c-0.5-0.1-0.7-0.4-1-0.8c-0.3-0.4-0.6-0.8-0.8-1.3c-0.2-0.4-0.4-0.9-0.5-1.3
			c-0.2-0.8-0.2-1.7-0.2-2.6c0-0.1,0.1-0.1,0.2-0.2c0.1-0.1,0.2-0.2,0.3-0.4c0.1-0.1,0.2-0.2,0.2-0.3c-0.1,0.2-0.1,0.4-0.1,0.6
			c0,0,0,0,0,0c0.2-0.5,0.4-0.9,0.8-1.3c0.1-0.1,0.3-0.4,0.5-0.4c0.2-0.1,0.3,0.1,0.5,0c0.3-0.2,1.1-0.2,1.4,0
			c0.2,0.1,0.6,1,0.1,1.1c-0.1,0.1-0.1,0.2-0.1,0.3c-0.1,0-0.1-0.1-0.2-0.1c0,0.1-0.1,0.2-0.1,0.4c0,0,0,0-0.1,0
			c0-0.1-0.1-0.1-0.1-0.2c-0.1,0.4-0.7,0.6-0.8,1c-0.1,0.5-0.1,1-0.1,1.5c0.2,0.8,0.4,2,1.2,2.5c0.1,0.1,0.2,0.2,0.4,0.3
			C24.5,44,24.6,44,24.4,44.2z"/>
		<path d="M57.8,38.2C57.7,38.3,57.8,38.4,57.8,38.2L57.8,38.2z"/>
	</g>
</g>
</svg>
