<?xml version="1.0" encoding="utf-8"?>
<!-- Generator: Adobe Illustrator 19.1.0, SVG Export Plug-In . SVG Version: 6.00 Build 0)  -->
<svg version="1.1" xmlns="http://www.w3.org/2000/svg" xmlns:xlink="http://www.w3.org/1999/xlink" x="0px" y="0px"
	 viewBox="0 0 86 86" style="enable-background:new 0 0 86 86;" xml:space="preserve">
<style type="text/css">
	.st0{fill:#CEB49F;}
	.st1{fill:#F4914F;}
	.st2{fill:#F7B284;}
	.st3{fill:#FA8C97;}
	.st4{fill:#FCC5CB;}
	.st5{fill:#F1AD2B;}
	.st6{fill:#F8D695;}
	.st7{fill:#9D6A3E;}
	.st8{fill:#4BA9BD;}
	.st9{fill:#9ACFDA;}
</style>
<g id="color">
</g>
<g id="features">
	<path d="M14.2,49.9c1,0.8,2,1.4,3.3,1.6c0.6,0.1,2.5,0.7,2.6-0.3c0.3,0,1.2,0,1.3-0.3c2.1-0.4,3.6-3.2,4.3-5
		c0.4-1.1,0.7-2.2,0.9-3.3c0.1-0.5,0.1-1.1,0.1-1.6c0-0.5,0.2-1.1,0.1-1.6c0,0-0.1,0-0.1,0c0-0.1,0.1-0.2,0.1-0.2
		c-0.2-0.1-0.2-0.2-0.2-0.4c0.1,0,0.2,0,0.3,0c0,0,0,0,0,0c-1.2-1.1-3-0.8-4.5-0.8c-2,0-4,0-6,0c0,0,0,0,0,0c0,0,0.1-0.1,0.2-0.1
		c-1.1,0-2.2,0.2-3.3,0.4c-0.3,0.1-0.8,0.1-1.1,0.2c-0.2,0.1-0.3,0.3-0.5,0.4c0,0-0.1,2.1-0.1,2.3c-0.1,1.1-0.1,2.1,0.1,3.2
		C12,46.3,12.6,48.5,14.2,49.9z M16.7,40.9c2.3,0.2,4.5,0.4,6.8,0.6c-0.2,1.1-0.7,1-1.7,0.7c0,0.1,0,0.1-0.1,0.2
		c-0.6-0.3-1.2-0.2-1.8,0.1c-0.6-0.3-0.8,0.3-1,0.7c-0.2,0.6,0,1,0,1.6c0,1.3,0.1,2.3,1.3,3.1c-0.5,0.4-0.9,0.2-1.5,0.2
		c0-0.2-1.2-0.5-1.4-0.6c-0.6-0.4-1.2-0.9-1.5-1.5c-0.9-1.6-1.1-3.5-1.2-5.3C15.4,40.8,16,40.8,16.7,40.9z"/>
	<path d="M68.8,37.4c-1.9,0-3.8,0-5.6,0c0,0,0,0,0,0c0,0,0.1-0.1,0.2-0.1c-1.1,0-2.2,0.2-3.3,0.4c-0.3,0.1-0.8,0.1-1.1,0.2
		c-0.2,0.1-0.3,0.3-0.5,0.4c0.1,0-0.2,3.9-0.1,4.3c0.1,1.8,0.3,3.5,1.2,5.1c0.8,1.4,1.9,2.5,3.4,3.1c0.8,0.3,1.7,0.4,2.5,0.5
		c0.5,0.1,1.2,0.2,1.3-0.5c0.3,0,1.2,0,1.3-0.3c2.1-0.4,3.6-3.2,4.3-5c0.4-1.1,0.7-2.2,0.9-3.3c0.1-0.5,0.1-1.1,0.1-1.6
		c0-0.5,0.2-1.1,0.1-1.6c0,0-0.1,0-0.1,0c0-0.1,0.1-0.2,0.1-0.2c-0.2-0.1-0.2-0.2-0.2-0.4c0.1,0,0.2,0,0.3,0c0,0,0,0,0,0
		c-0.1-0.1-0.2-0.1-0.3-0.2C71.9,37.2,70.4,37.4,68.8,37.4z M70,41.5c-0.1,0.7-1.2,0.3-1.6,0.2c0,0.1,0,0.1-0.1,0.2
		c-0.6-0.3-1.2-0.2-1.8,0.1c-0.6-0.3-0.8,0.3-1,0.7c-0.2,0.6,0,1,0,1.6c0,1.3,0.1,2.3,1.3,3.1c-0.5,0.4-0.9,0.2-1.5,0.2
		c0-0.2-1.2-0.5-1.4-0.6c-0.6-0.4-1.2-0.9-1.5-1.5c-0.9-1.6-1.1-3.5-1.2-5.3c2.9,0.1,5.8,0.4,8.7,0.7C70.1,41.2,70.1,41.4,70,41.5z"
		/>
	<path d="M75,33.6c-0.1-1.1-1.8-2.1-2.7-2.4c-1.5-0.5-3-0.7-4.6-1.1c-1.5-0.4-2.9-0.8-4.4-1.1c-1.5-0.3-3.1-0.4-4.6-0.7
		c0.1,0.2-0.1,0.2-0.3,0.2c0,0,0,0,0,0c-0.7,0.2-1.6,0.3-1.9,1.1c-0.1,0.4,0.4,1.5,0,1.5c0,0.2,0.4,0.2,0.4,0.4
		c0,0.1-0.1,0.1-0.1,0.2c0.6,0.6,1.8,0.9,2.6,1.2c1.2,0.5,2.4,0.9,3.7,1.3c1.2,0.4,2.5,0.7,3.8,1c1.1,0.3,2.4,1,3.6,1
		c0.1,0.1,0.3,0.1,0.4,0.1c0.7,0.2,2,0.2,2.7,0c0,0,0,0,0,0c0.6,0,0.9,0.1,1.1-0.6c0.2-0.5,0.1-0.9,0.1-1.4c0.1-0.1,0.1-0.2,0.2-0.3
		C75.1,33.9,75,33.8,75,33.6z"/>
	<path d="M12,33c0.4,0.1,0.8,0.4,1.1,0.5c0.5,0.2,1.1,0.4,1.6,0.6c1,0.3,2,0.7,3,1c1.1,0.3,2.1,0.5,3.2,0.8c0.9,0.3,2,0.8,2.9,0.8
		c0.1,0.1,0.3,0.1,0.4,0.1c0.7,0.2,2,0.2,2.7,0c0,0,0,0,0,0c0.6,0,0.9,0.1,1.1-0.6c0.2-0.5,0.1-0.9,0.1-1.4c0.1-0.1,0.1-0.2,0.2-0.3
		c0-0.2,0-0.3-0.1-0.5c-0.1-1-1.5-2-2.4-2.3c-1.5-0.6-3.2-0.8-4.7-1.2c-1.5-0.4-3-0.8-4.5-1.1c-1.6-0.3-3.2-0.4-4.8-0.7
		c0.1,0.2-0.1,0.2-0.3,0.2c0,0,0,0,0,0c-0.7,0.2-1.6,0.3-1.9,1.1c-0.1,0.4,0.4,1.5,0,1.5c0,0.2,0.4,0.2,0.4,0.4
		c0,0.1-0.1,0.1-0.1,0.2C10.5,32.6,11.5,33,12,33z"/>
	<path d="M65.4,59.3C65.3,59.2,65.3,59.4,65.4,59.3L65.4,59.3z"/>
	<path d="M74.4,62.9c-0.1-0.1-0.2-0.2-0.2-0.3c0,0,0,0,0.1-0.1c-0.7-0.7-1.3-0.7-2.2-1.1c-0.9-0.4-1.8-1.1-2.5-1.8
		c-0.6-0.7-1-1.2-1.9-1.4c-0.2,0-0.3-0.1-0.5-0.1c0,0-0.6,0-0.5,0c-0.1,0-0.2,0-0.4,0.2c0,0.1-0.1,0.1-0.1,0.2
		c-0.3-0.2-0.9,0.6-0.8,0.8c0.1,0.1,0.2,0.3,0.1,0.5c-0.5,0,0.7,1.4,0.8,1.4c-1.1,0.7-2.2,1-3.3,1.6c-1.4,0.7-2.7,1.1-4.2,1.4
		c-3.2,0.8-6.4,1.8-9.7,2c-3.4,0.3-6.8,0.6-10.2,0.3c-3.2-0.3-6.5-0.5-9.7-0.9c-3.4-0.4-6.9-1.3-9.9-3c0,0,0.4-0.5,0.4-0.4
		c0,0,0,0,0,0c0-0.2,0.8-0.7,0.9-0.9c0.3-0.4,0.6-1.7,0.6-1.6c-0.2-0.4-0.3-0.8-0.6-1.1c-0.1-0.1-0.1-0.1-0.2-0.1
		c-0.1,0-0.2-0.1-0.3-0.2c0.1-0.3-0.4-0.2-0.6-0.3c-0.2,0.1-0.2,0.1-0.2-0.1c-0.3,0.1-0.7,0.4-1,0.5c0,0,0,0-0.1-0.1
		c-0.3,0.2-0.2,0.5-0.5,0.7c0-0.1-0.2,0-0.1,0.2c0,0.2-0.1,0.3-0.2,0.4c-0.7,0.9-1.7,1.5-2.9,1.4c-0.8-0.1-2.1-1-2.6,0
		c-0.3,0.6-0.5,1.8,0,2.2c0.7,0.6,2.2,0.8,3.1,0.8c0,0,0,0,0,0c0,0,0.7-0.3,1.3,0.3c0.5,0.5,1.1,0.9,1.7,1.3
		c1.2,0.8,2.5,1.4,3.9,1.9c2.9,1,5.9,1.6,9,1.9c5.5,0.6,11.1,1.3,16.6,0.9c3.3-0.2,6.5-0.6,9.6-1.4c0,0,0,0,0,0
		c0.6-0.2,1.2-0.2,1.8-0.3c0.6-0.1,1.1-0.4,1.7-0.5c0.1-0.1,0.2-0.1,0.3-0.2c0,0,0,0,0,0c0,0-0.1,0.1-0.1,0.1c0,0,0,0,0,0
		c0,0,0.1,0,0.1,0c0,0,0,0,0.1,0c1.3-0.2,2.7-0.9,3.9-1.4c1.4-0.7,2.8-1.4,4.1-2.2c0-0.1,0.1-0.2,0.1-0.2c0.6-0.3,1.2,0.1,1.8,0.2
		c0.3,0.1,1.7,0.5,1.5-0.1c0.1,0,0.2,0,0.3-0.1c0,0-0.1-0.1-0.1-0.1c0.3,0,0.3-0.1,0.5-0.3c-0.1-0.2-0.1-0.3-0.2-0.4c0,0,0,0,0,0
		l0.3,0c0-0.1,0-0.1,0-0.1c0.5-0.1,0.6-0.1,0.8-0.3c0,0-0.3-0.3-0.3-0.4C74.3,62.9,74.3,62.9,74.4,62.9z"/>
	<path d="M19.5,11.1c0.4,0.5,0.4,1.2,0.8,1.7c0.4,0.5,0.9,1,1.4,1.4c0.9,0.8,1.7,1.8,2.6,2.6c0.8,0.7,1.6,1.4,2.4,2
		c0.8,0.6,1.7,1.7,2.8,1.8c0.9,0.1,1.9-0.2,2.4-1.1c0.3-0.6-0.8-2.4,0.2-2.3c0.5,0.1,0.5,0.7,0.8,1c0.2,0.3,0.6,0.3,0.9,0.5
		c0.9,0.6,1.8,0.8,2.6-0.1c0.4-0.4,0.6-0.8,0.7-1.3c0-0.2-0.2-1.2,0.1-1.2c0.1,0.2,0.1,0.4,0.2,0.6c0,0,0,0,0.1,0
		c0-0.7-0.1-1.4-0.1-2c-0.1,0-0.1,0-0.2,0c0.2-0.4,0.2-0.8,0.1-1.2c-0.2-0.1-0.2-1.9-0.2-2.1c0,0,0,0,0,0c0,0.1-0.1,0.2-0.1,0.3
		c0-0.4,0-0.7-0.1-1.1c0,0,0,0-0.1,0c0,0-0.1,0-0.1-0.1c0.1-0.1,0.2-0.1,0.1-0.3c0,0-0.1,0.1-0.1,0.1c-0.1-0.8-0.1-1.5-0.1-2.2
		c0,0.1-0.1,0.1-0.1,0.2c-0.1-0.5,0-1.1-0.2-1.6c0,0.1,0.1,0.2,0,0c-0.4-0.5-0.4-2-0.6-2.6c-0.3-0.9-0.7-1.8-0.9-2.7
		c-0.1,0-0.1-0.1-0.2-0.1c-0.6-1-2-1.7-3-0.8c-0.3-0.4-0.3,0.4-0.8,0.1c0,0.4,0,0.8-0.1,1.1c0,0,0,0,0,0c-0.1-0.3-0.3-0.5-0.5-0.6
		c0,0.2-0.1,0.3-0.2,0.5c-0.1-0.1-0.1-0.1-0.2-0.1c-0.2,0.5-0.1,0.8-0.2,1.3c0,0.4-0.2,0.7-0.2,1.1c0,1,0.3,2,0.3,2.9
		c0,1,0.1,2.1,0.3,3c0.2,0.8,0.7,1.9,0.7,2.7c0,0.2,0,0.3,0,0.5c-0.5,0.1-0.9-0.8-1.2-1.1c-0.4-0.5-0.7-0.9-1.1-1.4
		c-0.9-1-1.7-2.1-2.4-3.1c-0.4-0.5-0.7-0.9-1.3-1.3c-0.4-0.3-0.9-0.8-1.4-0.9c-0.4-0.1-0.7,0.1-1,0.4c-0.3,0.3-1,0.6-1.1,0.9
		c-0.1,0.1-0.1,0.3-0.3,0.2c-0.1,0.2-0.2,0.4-0.4,0.6c-0.1,0.1-0.5,0.3-0.6,0.4c-0.2,0.3-0.2,0.5-0.3,0.9c0,0.4-0.1,0.8-0.1,1.2
		C19.5,10,19.4,11,19.5,11.1z"/>
	<path d="M47.4,12.4c-0.1,0.6,0.7,1.4,1,1.8c0.6,0.7,1.2,0.9,2.1,0.8c0.5,0,0.5,0,0.9,0.2c0.6,0.3-0.1,0.2,0.7,0.3
		c0.2,0,0.4,0.1,0.6,0.1c0.5,0,0.9-0.1,1.4,0.2c0.3,0.2,0.6,0.5,1,0.7c0.6,0.4,1.5,0.5,2.2,0.4c0.1,0,0.1,0.2,0.3,0.1
		c0.2-0.1,0.3-0.3,0.4-0.4c0.2-0.3,0.4-0.6,0.5-0.9c0.3-0.5,0.9-1,1.4-1.5c0.2-0.2,1.4-2.3,1.3-2.5c0.4-0.5,0.5-1.5,1-1.9
		c0.3-0.3,0.4,0.2,0.5-0.4v0v0c0.1-0.4,0.1-0.9,0.3-1.3l0.1-0.6l0.2,0.2c-0.1-0.1-0.1-0.4-0.1-0.6c0,0-0.1,0.1-0.1,0.1
		c0-0.3,0-0.5-0.1-0.8c0-0.1-0.3-0.3-0.2-0.4c-0.3-0.5-0.9-0.8-1.2-1.3c-0.2,0.1-0.3,0.2-0.5,0.2c-0.1,0-0.3-0.2-0.3-0.2
		c-0.1,0-0.5,0.1-0.6,0.1c-0.2,0.1-0.3,0.3-0.5,0.4c-0.4,0.3-0.2,0.1-0.6-0.2c-0.2,0.3-0.3,0.3-0.6,0c0,0.1,0,0.2-0.1,0.4
		c-0.3,0.3-0.7,0.2-1,0.6c-0.3,0.4-0.5,0.7-0.8,1c-0.8,0.8-0.9,2.1-2,2.7c0-0.5-0.3-0.9-0.3-1.3c-0.1-0.6,0.1-1.1,0-1.7
		c-0.2-1-0.5-2-0.7-3c-0.2,0-0.2,0-0.2-0.2c0,0-0.1,0-0.1,0c0.1-0.3,0-0.5-0.2-0.7c0,0,0,0.1,0,0.1c-0.4-0.1-0.4-0.7-0.7-0.9
		c-0.2,0-0.3,0-0.4-0.2c-0.1,0-0.2,0-0.3,0c0-0.2-0.4-0.3-0.5-0.5c-0.2,0.2-0.4,0.3-0.7,0.5c-0.1,0-0.2,0-0.3-0.1
		c-0.1,0-0.6,0.3-0.6,0.3c-0.2,0.3,0,0.8-0.4,0.9c-0.1-0.3-0.3-0.6-0.4,0C48.3,3,48.2,3,48.2,2.9c-0.2,0.6-0.4,0.9-0.6,1.5
		c-0.2,0.6-0.2,1.3-0.4,1.9c-0.2,0.6-0.6,1.2-0.7,1.9c-0.1,0.8,0,1.4,0.3,2C47.1,10.6,47.8,11.9,47.4,12.4z"/>
	<path d="M39.1,2.2C39.1,2.2,38.9,2.2,39.1,2.2L39.1,2.2z"/>
	<path d="M40.8,15c0.4,0.4,0.7,0.8,1.3,0.9c0.8,0.1,2.8-0.5,3.2-1.2c0.4-0.7-0.1-2-0.1-2.8c0-0.5,0-1,0-1.4c0-0.6-0.3-1.2-0.1-1.8
		C45,8.1,45.2,7.7,45,7.2c-0.1-0.3-0.2-0.5-0.2-0.8c0-0.3,0-0.5-0.2-0.7c-0.1-0.2-0.4-0.3-0.4-0.5c-0.1-0.3-0.3-1.2-0.2-1.5
		c0.1-0.1,0.1-0.3,0.1-0.4c0-0.3-0.3-0.4-0.4-0.6c-0.1-0.2-0.1-0.4-0.1-0.7c-0.5-0.3-0.8-0.7-1.4-0.9c-0.2-0.1-0.6-0.2-0.9-0.3
		c-0.1,0-0.1-0.2-0.3-0.1c-0.1,0-0.4,0.4-0.5,0.5c-0.6-0.3-0.9,0.8-1.1,1.1c-0.2-0.3-0.3-0.2-0.4,0.1c-0.2-0.1-0.6,2.1-0.6,2.4
		c-0.2,1.1-0.5,2-0.5,3.1c0.1,2.2,1.1,4.1,1.9,6.1C40.1,14.4,40.4,14.6,40.8,15z"/>
	<path d="M39.1,13.6c-0.1,0-0.2,0-0.4,0c0,0,0,0.1,0.1,0.1c0.1,0.1,0.1,0.1,0.2,0.2c0.1,0.2,0.2,0.2,0.3,0.2
		C39.2,13.9,39,13.8,39.1,13.6z"/>
	<path d="M39.3,14.1C39.3,14.1,39.1,14.1,39.3,14.1L39.3,14.1z"/>
	<path d="M38.9,12.7c0,0.1-0.1,0.1,0,0.1c-0.1,0.1-0.1,0.3,0,0.4c0,0,0.1,0,0.1,0.1C39,13.1,39,12.9,38.9,12.7z"/>
	<path d="M38.5,13.3c0-0.1,0-0.2,0-0.3c0-0.1,0-0.1-0.1,0C38.3,13,38.3,13.1,38.5,13.3C38.4,13.2,38.4,13.3,38.5,13.3z"/>
</g>
</svg>
