<?xml version="1.0" encoding="utf-8"?>
<!-- Generator: Adobe Illustrator 19.1.0, SVG Export Plug-In . SVG Version: 6.00 Build 0)  -->
<svg version="1.1" xmlns="http://www.w3.org/2000/svg" xmlns:xlink="http://www.w3.org/1999/xlink" x="0px" y="0px"
	 viewBox="0 0 86 86" style="enable-background:new 0 0 86 86;" xml:space="preserve">
<style type="text/css">
	.st0{fill:#CEB49F;}
	.st1{fill:#F4914F;}
	.st2{fill:#F7B284;}
	.st3{fill:#FA8C97;}
	.st4{fill:#FCC5CB;}
	.st5{fill:#F1AD2B;}
	.st6{fill:#F8D695;}
	.st7{fill:#9D6A3E;}
	.st8{fill:#4BA9BD;}
	.st9{fill:#9ACFDA;}
</style>
<g id="color">
</g>
<g id="features">
	<path d="M73.5,63.6c-0.1-0.1-0.1-0.2-0.2-0.3c0,0,0,0,0.1-0.1c-0.6-0.8-1.3-0.8-2.2-1.1c-0.9-0.4-1.8-1.1-2.5-1.8
		c-0.6-0.7-1-1.2-1.9-1.5c-0.2,0-0.3-0.1-0.5-0.1c0,0-0.6,0-0.5,0c-0.1,0-0.2,0-0.4,0.2c0,0.1-0.1,0.1-0.1,0.2
		c-0.3-0.2-1,0.6-0.8,0.8c0.1,0.1,0.2,0.3,0.1,0.5c-0.5,0,0.7,1.4,0.8,1.5c-1.1,0.6-2.3,1-3.4,1.5c-1.4,0.7-2.8,1-4.2,1.3
		c-3.2,0.7-6.4,1.6-9.8,1.8c-3.4,0.2-6.8,0.4-10.2,0c-3.2-0.4-6.4-0.7-9.6-1.2c-3.4-0.5-6.9-1.5-9.8-3.3c0,0,0.4-0.5,0.4-0.4
		c0,0,0,0,0,0c0-0.2,0.8-0.7,1-0.9c0.3-0.4,0.7-1.6,0.6-1.6c-0.1-0.4-0.3-0.8-0.6-1.1c-0.1-0.1-0.1-0.1-0.2-0.1
		c-0.1,0-0.2-0.1-0.3-0.2c0.1-0.3-0.4-0.3-0.5-0.3c-0.2,0.1-0.2,0.1-0.2-0.1c-0.3,0.1-0.7,0.4-1,0.5c0,0,0,0-0.1-0.1
		c-0.3,0.2-0.3,0.5-0.5,0.7c0-0.1-0.2,0-0.1,0.2c0,0.2-0.1,0.3-0.2,0.4c-0.7,0.8-1.8,1.5-2.9,1.4c-0.8-0.1-2.1-1.1-2.6-0.1
		c-0.3,0.6-0.5,1.8,0,2.2c0.6,0.6,2.2,0.9,3.1,0.9c0,0,0,0,0,0c0,0,0.7-0.3,1.3,0.3c0.5,0.5,1.1,1,1.7,1.4c1.2,0.8,2.4,1.5,3.8,2
		c2.9,1,5.9,1.8,8.9,2.2c5.5,0.8,11,1.6,16.6,1.4c3.3-0.1,6.5-0.4,9.7-1.1c0,0,0,0,0,0c0.6-0.1,1.2-0.1,1.8-0.2
		c0.6-0.1,1.1-0.3,1.7-0.4c0.1-0.1,0.2-0.1,0.4-0.2c0,0,0,0,0,0c0,0-0.1,0.1-0.1,0.1c0,0,0,0,0,0c0,0,0.1,0,0.1,0c0,0,0,0,0.1,0
		c1.3-0.2,2.8-0.8,4-1.3c1.4-0.6,2.8-1.3,4.1-2.1c0-0.1,0.1-0.2,0.1-0.2c0.6-0.3,1.2,0.1,1.8,0.2c0.3,0.1,1.7,0.5,1.5,0
		c0.1,0,0.2,0,0.3,0c0,0-0.1-0.1-0.1-0.1c0.3,0,0.3-0.1,0.5-0.3c-0.1-0.2-0.1-0.3-0.2-0.4c0,0,0,0,0,0h0.3c0-0.1,0-0.1,0.1-0.1
		c0.5,0,0.6-0.1,0.8-0.3c0,0-0.3-0.3-0.3-0.4C73.4,63.6,73.5,63.6,73.5,63.6z"/>
	<path d="M16,49.5c2.5-0.8,4.2-0.5,6.7,0.1c-0.1,0.1-0.1,0.1-0.1,0.1c0.2,0.1,0.3,0.1,0.5,0.2c0-0.2,0-0.3,0-0.4
		c0.1,0,0.2,0.1,0.3,0c-0.1,0-0.1-0.1-0.2-0.2c0.3,0,0.5,0,0.7,0.1c0-0.1-0.1-0.2-0.1-0.3c0.4-0.1,0.9,0,1.3,0.1c0,0,0-0.1,0-0.1
		c0.2,0,0-0.4,0-0.5c0,0,0.1,0,0.1,0c0-0.1,0.4-0.5,0.3-0.6c0,0,0,0,0.1,0c0,0.1,0.2-0.5,0.3-0.9c0.1-0.2,0.1-0.4,0.1-0.4
		c0-0.1,0-0.3,0-0.5c0,0,0-0.1,0-0.1c0-0.1,0-0.2,0-0.4c0-0.1,0-0.2,0-0.3c0-0.1,0-0.2,0-0.3c0-0.2-0.1-0.3-0.1-0.5c0,0,0-0.1,0-0.1
		c-0.2-0.8-0.4-1.5-0.6-2.1c-0.1-0.2-0.1-0.3-0.2-0.5c0,0,0-0.1,0-0.1c-0.9-2.4-2.7-4.7-5.3-4.9C17,37,13.8,38.7,12.9,41
		c-0.1,0.3-0.2,0.7-0.3,1.1c0,0,0,0,0,0c-0.3,1.1-0.4,2.4-0.5,3.5c-0.1,0.7,0.1,2.3-0.2,2.7c0,0,0.1,0,0.1,0.1c0,0-0.1,0.1-0.2,0.1
		c0.3,0.5,0,0.8,0.5,1.4c0.6,0.7,3.1,0,3.6-0.4C15.9,49.5,15.9,49.5,16,49.5z M15.8,45.8c0-0.1,0-0.1,0-0.2c0-0.1,0-0.1,0-0.2
		c0,0,0-0.1,0-0.1c0.1-1.8,0.7-5.3,2.7-4.8c0.2,0,0.3,0.1,0.5,0.2c0,0,0,0,0-0.1c0.1,0,1,0.1,1.1,0.3c0.3,0.3,0.5,0.7,0.8,1
		c0,0,0,0,0,0c-0.2-0.1-0.3-0.1-0.4,0c0,0,0-0.1-0.1-0.1c-0.2,0.1-0.3,0-0.4,0c0,0-0.1,0-0.1,0.1l0,0c0,0-0.1-0.1-0.1-0.1
		c0,0,0,0,0,0c0-0.1,0-0.1,0-0.2c-0.1,0.1-0.2,0.2-0.2,0.4c0,0,0-0.1,0-0.1c0,0,0-0.1,0-0.1c0,0,0,0-0.1,0c-0.1,0-0.1,0.1-0.2,0.1
		c-0.1,0.1-0.1,0.2-0.2,0.3c-0.1,0-0.1-0.1-0.2-0.1c0,0.1-0.1,0.2-0.1,0.3c-1.4,0.3-1.2,2.4-0.9,3.4c-0.7,0.1-1.3,0.3-2,0.4
		C15.8,46,15.8,45.9,15.8,45.8z"/>
	<path d="M73.8,46.9c0-0.1,0-0.2,0-0.3c0-0.1,0-0.2,0-0.3c0-0.2-0.1-0.3-0.1-0.5c0,0,0-0.1,0-0.1c-0.2-0.8-0.4-1.5-0.6-2.1
		c-0.1-0.2-0.1-0.3-0.2-0.5c0,0,0-0.1,0-0.1c-0.9-2.4-2.7-4.7-5.3-4.9c-2.4-0.1-5.5,1.6-6.4,3.9c-0.1,0.3-0.2,0.7-0.3,1.1
		c0,0,0,0,0,0c-0.3,1.1-0.4,2.4-0.5,3.5c-0.1,0.5,0,1.7-0.1,2.4c0.1,0.2,0,0.4-0.1,0.5c0,0.1,0,0.1,0,0.2c0.1,0.4,0,0.7,0.4,1.2
		c0.6,0.7,3.1,0,3.6-0.4c0,0,0.1,0.1,0.1,0.1c2.5-0.8,4.2-0.5,6.7,0.1c0,0-0.1,0.1-0.1,0.1c0.1,0,0.3,0,0.4,0c0-0.1,0-0.1,0-0.2
		c0.1,0,0.2,0.1,0.3,0c-0.1,0-0.1-0.1-0.2-0.2c0.3,0,0.5,0,0.7,0.1c0-0.1-0.1-0.2-0.1-0.3c0.3-0.1,0.7,0,1,0c0.1,0,0.1-0.1,0.2-0.1
		c0.1-0.1,0-0.4-0.1-0.5l0.1,0c0-0.1,0.4-0.5,0.3-0.6c0,0,0,0,0.1,0c0,0.1,0.2-0.5,0.3-0.9c0.1-0.2,0.1-0.4,0.1-0.4
		c0-0.1,0-0.3,0-0.5c0,0,0-0.1,0-0.1C73.8,47.1,73.8,47,73.8,46.9z M68.9,42.9c-0.2-0.1-0.3-0.1-0.4,0c0,0,0-0.1-0.1-0.1
		c-0.2,0.1-0.3,0-0.4,0c0,0-0.1,0-0.1,0.1h0c0,0,0,0,0,0c-0.1,0-0.1,0-0.2,0c0,0,0,0-0.1,0c0,0,0,0.1,0,0.1c0,0,0-0.1,0-0.1
		c-0.1,0-0.2,0-0.3,0c-0.1,0.1-0.1,0.2-0.2,0.3c-0.1,0-0.1-0.1-0.2-0.1c0,0.1-0.1,0.2-0.1,0.3c-1.4,0.3-1.2,2.4-0.9,3.4
		c-0.7,0.1-1.3,0.3-2,0.4c0-0.1,0-0.2,0-0.3c0-0.1,0-0.1,0-0.2c0-0.1,0-0.1,0-0.2c0,0,0-0.1,0-0.1c0.1-1.8,0.7-5.3,2.7-4.8
		c0.1,0,0.2,0.1,0.2,0.1c0.1,0,0.2,0,0.2,0c0,0,0,0,0,0c0.1,0,1,0.1,1.1,0.3C68.5,42.1,68.7,42.5,68.9,42.9
		C69,42.8,68.9,42.9,68.9,42.9z"/>
	<path d="M70.4,56.8C70.5,56.9,70.4,56.7,70.4,56.8L70.4,56.8z"/>
	<path d="M77,35.1c0.4-1-3.4-3.7-4.2-4.2c-1.8-1.1-3.7-1.7-5.8-1.6c-2.3,0-11.7,2.5-9.2,6.4C57.8,35.8,58,35.9,58,36
		c0.1,0.1,0.2,0.1,0.3,0.2c2.3,1.7,5-1.2,7.3-1.9c2.3-0.7,4.4-0.3,6.4,1.2c1.1,0.8,2.9,3.2,4.5,2c0.1-0.1,0.5-0.7,0.5-0.8
		C76.9,36.2,76.8,35.6,77,35.1z"/>
	<path d="M11.8,36.1c1-0.5,1.9-1.4,2.5-1.9c1.7-1.3,3.7-1.6,5.8-1.1c1.9,0.5,4.1,2.4,6.2,2.7c0,0,0,0,0,0c0.1,0,0.2,0,0.2,0
		c0.6,0,1.3-0.1,1.9-0.5c-0.1-0.1-0.2-0.1-0.2-0.2c2.5-3.6-5.8-6.6-8.1-6.8c-0.4,0-0.9-0.1-1.3,0c-0.1,0-0.1,0-0.2,0
		c-0.4,0-0.8,0.1-1.1,0.1c-0.1,0-0.3,0-0.4,0.1c-0.3,0.1-0.6,0.1-0.9,0.2c-0.2,0.1-0.4,0.1-0.6,0.2c0,0-0.1,0-0.1,0
		c-0.3,0.1-0.6,0.2-0.9,0.3c-0.9,0.4-5,2.8-5.2,4.2c0,0.1,0,0.2,0,0.2c0.1,0.5,0.1,1,0,1.5c0,0.1,0.3,0.7,0.4,0.8
		C10.4,36.5,11.1,36.5,11.8,36.1z"/>
	<path d="M16.4,13.5c-0.2,0.3-0.2,0.6-0.4,0.9c0.4,0,0.4,0.3,0.6,0.5c0.1,0,0.2,0,0.2,0c-0.3,0.5,2.2,1.1,2.3,1.2
		c-0.1,0-0.1,0.1-0.2,0.1c0,0,0,0,0,0c5.9,0.3,13.5-7,18.1-9.8c0,0,0,0,0,0c1.3-0.8,2.3-1.5,3.4-2.5c0.1-0.1,0.1-0.1,0.2,0.1
		c0.4-0.4,0.6-0.8,1.1-1c0,0.1,0,0.2,0,0.2c0.1-0.1,0.3-0.1,0.3-0.2c0-0.2-0.1-0.2-0.3-0.3c0-0.4-0.4-0.6-0.6-0.8
		c0,0,0.1-0.1,0.1-0.2c0,0,0-0.1-0.1-0.1c0,0.1-0.1,0.2-0.1,0.3c-0.1,0-0.1-0.1-0.1-0.1c0.1-0.1,0.1-0.2,0.2-0.2c0,0,0,0-0.1,0
		c-0.1-0.1-0.1-0.2-0.2-0.3c0,0,0.1-0.1,0.1-0.1c-0.3-0.2-0.7-0.4-1-0.6c0,0,0,0,0,0c-0.1-0.3-24.2,10-23.8,13.3
		C16,13.6,16.2,13.6,16.4,13.5C16.4,13.5,16.4,13.5,16.4,13.5z"/>
	<path d="M28.6,14.7C28.7,14.7,28.7,14.7,28.6,14.7c0.1,0.1,0.1,0.2,0.1,0.2c-0.1,0-0.3,0.1-0.4,0.2c0.1,0-0.3,1.1-0.3,1.3
		c0,0.6-0.1,0.9,0.4,1.2c0.1,0.1,0.1,0.2,0.1,0.3c0.8,0.3,1.1,0.7,2,0.6c0-0.1,0-0.1,0.1-0.1c0.1,0,0.1,0.1,0.2,0.1
		c4.5-1.4,12.4-5.3,14.7-9.9c0,0,0,0-0.1,0c0.5-0.9,7.8-8.7,3.7-8.1c0,0-0.1-0.1-0.1-0.1c0,0,0,0,0,0c-0.8-0.2-1.4,0-2.2-0.1
		C47.6,2.6,30.7,14.5,28.6,14.7z"/>
	<path d="M55.4,12.6c-0.3-0.4-0.6-0.8-0.6-1.1c0,0,0,0,0,0c1.1,1.6,3.6,3.7,4.2,5.5c0,0,0.1,0.1,0.1,0.1c0,0,0,0,0,0c0,0,0,0,0,0
		c0.1,0,0.1,0.1,0.2,0.1c0,0,0,0,0,0c0.4,0.3,0.8,0.6,1.3,0.9c0.1,0,0.1,0,0.2,0c0.1,0,0.1,0,0.2,0.1l0,0c0,0,0,0,0,0
		c0.5,0.2,0.8,0.5,1.3,0.8c0.6,0.3,3.8-0.5,3.3-1.6C63.3,12.5,59.8,5,55.7,1.4c0,0.1-0.1,0.1-0.2,0.1c0-0.3-0.5-0.4-0.6-0.5
		c0,0.1-0.1,0.2-0.2,0.2C54.7,1.2,54.6,1,54.4,1c0,0.2,0.3,0.4,0.3,0.6c-0.2-0.1-0.6-0.4-0.8-0.5c-0.1,0.2-0.3,0-0.3,0.2
		c-0.8,0.2-1.4,0.6-2.1,0.8c0,0.1,0,0.3,0,0.4l0,0c-0.1,0-0.2,0.8-0.2,0.8c-0.1,0-0.1,0-0.1,0c-0.8,1.9,2.4,7.3,4.1,9.2
		C55.3,12.5,55.3,12.5,55.4,12.6z"/>
</g>
</svg>
