<?xml version="1.0" encoding="utf-8"?>
<!-- Generator: Adobe Illustrator 19.1.0, SVG Export Plug-In . SVG Version: 6.00 Build 0)  -->
<svg version="1.1" xmlns="http://www.w3.org/2000/svg" xmlns:xlink="http://www.w3.org/1999/xlink" x="0px" y="0px"
	 viewBox="0 0 86 86" style="enable-background:new 0 0 86 86;" xml:space="preserve">
<style type="text/css">
	.st0{fill:#CEB49F;}
	.st1{fill:#F4914F;}
	.st2{fill:#F7B284;}
	.st3{fill:#FA8C97;}
	.st4{fill:#FCC5CB;}
	.st5{fill:#F1AD2B;}
	.st6{fill:#F8D695;}
	.st7{fill:#9D6A3E;}
	.st8{fill:#4BA9BD;}
	.st9{fill:#9ACFDA;}
</style>
<g id="color">
</g>
<g id="features">
	<path d="M14.5,45.3c-0.1-0.1-0.2-0.1-0.1-0.3c1.9,1,4.3,1.7,6.3,0.6c0.2-0.1,0.3-0.2,0.4-0.3c0-0.1,0-0.1-0.1-0.1
		c0.1,0,0.1-0.1,0.2-0.1c0.1,0,0.1,0,0.2,0c0.1,0.1,0.5-0.6,0.7-0.7c0.1-0.1,0.2-0.1,0.3,0c0.1-0.1,0.2-0.2,0.3-0.3
		c0.3-0.3,0.4-0.7,0.5-1.1c0.3-0.8,0.5-1.7,0.6-2.6c0.4-0.6,0.1-2.2,0.1-2.9c0-1-0.1-2-0.3-2.9c-0.1-0.6-0.2-1.1-0.3-1.7
		c-0.1-0.3,0-0.8-0.2-1c-0.1-0.1-1.2-0.5-1.2-0.3c-0.1-0.1-0.2-0.1-0.2-0.2c-0.2,0.3-1.2,0.2-1.7,0.4c-0.9,0.4-1.6,1.1-2.5,1.6
		c-1,0.5-1.9,0.6-3,0.7c-0.9,0.1-1.6,0.3-2.2,1c-0.9,1.3-0.9,3.4-0.7,4.9C11.9,42.1,12.8,44.3,14.5,45.3z M15.2,37.2
		c0.3-0.4,1.3-0.6,1.8-0.8c0,0,0,0,0,0c0,0,0,0,0,0c-0.1,0-0.1,0-0.2,0c0,0.1,3.3-1.2,3.6-1.3c0,0.7,0,1.4,0,2.1c-0.1,0-1,0-1.2,0.1
		c0,0-0.1,0-0.1,0c-0.1,0-0.3,0-0.4,0c-0.2,0-1,0.6-1.2,0.8c-0.2,0.3-0.3,0.8-0.2,1.2c0.2,1.1,0.9,2.3,2.1,2.5
		c0.2,0,0.2,0.1,0.2,0.2c-0.1,0.3-0.2,0.7-0.4,1c-0.1,0.2-0.2,0.4-0.4,0.6c-0.2,0.3-1.7-0.6-1.9-0.7c-0.4-0.2-0.7-0.5-0.9-0.9
		c-0.6-1.1-0.8-2-0.9-3.2C15,38.2,14.9,37.5,15.2,37.2z"/>
	<path d="M74.8,37.6c0.1,0,0.1-0.1,0.1-0.1c-0.1-0.3,0-0.4-0.1-0.6c-0.1-0.1-0.2-0.2-0.2-0.3c0,0,0-0.1,0-0.1c0-0.1,0.1-0.2,0.1-0.3
		c-0.2-0.4-0.5-0.6-0.8-0.8c-0.4-0.2-0.8-0.3-1.2-0.3c-0.2,0-0.5,0-0.7,0c-1.3,0-2.9-0.8-4-1.4c-0.6-0.3-1.2-0.7-1.8-1.1
		c-0.3-0.2-1.2-0.9-1.6-0.7c0.1,0.1,0.2,0.1,0.2,0.3c0,0,0,0,0,0.1c-0.7-0.4-1-0.2-1.7,0c-0.3,0.1-1.1,0.2-1.2,0.6
		c-0.3,0-0.1,1-0.1,1.2c0,0.5,0,1,0,1.5c-0.1,1-0.2,2.1-0.2,3.1c0,2.4,0.5,4.2,1.9,6.2c0.1,0.1,0.2,0.2,0.4,0.3
		c0.6,0.6,1.2,1.2,2,1.6c0.5,0.2,1.1,0.3,1.6,0.5c0.1,0.1,0.2,0.1,0.4,0c0.1,0.2,0.3,0.1,0.4,0.1c0.4,0,0.7,0.1,1.1,0
		c0.1,0,0.1-0.1,0.2-0.1c0,0,0-0.1,0-0.1c0.1,0,0.2,0,0.2,0c0.1-0.1,0.1-0.2,0.2-0.3c0.1-0.2,0.4-0.3,0.6-0.4c0-0.2,0.1-0.1,0.2-0.2
		c0.3-0.1,0.1,0.3,0.5-0.1c0.1,0,0.2,0,0.4-0.1c0.3,0,0.3-0.2,0.5-0.3c0.3-0.2,0.9-0.3,1.1-0.5c0.2-0.2,0.3-0.6,0.5-0.8
		c0.3-0.6,0.6-1.6,0.7-2.3c0-0.2,0.1-0.3,0-0.5c0,0,0,0,0,0c0.2-0.6,0.2-1.3,0.3-1.9c0.1-0.5,0.2-0.9,0.1-1.4c0-0.3,0-0.4,0.3-0.4
		c0,0,0,0,0,0c-0.1-0.2-0.1-0.2-0.2-0.2C74.9,37.7,74.9,37.7,74.8,37.6z M71.1,38.7c-0.1,0-0.2,0-0.3,0c-0.3-0.2-0.7-0.4-1.1-0.4
		c0-0.1,0-0.1-0.1-0.1c0,0,0,0.1,0,0.1c0,0.1,0,0.1,0,0.2c-0.1-0.1-0.2-0.1-0.2-0.1c-0.2-0.1-0.2-0.1-0.3,0c0,0-0.1-0.1-0.1-0.1
		c0,0.1,0,0.1,0,0.1c-0.2,0-0.3-0.2-0.4-0.3c0,0.2,0.1,0.3,0,0.5c-0.1-0.1-0.1-0.1-0.2-0.2c0,0.2-0.2,0.2-0.4,0.2c0,0,0,0.1,0,0.1
		c0.3-0.1,0.4,0.3,0.2,0.4c0-0.1-0.1-0.2-0.1-0.3c0,0-0.4-0.2-0.4,0c0,0.2,0.1,0.3,0.1,0.5c-0.2,0-0.2-0.1-0.3-0.2
		c-0.1-0.1-0.1-0.1-0.2,0c0.2,0.1,0.2,0.1,0.1,0.4c0-0.1-0.1-0.1-0.1-0.2c0,0,0,0,0,0c0,0.2,0.1,0.3-0.1,0.3c0,0,0,0.3,0,0.3
		c0.1,0.3,0.1,0.6,0.2,0.8c0,0.1,0,0.2-0.1,0.2c0,0.2,0,0.3,0.1,0.5c0.2,0.7,0.4,1.2,0.9,1.7c0.3,0.3,0.8,0.4,1.2,0.5c0,0,0,0,0,0
		c-0.1,0-0.1,0.1-0.2,0.1c0,0.2-0.2,0.3-0.3,0.4c-0.1,0.1-0.1,0.1-0.2,0.1c-0.3,0-0.6-0.1-0.8-0.3c-0.3-0.2-0.6-0.4-0.8-0.6
		c-0.4-0.4-0.8-1-1-1.5c-0.2-0.4-0.7-1.3-0.5-1.7c0.1,0,0.1,0.1,0.1,0.2c0,0,0,0,0,0c-0.1-0.4-0.2-0.7-0.3-1.1c0-0.7,0-1.5,0-2.2
		c0-0.2,0-1.9,0.2-1.7c1.1,0.6,2.2,1.3,3.4,1.7c0.6,0.2,1.1,0.4,1.7,0.6C71.1,37.8,71.5,38.1,71.1,38.7z"/>
	<path d="M64.9,32.2C64.9,32.1,64.8,32.1,64.9,32.2C64.8,32.1,64.8,32.1,64.9,32.2z"/>
	<path d="M75.7,68.8c0-0.1,0-0.2,0-0.3c0.1,0,0.1,0,0.2,0c-0.1-0.1-0.2-0.1-0.2-0.3c0,0,0-0.1,0-0.1c0-0.1,0.2-0.2,0-0.3
		c-0.1-0.1-0.1-0.1-0.2-0.2c-0.1-0.3-0.2-0.5-0.3-0.8c-0.1-0.2-0.3-0.5-0.5-0.6c-0.5-0.2-1.1-0.3-1.5-0.5c-0.2-0.1-0.3-0.2-0.4-0.3
		c-0.4-0.2-1.2,0-1.7-0.1c-0.5,0-1.1-0.1-1.6-0.1c-1.2-0.1-2.3-0.1-3.5-0.1c-2.3-0.1-4.6-0.3-6.9-0.3c-8.2-0.2-16.5-0.3-24.7-0.2
		c-3.9,0-7.8-0.1-11.7,0.1c-1.7,0.1-3.5,0.1-5.2,0.1c-1.1,0-2.2,0-3.2,0.3c-0.6,0.1-1.9,0.5-2.1,1c-0.2,0.3-0.1,0.8,0.1,1.1
		c0.1,0.2,0.5,0.6,0.3,0.8c0.1,0.1,0.2,0.2,0.3,0.2c0.5,0.5,1.6,0.4,2.2,0.4c1,0,2,0.1,3,0.1c2.1,0.2,4.2,0.2,6.3,0.3
		c7,0.1,14,0.4,21,0.3c7.2-0.2,14.4,0.3,21.6,0.7c0,0,0.1,0,0.1,0c1.3,0.1,2.7,0.1,4,0.2c0.9,0.1,2.5,0.4,3.3,0c0.1,0,0.2,0,0.3,0
		c0,0,0,0,0,0c-0.1,0-0.2-0.1-0.2-0.1c0,0,0,0,0,0c0.1,0,0.2-0.1,0.3-0.1c0.2,0,0.4-0.2,0.6-0.3c0.1-0.1,0.2-0.3,0.3-0.4
		c0.1-0.1,0.2-0.2,0.3-0.2C75.8,68.9,75.8,68.9,75.7,68.8C75.7,68.8,75.7,68.8,75.7,68.8z"/>
	<path d="M75.7,68.5C75.7,68.6,75.7,68.5,75.7,68.5L75.7,68.5z"/>
	<path d="M15.9,8C15.9,8,15.9,8,15.9,8C15.9,8,15.9,8,15.9,8C16,8,16,8,15.9,8C16,8,16,8,15.9,8C16,8.1,16,8.4,16,8.5
		c0.1,0.5,0.4,1,0.6,1.5c0.5,1.2,0.8,2.4,1.3,3.6c0.3,0.7,0.8,1.4,1.3,2.1c0.1,0.1,0.4,0.6,0.6,0.6c0.4,0.1,0.2-0.1,0.2-0.4
		c0,0.4,0.7,0.1,0.9,0.1c0.5,0,0.8,0.2,1.2,0.5c0.4,0.3,1.6,1.3,2.1,0.6c0.2,0.3,0.8,0.3,1,0.2c0.1,0,0.2-0.1,0.3-0.1
		c0.2,0,0.8-0.8,1-0.9c0.5-0.3,1.2-0.6,1.8-0.7c0.9-0.2,1.4,0.1,2.3,0.4c0.5,0.2,1.1,0.4,1.6,0.3c0.5-0.1,1.1-0.4,1.4-0.7
		c0.4-0.4,0.2-0.7,0.7-0.7c0.4,0,0.9,0.4,1.2,0.5c0.6,0.2,0.8,0.1,1.4,0c0,0,0,0.1,0.1,0.1c0-0.2,0.3-0.4,0.5-0.4
		c0.2,0,0.4-0.3,0.3-0.5c0,0,0,0,0,0c-0.1-0.1,0-0.2,0.1-0.3c0,0.1,0.1,0.1,0.1,0.2c0.1-0.1,0.1-0.2,0.2-0.2c0-0.1-0.1-0.1-0.2,0
		c0.5-0.6,1.4,0.6,1.8,1c1,0.7,1-0.3,1.9-0.6c0.5-0.2,1.3-0.2,1.8,0.1c0.4,0.3,0.4,0.6,1.1,0.6c0.6-0.1,1.1-0.4,1.4-0.9
		c0.1-0.2,0-0.3,0.3-0.4c0.2-0.1,0.5,0.1,0.7,0.2c0.5,0.1,0.7,0.6,1.2,0.7c0.4,0.1,1,0,1.3-0.4c0.1-0.1,0.1-0.3,0.2-0.4
		c0.3-0.6,1.1,0.8,1.2,1c0.2,0.3,1.3-0.5,1.6-0.4c0.1,0.1,0.1,0,0.1-0.1c0-0.1,0.1-0.2,0.2-0.2c0,0,0.1,0,0.1-0.1
		c0.1-0.1,0.2-0.1,0.3,0c0,0,0.1,0,0.1,0.1c0.3-0.2,0.9-1.5,1.3-0.9c0.1,0.1,0.1,0.2,0.1,0.2c0,0.2,0.1,0.2,0.2,0.1
		c0,0,0.1-0.1,0.1-0.1c0.8-1,1.2,0.8,1.5,1.4c0.1,0,0.1-0.1,0.2-0.1c0.2,0,0.4,0,0.5-0.3c0.2-0.5,0.5,0.3,0.6,0.4
		c0.1,0.2,0.2,0.3,0.3,0.4c0.1,0.1,0.3,0.1,0.4,0.2c0,0,0,0.1,0.1,0.1c0.8-0.7,0.8-0.6,1.4,0.2c0.3-0.4,0.6-0.8,0.9-1.2
		c0.1-0.1,0.1-0.2,0.2-0.1c0.1-0.2,0.2-0.3,0.3-0.5c0.1,0,0.2,0.1,0.2,0.3c0.8,0.3,1.8-4.7,1.9-5.2c0.3-1.5,0.4-2.9-0.3-4.2
		c-0.6-1.3-1.9-1.5-2.5-2.7c-1.6-3-5.1-1.4-7.7-1.3c-0.8,0-1.6-0.2-2.4-0.2c-0.5,0-1,0.3-1.5,0.2c-0.8-0.1-1.5-0.5-2.3-0.5
		c-0.3,0-0.5,0.2-0.8,0.2c-0.3,0-0.5-0.3-0.8-0.4C44.3,0.1,42.7,0,42,0.9c-0.4,0.5-0.5,0.8-1.1,1.1c-0.5,0.2-1,0.3-1.5,0.5
		c-0.2,0.1-0.3,0.2-0.5,0c0,0.1-0.1,0.1-0.1,0.2c-0.4-0.5-1.5-0.5-2.1-0.4c-0.4,0.1-0.9,0.3-1.2,0.2c-0.3-0.1-0.4-0.3-0.7-0.4
		c-0.4-0.2-1-0.1-1.5,0c-0.4,0.1-0.7,0.3-1,0.4c-0.2,0.1-0.7,0-0.9,0.2c-0.1-0.1-0.1-0.1-0.2-0.2c-0.1,0.4-0.9,0-1.1,0.1
		c-0.5,0.1-0.9,0.5-1.3,0.9c-0.1,0-0.2-0.1-0.3-0.1c0,0.1-0.1,0.2-0.1,0.3c-0.2,0-0.9,0.1-1.2,0.1c-0.4,0.1-1.3,0.4-1.4,0.7
		c-0.2-0.2-1-0.1-1.3,0c-0.6,0.2-0.8,0.3-1.5,0c-0.6-0.2-1-0.3-1.6-0.3c-0.5,0-0.5,0-0.9,0.4c-0.1,0.1-0.3,0.1-0.4,0.1
		c-0.1,0.1-0.2,0.2-0.3,0.4c-0.8,0.4-1.7,0.6-2.4,1.1c-0.9,0.7-0.5,1.5-0.6,2.5c-0.2-0.2-0.3-0.4-0.6-0.1C16.1,8.4,16.2,8.1,15.9,8
		C16,8,16.1,8,16,8C16,7.9,16,7.9,15.9,8C16,7.9,16,7.9,15.9,8C16,7.9,15.9,7.9,15.9,8C15.9,7.9,15.9,7.9,15.9,8
		C15.9,7.9,15.9,7.9,15.9,8C15.9,8,15.9,8,15.9,8z M16.6,9.4c0.1,0.1,0.1,0.1,0.2,0.2C16.6,9.6,16.5,9.5,16.6,9.4z"/>
	<path d="M12.1,31c0.3,0.2,0.8,0.2,1,0.4c0.3,0.2,0.9,0,1.3-0.1c0.5-0.1,1-0.1,1.5-0.1c0.9-0.1,1.9-0.1,2.8-0.4
		c0.2,0,0.4-0.2,0.5-0.2c0.5-0.1,1.1-0.1,1.5-0.4c0.2-0.1,0.3-0.2,0.5-0.2c0.7-0.3,1.4-0.5,2-0.8c0.4-0.2,0.8-0.4,1.2-0.6
		c0.4-0.3,0.7-0.6,1-0.9c0.2-0.1,0.6-0.6,0.7-0.7c0.1-0.1,0.2-0.1,0.3-0.2c0.1-0.1,0.3-0.3,0.3-0.4c0.3-0.6,0.4-1.5,0.4-2.1
		c0-0.2-0.1-0.6-0.1-0.9c-0.1-0.1-0.1-0.2-0.2-0.4c-0.1-0.2-0.2-0.4-0.4-0.6c-0.3-0.2-0.6-0.4-0.9-0.2c-0.9,0.4-1.6,1-2.5,1.4
		c-0.7,0.4-1.5,0.6-2.2,0.9c-0.1,0-0.1,0-0.2,0c-1.4,0.4-2.7,0.7-4.1,0.8c-1.4,0.1-3.1,0.5-4.5,0.3c-0.4,0-0.6,0.1-0.9,0.3
		c-0.3,0.1-0.8,0.8-1,0.8c-0.3,0.7,0,1.3,0.3,2c0.2,0.6,0.8,1.2,1.2,1.7C11.7,30.6,11.9,30.9,12.1,31z"/>
	<path d="M20.9,24.5C21,24.5,20.8,24.5,20.9,24.5L20.9,24.5z"/>
	<path d="M68.6,24.5c0.1,0,0.1-0.1,0.2-0.1C68.7,24.5,68.5,24.5,68.6,24.5z"/>
	<path d="M59.8,25.7c-0.6-0.1-1.2,0.4-1.6,0.8c-0.3,0.3-0.3,0.1-0.4,0.5c-0.1,0.4,0.1,0.8,0.2,1.2c0.3,1,1.3,2.4,2.2,2.9
		c0.6,0.3,1,0.4,1.6,0.3c0.7-0.1,1.5-0.2,2.3-0.3c0.8-0.1,1.7-0.1,2.5-0.4c0.7-0.2,1.4-0.3,2.1-0.6c1.2-0.6,2.5-0.9,3.6-1.6
		c0.7-0.4,1.7-1.2,2.2-1.9c0.7-0.9,1-2.3,0.6-3.4c-0.1-0.1-0.1-0.2-0.2-0.4c-0.5-1.4-1.8-0.6-2.6-0.1c-1,0.6-2.1,1.1-3.2,1.5
		c0.1,0,0.2-0.1-0.2,0.1c-1.1,0.1-2.6,0.6-3.9,0.8C63.1,25.5,61.4,25.9,59.8,25.7z"/>
	<path d="M45.8,55.4c0.1-0.1,0.1-0.2,0.3-0.2c0.1,0,0.5,0.1,0.6,0.2c2.1,1.4,4.3,2.5,6.6,3.5c2.4,1.1,5,1.9,7.2,3.4
		c0.2,0.1,0.3,0.1,0.5,0c0.3-0.3,0.6,0.1,1-0.1c0-0.1,0-0.2,0-0.3c0.3-0.1,0.1-0.4,0.3-0.6c0.3-0.3,0.4-0.7,0.3-1.1
		c-0.1-0.7-0.3-1.4-0.5-2.1c-0.1-0.2-0.4-0.6-0.5-0.7c-2.1-1.3-4.4-2.4-6.6-3.5c-1.1-0.5-2.2-0.9-3.3-1.3s-2.2-0.8-3.3-1.3
		c-0.2-0.1-0.5-0.5-0.7-0.6c-0.1,0-0.1,0-0.2,0c-0.3,0.1-0.4,0-0.6-0.1c-0.1,0-0.1-0.1-0.1-0.1c-0.1-0.1-0.2-0.1-0.3-0.1
		c-0.1,0-0.1,0-0.1,0.1c-0.1,0.1-0.2,0.1-0.3,0c-0.1,0-0.2-0.1-0.3-0.1c0,0-0.1,0.1-0.1,0.1c-0.6,0-1,0.3-1.6,0.3c0,0-0.1,0-0.2,0.1
		c0.1,0.3-0.2,0.8-0.2,1.1c0,0.2,0,0.4,0.1,0.5c0.3,0.3,0.4,0.8,0.7,1.1c0.2,0.2,0.4,0.5,0.6,0.7c0.2,0.2,0.4,0.5,0.5,0.7
		C45.5,55.2,45.6,55.3,45.8,55.4C45.7,55.4,45.8,55.4,45.8,55.4z"/>
	<path d="M42,51.7c-0.2,0-0.3-0.1-0.3-0.3c0-0.2-0.2-0.3-0.3-0.5c0-0.1-0.1-0.2-0.3-0.2c-0.1,0-0.1,0-0.2-0.1
		c-0.1-0.2-0.6-0.4-0.8-0.5c0,0.1-0.1,0.2-0.1,0.2c-0.3-0.2-0.6-0.2-1-0.1c-0.1,0-0.2,0.1-0.4,0.1c-0.3,0.1-0.6,0.1-0.7,0.5
		c0,0,0,0,0,0.1c-0.2,0.3-0.5,0.4-0.8,0.5c-2.1,0.6-4.1,1.3-6.1,2c-2,0.7-4.1,1.4-5.9,2.4c-0.2,0.1-0.4,0.2-0.5,0.4
		c-0.5,0.6-1,1.2-1.2,2c-0.1,0.2,0,0.5,0.2,0.7c0.3,0.3,0.5,0.6,1,0.6c0.3,0,0.4,0.2,0.7,0.2c0.2,0,0.3,0.1,0.4,0.3
		c0.1,0.2,0.1,0.1,0.3,0.1c0.1,0,0.3,0,0.4,0c0.1,0.2,0,0.5,0.3,0.6c0.4-0.2,0.5-0.5,0.9-0.6c0.1,0,0.2-0.1,0.4,0
		c0.1-0.2,0.3-0.3,0.5-0.4c1.9-0.8,3.7-1.6,5.6-2.4c1.8-0.7,3.6-1.3,5.4-1.9c0.4-0.1,0.7-0.4,1-0.5c0.5-0.1,1-0.2,1.4-0.5
		c0.1-0.1,0.1-0.1,0.1-0.2c0-0.2,0-0.5,0.1-0.7c-0.1-0.3,0-0.7-0.1-1C41.9,52.2,42.1,52,42,51.7z"/>
</g>
</svg>
