<?xml version="1.0" encoding="utf-8"?>
<!-- Generator: Adobe Illustrator 19.1.0, SVG Export Plug-In . SVG Version: 6.00 Build 0)  -->
<svg version="1.1" xmlns="http://www.w3.org/2000/svg" xmlns:xlink="http://www.w3.org/1999/xlink" x="0px" y="0px"
	 viewBox="0 0 86 86" style="enable-background:new 0 0 86 86;" xml:space="preserve">
<style type="text/css">
	.st0{fill:#CEB49F;}
	.st1{fill:#F4914F;}
	.st2{fill:#F7B284;}
	.st3{fill:#FA8C97;}
	.st4{fill:#FCC5CB;}
	.st5{fill:#F1AD2B;}
	.st6{fill:#F8D695;}
	.st7{fill:#9D6A3E;}
	.st8{fill:#4BA9BD;}
	.st9{fill:#9ACFDA;}
</style>
<g id="color">
</g>
<g id="features">
	<path d="M25.2,42.7c0.4-1,0.6-2,0.8-3.1c0-0.2,0.4-2.3,0.4-2.3c-0.2-0.1-0.2-0.4-0.4-0.5c-0.3-0.2-0.7-0.3-1-0.5
		c-1-0.5-2-0.9-3.1-1.1c0,0,0.1,0.1,0.1,0.1c0,0,0,0,0,0c-1.9-0.4-3.9-0.9-5.8-1.4c-1.4-0.4-3.1-1-4.5-0.3c0,0,0,0,0,0
		c0.1,0,0.2,0,0.3,0c0,0.2-0.1,0.3-0.3,0.3c0,0.1,0,0.2,0.1,0.3c-0.1,0-0.1,0-0.1,0c-0.2,0.5-0.2,1.1-0.3,1.6
		c-0.1,0.5-0.2,1.1-0.2,1.6c-0.1,1.1,0,2.3,0.1,3.4c0.2,2,1,5,3,5.9c0,0.3,1,0.5,1.2,0.6c-0.1,1,1.9,0.9,2.5,0.9
		c1.3,0.1,2.4-0.3,3.5-0.8C23.4,46.7,24.6,44.7,25.2,42.7z M23.1,38.7c-0.5,1.8-1.1,3.5-2.3,4.9c-0.5,0.5-1.1,0.9-1.8,1.1
		c-0.2,0.1-1.4,0.1-1.5,0.3c-0.6-0.2-1,0-1.4-0.6c1.4-0.5,1.7-1.4,2-2.7c0.2-0.6,0.5-1,0.3-1.6c-0.1-0.5-0.2-1-0.8-0.9
		c-0.5-0.4-1.1-0.6-1.7-0.5c0-0.1,0-0.1,0-0.2c-1,0-1.5,0-1.5-1.1c2.3,0.3,4.5,0.7,6.8,1C21.8,38.4,22.5,38.6,23.1,38.7z"/>
	<path d="M58,35.5c-0.1,0-0.2,0.1-0.3,0.1c0,0,0,0,0,0c0.1,0,0.2,0,0.3,0c0,0.2-0.1,0.3-0.2,0.4c0,0.1,0,0.2,0.1,0.2
		c-0.1,0-0.1,0-0.1,0c-0.1,0.5-0.1,1.1-0.2,1.6c-0.1,0.5-0.1,1.1-0.1,1.6c-0.1,1.1,0.1,2.3,0.4,3.4c0.4,1.9,1.4,4.9,3.5,5.6
		c0,0.3,1,0.4,1.3,0.5c0,0.7,0.7,0.7,1.2,0.7c0.8,0,1.7,0.1,2.6-0.1c1.6-0.4,2.9-1.3,3.8-2.5c1.1-1.4,1.6-3.1,2-4.8
		c0.1-0.4,0.4-4.3,0.5-4.3c-0.2-0.1-0.2-0.4-0.4-0.5c-0.3-0.2-0.7-0.3-1-0.4c-1-0.4-2.1-0.7-3.2-0.9c0.1,0,0.1,0.1,0.1,0.1
		c0,0,0,0,0,0c-1.9-0.3-3.7-0.5-5.6-0.8C61,35.4,59.5,34.9,58,35.5z M60.6,39c2.9,0.2,5.8,0.3,8.7,0.6c-0.3,1.8-0.8,3.6-1.9,5.1
		c-0.4,0.6-1,1-1.7,1.3c-0.2,0.1-1.4,0.2-1.5,0.4c-0.6-0.1-1,0-1.4-0.5c1.3-0.6,1.6-1.5,1.8-2.9c0.1-0.6,0.4-1,0.2-1.6
		c-0.1-0.5-0.2-1-0.8-0.9c-0.5-0.4-1.2-0.6-1.7-0.4c0-0.1,0-0.1,0-0.2c-0.4,0-1.5,0.2-1.5-0.4C60.7,39.4,60.7,39.2,60.6,39z"/>
	<path d="M65.5,59.3C65.4,59.1,65.4,59.3,65.5,59.3L65.5,59.3z"/>
	<path d="M73.4,61.1c-0.1-0.1-0.1-0.2-0.2-0.3c0,0,0,0,0.1-0.1C72.6,60,72,60,71.1,59.6c-0.9-0.4-1.8-1.1-2.5-1.8
		c-0.6-0.7-1-1.2-1.9-1.5c-0.2,0-0.3-0.1-0.5-0.1c0,0-0.6,0-0.5,0c-0.1,0-0.2,0-0.4,0.2c0,0.1-0.1,0.1-0.1,0.2
		c-0.3-0.2-1,0.6-0.8,0.8c0.1,0.1,0.2,0.3,0.1,0.5c-0.5,0,0.7,1.4,0.8,1.5c-1.1,0.6-2.3,1-3.4,1.5c-1.4,0.7-2.8,1-4.2,1.3
		c-3.2,0.7-6.4,1.6-9.8,1.8c-3.4,0.2-6.8,0.4-10.2,0c-3.2-0.4-6.4-0.7-9.6-1.2c-3.4-0.5-6.9-1.5-9.8-3.3c0,0,0.4-0.5,0.4-0.4
		c0,0,0,0,0,0c0-0.2,0.8-0.7,1-0.9c0.3-0.4,0.7-1.6,0.6-1.6c-0.1-0.4-0.3-0.8-0.6-1.1c-0.1-0.1-0.1-0.1-0.2-0.1
		c-0.1,0-0.2-0.1-0.3-0.2c0.1-0.3-0.4-0.3-0.5-0.3c-0.2,0.1-0.2,0.1-0.2-0.1c-0.3,0.1-0.7,0.4-1,0.5c0,0,0,0-0.1-0.1
		c-0.3,0.2-0.3,0.5-0.5,0.7c0-0.1-0.2,0-0.1,0.2c0,0.2-0.1,0.3-0.2,0.4c-0.7,0.8-1.8,1.5-2.9,1.4c-0.8-0.1-2.1-1.1-2.6-0.1
		c-0.3,0.6-0.5,1.8,0,2.2c0.6,0.6,2.2,0.9,3.1,0.9c0,0,0,0,0,0c0,0,0.7-0.3,1.3,0.3c0.5,0.5,1.1,1,1.7,1.4c1.2,0.8,2.4,1.5,3.8,2
		c2.9,1,5.9,1.8,8.9,2.2c5.5,0.8,11,1.6,16.6,1.4c3.3-0.1,6.5-0.4,9.7-1.1c0,0,0,0,0,0c0.6-0.1,1.2-0.1,1.8-0.2
		c0.6-0.1,1.1-0.3,1.7-0.4c0.1-0.1,0.2-0.1,0.4-0.2c0,0,0,0,0,0c0,0-0.1,0.1-0.1,0.1c0,0,0,0,0,0c0,0,0.1,0,0.1,0c0,0,0,0,0.1,0
		c1.3-0.2,2.8-0.8,4-1.3c1.4-0.6,2.8-1.3,4.1-2.1c0-0.1,0.1-0.2,0.1-0.2c0.6-0.3,1.2,0.1,1.8,0.2c0.3,0.1,1.7,0.5,1.5,0
		c0.1,0,0.2,0,0.3,0c0,0-0.1-0.1-0.1-0.1c0.3,0,0.3-0.1,0.5-0.3c-0.1-0.2-0.1-0.3-0.2-0.4c0,0,0,0,0,0h0.3c0-0.1,0-0.1,0.1-0.1
		c0.5,0,0.6-0.1,0.8-0.3c0,0-0.3-0.3-0.3-0.4C73.3,61.1,73.4,61.1,73.4,61.1z"/>
	<path d="M77.2,32C77.3,32.2,77.1,31.3,77.2,32L77.2,32z"/>
	<path d="M76,32.7c-0.2-1.1-1.8-2.1-2.7-2.4c-1.5-0.5-3-0.7-4.6-1.1c-1.5-0.4-2.9-0.8-4.4-1c-1.5-0.2-3.1-0.3-4.6-0.6
		c0.1,0.2-0.1,0.2-0.3,0.2c0,0,0,0,0,0c-0.7,0.2-1.6,0.3-1.9,1.1c-0.1,0.4,0.4,1.5,0,1.5c0,0.2,0.4,0.2,0.4,0.4
		c0,0.1-0.1,0.1-0.1,0.2c0.6,0.6,1.8,0.9,2.6,1.2c1.2,0.5,2.5,0.9,3.7,1.2c1.2,0.4,2.5,0.7,3.8,1c1.1,0.3,2.4,1,3.6,1
		c0.1,0.1,0.3,0.1,0.4,0.1c0.7,0.2,2,0.2,2.7,0c0,0,0,0,0,0c0.6,0,0.9,0.1,1.1-0.6c0.2-0.5,0.1-0.9,0-1.5c0-0.1,0.1-0.2,0.2-0.3
		C76.1,33,76.1,32.9,76,32.7z"/>
	<path d="M12,30.4c0.4,0,0.8,0.3,1.1,0.5c0.5,0.2,1.1,0.4,1.6,0.5c1,0.3,2,0.6,3.1,0.9c1.1,0.3,2.2,0.4,3.2,0.7
		c0.9,0.2,2,0.8,2.9,0.7c0.1,0.1,0.3,0.1,0.4,0.1c0.7,0.2,2,0.1,2.7-0.1c0,0,0,0,0,0c0.6,0,0.9,0.1,1.1-0.6c0.2-0.5,0.1-0.9,0-1.5
		c0-0.1,0.1-0.2,0.2-0.3c0-0.2,0-0.3-0.1-0.5c-0.2-1-1.6-1.9-2.4-2.3c-1.5-0.6-3.2-0.7-4.7-1c-1.5-0.3-3-0.7-4.5-0.9
		c-1.6-0.2-3.2-0.3-4.8-0.5c0.1,0.2-0.1,0.2-0.3,0.2c0,0,0,0,0,0c-0.7,0.3-1.6,0.3-1.9,1.1C9.6,27.9,10.2,29,9.8,29
		c0,0.2,0.4,0.2,0.4,0.4c0,0.1-0.1,0.1-0.1,0.2C10.5,30,11.5,30.3,12,30.4z"/>
	<g>
		<path d="M48.3,84.9C48.3,85,48.4,84.9,48.3,84.9L48.3,84.9z"/>
		<path d="M49.1,78C49.2,78.2,49.1,77.9,49.1,78L49.1,78z"/>
		<path d="M49.1,78c-0.2-0.5-0.9-1.5-1.4-1.5c-0.2,0-0.3,0-0.5-0.1c-0.1,0-0.3,0-0.4-0.1c-0.4-0.2-0.8-0.3-1.3-0.2
			c-0.3,0-0.5,0-0.8,0c-0.5-0.1-1-0.1-1.5-0.1c-0.3-0.1-1.1-0.4-1.4-0.3c-0.2,0-0.4-0.1-0.6-0.1c-0.2,0-0.5-0.2-0.7-0.1
			c-0.2,0-0.4,0-0.8,0c0,0-0.1,0-0.1,0.1c-0.1,0-0.2,0-0.3,0c-0.2,0-0.3-0.2-0.5-0.2c0,0,0,0,0,0c-0.1,0.1-0.1,0.1-0.2,0.2
			c0-0.1-0.1-0.1-0.1-0.2c-0.1,0-0.2,0-0.2,0c-0.2-0.2-0.5-0.1-0.7,0c-0.4,0-0.8,0-1.1,0.3c0,0.2-0.1,0.4-0.2,0.6
			c-0.5,0.6-0.5,1.5-0.6,2.2c-0.1,0.9-0.3,1.8-0.4,2.7c-0.1,0.8-0.2,1.5,0.2,2.2c0.3,0.5,0.9,1.1,1.4,1.3c0.3,0.1,0.8,0.2,1.1,0.2
			c0.7,0,1.3,0.3,2,0.3c0.5,0,1.2-0.5,1.7-0.2c0.7,0.1,1.3,0.4,2,0.3c0.6-0.1,1-0.1,1.6-0.1c0.7,0,1.4,0.5,2.1,0.4
			c0.5-0.1,0.5-0.4,0.8-0.9c0.9-0.2,1-1.9,1.1-2.7C49.5,80.9,49.7,79.2,49.1,78z"/>
	</g>
	<path d="M64.2,8.2c-0.3,0.5-0.1,1.2-0.4,1.8c-0.3,0.6-0.7,1.1-1.1,1.7c-0.7,0.9-1.3,2.1-2,3.1c-0.6,0.9-1.3,1.7-2,2.5
		c-0.7,0.8-1.3,2-2.3,2.3c-0.9,0.3-1.9,0.2-2.5-0.6c-0.4-0.5,0.3-2.5-0.6-2.2c-0.5,0.2-0.4,0.8-0.5,1.1c-0.2,0.3-0.5,0.4-0.8,0.7
		c-0.8,0.8-1.6,1.1-2.6,0.5c-0.4-0.3-0.8-0.6-0.9-1.1c-0.1-0.2,0-1.2-0.3-1.2c0,0.2,0,0.4-0.1,0.6c0,0,0,0-0.1,0
		c-0.1-0.7-0.2-1.3-0.3-2c0.1,0,0.1,0,0.2,0c-0.3-0.4-0.3-0.8-0.3-1.2c0.1-0.1-0.2-1.9-0.2-2.1c0,0,0,0,0,0c0.1,0.1,0.1,0.2,0.2,0.3
		c-0.1-0.4-0.1-0.7-0.2-1.1c0,0,0,0,0.1,0c0,0,0.1-0.1,0.1-0.1c-0.1-0.1-0.2-0.1-0.2-0.3c0,0,0.1,0,0.1,0.1
		c-0.1-0.8-0.2-1.5-0.3-2.2c0,0.1,0.1,0.1,0.1,0.1c0-0.5-0.3-1.1-0.2-1.6c0,0.1,0,0.2,0,0c0.3-0.5,0-2,0.1-2.7
		c0.1-0.9,0.3-1.9,0.3-2.8c0.1-0.1,0.1-0.1,0.2-0.2c0.4-1.1,1.6-2.1,2.8-1.4c0.2-0.4,0.4,0.3,0.8,0c0.1,0.4,0.1,0.8,0.3,1.1
		c0,0,0,0,0,0c0-0.3,0.2-0.5,0.4-0.7C52,0.8,52,0.9,52.1,1.1C52.2,1,52.2,1,52.3,0.9c0.3,0.4,0.3,0.8,0.4,1.2
		c0.1,0.4,0.4,0.7,0.5,1.1c0.2,0.9,0.1,2,0.3,2.9c0.2,1,0.4,2,0.3,3c0,0.8-0.3,2-0.1,2.8c0,0.2,0,0.3,0.1,0.5c0.5,0,0.7-1,0.9-1.3
		c0.2-0.5,0.5-1.1,0.8-1.6c0.7-1.1,1.2-2.4,1.8-3.6c0.3-0.6,0.5-1,1-1.5c0.3-0.4,0.7-1,1.2-1.2c0.4-0.2,0.7,0,1,0.2
		c0.3,0.2,1.1,0.4,1.3,0.7c0.1,0.1,0.2,0.2,0.3,0.2c0.2,0.2,0.3,0.4,0.5,0.5c0.1,0.1,0.5,0.1,0.6,0.2c0.3,0.2,0.3,0.5,0.4,0.8
		C63.8,6.2,63.9,6.6,64,7C64,7.2,64.3,8.1,64.2,8.2z"/>
	<path d="M60.4,14.4c0,0,0.1,0,0.1,0c0-0.1,0.1-0.1,0.2-0.2C60.4,14.2,60.4,14.2,60.4,14.4z"/>
	<path d="M37.5,10.2c0.2,0.6-0.4,1.5-0.6,1.9c-0.4,0.8-1,1.1-1.9,1.2c-0.5,0.1-0.5,0.1-0.8,0.4c-0.5,0.4,0.1,0.2-0.6,0.5
		c-0.2,0.1-0.4,0.2-0.6,0.2c-0.5,0.1-0.9,0.1-1.3,0.5c-0.3,0.3-0.5,0.7-0.8,0.9c-0.6,0.5-1.3,0.8-2,0.8c-0.1,0-0.1,0.2-0.2,0.2
		c-0.2,0-0.4-0.2-0.5-0.3c-0.3-0.2-0.5-0.5-0.7-0.8c-0.4-0.4-1.1-0.8-1.7-1.2c-0.2-0.2-1.8-1.9-1.7-2.2c-0.4-0.4-0.8-1.4-1.3-1.7
		c-0.3-0.2-0.3,0.3-0.6-0.3l0,0l0,0c-0.2-0.4-0.2-0.9-0.5-1.2l-0.2-0.6l-0.2,0.3c0-0.1,0-0.5,0-0.6c0.1,0,0.1,0.1,0.1,0.1
		c0-0.3-0.1-0.5-0.1-0.8c0-0.1,0.2-0.3,0.1-0.5c0.2-0.5,0.8-1,0.9-1.5c0.2,0.1,0.4,0.1,0.6,0.1c0.1,0,0.2-0.2,0.3-0.3
		c0.1,0,0.5,0,0.6,0c0.2,0,0.4,0.2,0.5,0.3c0.4,0.2,0.2,0.1,0.5-0.3c0.3,0.2,0.4,0.2,0.6-0.2c0,0.1,0.1,0.2,0.2,0.3
		c0.4,0.2,0.8,0.1,1.2,0.4c0.4,0.3,0.6,0.6,1,0.8c1,0.6,1.3,1.8,2.5,2.3c-0.1-0.5,0.1-0.9,0.1-1.4c-0.1-0.6-0.3-1-0.4-1.6
		c0-1,0.1-2,0.1-3c0.2,0,0.2,0,0.2-0.3c0,0,0.1,0,0.1-0.1c-0.2-0.3-0.1-0.5,0-0.7c0,0,0,0.1,0.1,0.1c0.4-0.2,0.3-0.7,0.5-1
		c0.2,0,0.3-0.1,0.4-0.3c0.1-0.1,0.2-0.1,0.3-0.1c0-0.2,0.4-0.4,0.4-0.6c0.2,0.1,0.5,0.2,0.7,0.3c0.1,0,0.2,0,0.3-0.1
		c0,0,0.6,0.1,0.7,0.2c0.3,0.2,0.2,0.8,0.6,0.8c0-0.4,0.2-0.7,0.4-0.1c0.1-0.1,0.1-0.1,0.2-0.2c0.3,0.6,0.6,0.8,0.9,1.3
		C36,3,36.1,3.6,36.4,4.2c0.3,0.6,0.9,1,1.1,1.7c0.3,0.7,0.3,1.3,0.1,2C37.4,8.4,37,9.8,37.5,10.2z"/>
	<path d="M39.1,1.9C39.2,1.8,39,1.8,39.1,1.9L39.1,1.9z"/>
	<path d="M44.4,14.2c-0.3,0.5-0.5,0.9-1.1,1.1c-0.7,0.3-2.8,0.1-3.3-0.6c-0.5-0.6-0.3-2-0.5-2.7c-0.1-0.5-0.2-0.9-0.3-1.4
		c-0.1-0.6,0-1.2-0.2-1.8c-0.2-0.5-0.4-0.8-0.4-1.4c0-0.3,0.1-0.5,0.1-0.9c0-0.3-0.1-0.5,0-0.7C38.7,5.6,39,5.4,39,5.2
		c0-0.3,0-1.3-0.1-1.5c-0.1-0.1-0.2-0.3-0.2-0.4c0-0.3,0.2-0.4,0.3-0.7c0.1-0.2,0-0.5,0-0.7c0.4-0.4,0.6-0.9,1.2-1.2
		c0.2-0.1,0.6-0.4,0.8-0.4c0.1,0,0.1-0.2,0.2-0.2c0.1,0,0.5,0.3,0.6,0.4c0.5-0.4,1,0.6,1.3,0.9c0.1-0.4,0.3-0.3,0.4,0
		c0.2-0.1,1,1.9,1.1,2.2c0.4,1,0.9,1.9,1.1,2.9c0.4,2.2-0.2,4.3-0.6,6.4C44.9,13.5,44.6,13.7,44.4,14.2z"/>
	<path d="M39.1,13.2c-0.1,0-0.2,0-0.4,0c0,0,0,0.1,0.1,0.1c0.1,0.1,0.1,0.1,0.2,0.2c0.1,0.2,0.2,0.2,0.3,0.2
		C39.3,13.5,39,13.4,39.1,13.2z"/>
	<path d="M39.3,13.7C39.3,13.7,39.2,13.7,39.3,13.7L39.3,13.7z"/>
	<path d="M39,12.3c0,0.1-0.1,0.1,0,0.1c-0.1,0.1-0.1,0.3,0,0.4c0,0,0.1,0,0.1,0.1C39.1,12.7,39,12.5,39,12.3z"/>
	<path d="M38.6,12.9c0-0.1,0-0.2,0-0.3c0-0.1,0-0.1-0.1,0C38.4,12.6,38.4,12.7,38.6,12.9C38.5,12.8,38.5,12.9,38.6,12.9z"/>
</g>
</svg>
