<?xml version="1.0" encoding="utf-8"?>
<!-- Generator: Adobe Illustrator 19.1.0, SVG Export Plug-In . SVG Version: 6.00 Build 0)  -->
<svg version="1.1" xmlns="http://www.w3.org/2000/svg" xmlns:xlink="http://www.w3.org/1999/xlink" x="0px" y="0px"
	 viewBox="0 0 86 86" style="enable-background:new 0 0 86 86;" xml:space="preserve">
<style type="text/css">
	.st0{fill:#CEB49F;}
	.st1{fill:#F4914F;}
	.st2{fill:#F7B284;}
	.st3{fill:#FA8C97;}
	.st4{fill:#FCC5CB;}
	.st5{fill:#F1AD2B;}
	.st6{fill:#F8D695;}
	.st7{fill:#9D6A3E;}
	.st8{fill:#4BA9BD;}
	.st9{fill:#9ACFDA;}
</style>
<g id="color">
</g>
<g id="features">
	<path d="M14.3,48.9c2.4-0.8,4.2-0.6,6.7,0c-0.1,0.1-0.1,0.1-0.1,0.1c0.2,0.1,0.3,0.1,0.5,0.2c0-0.2,0-0.3,0-0.4
		c0.1,0,0.2,0.1,0.3,0c-0.1,0-0.1-0.1-0.2-0.2c0.3,0,0.5,0,0.7,0.1c0-0.1-0.1-0.2-0.1-0.3c0.4-0.1,0.9,0,1.3,0.1c0,0,0-0.1-0.1-0.1
		c0.2,0,0-0.4-0.1-0.5c0,0,0.1,0,0.1,0c0-0.1,0.3-0.5,0.2-0.6c0,0,0,0,0.1,0c0,0.1,0.2-0.5,0.3-0.9C24,46.2,24,46,24,46
		c0-0.1,0-0.3,0-0.5c0,0,0-0.1,0-0.1c0-0.1,0-0.2,0-0.4c0-0.1,0-0.2,0-0.3c0-0.1,0-0.2,0-0.3c0-0.2-0.1-0.3-0.1-0.5c0,0,0-0.1,0-0.1
		c-0.2-0.8-0.4-1.5-0.6-2.1c-0.1-0.2-0.1-0.3-0.2-0.5c0,0,0-0.1-0.1-0.1c-0.9-2.4-2.8-4.7-5.4-4.8c-2.4-0.1-5.5,1.7-6.3,4
		c-0.1,0.3-0.2,0.7-0.3,1.1c0,0,0,0,0,0c-0.2,1.1-0.3,2.4-0.4,3.5c-0.1,0.7,0.1,2.3-0.2,2.7c0,0,0.1,0,0.1,0.1c0,0-0.1,0.1-0.1,0.1
		c0.3,0.5,0,0.8,0.5,1.4c0.6,0.7,3.1-0.1,3.5-0.5C14.2,48.9,14.3,49,14.3,48.9z M14.1,45.2c0-0.1,0-0.1,0-0.2c0-0.1,0-0.1,0-0.2
		c0,0,0-0.1,0-0.1c0.1-1.8,0.6-5.3,2.6-4.9c0.2,0,0.3,0.1,0.5,0.2c0,0,0,0,0-0.1c0.1,0,1,0.1,1.1,0.2c0.3,0.3,0.5,0.7,0.8,1
		c0,0,0,0,0,0c-0.2-0.1-0.3-0.1-0.4,0c0,0,0-0.1-0.1-0.1c-0.2,0.1-0.3,0-0.4,0c0,0-0.1,0-0.1,0.1h0c0,0-0.1-0.1-0.1-0.1c0,0,0,0,0,0
		c0-0.1,0-0.1,0-0.2c-0.1,0.1-0.1,0.3-0.2,0.4c0,0,0-0.1,0-0.1c0,0,0-0.1,0-0.1c0,0,0,0-0.1,0c-0.1,0-0.1,0.1-0.2,0.1
		c-0.1,0.1-0.1,0.2-0.2,0.4c-0.1,0-0.1-0.1-0.2-0.1c0,0.1-0.1,0.2-0.1,0.3c-1.4,0.3-1.1,2.5-0.8,3.4c-0.7,0.1-1.3,0.3-2,0.4
		C14.1,45.4,14.1,45.3,14.1,45.2z"/>
	<path d="M76.2,45c0-0.1,0-0.2,0-0.3c0-0.1,0-0.2,0-0.3c0-0.2-0.1-0.3-0.1-0.5c0,0,0-0.1,0-0.1c-0.2-0.8-0.4-1.5-0.6-2.1
		c-0.1-0.2-0.1-0.3-0.2-0.5c0,0,0-0.1-0.1-0.1c-0.9-2.4-2.8-4.7-5.4-4.8c-2.4-0.1-5.5,1.7-6.3,4c-0.1,0.3-0.2,0.7-0.3,1.1
		c0,0,0,0,0,0c-0.2,1.1-0.3,2.4-0.4,3.5c-0.1,0.5,0,1.7-0.1,2.4c0.1,0.2,0,0.4-0.1,0.5c0,0.1,0,0.1,0,0.2c0.1,0.4,0,0.7,0.5,1.2
		c0.6,0.7,3.1-0.1,3.5-0.5c0,0,0.1,0.1,0.1,0.1c2.4-0.8,4.2-0.6,6.7,0c0,0,0,0.1-0.1,0.1c0.1,0,0.3,0,0.4,0c0-0.1,0-0.1,0-0.2
		c0.1,0,0.2,0.1,0.3,0c-0.1,0-0.1-0.1-0.2-0.2c0.3,0,0.5,0,0.7,0.1c0-0.1-0.1-0.2-0.1-0.3c0.3-0.1,0.7-0.1,1,0
		c0.1,0,0.1-0.1,0.2-0.1c0.1-0.1-0.1-0.4-0.1-0.5h0.1c0-0.1,0.3-0.5,0.2-0.6c0,0,0,0,0.1,0c0,0.1,0.2-0.5,0.3-0.9
		c0-0.2,0.1-0.4,0.1-0.4c0-0.1,0-0.3,0-0.5c0,0,0-0.1,0-0.1C76.3,45.3,76.3,45.2,76.2,45z M71.3,41.1c-0.2-0.1-0.3-0.1-0.4,0
		c0,0,0-0.1-0.1-0.1c-0.2,0.1-0.3,0-0.4,0c0,0-0.1,0-0.1,0.1h0c0,0,0,0,0,0c-0.1,0-0.1,0-0.2,0c0,0,0,0-0.1,0c0,0,0,0.1,0,0.1
		c0,0,0-0.1,0-0.1c-0.1,0-0.2,0-0.3,0.1c-0.1,0.1-0.1,0.2-0.2,0.3c-0.1,0-0.1-0.1-0.2-0.1c0,0.1-0.1,0.2-0.1,0.3
		c-1.4,0.3-1.1,2.5-0.8,3.4c-0.7,0.1-1.3,0.3-2,0.4c0-0.1,0-0.2,0-0.3c0-0.1,0-0.1,0-0.2c0-0.1,0-0.1,0-0.2c0,0,0-0.1,0-0.1
		c0.1-1.8,0.6-5.3,2.6-4.9c0.1,0,0.2,0.1,0.2,0.1c0.1,0,0.2,0,0.2,0c0,0,0,0,0,0c0.1,0,1,0.1,1.1,0.2C70.8,40.4,71,40.8,71.3,41.1
		C71.3,41.1,71.3,41.1,71.3,41.1z"/>
	<path d="M70.4,56.9C70.5,57,70.4,56.8,70.4,56.9L70.4,56.9z"/>
	<path d="M72.6,58.3c-0.2-0.6-1.7-1.1-2.2-1.3c0-1.2-3.2-0.1-5.3,0.7c-0.9,0.3-1.6,0.6-2,0.8c-3.1,1.1-6.2,1.8-9.4,2.4
		c-0.6,0.1-1.3,0.2-1.9,0.4c0,0,0,0,0,0c-0.5,0.1-1.1,0.2-1.6,0.3c-0.1,0-0.3,0-0.4,0.1c-0.4,0.1-0.9,0.1-1.3,0.2
		c-0.3,0-0.5,0.1-0.8,0.1c-0.3,0-0.7,0.1-1,0.1c-0.3,0-0.7,0.1-1,0.1c-0.3,0-0.6,0-0.9,0.1c-0.4,0-0.7,0.1-1.1,0.1
		c-0.3,0-0.6,0-0.9,0c-0.4,0-0.7,0-1.1,0c-0.4,0-0.8,0-1.1,0c-0.3,0-0.6,0-0.8,0c-0.7,0-1.3,0-2,0c-5.6-0.2-11.5-0.9-16.9-2.4
		c-0.3-0.1-0.5-0.1-0.8-0.2c-0.2,0-0.3-0.1-0.5-0.2c-0.1-0.1-0.3-0.1-0.4-0.2c-0.2-0.1-0.5-0.2-0.7-0.3c-0.1,0-0.1-0.1-0.2-0.1
		c-0.6-0.3-1.2-0.5-1.9-0.8c-0.9-0.4-2.6-1.6-3.5-1.6c-0.3,0-0.5,0-0.7,0.1c0,0,0,0-0.1,0c0,0-0.1,0-0.1,0c-0.8,0.4,0.4,1.6-0.3,2.3
		c1.7,2.6,6.1,4.2,9,5c3.7,1,7.5,1.7,11.3,2.2c7.7,0.9,15.7,0.4,23.3-0.8c0,0,0.1,0,0.1,0.1c0.8,0.2,4-0.7,4.5-0.8
		c0.5-0.1,1-0.2,1.5-0.3c0,0,0.1,0,0.1,0c0.2,0,0.4-0.1,0.7-0.1c0.1,0,0.3-0.1,0.4-0.1c0.3-0.1,0.7-0.2,1-0.3
		c2.3-0.7,6.5-1.6,8.2-3.3c-0.1-0.3-0.5-0.2-0.7-0.2c0,0,0,0,0,0c0.1,0,0.7-0.3,0.8-0.4c0-0.1,0-0.2,0-0.3c0.1-0.1,0.3-0.2,0.4-0.3
		c0,0-0.1-0.1-0.1-0.1c0.1,0,0.1,0,0.1,0c0-0.2,0-0.2,0.1-0.3c0,0,0-0.1-0.1-0.1c0.1,0,0.1-0.1,0.2-0.1c-0.2-0.1-0.2-0.1-0.1-0.4
		C72.4,58.3,72.5,58.3,72.6,58.3z"/>
	<path d="M77.2,33.2c0.3-1-3.5-3.6-4.3-4.1c-1.8-1-3.7-1.6-5.8-1.5c-2.3,0.1-11.6,2.8-9.1,6.6c-0.1,0.1,0.1,0.2,0.2,0.2
		c0.1,0.1,0.2,0.1,0.3,0.2c2.3,1.6,5-1.3,7.2-2c2.3-0.7,4.4-0.4,6.4,1c1.1,0.8,2.9,3.1,4.5,1.9c0.1-0.1,0.5-0.7,0.4-0.8
		C77.1,34.3,77.1,33.7,77.2,33.2z"/>
	<path d="M11.7,35.7c1-0.5,1.9-1.5,2.5-2c1.7-1.3,3.7-1.7,5.7-1.2c1.9,0.4,4.1,2.3,6.3,2.5c0,0,0,0,0,0c0.1,0,0.2,0,0.2,0
		c0.6,0,1.3-0.1,1.9-0.5c-0.1-0.1-0.2-0.1-0.2-0.2c2.5-3.6-5.9-6.5-8.3-6.6c-0.4,0-0.9,0-1.3,0c-0.1,0-0.1,0-0.2,0
		c-0.4,0-0.8,0.1-1.1,0.1c-0.1,0-0.3,0-0.4,0.1c-0.3,0.1-0.6,0.1-0.9,0.2c-0.2,0.1-0.4,0.1-0.6,0.2c0,0-0.1,0-0.1,0.1
		c-0.3,0.1-0.6,0.2-0.9,0.4c-0.9,0.4-5,2.9-5.1,4.3c0,0.1,0,0.2,0,0.2c0.2,0.5,0.1,1,0,1.5c0,0.1,0.3,0.7,0.4,0.8
		C10.3,36.1,11,36,11.7,35.7z"/>
	<path d="M10.5,14.1c-0.2,0.3-0.2,0.6-0.4,0.9c0.4,0.1,0.4,0.3,0.6,0.5c0.1,0,0.2,0,0.2,0c-0.3,0.5,2.2,1.2,2.2,1.3
		c-0.1,0-0.1,0.1-0.2,0.1c0,0,0,0,0,0c5.9,0.5,13.8-6.4,18.5-9c0,0,0,0,0-0.1c1.4-0.7,2.3-1.4,3.6-2.4c0.1-0.1,0.1-0.1,0.1,0.1
		c0.4-0.4,0.6-0.7,1.1-0.9c0,0.1,0,0.2,0,0.2c0.1-0.1,0.3-0.1,0.3-0.2c0-0.2-0.1-0.3-0.3-0.3c0-0.4-0.3-0.6-0.6-0.9
		c0,0,0.1-0.1,0.1-0.2c0,0,0-0.1-0.1-0.1c0,0.1-0.1,0.2-0.1,0.3c-0.1,0-0.1-0.1-0.1-0.1c0.1-0.1,0.1-0.2,0.2-0.2c0,0,0,0-0.1,0
		c0-0.1-0.1-0.2-0.2-0.3c0,0,0.1-0.1,0.1-0.1c-0.3-0.2-0.6-0.5-1-0.7c0,0,0,0,0,0C34.3,1.7,9.8,10.9,10,14.2
		C10.2,14.2,10.3,14.2,10.5,14.1C10.5,14.1,10.5,14.1,10.5,14.1z"/>
	<path d="M20.7,13.9c-0.2,0.3-0.2,0.6-0.4,0.9c0.4,0,0.4,0.3,0.6,0.5c0.1,0,0.2,0,0.2,0c-0.3,0.5,2.2,1.1,2.2,1.2
		c-0.1,0-0.1,0.1-0.2,0.1c0,0,0,0,0,0c5.9,0.4,13.6-6.8,18.2-9.6c0,0,0,0,0-0.1c1.3-0.8,2.3-1.5,3.5-2.5C45,4.5,45,4.5,45,4.6
		c0.4-0.4,0.6-0.7,1.1-1c0,0.1,0,0.2,0,0.2c0.1-0.1,0.3-0.1,0.3-0.2c0-0.2-0.1-0.2-0.3-0.3c0-0.4-0.4-0.6-0.6-0.8
		c0,0,0.1-0.1,0.1-0.2c0,0,0-0.1-0.1-0.1c0,0.1-0.1,0.2-0.1,0.3c-0.1,0-0.1-0.1-0.1-0.1c0.1-0.1,0.1-0.2,0.2-0.2c0,0,0,0-0.1,0
		c-0.1-0.1-0.1-0.2-0.2-0.3c0,0,0.1-0.1,0.1-0.1c-0.3-0.2-0.7-0.4-1-0.6c0,0,0,0,0,0c-0.1-0.3-24.3,9.7-24,13
		C20.4,14,20.5,14,20.7,13.9C20.7,13.9,20.7,13.9,20.7,13.9z"/>
	<path d="M30.6,12.7C30.6,12.7,30.6,12.7,30.6,12.7c0.1,0.1,0.1,0.1,0.1,0.2c-0.1,0-0.2,0.1-0.3,0.2c0.1,0-0.3,1-0.3,1.2
		c0,0.6-0.1,0.8,0.3,1.1c0.1,0.1,0.1,0.2,0.1,0.3c0.7,0.3,0.9,0.6,1.8,0.6c0,0,0-0.1,0.1-0.1c0.1,0,0.1,0.1,0.2,0.1
		c4-1.1,11.1-4.3,13.3-8.3c0,0,0,0,0,0c0.5-0.8,7.1-7.5,3.5-7.1c0,0,0-0.1-0.1-0.1c0,0,0,0,0,0c-0.7-0.2-1.3-0.1-2-0.2
		C47.7,2.5,32.4,12.6,30.6,12.7z"/>
	<path d="M55.6,12.6c-0.3-0.4-0.6-0.8-0.6-1.1c0,0,0,0,0,0c1.2,1.5,3.7,3.6,4.4,5.3c0,0,0.1,0.1,0.1,0.1c0,0,0,0,0,0c0,0,0,0,0,0
		c0.1,0,0.1,0.1,0.2,0.1c0,0,0,0,0,0c0.4,0.3,0.9,0.6,1.3,0.8c0.1,0,0.1,0,0.2,0c0.1,0,0.1,0,0.2,0.1l0,0c0,0,0,0,0,0
		c0.5,0.2,0.8,0.5,1.3,0.7c0.6,0.2,3.8-0.5,3.3-1.6c-2.5-4.8-6.1-12.1-10.3-15.7c0,0.1-0.1,0.1-0.1,0.1c0-0.3-0.5-0.4-0.6-0.5
		c0,0.1-0.1,0.2-0.2,0.2c-0.1-0.1-0.2-0.2-0.4-0.2c0.1,0.2,0.3,0.3,0.3,0.6c-0.3-0.1-0.6-0.4-0.9-0.5c-0.1,0.2-0.3,0-0.3,0.2
		c-0.7,0.2-1.4,0.6-2.1,0.9c0,0.1,0,0.3,0.1,0.4l0,0c-0.1,0-0.1,0.8-0.1,0.8c-0.1,0-0.1,0-0.1,0c-0.8,2,2.6,7.3,4.3,9.1
		C55.5,12.5,55.6,12.5,55.6,12.6z"/>
	<path d="M63,15c-0.3-0.4-0.6-0.8-0.6-1.1c0,0,0,0,0,0c1.2,1.5,3.7,3.6,4.4,5.3c0,0,0.1,0.1,0.1,0.1c0,0,0,0,0,0c0,0,0,0,0,0
		c0.1,0,0.1,0.1,0.2,0.1c0,0,0,0,0,0c0.4,0.3,0.9,0.6,1.3,0.8c0.1,0,0.1,0,0.2,0c0.1,0,0.1,0,0.2,0.1l0,0c0,0,0,0,0,0
		c0.5,0.2,0.8,0.5,1.3,0.7c0.6,0.2,3.8-0.5,3.3-1.6c-2.5-4.8-6.1-12.1-10.3-15.7C63,3.9,63,4,62.9,4c0-0.3-0.5-0.4-0.6-0.5
		c0,0.1-0.1,0.2-0.2,0.2c-0.1-0.1-0.2-0.2-0.4-0.2C61.7,3.8,62,3.9,62,4.1c-0.3-0.1-0.6-0.4-0.9-0.5c-0.1,0.2-0.3,0-0.3,0.2
		c-0.7,0.2-1.4,0.6-2.1,0.9c0,0.1,0,0.3,0.1,0.4l0,0c-0.1,0-0.1,0.8-0.1,0.8c-0.1,0-0.1,0-0.1,0c-0.8,2,2.6,7.3,4.3,9.1
		C62.9,15,62.9,15,63,15z"/>
</g>
</svg>
