<?xml version="1.0" encoding="utf-8"?>
<!-- Generator: Adobe Illustrator 19.1.0, SVG Export Plug-In . SVG Version: 6.00 Build 0)  -->
<svg version="1.1" xmlns="http://www.w3.org/2000/svg" xmlns:xlink="http://www.w3.org/1999/xlink" x="0px" y="0px"
	 viewBox="0 0 86 86" style="enable-background:new 0 0 86 86;" xml:space="preserve">
<style type="text/css">
	.st0{fill:#CEB49F;}
	.st1{fill:#F4914F;}
	.st2{fill:#F7B284;}
	.st3{fill:#FA8C97;}
	.st4{fill:#FCC5CB;}
	.st5{fill:#F1AD2B;}
	.st6{fill:#F8D695;}
	.st7{fill:#9D6A3E;}
	.st8{fill:#4BA9BD;}
	.st9{fill:#9ACFDA;}
</style>
<g id="color">
</g>
<g id="features">
	<g>
		<path d="M39.1,73c-0.1-0.4-0.6-1.3-0.3-1.7c-0.1-0.2-0.2-0.5-0.3-0.8c-0.1-0.2-0.4-0.5-0.6-0.7c-0.2-0.2-0.4-0.4-0.7-0.6
			c-0.1-0.1-0.2-0.2-0.4-0.1c-0.3,0-0.7-0.2-0.9,0c-0.2,0.1-0.3,0-0.4-0.1c-0.5-0.3-0.7-0.5-1.3-0.5c-0.4,0-1,0.2-1.2-0.2
			c-0.1-0.2-0.2-0.3-0.4-0.3c-0.5-0.2-0.9-0.5-1.4-0.6c-0.3-0.1-0.5,0-0.7,0c-0.1,0-0.5-0.1-0.5,0c-0.3,0.3-0.6,0.6-0.7,0.9
			c0,0.1,0,0.1,0,0.2c0,0.1,0,0.2-0.1,0.3c-0.1,0.1-0.1,0-0.2,0.1c0,0-0.1,0-0.1,0.1c-0.2,0.3-0.6,0.6-0.8,0.9
			c-0.1,0.3-1.3,2-1.1,2.2c-0.2,0.3-0.6,1.7-1,1.7c-0.5,0-0.4,0.8-0.4,1.2c0,0.2-0.1,0.4-0.2,0.6c0,0,0,0,0,0c0-1.5,1-2.7,1.7-4
			c-0.6,0.5-1,1.5-1.3,2.2c-0.4,0.8-0.6,1.6-0.4,2.5c0,0,0.1-0.1,0.1-0.1c0,0.2,0,0.5,0,0.7c0,0.1,0.1,0.1,0.1,0.2
			c0.1,0.1,0.1,0.2,0.1,0.2c0,0,0.1,0,0.1,0.1c0.2,0.2,0.5,0.8,0.9,0.8c0.1,0.1,0.1,0.1,0.1,0.2c0.1-0.1,0.2-0.1,0.4-0.2
			c0.2,0,0.5,0.4,0.6,0.1c0,0,0.5-0.3,0.6-0.4c0.4-0.3,0.1-0.2,0.5,0.1c0-0.1,0.1-0.1,0.1-0.2c0-0.1,0.1-0.1,0.1,0
			c0.1,0.1,0.2,0.1,0.2,0.2c0-0.1,0-0.2,0.1-0.3c0.2-0.2,0.5-0.1,0.7-0.3c0.1,0,0.1-0.1,0.2-0.2c0,0,0,0,0,0
			c0.2-0.2,0.3-0.6,0.5-0.7c0.2-0.1,0.4-0.3,0.5-0.4c0.3-0.3,0.3-0.7,0.5-1.1c0.3-0.4,0.7-0.7,1-1.1c0,0,0,0,0,0
			c0,0.3,0.1,0.4,0.1,0.5c0,0.1,0.1,0.1,0.1,0.2c0.1,0.4-0.1,0.8,0,1.2c0.1,0.6,0.2,1.2,0.4,1.8c0.1,0.5,0.3,1,0.3,1.5
			c0.2,0,0.2,0,0.2,0.2c0,0,0.1,0,0.1,0c0,0.1,0,0.1,0,0.2c0,0.2,0,0.3,0.2,0.5c0,0,0-0.1,0-0.1c0.3,0.1,0.4,0.6,0.6,0.8
			c0,0,0,0,0,0c0,0,0.1,0,0.1,0c0.1,0.1,0.1,0.1,0.2,0.2c0.1,0,0.2,0,0.3,0c0,0.3,0.4,0.1,0.4,0.3c0,0.2,0.4-0.2,0.5-0.2
			c0.2-0.2,0.6,0.1,0.6-0.1c0.1-0.3,0.4-0.2,0.5-0.4c0-0.1,0-0.2,0-0.3c0-0.2,0-0.3,0.2-0.3c0,0.1,0,0.1,0,0.2
			c0,0.1,0.1,0.2,0.2,0.2c0.2,0.1,0.2-0.3,0.2-0.4c0.1,0,0.1,0.1,0.2,0.1c0.1-0.2,0.1-0.7,0.2-0.8c0.1-0.1,0.2,0,0.3-0.2
			c0.1-0.6,0.1-1.1,0.3-1.7c0.1-0.6,0.6-1.1,0.7-1.7c0.1-0.4,0.1-0.7,0-1.1C39.5,73.6,39.3,73.4,39.1,73z"/>
		<path d="M63.1,74.8c0,0,0-0.1,0-0.2c0,0,0-0.1-0.1-0.1c0-0.2,0-0.3-0.1-0.5c-0.1-0.4-0.4-0.7-0.7-1c-0.2-0.2-0.5-0.4-0.6-0.6
			c-0.1-0.2-0.2-0.3-0.4-0.4c0,0,0-0.1-0.1-0.1c-1.3-1.5-2.8-2.6-4.3-3.9c-0.6-0.5-1.2-1.1-1.9-1.5c-0.4-0.3-1.6-0.2-2,0.1
			c-0.2,0.2-0.8,0.8-0.7,1.2c0.1,0.4,0.3,0.8,0.4,1.2c0.1,0.2-0.1,0.2-0.2,0.3c-0.1,0.1-0.3,0-0.4,0c-0.2-0.2-0.4-0.4-0.5-0.7
			c-0.1-0.3-0.3-0.2-0.6-0.4c-0.6-0.3-0.8-0.6-1.5-0.6c-0.4,0-0.8,0.2-1.1,0.5c-0.2,0.2-0.3,0.4-0.5,0.6c-0.2,0.3,0,1.6-0.2,1.6
			c-0.1-0.2-0.1-0.3-0.2-0.5c0,0,0,0-0.1,0c0,0.6,0.1,1.2,0.1,1.8c0,0,0.1,0,0.1,0c-0.2,0.4-0.1,0.7-0.1,1.1
			c0.2,0.1,0.2,1.6,0.2,1.9c0,0,0,0,0,0c0-0.1,0.1-0.2,0.1-0.3c0,0.3,0,0.6,0.1,0.9c0,0,0,0,0,0c0,0,0.1,0,0.1,0.1
			c-0.1,0.1-0.1,0.1-0.1,0.3c0,0,0.1-0.1,0.1-0.1c0.1,0.7,0.2,1.3,0.1,1.9c0,0,0,0,0,0c0,0,0-0.1,0.1-0.1c0.1,0.5,0,1,0.1,1.4
			c0,0,0.1,0,0.1,0.1c0.2,1.4,0.6,2.7,1,4c0,0,0,0,0,0c0.1,0.1,0.1,0.6,0.3,0.5c0.1,0,0.2,0.4,0.2,0.4c0,0,0,0.1,0.1,0.1
			c0,0,0,0,0,0c0.2,0.2,0.4,0.4,0.5,0.4c0.1,0.1,0.2,0.2,0.3,0.2c0.2,0,0.4,0.2,0.7,0.1c0.1,0,0.3,0,0.4-0.1c0,0,0.1,0,0.1-0.1
			c0.1-0.1,0.2-0.2,0.3-0.3c0,0,0,0,0,0.1c0.1,0.1,0.1,0.1,0.2,0c0.1-0.1,0.1-0.3,0.3-0.2c0,0,0.1,0,0.1,0.1c0-0.3,0-0.6,0-0.9
			c0,0,0-0.1,0-0.1c0,0,0,0,0,0c0.1,0.2,0.2,0.4,0.5,0.5c0-0.1,0.1-0.3,0.1-0.4c0.1,0.1,0.1,0.1,0.2,0.1c0.1-0.2,0.1-0.1,0-0.1
			c0.1-0.2,0.1-0.4,0.1-0.6c0-0.3,0-0.6,0.1-0.8c0.1-0.1,0.1-0.3,0.1-0.4c0-0.1,0.1-0.1,0-0.2c-0.1-0.2-0.1-0.4-0.1-0.6
			c0-0.2,0-0.4,0-0.6c-0.1-1.2-0.2-2.3-0.3-3.5c0-0.3-0.1-0.6-0.2-0.8c0-0.1,0-0.1,0-0.2c-0.2-0.8-0.5-1.5-0.5-2.3
			c0.2,0,0.3,0,0.4,0.2c0.3,0.4,0.5,0.8,0.8,1.1c1.2,1.4,2.4,2.8,3.5,4.3c0.1,0.2,0.3,0.2,0.5,0.3c0.1,0.1,0.1,0.1,0.2,0.2
			c0.3,0.3,0.7,0.6,1.1,0.7c0.2,0.1,0.4,0,0.6-0.1c0.2-0.2,0.5-0.4,0.7-0.6c0.1-0.1,0.4-0.2,0.5-0.2c0-0.1,0.1-0.2,0.1-0.2
			c0.1-0.2,0.1-0.2,0.3-0.2c0.1-0.2,0.3-0.4,0.4-0.6c0.1-0.1,0.3-0.2,0.5-0.2c0.1,0,0.2-0.1,0.2-0.3c0-0.1,0-0.3,0-0.4
			c0-0.2,0.1-0.4,0.1-0.7c0-0.3-0.1-0.8-0.1-1.1C63.1,75,63.1,74.9,63.1,74.8z"/>
		<path d="M46.9,75C46.9,75,46.9,74.9,46.9,75c-0.1-0.5-0.2-1-0.4-1.4c0,0,0-0.1,0-0.1c0,0,0,0,0-0.1c-0.3-0.9-0.8-1.6-1.1-2.5
			c0-0.1-0.1-0.3-0.1-0.4c0-0.3-0.7-0.9-0.9-1c-0.2-0.2-0.6-0.3-0.9-0.4c-0.4-0.2-1.6,0.4-2,0.5c-0.2,0.1-0.4,0.3-0.6,0.4
			c-0.4,0.2-0.1,1.2-0.2,1.6c0,0.3,0.1,0.4,0.1,0.7c0,0.5-0.1,1,0,1.5c0.1,0.5,0.1,1,0.2,1.5c0,0.2-0.2,0.4-0.2,0.7
			c0,0.2,0,0.4,0.1,0.6c0.1,0.4,0.1,1.1,0.3,1.5c0.1,0.3,0.5,0.5,0.5,0.8c-0.1,0.4,0.2,0.7,0.2,1c0,0.1-0.1,0.3-0.1,0.4
			c0,0.1-0.1,0.1,0,0.2c0.1,0.1,0.2,0.2,0.3,0.3c0.1,0.1,0.2,0.7,0.3,0.7c0.2,0.1,0.4,0.2,0.3,0.1c0.1,0,0.1,0.1,0.1,0.2
			c0.1,0.1,0.1,0.2,0.3,0.3c0.3,0.1,0.6,0.3,0.9,0.3c0.2,0,0.1,0.1,0.3,0.2c0.1,0.1,0.1,0,0.2-0.1c0.1-0.1,0.2-0.2,0.4-0.4
			c0.1,0.1,0.2,0.1,0.3,0c0-0.1,0.1-0.2,0.2-0.3c0.2,0,0.4-0.1,0.3-0.3c0,0-0.1-0.1-0.1-0.1c0.1-0.1,0.1-0.2,0.2-0.3
			c0,0,0.1,0.1,0.1,0.1c0,0.1,0.1,0.1,0.1,0.1c0.3,0,0.7-1.6,0.9-3c0.1-0.8,0.2-1.6,0.2-1.7c0-0.4,0-0.7-0.1-1.1
			C46.9,75.3,46.9,75.1,46.9,75z"/>
		<path d="M45.9,70.7c0,0.1,0.1,0.4,0.2,0.4c0.1,0,0.2,0,0.3,0C46.3,71,46.2,70.6,45.9,70.7C46,70.7,46,70.6,45.9,70.7z"/>
		<path d="M25.2,73.3c-0.1,0.2-0.1,0.4-0.1,0.6C25.1,73.8,25.2,73.5,25.2,73.3C25.2,73.3,25.2,73.3,25.2,73.3z"/>
		<path d="M46.3,71.4C46.3,71.4,46.2,71.4,46.3,71.4c-0.1,0.1-0.1,0.3-0.1,0.4c0.1-0.1,0.1-0.1,0-0.1C46.3,71.7,46.3,71.5,46.3,71.4
			z"/>
		<path d="M25.3,73.3c0.1-0.1,0.2-0.3,0.2-0.4C25.3,72.9,25.2,73.1,25.3,73.3z"/>
		<path d="M46.6,71.4c0,0.1,0,0.2,0,0.3c0,0.1,0.1,0.1,0.1,0C46.8,71.6,46.7,71.5,46.6,71.4C46.7,71.4,46.7,71.4,46.6,71.4z"/>
		<path d="M27.2,70.5c0,0,0.1,0,0.1,0c0.1-0.1,0-0.1,0-0.2c0,0,0,0,0,0C27.2,70.3,27.2,70.4,27.2,70.5z"/>
		<path d="M27.5,70c-0.1,0.1-0.1,0.1-0.2,0.2C27.5,70.2,27.5,70.2,27.5,70z"/>
		<path d="M25.8,71.9c-0.1,0.1-0.1,0.2-0.2,0.3c0,0,0,0,0,0C25.7,72.1,25.7,72,25.8,71.9C25.8,71.9,25.8,71.9,25.8,71.9z"/>
		<path d="M70.3,33.9C70.3,33.9,70.3,33.8,70.3,33.9c0-0.1,0-0.1-0.1-0.1c-0.3-0.2-0.6-0.4-0.9-0.5c-1.3-0.6-3.1-0.3-4.5-0.3
			c-1.6,0-3.3-0.1-4.9-0.2c0,0,0,0,0,0c0.1,0,0.1-0.1,0.2-0.1c-1.4,0-2.8,0.1-4.2,0.5c-0.2,0.1-0.3,0.1-0.5,0.2c0,0-0.3,0.3-0.3,0.3
			c0,0.1,0.1,0.6,0.1,0.8c0,0.3-0.1,0.7-0.1,1.1c-0.3,3.1-0.3,7.1,2.3,9.3c0.6,0.5,1.1,0.9,1.8,1.2c0.5,0.3,1,0.4,1.5,0.5
			c0.4,0.1,0.9,0.2,1.3,0.2c0.6,0.1,1.2,0.2,1.3-0.5c0.1,0,0.2,0,0.3,0c0.1-0.1,0.2-0.1,0.3-0.1c0.2,0,0.6,0.1,0.7-0.2
			c0.6-0.1,1.1-0.4,1.6-0.8c2.4-2.3,3.4-5.2,3.9-8.3c0.1-0.6-0.2-1.8,0.2-2.2c0,0,0,0,0,0c0,0-0.1,0-0.1,0c0-0.1,0.1-0.2,0.1-0.2
			C70.1,34.1,70,34.1,70,34c0,0,0-0.1,0-0.1C70.1,33.8,70.2,33.8,70.3,33.9z M66.7,37.1c-0.1,0.7-1.2,0.3-1.6,0.2
			c0,0.1,0,0.1-0.1,0.2c0,0-0.3-0.2-0.4-0.2c-0.3,0.2-0.8-0.3-1.1,0.1c-0.1,0.1-0.2,0.1-0.2,0.1c-0.1-0.1-0.3-0.2-0.4-0.1
			c-0.1,0.1-0.2,0.1-0.3,0.3c-0.1,0.3-0.4,0.5-0.4,0.8c-0.1,0.3,0,0.7,0,1c0,0.8,0,1.5,0.2,2.2c0.2,0.5,0.7,1,1.1,1.3
			c-0.1,0.1-0.2,0.2-0.3,0.3c0,0-0.1,0-0.1,0c-0.3,0-0.7-0.1-1-0.1c0-0.2-0.9-0.4-1.1-0.5c-0.5-0.3-0.9-0.7-1.3-1
			c-0.3-0.2-0.3-0.5-0.5-0.8c-0.8-1.6-1-3.4-1-5.2c0.7,0,1.4,0,2.1,0.2c0.9,0.2,2.1,0.2,3.1,0.3c1.2,0.1,2.3,0.3,3.5,0.5
			C66.7,36.7,66.7,36.9,66.7,37.1z"/>
		<path d="M63.2,37.5C63.3,37.4,63.1,37.4,63.2,37.5L63.2,37.5z"/>
		<path d="M52.3,30.3c-0.1,0.1-0.2,0.1-0.2,0.2c0.1,0.1,0.2,0.2,0.3,0.2c0.7-0.1,1.4,0.3,2.1,0.2c0.7-0.1,1.5-0.2,2.1-0.5
			c2.2-1.3,4.6-2.6,7.3-1.9c1,0.3,1.9,0.9,2.7,1.6c0.6,0.6,1.4,1.4,2.3,1.7c0.2,0.1,0.4,0.1,0.6,0.1c0.1,0,0.3,0,0.4,0
			c0.2,0,0.8-0.1,0.9-0.2c0.1-0.1,0.1-0.2,0.2-0.2c0,0,0-0.1,0-0.1c0-0.2,0.3-0.3,0.2-0.5c0-0.3,0-1.1-0.1-1.3c0-0.1-0.1-0.1,0-0.2
			c0,0,0,0,0-0.1c0-0.1,0-0.2-0.1-0.3c-2.3-2.9-5.4-5.2-9.2-5.3c-3.5-0.1-7.1,1.4-9.5,4c-0.5,0.5-0.7,1.6-0.4,2.2
			C52.1,30,52.2,30.2,52.3,30.3z"/>
		<path d="M31.5,34.9C31.5,34.9,31.5,34.9,31.5,34.9c0-0.1,0-0.1-0.1-0.1c-0.3-0.2-0.6-0.4-0.9-0.5c-1.3-0.6-3.1-0.3-4.5-0.3
			c-1.6,0-3.3-0.1-4.9-0.2c0,0,0,0,0,0c0.1,0,0.1-0.1,0.2-0.1c-1.4,0-2.8,0.1-4.2,0.5c-0.2,0.1-0.3,0.1-0.5,0.2c0,0-0.3,0.3-0.3,0.3
			c0,0.1,0.1,0.6,0.1,0.8c0,0.3-0.1,0.7-0.1,1.1c-0.3,3.1-0.3,7.1,2.3,9.3c0.6,0.5,1.1,0.9,1.8,1.2c0.5,0.3,1,0.4,1.5,0.5
			c0.4,0.1,0.9,0.2,1.3,0.2c0.6,0.1,1.2,0.2,1.3-0.5c0.1,0,0.2,0,0.3,0c0.1-0.1,0.2-0.1,0.3-0.1c0.2,0,0.6,0.1,0.7-0.2
			c0.6-0.1,1.1-0.4,1.6-0.8c2.4-2.3,3.4-5.2,3.9-8.3c0.1-0.6-0.2-1.8,0.2-2.2c0,0,0,0,0,0c0,0-0.1,0-0.1,0c0-0.1,0.1-0.2,0.1-0.2
			c-0.1-0.1-0.1-0.2-0.2-0.3c0,0,0-0.1,0-0.1C31.3,34.8,31.4,34.8,31.5,34.9z M27.9,38.1c-0.1,0.7-1.2,0.3-1.6,0.2
			c0,0.1,0,0.1-0.1,0.2c0,0-0.3-0.2-0.4-0.2c-0.3,0.2-0.8-0.3-1.1,0.1c-0.1,0.1-0.2,0.1-0.2,0.1c-0.1-0.1-0.3-0.2-0.4-0.1
			c-0.1,0.1-0.2,0.1-0.3,0.3c-0.1,0.3-0.4,0.5-0.4,0.8c-0.1,0.3,0,0.7,0,1c0,0.8,0,1.5,0.2,2.2c0.2,0.5,0.7,1,1.1,1.3
			c-0.1,0.1-0.2,0.2-0.3,0.3c0,0-0.1,0-0.1,0c-0.3,0-0.7-0.1-1-0.1c0-0.2-0.9-0.4-1.1-0.5c-0.5-0.3-0.9-0.7-1.3-1
			c-0.3-0.2-0.3-0.5-0.5-0.8c-0.8-1.6-1-3.4-1-5.2c0.7,0,1.4,0,2.1,0.2c0.9,0.2,2.1,0.2,3.1,0.3c1.2,0.1,2.3,0.3,3.5,0.5
			C28,37.8,27.9,37.9,27.9,38.1z"/>
		<path d="M24.5,38.5C24.5,38.5,24.3,38.4,24.5,38.5L24.5,38.5z"/>
		<path d="M12.7,55.3c-0.4-6.4-0.9-13.2,0.3-19.5c0.3-1.7,0.7-3.5,1.2-5.2c0,0.1,0.1,0.2,0.1,0.3c0.1,0.1,0.2,0.3,0.3,0.4
			c-0.1,0.1-0.2,0.1-0.2,0.2c0.1,0,0.1,0.1,0.1,0.1c0,0,0.1,0.1,0.2,0c0,0,0,0,0.1,0c0.2,0,0.4,0.1,0.6,0.1c0.2,0,0.4,0,0.5,0.1
			c0.2,0,0.3,0.1,0.5,0c0,0,0,0,0,0c0.1,0,0.2,0,0.3,0c0,0,0,0,0,0c0,0,0,0,0,0c0,0,0.1,0,0.1,0c0,0,0,0,0.1,0
			c0.3,0,0.6-0.1,0.9-0.1c0,0,0,0,0.1,0c0,0,0,0,0.1,0c0.2,0,0.4-0.1,0.6-0.2c0.1,0,0.2-0.1,0.3-0.1c1.3-0.8,2.7-1.6,4.2-1.9
			c0.1,0,0.2,0,0.3-0.1c0.2,0,0.3,0,0.5-0.1c0.1,0,0.2,0,0.2,0c0.1,0,0.2,0,0.3,0c0.4,0,0.8,0,1.1,0.1c0.2,0,0.4,0.1,0.7,0.1
			c0.3,0.1,0.5,0.2,0.8,0.3c0.4,0.2,0.7,0.4,1.1,0.6c0.1,0.1,0.2,0.1,0.3,0.2c0.2,0.1,0.3,0.2,0.4,0.4c0.1,0.1,0.2,0.2,0.4,0.4
			c0.1,0.1,0.1,0.2,0.2,0.2c0.2,0.1,0.3,0.3,0.5,0.4c0,0,0,0,0,0c0.4,0.3,0.8,0.6,1.3,0.7c0.2,0.1,0.4,0.1,0.6,0.1
			c0.1,0,0.3,0,0.4,0c0.1,0,0.6-0.1,0.8-0.1c0.1,0,0.1,0,0.1-0.1c0.1-0.1,0.1-0.2,0.2-0.2c0,0,0-0.1,0-0.1c0-0.2,0.3-0.3,0.2-0.5
			c0-0.2,0-0.8,0-1.1c0-0.1,0-0.1,0-0.2c0-0.1-0.1-0.1,0-0.2c0,0,0,0,0-0.1c0-0.1,0-0.2-0.1-0.3c-0.2-0.3-0.4-0.5-0.6-0.8
			c-0.2-0.3-0.5-0.5-0.7-0.8c-0.4-0.4-0.9-0.9-1.4-1.2c-0.4-0.3-0.7-0.5-1.1-0.8c-0.1-0.1-0.3-0.1-0.4-0.2c-0.3-0.2-0.5-0.3-0.8-0.5
			c-0.3-0.2-0.7-0.3-1-0.4c-0.1,0-0.1,0-0.2-0.1c-0.2-0.1-0.3-0.1-0.5-0.2c-0.1,0-0.2-0.1-0.3-0.1c-0.2-0.1-0.5-0.1-0.8-0.2
			c0,0,0,0,0,0c-0.3,0-0.6-0.1-0.9-0.1c-0.1,0-0.3,0-0.4,0c0,0,0,0-0.1,0c0,0,0,0-0.1,0c0,0-0.1,0-0.1,0c-0.4,0-0.8,0-1.1,0
			c-0.3,0-0.7,0.1-1,0.1c-0.6,0.1-1.2,0.2-1.8,0.5c-0.1,0-0.1,0.1-0.2,0.1c-0.5,0.2-0.9,0.3-1.3,0.5c-0.2,0.1-0.4,0.2-0.6,0.3
			c-1.2,0.6-2.2,1.4-3.1,2.4c0.2-0.6,0.4-1.3,0.6-1.9c0.5-1.4,0.9-2.8,1.6-4.1c0.8-1.4,1.6-2.7,2.4-4.1c0.9-1.5,2.6-2.4,4-3.4
			c1.3-1,2.6-1.9,3.9-2.9c1.5-1.1,3.1-1.9,4.8-2.7c1.4-0.7,2.9-0.9,4.4-1.1c1-0.1,2-0.4,3.1-0.5c0.9-0.1,1.8-0.1,2.7-0.2
			c1.1-0.1,1.9-0.7,3-1c1.1-0.3,2.3-0.2,3.4-0.4c0.7-0.1,1.3-0.4,1.8-0.8c0.2-0.1,0.5,0.1,0.7-0.1c0.1-0.1,0.1-0.3,0.1-0.4
			c-0.4-0.6-1-1-1.5-1.4c-0.2-0.1-0.2-0.2-0.4-0.3c-0.1-0.1-0.3,0-0.4-0.1c-0.2-0.2-0.1-0.6-0.6-0.5c0,0-0.1,0-0.1,0
			c-0.3-0.2-0.6-0.4-0.6-0.8c-0.1,0-0.2,0-0.2,0C47,1.6,46.4,1.1,45.8,1c-2.2-0.4-4.4-0.7-6.6-1c-0.8,0-1.5,0-2.3,0
			c-1.6,0.3-3.3,0.1-4.9,0.3c-1.5,0.2-2.9,0.6-4.4,0.9c-3,0.7-5.8,2.3-8.5,3.8c-2.7,1.5-5.2,3.2-7.1,5.6c-3.8,4.5-6,10.2-8.1,15.5
			c-0.4,1.1-0.7,2.2-1,3.3c-0.1,0.5-0.1,1-0.3,1.5c0.1,0.5-0.2,1.2-0.3,1.7c-0.1,0.6-0.2,1.2-0.3,1.8c-0.2,1.2-0.3,2.5-0.5,3.7
			c-0.3,2.5-0.4,5.1-0.5,7.6c-0.2,5-0.3,10,0.2,14.9c0,0.3,0.1,0.6,0.2,0.9c0.1,0.2,0,0.4-0.1,0.5c0.1,0.1,0.1,0.3,0.2,0.4
			c0.1,0.1,0.2,0.2,0.3,0.3c0.4,0.3,0.4,1,0.5,1.4c0.1,0.5,0.2,1,0.5,1.5c0.5,0.7,1.2,1.2,1.9,1.8C5,67.6,5.3,67.9,5.5,68
			c0.2,0,0.4,0.1,0.5,0.2c0.3,0.2,0.5,0.3,0.7,0.6c0.4-0.1,0.4-0.1,0.6,0.2c0,0,0.1,0.1,0.1,0.1c0.1,0.1,0.3,0.3,0.4,0.4
			c0.3,0.1,0.6,0.1,0.8,0.1c0.4,0,0.6,0.3,1,0.2c0.4-0.1,0.8,0,1.2,0c0.1,0,0.2,0,0.2-0.1c-0.1-0.3-0.2-0.6-0.1-1
			c0.1-0.3,0.1-1.4,0.5-1.6c0.7-0.3,0.8,0.6,1.5,0.5c-0.2-0.7-0.3-1.4-0.3-2.1c0,0,0.1,0,0.1-0.1c0,0.1,0.1,0.1,0.1,0.2
			c0.1,0.2,0.3,0.2,0.4,0.3c0.7,0.1-0.1-4.5-0.1-5C13.1,59.1,12.8,57.2,12.7,55.3z"/>
		<path d="M84.5,48c0,0.1,0,0.1,0,0.1C84.5,48.1,84.5,48,84.5,48c0-0.1,0-0.1,0-0.2C84.5,47.8,84.5,47.9,84.5,48
			c-0.1-7.5-0.6-15.1-2.8-22.2c-0.5-1.8-1.3-3.4-2-5.2c-0.7-1.8-1.5-3.5-2.4-5.1c-1.8-3.3-4.1-6.5-7-8.9c-1.6-1.4-3.3-2.3-5.2-3.2
			c-1-0.4-2.1-0.8-3.1-1.2C61,1.9,59.8,1.9,59,1.3c0,0.1,0,0.2,0.1,0.3c-0.5,0-0.9,0-1.4,0c0,0.2,0.1,0.3,0.1,0.5
			c-0.6,0.2-1.2-0.3-1.8,0c-0.1,0.1,0,0.3-0.2,0.4c-0.2,0.2-0.6,0.2-0.8,0.4c-0.2,0.1-0.3,0.3-0.5,0.5c-0.2,0.2-0.7,0.3-0.8,0.6
			c-0.1,0.3,0.2,0.5,0.2,0.8c-0.1,0.4-0.2,0.4,0,0.8c-0.1,0-0.2,0.1-0.3,0.1c0.2,0.5,0.3,1,0.6,1.4c0.3,0.4,0.7,0.6,1.2,0.9
			c1.1,0.6,2.4,1.1,3.6,1.6c2.5,1.1,4.4,2.4,6.2,4.5c1.6,2,2.9,4.3,3.9,6.7c0.5,1.2,1,2.4,1.3,3.8c0.2,0.7,0.4,1.4,0.5,2.2
			c0.1,0.6,0.1,1.4,0.4,2c0,0.3-0.1,0.3,0.2,0.4c0.2,1.4,0.3,2.8,0.7,4.1c0.1,0.2,0.1,0.3,0.2,0.5c0,0.2,0,0.4,0,0.6
			c0,0.4,0.1,0.7,0.1,1c0.1,0.8,0,1.8,0,2.7c0,0.5,0.2,0.9,0.2,1.3c0,0.7,0,1.3,0,2c0,2.4,0,4.8-0.1,7.2c-0.1,2.2-0.3,4.4-0.4,6.6
			c0,0-0.1,0-0.1,0c-0.1-0.1-0.3-0.2-0.4-0.3c-0.7-0.4-2.2,0.4-2.9,0.7c-1.1,0.4-2.2,0.8-3.2,1.2c-2.1,0.8-4.2,1.4-6.4,1.9
			c-7.7,1.5-15.3,2.4-23.1,1.8c-3.9-0.3-7.8-1-11.7-1.8c-1.9-0.4-3.5-1-5.3-1.7c-0.9-0.4-1.7-0.7-2.6-1.1c-0.4-0.2-0.8-0.5-1.2-0.6
			c-0.3-0.1-0.7,0.1-1,0c-0.4,0.1-0.4,0.3-0.6,0.7c-0.1,0.3,0.2,1.6,0,1.7c0.8,1.2,2,2,3.3,2.6c1.4,0.7,2.9,1.4,4.4,2
			c2.9,1,5.9,1.5,8.9,2c2.9,0.5,5.8,0.8,8.7,1c6.1,0.3,12.3-0.2,18.3-1.2c0.3,0.2,1.3-0.1,1.7-0.2c0.8-0.1,1.5-0.3,2.2-0.5
			c1.2-0.2,2.5-0.5,3.8-0.8c1.4-0.3,2.8-0.9,4.2-1.4c0.7-0.3,1.5-0.6,2.2-0.9c0.2-0.1,0.4-0.1,0.6-0.2c-0.1,0.6-0.1,1.1-0.2,1.7
			c0,0.5-0.1,1,0,1.5c0,0.4,0.2,0.8-0.1,1.2c-0.3-0.5-0.2-1.1-0.2-1.6c-0.1,0.5-0.2,0.8,0,1.3c0.2,0.5,0.6,1,0.3,1.5
			c0.3,0.3,0.7,0.4,0.9,0.8c0.3,0.5,0.5,1,0.9,1.5c0.6,0.6,1.4,0.7,2,1.5c0.3-0.4,0.4-0.4,0.9-0.3c0.6,0.1,0.7,0.4,1,0.9
			c0.5,0.1,0.8,0.3,0.9-0.2c0.2,0.1,0.4,0.2,0.5,0.3c0.2-0.9,0.6,0.1,1.1,0.3c0.1-0.1,0.1-0.3,0.3-0.3c0.1,0,0.4,0.5,0.4,0.5
			c0.1-0.4,0.4-1.4,0.8-0.7c0.1-0.1,0.1-0.2,0.2-0.4c0.1,0.2,0.2,0.3,0.2,0.3c0.2,0.1,0.6,0.4,0.2,0.6c0.2,0.4,0.9,0.5,1.2,0.3
			c0,0,0,0,0.1,0c0.6-3.7,0.7-7.5,0.9-11.3C84.4,55.7,84.5,51.8,84.5,48z M72.8,42.4c0.2,0.9,0,2,0,2.9c0,0.8-0.1,1.6-0.1,2.5
			c-0.1,1.8-0.2,3.6-0.3,5.4c-0.1,0.7-0.1,1.4-0.2,2c-0.1,0-0.1,0-0.2-0.1C72.5,50.9,72.6,46.7,72.8,42.4z"/>
		<path d="M84.5,48.2C84.5,48.2,84.5,48.2,84.5,48.2L84.5,48.2z"/>
		<path d="M84.4,47.8C84.4,47.7,84.4,47.7,84.4,47.8L84.4,47.8z"/>
		<path d="M84.5,48.1C84.5,48.1,84.5,48.1,84.5,48.1C84.5,48.1,84.5,48.1,84.5,48.1z"/>
		<path d="M84.5,47.8C84.5,47.8,84.5,47.8,84.5,47.8C84.4,47.8,84.5,47.8,84.5,47.8z"/>
	</g>
</g>
</svg>
