<?xml version="1.0" encoding="utf-8"?>
<!-- Generator: Adobe Illustrator 19.1.0, SVG Export Plug-In . SVG Version: 6.00 Build 0)  -->
<svg version="1.1" xmlns="http://www.w3.org/2000/svg" xmlns:xlink="http://www.w3.org/1999/xlink" x="0px" y="0px"
	 viewBox="0 0 86 86" style="enable-background:new 0 0 86 86;" xml:space="preserve">
<style type="text/css">
	.st0{fill:#CEB49F;}
	.st1{fill:#F4914F;}
	.st2{fill:#F7B284;}
	.st3{fill:#FA8C97;}
	.st4{fill:#FCC5CB;}
	.st5{fill:#F1AD2B;}
	.st6{fill:#F8D695;}
	.st7{fill:#9D6A3E;}
	.st8{fill:#4BA9BD;}
	.st9{fill:#9ACFDA;}
</style>
<g id="color">
</g>
<g id="features">
	<path d="M27.1,45.3c0.2-0.3,0.2-0.4,0.2-0.9c-0.1-0.9-0.3-1.8-0.6-2.7c-0.6-2.4-1.8-5.6-4.3-6.6c-0.5-0.2-0.9-0.3-1.4-0.3
		c-1.6,0-2.8,0.3-4.1,1.2c-1,0.7-2.1,1.4-2.6,2.7c-0.5,1.3-0.4,2.7-0.6,4c-0.1,0.7-0.3,1.4-0.3,2.2c0,0.4,0.2,1,0,1.4
		c0,0,0.1,0,0.1,0.1c-0.6,0.5,0.3,1.6,0.9,1.7c0.7,0.1,1.2-0.1,1.8-0.4c0.3-0.1,0.9-0.1,1.2-0.4c0.2,0.1,1.1-0.4,1.4-0.4
		c0.6-0.2,1.1-0.2,1.7-0.2c1.3,0.1,2.5,0.4,3.7,0.7c-0.1,0.1-0.1,0.1-0.1,0.1c0.2,0.1,0.3,0.1,0.5,0.2c0-0.2,0-0.3,0-0.4
		c0.1,0,0.2,0.1,0.3,0c-0.1,0-0.1-0.1-0.2-0.2c0.3,0,0.5,0,0.7,0.1c0-0.1-0.1-0.2-0.1-0.3c0.2-0.1,0.5-0.1,0.7-0.1
		c0.2,0,0.4,0.1,0.6,0.1c0-0.1-0.1-0.4-0.1-0.6c0.2,0,0.2-0.2,0.4-0.3c0.1-0.1,0.2-0.1,0-0.3c0,0,0,0,0.1,0
		C26.7,45.4,27,45.5,27.1,45.3z M21.7,39.5c-0.1-0.1-0.4-0.2-0.5-0.1c0,0-0.1-0.1-0.1-0.1c-0.1,0-0.1,0,0-0.2
		c-0.1,0.1-0.1,0.3-0.2,0.4c0-0.1-0.1-0.1-0.1-0.2c-0.1,0-0.3,0.2-0.4,0.5c-0.1,0-0.1-0.1-0.2-0.1c-0.1,0.3-0.3,0.5-0.6,0.6
		c-0.9,0.3-0.5,2.4-0.3,3c-0.7,0.1-1.3,0.3-2,0.4c0-0.8,0-1.6,0.1-2.4c0.1-0.9,0.5-1.7,0.9-2.4c0.1-0.1,0.1-0.2,0.2-0.3
		c0.1-0.1,0.1-0.1,0.2-0.2c0.5-0.2,1.2-0.5,1.7-0.2c0,0,0-0.1,0-0.1c0.3,0,0.9,0,1.1,0.2c0.3,0.3,0.5,0.7,0.8,1
		C22.1,39.5,21.9,39.3,21.7,39.5z"/>
	<path d="M78.6,11.4c0.1-0.5,0.2-0.9,0.2-1.4c-0.1-0.1-0.2-0.1-0.2-0.1v0l0,0c0,0-0.1,0.1-0.2,0.1c-0.3,0.1-0.8,0.2-0.8,0.1
		c0,0,0.1-0.1,0.2-0.2c0,0,0.1-0.1,0.2-0.1c0-0.1-0.1-0.2-0.1-0.3c0.2-0.2,0.3-0.4,0.2-0.6c0,0-0.2-1.9-0.7-1.7c0,0-0.1,0-0.1,0
		c-0.4-0.5-3.2-1.4-3.2-1.7c-0.5,0-2-0.6-2.3-1c-0.1-0.2-0.3-0.3-0.4-0.5c-0.5,0.4-0.6-0.1-1.1,0.1c-0.3,0.4-0.5,0.5-0.9,0.3
		c-0.5-0.2-0.6,0.2-1,0.4c-0.2,0.2-0.4,0.4-0.7,0.3c-0.1,0-0.3,0-0.5,0.1c-0.3,0-0.6,0-0.9-0.1c-0.4-0.2-1.2-0.6-1.6-0.2
		c-0.2,0.1-0.5,0.1-0.6-0.1c0,0,0,0-0.1,0.1c-0.1,0.2-0.1,0.2-0.3,0.1c-0.2-0.2-2.2-0.8-2.2-0.8c-0.5,0-0.9,0-1.4,0.1
		c0,0,0-0.1,0-0.2c-0.1,0-0.1,0-0.2,0c-0.1-0.3-0.3-0.5-0.5-0.2c-0.5-0.4-1.1-0.8-1.7-1.1c-0.6-0.3-1.4,0.1-2.1,0.1
		c0,0,0-0.1-0.1-0.2c-0.1,0.1-0.2,0.2-0.3,0.2c-0.1-0.1-0.2-0.2-0.3-0.2c-0.1,0.1-0.3-0.1-0.4,0.1c-0.1,0.1-2.6-1-3.4-0.7
		c-0.2,0.1-0.3,0.2-0.5-0.1c-0.1,0.1-0.1,0.1-0.1,0.1c-0.2,0.1-0.5,0.2-0.8,0.3c-0.1,0.1-0.1,0.2-0.2,0.2c-0.2,0.4-0.5,0.5-1,0.4
		c-0.7-0.2-3.9-0.3-4.2,0.3c-0.1,0.3-0.1,0.3-0.3,0.1c-0.3,0-0.4,0.1-0.6,0c-2.6-0.3-3.5-2.2-5.7-3c-0.2-0.1-0.3-0.1-0.5-0.1
		c-0.4,0-0.8,0-1.2,0c0,0,0,0-0.1,0c-0.1,0-0.3,0-0.4,0.1c-0.1,0-0.2,0-0.3,0c-0.1,0-0.1,0-0.2,0c-0.6,0.1-1.2,0.4-1.6,0.6
		c-0.2,0.1-0.3,0.2-0.4,0.3c-0.1,0.1-0.3,0.2-0.4,0c-0.6-0.5-5.1,0.5-6,0.7c-2.1,0.3-4,0.4-6.1,0.4C20,3,19.9,2.8,19.2,2.5
		c-0.2-0.1-0.4-0.1-0.6-0.1c-1.1-0.1-2.7-0.1-3.7,0.3c-0.5,0.2-1,0.4-1.5,0.7c-0.3,0.2-0.5,0.3-0.8,0.5c0.5-0.2-1.6,2.7-1.8,2.8
		c-0.3,0.2-0.6,0.4-0.9,0.7c0,0,0,0,0,0C6.2,10.6,7,16.7,9.2,21c0.2,0.3,0.3,0.6,0.5,0.9c0.5,0.7,0.9,1.4,1.4,2.1
		c0.1,0,0.2-0.1,0.3-0.1c-0.1-0.2-0.1-0.5,0.1-0.4c0.3,0.2,0.5,0.4,0.7,0.7c0.2,0.3,0.4,0.6,0.6,0.9c0.1,0.1,0.2,0.2,0.4,0.3
		c0.1,0.1,0.2,0.2,0.2,0.3c0.1,0.2,0.3,0.3,0.4,0.5c0.1-0.1,0.1-0.3,0.2-0.4c0.1,0,0.6-0.9,0.6-0.8c0,0,0.2-0.1,0.2-0.1
		c0.3,0.3,0.7,0.6,1.1,0.9c0.1-0.2,0.2-0.3,0.3-0.5c0.6,0.2,1.1-1.3,1.3-1.7c0.2,0.3,0.5,0.5,0.8,0.7c0.2,0,0.4,0,0.6,0
		c0.4-0.8,0.7-1.6,1-2.5c0-0.1,0.1-0.2,0.2-0.2c0.4-0.1,0.7,0.1,0.9,0.5c0.1,0.2,0.3,0,0.4,0.1c0.1-0.3,0.3-0.5,0.6-0.7
		c0,0,0.1,0,0.1-0.1c0.5-0.4,1.4,1.1,1.7,1.3c0,0,0-0.1,0.1-0.1c0.2-0.3,0.3-0.3,0.5-0.1c0.1,0,0.1,0.1,0.2,0.1
		c0.2,0,0.3,0.1,0.4,0.3c0,0.1,0.1,0.2,0.2,0.1c0,0,0.1,0,0.2,0c0,0.2,0.4,0.4,0.6,0.4c0.2,0,1.4,0.4,1.6,0.1
		c0.5-0.6,0.9-1.2,1.3-1.9c0,0,0.2-0.1,0.2-0.1c0.1,0,0.5,0.6,0.5,0.7c0.1,0.1,0.4,0.4,0.5,0.3c-0.3,0.1,1.5,0.3,1.5,0.3
		c0.4,0,0.7-0.1,0.8-0.6c0.2-0.4,0.5-0.7,0.9-0.7c0.4-0.1,0.8-0.2,1.2-0.3c0,0.1-0.1,0.2-0.1,0.2c0.1,0.4,0.3,0.6,0.7,0.6
		c0.4,0.5,0.5,0.4,1.1,0.6c-0.2-0.1,1.4,0.3,1.3,0.3c0.2,0.1,0.2,0,0.3-0.1c0.3-0.5,0.6-0.9,1-1.2c0.1-0.1,0.2-0.1,0.4-0.1
		c0.2,0.1,0.4,0.1,0.6,0.2c0.3,0,0.6,0,0.8-0.1c0.2,0.1,0.4,0.2,0.6,0.2c0.3,0.2,1.7,1,1.7,1c0.5,0.4,1.9-1.6,2.3-1.9
		c0.3-0.2,0.6-0.4,0.9-0.6c0.2-0.1,0.6,0.1,0.6,0.3c0,0,0,0,0,0c-0.1,0-0.2-0.1-0.3-0.1c0.1,0.1,0.1,0.4,0.4,0.3
		c0-0.1,0.1-0.2,0.1-0.3c0,0,0.1,0,0.1,0c0.1,0.3,0.1,0.5,0.1,0.8c0.4,0.3,0.8,0.7,1.2,1c0.1-0.2,0.1-0.2,0.3-0.1
		c0.1,0.1,0.2,0.2,0.3,0.2c0.3,0,0.6,0,0.9-0.1c0.1,0,1-0.4,1.2-0.5c0.5-0.3,1-0.6,1.6-0.9c0.4,0.1,0.7,0.4,0.8,0.8
		c0,0.2,1.3,1.1,1.5,1.1c0.3,0.1,0.6,0.2,1,0.2c0.4,0,0.8-0.2,1.3-0.2c0.8-0.3,1.5-0.6,2.1-1.1c0.2-0.1,0.4-0.3,0.7-0.1
		c0.3,0.1,0.6,0,0.9,0c0.4-0.1,0.7,0,1,0.2c0.7,0.5,1.8,0.6,2.6,0.7c0,0,0,0,0,0c-0.1-0.2,1.1,1.4,1.1,1.2c0.3,0,0.5,0.1,0.8,0.2
		c0.3,0,0.6-0.1,0.9-0.1c0.2,0,0.4,0,0.5-0.3c0.1,0.1,0.1,0.2,0.2,0.2c0.1,0.2,0.2,0.2,0.4,0.1c0.3-0.1,0.5-0.2,0.8-0.1
		c0.9-0.5,1.8-1.1,2.5-1.8c0.3-0.2,0.4-0.2,0.6-0.1c0.1-0.1,0.3-0.1,0.4-0.2c0.1,0.1,0.2,0.2,0.2,0.3c0.2,0,0.4-0.1,0.5-0.2
		c0.1-0.1,0.3-0.2,0.4-0.3c0,0,0.1,0,0.1,0c0,0,0,0.1,0,0.1c0,0.1-0.1,0.2-0.1,0.2c0,0.1,0,0.2,0.1,0.3c0.5-0.1,1-0.9,1.3-1.2
		c-0.1,0.1,1-1.7,0.9-1.5c1.2-2.3,1.5-4.7,2.2-7.1c0,0,0,0,0-0.1c0-0.1,0-0.3,0.1-0.4c0-0.1,0-0.2,0.1-0.3c0,0,0-0.1,0-0.1
		C78.6,11.5,78.6,11.5,78.6,11.4L78.6,11.4C78.6,11.4,78.6,11.4,78.6,11.4z"/>
	<path d="M69.2,37.8c0.3-0.5,0.2-0.8,0.3-1.4c0-0.3-0.3-0.2-0.4-0.4c-0.1-0.1-0.2-0.6-0.1-0.8c0-0.1,0-0.2-0.1-0.3
		c-0.4-0.4-0.5-0.9-1-0.8c-0.2,0-0.4,0.2-0.6,0.2c-0.2,0.1-0.5,0-0.8,0.1c-0.6,0.3-1.3,0.4-2,0.8c-0.6,0.3-1.2,0.8-1.8,1.2
		c-1.1,0.7-2.3,1.3-3.3,2.1c-1.3,0.8-2.5,1.6-3.7,2.5c-0.9,0.7-2,1.5-2.8,2.4c-0.8,0.5-0.7,1.5,0,2.1c0,0,0.1,0.1,0.1,0.1
		c0,0,0,0,0,0c0,0.1-0.2,0.1-0.3,0.2c0.1,0.1,0.5,0.1,0.5,0.3c0,0.1-0.1,0.3,0,0.2c0.1,0,0.6,0.2,0.7,0.2c1.2,0.2,2.4,0.4,3.5,0.5
		c1.2,0.1,2.4,0.2,3.6,0.2c2.4,0.1,4.7,0.1,7.1,0.3c0.8,0,1.6-0.4,2.4-0.6c0,0,0,0,0,0c0,0,0.1,0,0.1,0c0.1-0.1,0.3,0,0.4,0
		c0.5,0.1,0.4-1,0.5-1.3c0.1-0.2-0.2-0.7-0.3-0.8c-0.1-0.1,0-0.2,0-0.3c0,0,0,0,0,0c0,0,0-0.1,0-0.1c0-0.3,0-0.2-0.1-0.5
		c-0.3-0.7-1.4-1.3-2.1-1.5c-1.7-0.5-3.6-0.4-5.4-0.3c1.1-0.6,2.2-1.2,3.3-1.9C67.9,39.5,68.5,38.8,69.2,37.8z"/>
	<path d="M69.9,40.2c0,0.1,0,0.1,0,0.2C70.1,40.3,70,40.3,69.9,40.2z"/>
	<path d="M70.3,40.2c-0.1,0.1-0.1,0.1,0,0.2c0,0,0.1,0,0.1,0C70.3,40.3,70.3,40.3,70.3,40.2z"/>
	<path d="M11.3,29.7c0,0.1-0.1,0.1-0.1,0.2c0,0,0,0,0,0c0.9,0.4,1.8,0.9,2.7,1.3c1.2,0.5,2.5,1,3.8,1.4c1.4,0.5,2.8,0.8,4.1,1.2
		c1.1,0.4,2.2,0.7,3.3,1c0.5,0.1,1.3,0.1,1.8,0.2c0.3,0,0.7,0,0.9-0.1c0,0,0,0,0,0c0.4,0,0.6,0.2,0.9-0.1c0.2-0.2,0.5-0.8,0.4-1.1
		c0-0.3-0.1-0.5-0.1-0.8c0.1-0.1,0.1-0.2,0.2-0.3c0.5-0.7-1.2-2.1-1.6-2.5c-0.2-0.2-0.5-0.3-0.7-0.4c-1.1-0.5-2.4-0.7-3.6-1
		c-1.2-0.3-2.4-0.7-3.6-1c-1.1-0.3-2.1-0.5-3.2-0.7c-1.1-0.3-2.3-0.3-3.4-0.5c0.1,0.2-0.1,0.2-0.3,0.2c0,0,0,0,0,0
		c-0.6,0.2-1.5,0.2-1.8,0.8c-0.3,0.4-0.1,0.9,0,1.3c0,0.2,0.4,0.5-0.1,0.4C10.8,29.5,11.2,29.4,11.3,29.7z"/>
	<path d="M29.2,28.4c0,0-0.2,0-0.1,0.2C29.2,28.5,29.2,28.5,29.2,28.4z"/>
	<path d="M65.5,59.9C65.4,59.7,65.4,59.9,65.5,59.9L65.5,59.9z"/>
	<path d="M73.3,61.8C73.3,61.7,73.3,61.7,73.3,61.8c0.1,0,0.1,0,0.2,0c-0.1-0.1-0.1-0.2-0.2-0.3c0,0,0,0,0.1-0.1
		c-0.1-0.1-0.2-0.3-0.4-0.4c-0.1-0.1-0.2-0.2-0.3-0.2c-0.1,0-0.2-0.1-0.2-0.1c0,0-0.1,0-0.1,0c-0.3-0.1-0.6-0.1-0.8-0.2
		c-0.2-0.1-0.4-0.2-0.6-0.3c-0.1,0-0.1,0-0.2-0.1c-0.3-0.1-0.5-0.3-0.7-0.5c-0.9-0.7-1.5-1.5-2.3-2.3c-0.3-0.3-1-0.4-1.3-0.5
		c0,0-0.1,0-0.1,0c-0.2,0.1-0.3,0.1-0.4-0.1c0-0.1-0.1-0.1-0.1,0c0,0-0.1,0-0.1,0.1c0,0-0.1,0.1-0.1,0.1c0,0.1-0.1,0.1-0.1,0.2
		c0,0,0,0-0.1,0c0,0-0.1-0.1-0.1,0c-0.1,0.2-0.7,0.4-0.6,0.6c0.1,0.2-0.2,0.1-0.1,0.3c0.1,0.1,0.2,0.3,0.1,0.5c-0.1,0-0.2,0-0.1,0.1
		c0.1,0.2,0,0.1,0,0.3c0.1,0.1,0.1,0.3,0.2,0.4c0.2,0.3,0.5,0.5,0.7,0.7c-0.7,0.4-1.5,0.7-2.2,1.1c-0.1,0.1-0.2,0-0.4,0
		c-0.4,0.2-0.7,0.3-1.1,0.5c-0.2,0.1-0.4,0.2-0.6,0.2c-0.2,0.1-0.3,0.1-0.5,0.2c-0.3,0.1-0.6,0.2-1,0.3c0,0,0,0,0,0
		c-1.7,0.5-3.5,0.9-5.3,1.3c-3,0.7-6.1,1-9.2,1.1c-2.7,0.1-5.5,0-8.2-0.2c-0.4,0-0.8-0.1-1.1-0.1c-4.5-0.5-9.3-0.9-13.6-2.4
		c-0.5-0.2-1-0.4-1.5-0.6c-0.1-0.1-0.2-0.1-0.4-0.2c-0.7-0.3-1.4-0.7-2.1-1.1c0,0,0.1-0.1,0.1-0.2c0.1-0.1,0.2-0.2,0.2-0.2
		c0,0,0,0,0,0c0,0,0,0,0,0c0-0.2,0.1-0.1,0.3-0.3c0.1-0.1,0.3-0.2,0.4-0.3c0.5-0.5,0.7-1.2,1-1.9c0-0.1,0-0.1,0-0.2c0,0,0,0,0,0
		c0,0,0,0.1-0.1,0.2c0,0-0.1-0.4-0.2-0.4c-0.2-0.2-0.2-0.5-0.4-0.7C19.8,56,19.8,56,19.7,56c0,0,0,0-0.1,0c0,0,0,0,0,0
		c0,0-0.1,0-0.1,0c0,0-0.1-0.1-0.1-0.2c0.1-0.4-0.7-0.2-0.8-0.4c-0.1,0-0.2,0.1-0.3,0.1c0,0,0,0,0,0c-0.2,0.1-0.4,0.1-0.7,0.3
		c0,0,0,0,0,0c0,0,0,0-0.1-0.1c-0.3,0.2-0.3,0.5-0.5,0.7c0-0.1,0-0.2,0-0.3c0,0,0,0,0,0c0.1,0.5-0.4,1.2-1,1.6c0,0,0,0,0,0
		c-0.1,0-0.1,0.1-0.2,0.1c0,0-0.1,0-0.1,0.1c-0.1,0-0.2,0.1-0.2,0.1c-0.3,0.1-0.7,0.2-1.1,0.3c-0.3,0.1-0.6,0.1-0.9,0
		c-0.5-0.2-1.8-0.7-2.2-0.2c-0.2,0.2-0.4,0.9-0.4,1.5c0,0,0,0,0,0c0,0,0,0,0,0c0,0.4,0,0.7,0.2,0.8c0.1,0.1,0.3,0.2,0.5,0.3
		c0.3,0.2,1.1,0.4,1.5,0.5c0.4,0.1,0.8,0.1,1.2,0.2c0,0,0,0,0,0c-0.2,0-0.4,0-0.6,0c0,0,0,0,0,0c0.4,0.1,0.8-0.1,1.2-0.1
		c0.1,0,0.1,0,0.2,0c0,0,0,0,0,0c0,0,0.1,0,0.1,0.1c0.3,0.2,0.5,0.5,0.7,0.7c0.3,0.2,0.6,0.5,0.9,0.7c0.1,0.1,0.2,0.2,0.2,0.2
		c0,0,0.1,0,0.1,0.1c0,0,0,0,0,0c0.1,0.1,0.3,0.2,0.5,0.3c0.3,0.2,0.6,0.4,1,0.6c0.5,0.3,1,0.5,1.5,0.8c0.9,0.4,1.8,0.7,2.7,1
		c1.4,0.5,2.9,0.8,4.3,1.1c2,0.4,4.2,0.6,6.2,0.9c2.1,0.3,4.3,0.6,6.4,0.8c0.8,0.1,1.5,0.1,2.3,0.1c4.7,0.2,9.5-0.1,14.1-1.1
		c0,0,0,0,0,0c-0.3,0.1-0.7,0.2-1,0.4c0.9-0.1,1.7-0.3,2.5-0.5c0.6-0.1,1.4-0.2,1.9-0.5c0.1-0.1,0.3-0.2,0.4-0.2c0,0,0,0,0,0
		c0,0-0.1,0.1-0.1,0.1c0,0,0,0,0,0c0,0,0.1,0,0.1,0c0,0,0,0,0,0c0.1,0.1,0.1,0,0.2,0c1-0.2,2.1-0.6,3.1-1c1.1-0.4,2.3-0.9,3.3-1.5
		c0.1-0.1,0.2-0.2,0.3-0.3c0.4-0.2,0.8-0.4,1.2-0.6c0-0.1,0.1-0.2,0.1-0.2c0.1-0.1,0.3-0.1,0.4-0.2c0,0,0.1,0,0.1,0
		c0.9,0.3,1.7,0.5,2.7,0.6c0.1,0,0.2,0,0.2-0.2c0,0,0,0,0-0.1c0.1,0,0.2,0,0.3,0c0,0-0.1-0.1-0.1-0.1c0.1,0,0.2,0,0.3-0.1
		c0.1-0.1,0.2-0.1,0.2-0.2c0-0.1,0-0.1-0.1-0.2c0-0.1-0.1-0.1-0.2-0.2c0,0,0,0,0,0c0.1,0,0.2,0,0.3,0c0-0.1,0-0.1,0.1-0.1
		c0.2,0,0.4,0,0.6-0.1c0,0,0.2-0.2,0.2-0.2C73.5,62.1,73.4,62,73.3,61.8C73.3,61.8,73.3,61.8,73.3,61.8z"/>
</g>
</svg>
