<?xml version="1.0" encoding="utf-8"?>
<!-- Generator: Adobe Illustrator 19.1.0, SVG Export Plug-In . SVG Version: 6.00 Build 0)  -->
<svg version="1.1" xmlns="http://www.w3.org/2000/svg" xmlns:xlink="http://www.w3.org/1999/xlink" x="0px" y="0px"
	 viewBox="0 0 86 86" style="enable-background:new 0 0 86 86;" xml:space="preserve">
<style type="text/css">
	.st0{fill:#CEB49F;}
	.st1{fill:#F4914F;}
	.st2{fill:#F7B284;}
	.st3{fill:#FA8C97;}
	.st4{fill:#FCC5CB;}
	.st5{fill:#F1AD2B;}
	.st6{fill:#F8D695;}
	.st7{fill:#9D6A3E;}
	.st8{fill:#4BA9BD;}
	.st9{fill:#9ACFDA;}
</style>
<g id="color">
</g>
<g id="features">
	<path d="M76.6,67.3c-0.6-1.3-1.5-2.7-2.8-3.5c-0.7-0.4-1.5-0.7-2.2-1c-1.8-0.7-4.1-0.6-5.8,0.5c-1,0.7-2,1.4-3,2.1
		c-0.3,0.3-0.7,0.4-1.2,0.5c-0.5,0.1-1,0-1.4-0.2c-0.7-0.4-1.3-1-1.8-1.6c-0.5-0.6-1.2-1-1.9-1.3c-0.8-0.3-1.6-0.5-2.4-0.6
		c-0.6-0.1-1.2,0-1.8,0.1c-0.6,0.1-1.2,0.3-1.7,0.6c-1.4,0.8-2.5,1.8-3.7,2.8c-0.1,0.1-0.1,0.1-0.2,0c-0.5-0.2-0.9-0.5-1.3-0.8
		c-0.8-0.8-1.6-1.8-2.7-2.4c-0.3-0.2-0.7-0.4-1.1-0.5c-0.4-0.1-0.9-0.3-1.4-0.3c-0.9-0.1-1.9,0-2.8,0.2c-0.4,0.1-0.7,0.2-1.1,0.4
		c-0.7,0.3-1.3,0.8-1.9,1.3c-0.6,0.4-1.2,0.8-1.7,1.3c-0.1,0.1-0.2,0.2-0.3,0.2c-0.3-0.1-0.7-0.1-0.9-0.2c-1.6-0.9-2.7-2.5-4.5-3.2
		c-1.7-0.7-3.8-0.6-5.6,0c-0.5,0.2-1,0.4-1.4,0.8c-0.8,0.6-1.4,1.3-2.2,1.9c-0.7,0.4-1.7-0.1-2.3-0.5c-0.9-0.6-3.6-4.1-4.2-1.5
		c-0.4,1.8,1.5,3.9,2.8,4.8c0.5,0.4,1.1,0.6,1.7,0.8c0.5,0.2,1.1,0.3,1.6,0.5c0.2,0.1,0.7,0,0.9,0c0.6,0,1.3-0.3,1.8-0.6
		c0.3-0.2,0.5-0.5,0.8-0.6c0.7-0.4,0.9-0.7,1.5-1.2c0.2-0.2,0.5-0.4,0.7-0.6c0.2-0.2,0.4-0.4,0.7-0.3c0.3,0,0.5-0.1,0.8-0.1
		c0.3,0.1,0.6,0.1,0.8,0.2c2.4,1.1,4,4,6.8,4.2c0.2,0,0.4,0,0.5,0c0.8,0,2.6-0.4,3.2-1.1c0.2-0.3,0.3-0.6,0.5-0.9
		c0.4-0.6,1.3-0.9,1.8-1.5c0.2-0.2,0.3-0.3,0.6-0.4c0.4-0.1,1.1,0,1.5,0.1c0.3,0.1,0.7,0.3,0.9,0.5c1.1,1.1,2.1,2.4,3.6,3.1
		c0.7,0.3,1.4,0.5,2.1,0.6c0.6,0,1.8,0,2.3-0.4c0.5-0.5,1-0.9,1.5-1.4c0.1-0.1,0.2-0.3,0.3-0.4c0.7-0.8,1.9-1.7,2.9-1.8
		c0.4,0,0.8,0,1.2,0.2c0.2,0.1,0.3,0.2,0.4,0.3c0.5,0.5,0.9,1.1,1.3,1.6c0.5,0.6,1.3,1.3,2,1.5c1.5,0.5,3.6,0.8,5.1,0.1
		c0.3-0.1,0.6-0.4,0.9-0.5c0.6-0.4,1.1-1,1.6-1.4c0.7-0.5,1.4-1,2.1-1.5c0.2-0.1,0.4-0.2,0.6-0.3c0.2-0.1,0.5-0.1,0.7,0
		c0.4,0.2,0.9,0.3,1.3,0.5c0.3,0.2,0.7,0.4,0.9,0.7c0.5,0.6,1.1,1.3,1.6,1.9c0.1,0.1,0.2,0.3,0.2,0.4c0.2,0.5,1.5,0.4,2,0.5
		c0.1,0,0.1,0,0.2-0.1c0.2-0.1,0.2-0.1,0.2-0.3C76.4,68.9,76.9,68,76.6,67.3z"/>
	<path d="M43.7,6.5c0.2,0.3,0.5,0.5,0.7,0.8c0.1,0.2,0.3,0.4,0.4,0.6c0.1,0.2,0.1,0.3,0.3,0.3c0.1,0,0.1,0.1,0.1,0.2
		c0,0,0.1,0,0.1,0c0-0.1,0-0.2,0-0.2c0-0.1,0.1-0.2,0.2-0.2c0.2,0.1,1,0.2,1.2,0.4c0.9,0.9,2.1,1.4,3.2,2c1.1,0.5,2.1,1.1,3.2,1.6
		c2.4,1.1,4.8,2.1,7.2,3.2c0.9,0.4,1.8,0.7,2.7,1.1c0.9,0.4,1.9,1.1,2.7,1.7c0.2,0.1,0.2,0,0.4,0.1c0.2,0,0.2-0.2,0.4-0.3
		c0.3-0.1,0.5,0.2,0.9,0.1c0.1,0,0.2-0.1,0.3-0.1c0-0.1-0.1-0.3-0.1-0.4c0.1,0,0.2,0,0.3-0.1c0-0.3-0.1-0.6,0.2-0.8
		c0.3-0.2,0.5-0.8,0.4-1.1c-0.1-1-0.5-2-0.7-3c-0.1-0.3-0.6-1.1-0.8-1.2c-3-1.6-5.9-3.3-9-4.8c-1.5-0.7-3-1.4-4.5-2
		c-1.6-0.5-3.1-0.9-4.6-1.7c-0.3-0.2-0.7-0.9-1.1-0.9c-0.3,0-0.6,0.1-0.9-0.1c-0.1-0.1-0.2-0.2-0.3-0.3c-0.3-0.3-0.5,0.2-0.8,0.1
		c-0.2-0.1-0.4-0.1-0.5-0.2c-0.1-0.1-0.2,0-0.2,0.1c-0.1,0-0.3-0.1-0.4,0c-0.2,0.1-0.3,0-0.5,0.1C44,1.6,43,1.9,43,1.9
		c-0.2-0.1-0.3,0-0.4,0.1c-0.2,0-0.2,0.2-0.1,0.3c0.1,0.1,0,0.2,0,0.3c-0.1,0.1-0.2,0.5-0.2,0.6c0,0,0,0,0,0c0,0-0.2,0.6-0.2,0.7
		c0.3,0.6,0.5,1.5,1,1.9C43.4,5.9,43.5,6.3,43.7,6.5z"/>
	<path d="M14.9,13.4c0.1,0.1,0.3,0.1,0.3,0.3c0.1,0.1,0.5,0.2,0.7,0.2c0.1,0,0.2-0.1,0.3-0.1c0.1,0,0.1,0.2,0.2,0.2
		c0.2,0.1,0.3,0.2,0.5,0.1c0.1,0.2,0.3,0.6,0.5,0.7c0,0,0,0,0.1,0c0-0.2,0-0.2,0.2-0.1c0.1,0,0.1,0,0.2,0.1c0,0,0,0,0,0
		c0.3-0.1,0.4,0,0.4,0.3c0,0.3,0.1,0.5,0.4,0.6c0-0.2,0.2-0.2,0.3-0.2c0-0.1,0-0.1,0-0.2c0.2-0.3,0.5-0.4,0.8-0.5
		c0.2,0,0.3-0.1,0.5-0.1c0,0.1,0.1,0.1,0.1,0.2c0.2-0.2,0.4-0.5,0.6-0.6c0.5-0.3,1-0.4,1.5-0.7c0.2-0.1,0.2-0.2,0.4-0.3
		c0.3-0.1,1.1-0.3,1.2-0.5c0.1,0,0.2,0,0.3-0.1c1.9-0.9,4-1.6,6-2.5c0.1,0,0.2,0,0.3,0c0.7-0.4,1.5-0.5,2.2-0.8
		c0.2-0.1,0.3,0,0.5-0.1c0.2-0.1,0.5-0.1,0.6-0.4c0.1-0.2,0.6,0,0.7-0.2c0-0.1,0.5-0.2,0.6-0.2c0.5-0.1,1-0.2,1.4-0.4
		C37.2,8,37.7,7.5,38,7.5c0.5,0.1,1.2-0.3,1.6-0.4C39.6,7,39.7,7,39.8,6.9c0.2-0.1,0.3-0.2,0.3-0.4c0-0.3,0.1-0.7,0.1-1
		c0-0.4-0.1-0.9-0.2-1.3c-0.1-0.3,0.1-0.5,0.1-0.8c0-0.2,0-0.3-0.2-0.3c-0.1,0-0.2,0-0.2-0.2c0-0.2-0.6-1-0.7-1.1
		c-0.1-0.1-0.3,0-0.3-0.1c-0.1-0.2-1-0.9-1.2-0.7c0.1,0.2,0.1,0.2,0,0.3c-0.4-0.3-0.9-0.3-1.4-0.3c0,0-0.7,0.3-0.6,0.2
		c-0.1,0.2-0.2,0.1-0.3,0.1c-0.2,0-0.3,0.2-0.3,0.4c0,0.1,0,0.1-0.1,0.2c0,0.1-0.1,0.1-0.1,0.2c-0.2,0-0.2,0-0.2,0.2
		c0,0-0.4,0.3-0.5,0.3c-0.4,0.1-0.8,0.3-1.2,0.4c-0.6,0.2-1.3,0.3-1.8,0.5c-2.6,1-5.3,1.8-8,2.8c-1.4,0.5-2.8,1.1-4.3,1.7
		c-1.4,0.6-2.8,1-3.6,2.5c-0.2,0.3-0.3,0.6-0.5,1C14.2,12.2,14.2,13,14.9,13.4z"/>
	<path d="M82.5,40.2C82.5,40.2,82.5,40.2,82.5,40.2c-0.2-0.2-0.1-0.3,0-0.4c0-0.1-0.1-0.1-0.1-0.2c-0.2-1.1-0.3-2.1-0.7-3.2
		c-0.3-1.1-0.9-2.1-1.5-3.1c-1-1.8-2.3-3.4-4-4.7c-1.8-1.4-3.9-2.6-6.1-3.1c-1.1-0.2-2.4-0.4-3.5-0.3c-0.5,0-1.1,0.1-1.6,0.2
		c-0.4,0-0.9,0.3-1.3,0.2c-0.2,0-0.3-0.1-0.5-0.2c-0.2-0.1-0.2,0-0.3,0.1c0,0.1-0.1,0.2-0.2,0.3c-0.3,0.1-0.6,0-0.7,0.2
		c-0.1,0.1-0.8,0.2-1,0.2c-0.4,0.1-0.8,0.2-1.1,0.3c-0.6,0.2-1.2,0.5-1.8,0.8c-1.4,0.8-2.7,1.9-3.6,3.1c-0.8,1.1-1.3,2.3-1.7,3.6
		c-0.4,1.2-0.6,2.6-0.6,3.9c0,0.4-0.6,0.1-0.9,0.1c-1.6,0-3.3,0.1-5,0.3c-1.6,0.2-3,0.2-4.6,0.2c-3.2,0-6.4,0.3-9.6,0.8
		c-0.1,0-0.2,0-0.2-0.1c-1.1-3.7-2.8-7.9-6.3-10c-3.4-2.1-7.8-2.6-11.7-2.4c-0.6,0-1,0.3-1.5,0.5c-0.4,0.2-0.9,0.2-1.3,0.3
		C10,28,9,28.5,8,29c-0.8,0.4-1.5,0.9-2.1,1.6c-1.9,2.1-3.5,4.5-4.1,7.2c-0.3,1.4-0.4,2.9-0.2,4.4c0.2,1.4,0.9,2.7,1.4,4
		c0.5,1.1,1.1,2,1.8,2.9c0.5,0.6,1,1.1,1.6,1.6c1.9,1.6,4.5,2.5,6.8,3.1c1.2,0.3,2.4,0.6,3.6,0.6c1.2,0,2.5,0,3.6-0.1
		c2.1-0.2,4.4-1,6.1-2.2c0.3-0.2,1-0.8,1.1-1.2c0.1-0.2,0.6-0.6,0.8-0.8c0.3-0.4,0.6-0.8,0.9-1.1c0.6-0.7,1.6-1.4,1.9-2.3
		c0.2-0.6,0.2-1.2,0.3-1.8c0.1-0.4,0.3-0.8,0.4-1.2c0-0.1,0.1-0.2,0.2-0.2c2.2-0.3,4.4-0.2,6.6-0.3c2.2-0.1,4.4,0.1,6.6,0.1
		c2.3,0,4.8-0.1,7.1-0.3c1.6,4.3,3.8,8.3,8.1,10.3c1.1,0.5,2.3,0.8,3.5,0.9c2.6,0.2,5.1,0,7.7-0.8c1.1-0.3,2.2-0.9,3.2-1.5
		c1-0.5,2.1-0.9,2.9-1.7c0.1-0.1,0.1-0.2,0.1-0.3c0.2-0.1,0.3-0.3,0.4-0.5c0,0,0,0,0,0c0,0,0.1,0.1,0.1,0.1c0-0.1,0-0.1,0-0.2
		c0.2-0.2,0.3-0.4,0.5-0.6c0.1-0.2,0.4-0.3,0.5-0.4c0-0.1,0-0.2,0.1-0.3c0,0,0.2,0,0.2-0.1c0.1-0.1,0.2-0.3,0.3-0.4
		c0,0-0.1-0.1-0.1-0.1c0.3-0.4,0.9-1.2,0.9-1.7c0-0.1,0.2-0.3,0.2-0.3c-0.1-0.1-0.1-0.3,0-0.4c0.2-0.2,0.2-0.9,0.5-1
		c-0.1-0.1,0.1-1,0.3-1.1c0-0.5,0.2-0.9,0.2-1.4c0-0.1,0-0.1,0-0.2C82.5,41.2,82.5,40.7,82.5,40.2z M26.2,44.1
		c-1.1,1.8-2.6,3.3-4.2,4.6c-0.5,0.4-1.3,0.5-1.9,0.6c-0.9,0.2-1.8,0.3-2.6,0.4c-0.9,0-1.7,0-2.6,0c-0.7,0-1.6,0.1-2.3-0.2
		c-0.5-0.2-1.1-0.4-1.5-0.7C7.9,47,6,43.9,5.5,40.4c-0.1-0.8,0-1.6,0.1-2.4c0.3-1.6,1.7-3.5,2.9-4.6c0.3-0.3,0.6-0.5,0.9-0.7
		c0.5-0.3,1.1-0.6,1.7-0.8c0.3-0.1,0.6-0.3,1-0.4c0,0,0,0,0,0c0.1,0,0.1,0,0.1,0c1.7,0,3.5-0.4,5.2-0.5c1.6-0.1,3.6,0.5,4.9,1.6
		c1.1,0.9,2,1.9,2.7,3.1c0.3,0.5,0.4,1.2,0.6,1.8c0.2,0.8,0.6,1.6,0.7,2.4c0.2,0.9,0.1,1.8,0.3,2.7C26.7,43.2,26.5,43.6,26.2,44.1z
		 M77.5,41.5c-0.1,0.9-0.3,1.7-0.7,2.6c-0.3,0.8-0.7,1.5-1.3,2.2c-0.3,0.3-0.7,0.7-1,1c-0.4,0.4-1.1,0.7-1.6,1
		c-0.7,0.4-1.3,0.7-2.1,1c-2,0.7-4.1,0.7-6.2,0.4c-0.8-0.1-1.5-0.4-2-0.9c-2.6-2.4-4.6-5.6-5.1-9.2c-0.2-1.7,0.3-3.5,0.8-5
		c0.3-1,1.6-2.3,2.5-2.8c0,0,0,0,0,0c0.2-0.3,0.5-0.3,0.8-0.5c0.2-0.2,0.5-0.2,0.7-0.3c0,0,0.2-0.2,0.3-0.2c0.2,0.1,0.7-0.1,1-0.1
		c1.5-0.4,2.8-0.2,4.4,0.1c0,0,0.1,0,0.1,0c-0.1,0.1-0.1,0.1-0.1,0.2c0,0,0,0,0,0c0,0,0.1-0.1,0.1-0.1c0,0,0,0,0-0.1
		c1.1,0.3,2.2,0.5,3.2,0.9c0.8,0.3,1.5,1,2.3,1.4c0.7,0.4,1.3,1.1,1.8,1.7c1.1,1.3,1.7,3.2,2,4.9C77.6,40.3,77.5,40.9,77.5,41.5z"/>
	<path d="M67.3,30.7c-0.1,0-0.1,0-0.1,0C67,30.7,67.3,30.8,67.3,30.7z"/>
	<path d="M23.1,36.7c-0.4-0.7-1.1-1.3-1.6-1.9c-0.4-0.4-0.7-0.9-1.2-1.2c-0.6-0.4-1.9,0.3-2.5,0.5c-0.4,0.1-0.8,0-1.1,0
		c-0.8,0.1-1.5,0.6-2.1,1c-1.1,0.8-2.5,2.1-2.8,3.4c-0.1,0.7-0.2,1.3-0.2,2c0-0.1,0-0.1,0,0.2c0,0,0,0.1,0,0.1
		c0.1,1.6,0.4,3,1.2,4.4c0.5,0.9,1.3,2.1,2.2,2.6c0.7,0.3,1.4,0.7,2.1,0.8c0.7,0.1,1.7,0.2,2.4-0.1c0.2-0.1,0.4-0.2,0.6-0.4
		c0.4-0.5,0.9-0.9,1.4-1.3c1.4-1.4,2.6-3.1,2.8-5.1c0.1-0.8,0.3-2.3-0.1-3C23.8,37.9,23.5,37.3,23.1,36.7z M19.2,44.6
		c-0.2,0.3-0.5,0.6-0.8,0.8c-0.3,0.2-0.7,0.3-1.1,0.2c-0.4-0.1-0.7-0.4-0.9-0.7c-0.4-0.5-0.7-1-1-1.5c-0.3-0.8-0.5-1.6-0.6-2.4
		c0-0.3,0-0.7,0-1c0-0.6,0-0.3,0.3-0.7c0.1-0.2,0.3-0.4,0.4-0.6c-0.1,0.2-0.1,0.4-0.2,0.6c0,0,0,0,0,0c0.1-0.2,0.1-0.3,0.2-0.5
		c0.2-0.3,1-1.6,1.4-1.1c0.3,0,1,0,1.3-0.1c0.3-0.1,0.4,0.1,0.5,0.3c0.1,0.1,0.2,0.1,0.2,0.2c0.2,0.5-0.2,0.6-0.3,1
		c-0.1,0-0.1-0.1-0.2-0.1c0,0.1-0.1,0.3-0.1,0.4c-0.1-0.1-0.1-0.1-0.2-0.2c0,0.1,0,0.2-0.1,0.2c-0.1,0-0.1,0-0.2,0.1
		c-0.1,0.2-0.4,0.3-0.5,0.5c-0.2,0.4-0.3,1.3-0.2,1.7c0.3,1.1,0.6,2.4,1.7,2.8C19.2,44.5,19.2,44.5,19.2,44.6z"/>
	<path d="M71.7,36.7c-0.4-0.7-1.1-1.3-1.6-1.9c-0.4-0.4-0.7-0.9-1.2-1.2c-0.6-0.4-1.9,0.3-2.5,0.5c-0.4,0.1-0.8,0-1.1,0
		c-0.8,0.1-1.5,0.6-2.1,1c-1.1,0.8-2.5,2.1-2.8,3.4c-0.1,0.7-0.2,1.3-0.2,2c0-0.1,0-0.1,0,0.2c0,0,0,0.1,0,0.1
		c0.1,1.6,0.4,3,1.2,4.4c0.5,0.9,1.3,2.1,2.2,2.6c0.7,0.3,1.4,0.7,2.1,0.8c0.7,0.1,1.7,0.2,2.4-0.1c0.2-0.1,0.4-0.2,0.6-0.4
		c0.4-0.5,0.9-0.9,1.4-1.3c1.4-1.4,2.6-3.1,2.8-5.1c0.1-0.8,0.3-2.3-0.1-3C72.4,37.9,72.1,37.3,71.7,36.7z M67.8,44.6
		c-0.2,0.3-0.5,0.6-0.8,0.8c-0.3,0.2-0.7,0.3-1.1,0.2c-0.4-0.1-0.7-0.4-0.9-0.7c-0.4-0.5-0.7-1-1-1.5c-0.3-0.8-0.5-1.6-0.6-2.4
		c0-0.3,0-0.7,0-1c0-0.6,0-0.3,0.3-0.7c0.1-0.2,0.3-0.4,0.4-0.6c-0.1,0.2-0.1,0.4-0.2,0.6c0,0,0,0,0,0c0.1-0.2,0.1-0.3,0.2-0.5
		c0.2-0.3,1-1.6,1.4-1.1c0.3,0,1,0,1.3-0.1c0.3-0.1,0.4,0.1,0.5,0.3c0.1,0.1,0.2,0.1,0.2,0.2c0.2,0.5-0.2,0.6-0.3,1
		c-0.1,0-0.1-0.1-0.2-0.1c0,0.1-0.1,0.3-0.1,0.4c-0.1-0.1-0.1-0.1-0.2-0.2c0,0.1,0,0.2-0.1,0.2c-0.1,0-0.1,0-0.2,0.1
		c-0.1,0.2-0.4,0.3-0.5,0.5c-0.2,0.4-0.3,1.3-0.2,1.7c0.3,1.1,0.6,2.4,1.7,2.8C67.8,44.5,67.8,44.5,67.8,44.6z"/>
</g>
</svg>
