<svg xmlns="http://www.w3.org/2000/svg" viewBox="0 0 80 82.72"><defs><style>.a{fill:#eea420;}.b{fill:#010101;}</style></defs><title>face</title><circle class="a" cx="40" cy="42.72" r="40"/><path class="b" d="M70.52,63.31L70.3,63,70.38,63a4.68,4.68,0,0,0-2.19-1.14A7.46,7.46,0,0,1,65.73,60a3.82,3.82,0,0,0-1.86-1.49c-0.16,0-.32-0.09-0.48-0.12a1.79,1.79,0,0,1-.47,0,0.43,0.43,0,0,0-.38.19l-0.08.17a0.85,0.85,0,0,0-.8.82,0.54,0.54,0,0,1,.13.49c-0.49,0,.7,1.38.79,1.47A35.4,35.4,0,0,1,59.22,63,19.88,19.88,0,0,1,55,64.29a55.55,55.55,0,0,1-9.76,1.76,65.83,65.83,0,0,1-10.21,0c-3.21-.35-6.45-0.69-9.65-1.16a27.77,27.77,0,0,1-9.84-3.26,0.94,0.94,0,0,1,.38-0.37h0a4.92,4.92,0,0,1,1-.89,7.45,7.45,0,0,0,.64-1.57A3.53,3.53,0,0,0,17,57.7a0.32,0.32,0,0,0-.17-0.11,0.4,0.4,0,0,1-.26-0.24C16.63,57,16.12,57.09,16,57s-0.18.07-.25-0.11a8.14,8.14,0,0,1-1,.46l-0.05-.06a3.93,3.93,0,0,0-.5.73c0-.11-0.17,0-0.12.16a0.39,0.39,0,0,1-.22.37,3.44,3.44,0,0,1-2.91,1.35c-0.78-.09-2.06-1.06-2.57-0.08a2.27,2.27,0,0,0,0,2.24,5.55,5.55,0,0,0,3.06.91v0a1.35,1.35,0,0,1,1.32.29,14.38,14.38,0,0,0,1.66,1.36,17.39,17.39,0,0,0,3.81,2,43.82,43.82,0,0,0,8.9,2.19c5.52,0.77,11,1.61,16.6,1.37a55.22,55.22,0,0,0,9.69-1.08v0c0.59-.14,1.19-0.12,1.79-0.21s1.14-.32,1.72-0.43l0.35-.18v0l-0.12.09h0l0.11,0a0,0,0,0,1,.06,0,16.77,16.77,0,0,0,4-1.33,37.29,37.29,0,0,0,4.15-2.06,0.77,0.77,0,0,1,.14-0.22,2.68,2.68,0,0,1,1.82.24c0.26,0.07,1.67.51,1.5,0l0.3,0-0.09-.13a0.69,0.69,0,0,0,.5-0.26,0.92,0.92,0,0,0-.22-0.39l0,0h0.33l0.05-.14a1.12,1.12,0,0,0,.85-0.31,1.24,1.24,0,0,1-.26-0.44A0.28,0.28,0,0,1,70.52,63.31Z"/><path class="b" d="M13,49.23c2.46-.79,4.22-0.5,6.69.15l-0.11.13L20,49.73l0-.43c0.11,0,.23.12,0.33,0L20.1,49.1a1.63,1.63,0,0,1,.73.15L20.73,49a2.28,2.28,0,0,1,1.26.1l0-.13c0.18,0,0-.42,0-0.48H22a1,1,0,0,0,.26-0.61l0.05,0a3.22,3.22,0,0,0,.28-0.93c0.05-.23.09-0.4,0.08-0.38a3.37,3.37,0,0,0,0-.48s0-.1,0-0.15,0-.25,0-0.38,0-.2,0-0.3,0-.17,0-0.26-0.06-.31-0.1-0.47l0-.1c-0.17-.76-0.41-1.52-0.59-2.09q-0.08-.24-0.16-0.48l0-.12c-0.9-2.37-2.69-4.73-5.33-4.9-2.42-.14-5.53,1.57-6.43,3.89a7.85,7.85,0,0,0-.32,1.09v0C9.36,43,9.27,44.24,9.1,45.3,9,46,9.16,47.6,8.85,48l0.08,0.07-0.15.11c0.25,0.47,0,.77.5,1.37s3.08,0,3.55-.43A0.25,0.25,0,0,0,13,49.23Zm-0.13-3.74c0-.06,0-0.13,0-0.19s0-.12,0-0.19V45c0.12-1.81.69-5.3,2.67-4.85a2.19,2.19,0,0,1,.49.18l0-.11a3.85,3.85,0,0,1,1.1.25c0.28,0.32.52,0.66,0.78,1l0,0a0.3,0.3,0,0,0-.44,0l-0.06-.14a0.38,0.38,0,0,1-.37,0,0.16,0.16,0,0,0-.11.07h0l-0.08-.09h0q0-.1,0-0.21a0.84,0.84,0,0,0-.18.4l0-.1,0-.07-0.05,0a0.38,0.38,0,0,0-.17.12,1.17,1.17,0,0,0-.21.35l-0.18-.14-0.1.28c-1.4.26-1.18,2.43-.9,3.36l-2,.4C12.82,45.7,12.82,45.6,12.82,45.49Z"/><path class="b" d="M70.83,46.6c0-.1,0-0.2,0-0.3s0-.17,0-0.26-0.06-.31-0.1-0.47l0-.1C70.46,44.71,70.22,44,70,43.38Q70,43.14,69.88,42.9l0-.12c-0.9-2.37-2.69-4.73-5.33-4.9-2.42-.14-5.53,1.57-6.43,3.89a7.85,7.85,0,0,0-.32,1.09v0c-0.25,1.14-.35,2.41-0.52,3.47-0.08.53,0,1.7-.12,2.36a0.55,0.55,0,0,1-.08.53,0.56,0.56,0,0,1,0,.19,2.09,2.09,0,0,0,.44,1.21c0.6,0.68,3.08,0,3.55-.43a0.25,0.25,0,0,0,.11.06c2.46-.79,4.22-0.5,6.69.15l-0.07.08,0.44,0V50.36c0.11,0,.23.12,0.33,0l-0.22-.16a1.63,1.63,0,0,1,.73.15L68.85,50a1.88,1.88,0,0,1,1,0L70.07,50A0.57,0.57,0,0,0,70,49.54h0.15a1,1,0,0,0,.26-0.61l0.05,0A3.22,3.22,0,0,0,70.75,48c0.05-.23.09-0.4,0.08-0.38a3.37,3.37,0,0,0,0-.48s0-.1,0-0.15S70.84,46.73,70.83,46.6Zm-4.89-4a0.3,0.3,0,0,0-.44,0l-0.06-.14a0.38,0.38,0,0,1-.37,0,0.16,0.16,0,0,0-.11.07h0l0,0a0.5,0.5,0,0,1-.17,0H64.7a0.83,0.83,0,0,0,0,.1l0-.09a1.24,1.24,0,0,0-.27,0,1.17,1.17,0,0,0-.2.35L64,42.83l-0.1.28c-1.4.26-1.18,2.43-.9,3.36l-2,.4c0-.08,0-0.18,0-0.29s0-.13,0-0.19,0-.12,0-0.19v-0.1c0.12-1.81.69-5.3,2.67-4.85a2.25,2.25,0,0,1,.23.08,0.43,0.43,0,0,1,.23,0v0a3.85,3.85,0,0,1,1.1.25c0.28,0.32.52,0.66,0.78,1Z"/><path class="b" d="M67.4,56.52c0.14,0.05,0-.07,0,0h0Z"/><path class="b" d="M74,34.87c0.35-1-3.41-3.69-4.17-4.15a10.71,10.71,0,0,0-5.75-1.65c-2.3,0-11.7,2.55-9.21,6.41-0.08.05,0.14,0.18,0.15,0.25l0.29,0.22c2.27,1.68,5-1.2,7.28-1.87A6.82,6.82,0,0,1,69,35.24c1.08,0.82,2.85,3.17,4.48,2a2.8,2.8,0,0,0,.47-0.8A3.22,3.22,0,0,1,74,34.87Z"/><path class="b" d="M8.83,35.85A14.64,14.64,0,0,0,11.37,34a6.68,6.68,0,0,1,5.76-1.12c1.88,0.47,4.06,2.4,6.22,2.65h0.26a3.27,3.27,0,0,0,1.9-.46l-0.24-.18c2.54-3.57-5.76-6.59-8.14-6.83a10.62,10.62,0,0,0-1.3,0H15.66a10.54,10.54,0,0,0-1.13.11l-0.38.06q-0.46.09-.91,0.21l-0.62.19-0.13,0c-0.3.1-.59,0.2-0.88,0.33-0.93.42-5,2.83-5.21,4.18a0.57,0.57,0,0,0,0,.24,3.22,3.22,0,0,1,0,1.54,2.8,2.8,0,0,0,.43.82A1.8,1.8,0,0,0,8.83,35.85Z"/><path class="b" d="M13.37,13.23c-0.21.27-.15,0.65-0.35,0.91a0.76,0.76,0,0,1,.58.51h0.24c-0.29.51,2.2,1.12,2.26,1.16l-0.16.1v0c5.91,0.28,13.49-7,18.06-9.83l0,0a19.29,19.29,0,0,0,3.44-2.53c0.1-.09.13-0.07,0.15,0.08a4.16,4.16,0,0,1,1.07-1l0,0.21a0.54,0.54,0,0,0,.29-0.22,0.38,0.38,0,0,0-.31-0.28A1.18,1.18,0,0,0,38,1.5l0.13-.21L38,1.17l-0.1.27-0.15-.09,0.15-.24H37.87A0.69,0.69,0,0,0,37.64.84l0.08-.11-1-.63,0,0c-0.09-.33-24.19,10-23.85,13.28a1.66,1.66,0,0,0,.5-0.2Z"/><path class="b" d="M25.63,14.41a0.31,0.31,0,0,1,.09.07,0.12,0.12,0,0,1,0,.1,1,1,0,0,0-.37.22,9.48,9.48,0,0,1-.3,1.32c0,0.63-.14.9,0.43,1.21a0.59,0.59,0,0,1,.14.34,3.59,3.59,0,0,0,2,.61l0.06-.14,0.2,0.09c4.52-1.42,12.36-5.32,14.73-9.86l-0.05,0c0.54-.87,7.76-8.7,3.7-8.12l-0.08-.14,0,0A17.13,17.13,0,0,0,43.93,0C44.59,2.31,27.66,14.24,25.63,14.41Z"/><path class="b" d="M52.39,12.28a3.06,3.06,0,0,1-.62-1.08h0c1.14,1.56,3.58,3.68,4.22,5.46l0.1,0.08,0,0h0l0.16,0.11h0a12.55,12.55,0,0,0,1.27.88l0.19,0a0.51,0.51,0,0,1,.19.07h0a0.06,0.06,0,0,1,0,0c0.47,0.19.8,0.55,1.27,0.75s3.84-.45,3.3-1.55c-2.36-4.83-5.81-12.3-9.88-15.91a0.17,0.17,0,0,1-.15.08A1,1,0,0,0,52,.71a0.34,0.34,0,0,1-.19.23A0.48,0.48,0,0,0,51.36.75a2.52,2.52,0,0,1,.29.6A6.33,6.33,0,0,1,50.8.84c-0.08.16-.27,0-0.27,0.23-0.75.21-1.41,0.56-2.14,0.84a1.93,1.93,0,0,0,0,.41l0,0a3,3,0,0,0-.16.77L48.13,3c-0.83,1.94,2.39,7.32,4.1,9.2Z"/></svg>