<svg class="logo" xmlns="http://www.w3.org/2000/svg" width="238.694" height="62" viewBox="0 0 238.694 62">
  <path class="logo-path" d="M185.168 11.366h1.996c1.826.003 3.018 1.2 3.02 3.045v18.226c0 5.165.004 10.33-.002 15.495-.002 1.67-1.277 2.966-2.895 2.973-.702.003-1.404 0-2.1 0v10.852h25.68V.082H185.17c-.002 3.77-.002 7.476-.002 11.284zM226.7 40.746c-.44-.002-.508.21-.57.57-.47 2.683-.983 5.36-1.43 8.047-.1.603-.282.81-.918.804-3.097-.035-6.194-.016-9.29-.016h-.867v11.797h25.07V40.822c-.132-.03-.2-.062-.27-.062-3.907-.004-7.816.002-11.724-.014zM224.367 12.988c.488 2.154.994 4.305 1.443 6.467.107.516.293.67.815.667 3.564-.023 7.13-.01 10.693-.015.187 0 .374-.035.562-.053V.078h-24.272v12.17h10.562c.074.277.144.507.197.74zM213.646 36.61h11.474V24.14h-11.474v12.47zM162.423.067h-32.666v11.29h1.813c2.04 0 3.18 1.138 3.18 3.178v33.277c0 .246.008.493-.012.737-.104 1.27-1.448 2.527-2.723 2.54-.752.01-1.504.003-2.266.003v10.873h25.762V11.33h6.91V.067zM0 11.356h1.827c2.048 0 3.194 1.135 3.195 3.166v33.35c0 .247.006.494-.018.738-.123 1.232-1.468 2.468-2.704 2.482-.753.01-1.506.002-2.284.002v10.862h25.697V.063H0v11.293zM122.416 48.205C117.41 32.352 112.4 16.5 107.41.643c-.166-.53-.418-.644-.926-.643-6.1.016-12.2.01-18.3.01h-.737l14.698 51.115h-6.842v10.83h31.382V51.12c-.186-.01-.307-.02-.43-.023-2.223-.037-3.162-.746-3.84-2.89zM62.112 20.815c-2.024-9.648-7.83-15.882-17.27-18.744C40.192.66 35.417.156 30.586.027c-.704-.02-1.408-.003-2.115-.003V12.07c.073.025.095.038.118.04.466.035.932.067 1.397.1 5.105.374 8.486 3.027 10.24 7.79 1.388 3.775 1.657 7.718 1.634 11.69-.023 3.85-.34 7.666-1.762 11.295-1.5 3.826-4.145 6.398-8.25 7.253-1.1.23-2.235.28-3.37.415V62c5.81-.04 11.488-.584 16.956-2.516 7.884-2.786 13.254-8.1 15.81-16.087 2.377-7.428 2.458-15 .868-22.582z"/>
  <path class="logo-path" d="M84.933 51.07c-2.434-.097-3.666-1.33-3.505-3.74.092-1.378.376-2.782.814-4.095 2.556-7.66 5.19-15.295 7.77-22.947.144-.428.173-.97.05-1.402-1.287-4.56-2.616-9.106-3.935-13.656-.503-1.736-1.013-3.47-1.51-5.175H73.87v11.302c.933 0 1.793-.008 2.652.002 1.056.01 1.792.648 1.854 1.687.024.398-.105.824-.24 1.21-3.04 8.64-6.086 17.273-9.134 25.907-.964 2.73-1.912 5.47-2.91 8.187-.713 1.938-1.864 2.708-3.895 2.747-.185.003-.37.04-.544.06v10.786h26.22V51.077c-1.032 0-1.987.03-2.94-.007zM167.694 50.155h-9.504v11.788h23.817v-22.77h-12.62l-1.693 10.982z"/>
  <path class="logo-path" d="M88.003 34.16c-.404 1.13-.763 2.277-1.14 3.418-.588 1.786-1.18 3.57-1.795 5.43h11.925L94.35 33.66c-1.977 0-3.915-.01-5.852.022-.172.004-.424.278-.495.477z"/>
</svg>
