<svg xmlns="http://www.w3.org/2000/svg" viewBox="0 0 80 83"><defs><style>.a{fill:#f37e8b;}.b{fill:#010101;}</style></defs><title>face</title><circle class="a" cx="40" cy="43" r="40"/><path class="b" d="M11.21,49.87a6.62,6.62,0,0,0,3.25,1.6c0.59,0.09,2.52.71,2.63-.33a2.13,2.13,0,0,0,1.32-.27c2.12-.39,3.61-3.17,4.28-5a14.23,14.23,0,0,0,.87-3.28,15.14,15.14,0,0,0,.13-1.6,14.8,14.8,0,0,0,.1-1.61l-0.12,0,0.11-.23a0.35,0.35,0,0,1-.18-0.39,0.36,0.36,0,0,1,.32,0l0,0c-1.19-1.1-3-.83-4.47-0.81-2,0-4,0-6,0l0,0,0.16-.1a20.27,20.27,0,0,0-3.28.39,4.73,4.73,0,0,0-1.06.21c-0.21.1-.31,0.33-0.49,0.42,0,0-.09,2.13-0.1,2.33a18.74,18.74,0,0,0,.05,3.16C9,46.26,9.55,48.53,11.21,49.87Zm2.45-9c2.27,0.23,4.55.4,6.82,0.63-0.25,1.07-.73,1-1.71.73l-0.06.16a2,2,0,0,0-1.78.09c-0.58-.25-0.77.26-1,0.72a3.54,3.54,0,0,0,0,1.64c0,1.34.12,2.32,1.34,3.1a1.75,1.75,0,0,1-1.46.25,4.71,4.71,0,0,0-1.38-.59,3.78,3.78,0,0,1-1.49-1.51,11.87,11.87,0,0,1-1.15-5.3C12.41,40.82,13,40.82,13.66,40.89Z"/><path class="b" d="M65.8,37.39c-1.88,0-3.76,0-5.64,0l0,0,0.16-.1a20.28,20.28,0,0,0-3.28.39,4.73,4.73,0,0,0-1.06.21c-0.21.1-.31,0.33-0.49,0.42,0.12,0-.16,3.89-0.14,4.29a11.44,11.44,0,0,0,1.2,5.07,6.7,6.7,0,0,0,3.41,3.06,10.43,10.43,0,0,0,2.52.49c0.5,0.06,1.23.16,1.3-.53a2.13,2.13,0,0,0,1.32-.27c2.12-.39,3.61-3.17,4.28-5a14.24,14.24,0,0,0,.87-3.28,15.14,15.14,0,0,0,.13-1.6,14.8,14.8,0,0,0,.1-1.61l-0.12,0,0.11-.23a0.35,0.35,0,0,1-.18-0.39,0.36,0.36,0,0,1,.32,0l0,0A0.7,0.7,0,0,0,70.33,38C68.93,37.15,67.38,37.37,65.8,37.39ZM67,41.54c-0.12.66-1.17,0.31-1.59,0.2l-0.06.16a2,2,0,0,0-1.78.09c-0.58-.25-0.77.26-1,0.72a3.54,3.54,0,0,0,0,1.64c0,1.34.12,2.32,1.34,3.1a1.75,1.75,0,0,1-1.46.25,4.71,4.71,0,0,0-1.38-.59,3.78,3.78,0,0,1-1.49-1.51,11.87,11.87,0,0,1-1.15-5.3c2.9,0.11,5.8.43,8.7,0.72C67.11,41.2,67.06,41.37,67,41.54Z"/><path class="b" d="M72,33.6c-0.15-1.1-1.75-2.12-2.7-2.44-1.49-.5-3-0.73-4.56-1.12s-2.93-.8-4.44-1.06-3.1-.37-4.64-0.66c0.07,0.25-.11.2-0.28,0.16l0,0c-0.67.24-1.57,0.28-1.89,1.06-0.15.35,0.4,1.51,0,1.46a4.93,4.93,0,0,0,.43.44l-0.12.19a8.06,8.06,0,0,0,2.62,1.23c1.19,0.51,2.44.88,3.68,1.28s2.5,0.71,3.76,1c1.11,0.28,2.43,1,3.58,1a1.81,1.81,0,0,0,.42.13,6.38,6.38,0,0,0,2.71,0v0c0.64,0,.87.09,1.12-0.57a2.5,2.5,0,0,0,.06-1.45,0.68,0.68,0,0,1,.24-0.3A0.85,0.85,0,0,0,72,33.6Z"/><path class="b" d="M9,33a6.28,6.28,0,0,1,1.12.5c0.54,0.21,1.07.41,1.62,0.59,1,0.33,2,.69,3,1s2.14,0.51,3.19.84a11.32,11.32,0,0,0,2.86.83,1.82,1.82,0,0,0,.42.13,6.38,6.38,0,0,0,2.71,0v0c0.64,0,.87.09,1.12-0.57a2.5,2.5,0,0,0,.06-1.45,0.68,0.68,0,0,1,.24-0.3,0.85,0.85,0,0,0-.06-0.48c-0.13-1-1.53-2-2.38-2.33a34.69,34.69,0,0,0-4.7-1.19c-1.49-.37-3-0.81-4.48-1.08S10.55,29.13,9,28.83C9,29.08,8.87,29,8.7,29l0,0c-0.67.24-1.57,0.28-1.89,1.06-0.15.35,0.41,1.51,0,1.46A4.92,4.92,0,0,0,7.3,32l-0.12.19A4,4,0,0,0,9,33Z"/><path class="b" d="M62.42,59.31c-0.14-.15-0.08,0,0,0h0Z"/><path class="b" d="M71.38,62.88l-0.23-.27,0.08-.07A4.68,4.68,0,0,0,69,61.45a7.46,7.46,0,0,1-2.51-1.77,3.82,3.82,0,0,0-1.91-1.44c-0.16,0-.33-0.08-0.49-0.11a1.79,1.79,0,0,1-.47,0,0.43,0.43,0,0,0-.38.2,1.42,1.42,0,0,0-.08.17,0.85,0.85,0,0,0-.77.84,0.54,0.54,0,0,1,.14.48c-0.49,0,.74,1.36.83,1.45a35.4,35.4,0,0,1-3.31,1.6,19.88,19.88,0,0,1-4.19,1.45,55.55,55.55,0,0,1-9.7,2,65.83,65.83,0,0,1-10.2.31c-3.22-.26-6.47-0.5-9.68-0.88a27.77,27.77,0,0,1-9.93-3,0.94,0.94,0,0,1,.37-0.38h0a4.92,4.92,0,0,1,.95-0.91,7.45,7.45,0,0,0,.59-1.59,3.53,3.53,0,0,0-.61-1.1,0.32,0.32,0,0,0-.17-0.11,0.4,0.4,0,0,1-.27-0.23c0.08-.31-0.42-0.24-0.56-0.31s-0.18.08-.25-0.11a8.14,8.14,0,0,1-1,.49l-0.05-.05a3.93,3.93,0,0,0-.48.75c0-.11-0.17,0-0.11.17a0.39,0.39,0,0,1-.21.38,3.44,3.44,0,0,1-2.87,1.43c-0.79-.07-2.09-1-2.57,0a2.27,2.27,0,0,0,0,2.24,5.55,5.55,0,0,0,3.08.82v0a1.35,1.35,0,0,1,1.33.25,14.38,14.38,0,0,0,1.7,1.32,17.39,17.39,0,0,0,3.86,1.89,43.82,43.82,0,0,0,9,1.93c5.54,0.61,11.06,1.29,16.63.89a55.22,55.22,0,0,0,9.65-1.36v0c0.58-.16,1.19-0.15,1.78-0.26s1.13-.35,1.7-0.48l0.35-.19,0,0-0.12.09h0l0.11,0a0,0,0,0,1,.06,0A16.77,16.77,0,0,0,62.26,67a37.29,37.29,0,0,0,4.08-2.17,0.77,0.77,0,0,1,.14-0.22,2.68,2.68,0,0,1,1.83.19c0.26,0.06,1.69.46,1.5-.07l0.3-.06L70,64.53a0.69,0.69,0,0,0,.49-0.28,0.92,0.92,0,0,0-.23-0.38l0,0h0.33l0-.14a1.12,1.12,0,0,0,.84-0.33,1.24,1.24,0,0,1-.27-0.43A0.28,0.28,0,0,1,71.38,62.88Z"/><path class="b" d="M16.51,11.09c0.41,0.47.39,1.19,0.79,1.69a17.77,17.77,0,0,0,1.38,1.4C19.57,15,20.41,16,21.27,16.8a27.36,27.36,0,0,0,2.42,2c0.83,0.63,1.7,1.67,2.77,1.82a2.23,2.23,0,0,0,2.35-1.07C29.12,19,28,17.15,29,17.25c0.53,0.06.5,0.68,0.75,1a3.7,3.7,0,0,0,.94.52c0.94,0.58,1.77.8,2.64-.08a2.15,2.15,0,0,0,.69-1.3c0-.2-0.22-1.21.09-1.24l0.19,0.58h0.06l-0.14-2-0.18,0a1.76,1.76,0,0,0,.1-1.21,9.23,9.23,0,0,1-.2-2.14h0l-0.14.32L33.7,10.6l-0.05,0-0.11-.06c0.08-.13.16-0.14,0.11-0.28l-0.12.11C33.45,9.63,33.4,8.9,33.4,8.14l-0.08.16a11.89,11.89,0,0,0-.15-1.57,0.44,0.44,0,1,0,0,0c-0.45-.46-0.37-2-0.6-2.64a22.12,22.12,0,0,1-.87-2.65,0.89,0.89,0,0,1-.21-0.15,2,2,0,0,0-3-.85c-0.29-.38-0.32.4-0.77,0.13a7.51,7.51,0,0,1-.09,1.14h0A0.86,0.86,0,0,0,27,1.13l-0.15.51-0.17-.14a2.45,2.45,0,0,0-.16,1.3c0,0.41-.24.75-0.25,1.15,0,1,.33,2,0.32,2.92a12.72,12.72,0,0,0,.29,3,11.08,11.08,0,0,1,.68,2.72,3.79,3.79,0,0,1,0,.47c-0.49.07-.91-0.79-1.15-1.12a15.66,15.66,0,0,0-1.14-1.37,39.35,39.35,0,0,1-2.45-3.13,4.93,4.93,0,0,0-1.29-1.27,4.43,4.43,0,0,0-1.38-.91,1.06,1.06,0,0,0-1,.4,4.72,4.72,0,0,0-1.13.92,0.29,0.29,0,0,1-.31.23,3.22,3.22,0,0,1-.4.6c-0.13.12-.49,0.25-0.58,0.35a1.46,1.46,0,0,0-.27.88,7.92,7.92,0,0,0-.06,1.21A5.24,5.24,0,0,0,16.51,11.09Z"/><path class="b" d="M44.43,12.36c-0.13.6,0.68,1.38,1,1.78a2.3,2.3,0,0,0,2.08.81,1.08,1.08,0,0,1,.89.2c0.59,0.32-.1.19,0.68,0.33a5.29,5.29,0,0,0,.64.09,2.26,2.26,0,0,1,1.37.24c0.34,0.23.64,0.53,1,.74a3.21,3.21,0,0,0,2.16.4,0.79,0.79,0,0,0,.27.11,1.4,1.4,0,0,0,.42-0.44,4.67,4.67,0,0,0,.52-0.9,19.17,19.17,0,0,1,1.37-1.54c0.19-.25,1.4-2.28,1.25-2.48A11.28,11.28,0,0,1,59,9.8c0.3-.26.39,0.25,0.54-0.41h0a5.22,5.22,0,0,1,.27-1.3l0.08-.63,0.21,0.23A3,3,0,0,1,60,7.12l-0.09.11a2.94,2.94,0,0,0-.06-0.79A1.05,1.05,0,0,1,59.64,6c-0.35-.48-0.95-0.79-1.22-1.27a0.84,0.84,0,0,1-.54.19c-0.11,0-.26-0.19-0.32-0.19a2.73,2.73,0,0,0-.57.12c-0.15.08-.3,0.3-0.47,0.41-0.4.26-.15,0.1-0.57-0.16-0.25.3-.33,0.29-0.58,0a0.43,0.43,0,0,1-.12.35,5.48,5.48,0,0,0-1,.63,9.05,9.05,0,0,1-.83,1c-0.83.79-.92,2.08-2,2.73,0-.47-0.28-0.87-0.33-1.32s0.12-1.09,0-1.67c-0.19-1-.54-2-0.68-3-0.18,0-.18,0-0.21-0.22L50,3.58a0.62,0.62,0,0,0-.17-0.71l0,0.14a2.52,2.52,0,0,1-.66-0.91,0.41,0.41,0,0,1-.42-0.21,0.46,0.46,0,0,0-.34,0,2.46,2.46,0,0,0-.54-0.46c-0.21.16-.43,0.32-0.65,0.46a0.32,0.32,0,0,1-.3-0.06,2,2,0,0,0-.63.34c-0.24.29,0,.79-0.44,0.9-0.1-.34-0.34-0.65-0.43,0l-0.21-.11a12.73,12.73,0,0,1-.57,1.46c-0.21.61-.16,1.27-0.37,1.9a11,11,0,0,0-.74,1.88,2.87,2.87,0,0,0,.35,2C44.11,10.62,44.75,11.85,44.43,12.36Z"/><path class="b" d="M36.05,2.23c0-.07-0.14,0,0,0h0Z"/><path class="b" d="M37.76,15a2,2,0,0,0,1.29.85c0.75,0.11,2.76-.47,3.16-1.22s-0.1-2-.12-2.78c0-.48,0-1,0-1.44a7,7,0,0,1-.15-1.79A2.58,2.58,0,0,0,42,7.17a5,5,0,0,1-.24-0.83,2,2,0,0,0-.16-0.72,4.06,4.06,0,0,1-.44-0.53A3.63,3.63,0,0,1,41,3.55a0.86,0.86,0,0,0,.11-0.41,2,2,0,0,0-.39-0.62,2.26,2.26,0,0,1-.14-0.67A6.8,6.8,0,0,0,39.19.93,5.14,5.14,0,0,0,38.33.68,0.59,0.59,0,0,0,38.08.54a1.79,1.79,0,0,0-.51.5c-0.59-.26-0.87.78-1.11,1.11-0.21-.32-0.31-0.23-0.41.08a9.48,9.48,0,0,0-.6,2.38A15.55,15.55,0,0,0,35,7.72c0.1,2.24,1.07,4.12,1.89,6.15A4,4,0,0,0,37.76,15Z"/><path class="b" d="M36.07,13.57H35.71l0.06,0.09a1,1,0,0,1,.16.23,0.24,0.24,0,0,0,.34.18A0.65,0.65,0,0,1,36.07,13.57Z"/><path class="b" d="M36.27,14.07s-0.19,0,0,0h0Z"/><path class="b" d="M35.95,12.71a0.15,0.15,0,0,0,0,.11,0.45,0.45,0,0,0,0,.38,0.24,0.24,0,0,0,.09.06A2.52,2.52,0,0,0,35.95,12.71Z"/><path class="b" d="M35.48,13.3a2.79,2.79,0,0,0,0-.31c0-.06,0-0.09-0.11,0a0.19,0.19,0,0,0,0,.28S35.41,13.25,35.48,13.3Z"/></svg>