<svg class="logo" xmlns="http://www.w3.org/2000/svg" width="231.45" height="62" viewBox="0 0 231.45 62">
  <path class="logo-path" d="M25.74.054H0v11.294h1.998c1.828.003 3.02 1.202 3.02 3.048.003 6.13.002 12.26.002 18.39 0 5.12.004 10.24-.002 15.36-.002 1.67-1.278 2.97-2.898 2.975-.703.004-1.405 0-2.1 0V62h32.24V51.09h-6.52V.053zM58.942 11.348h1.997c1.827.003 3.02 1.202 3.02 3.048.003 6.08.002 12.16.002 18.242 0 5.17.004 10.34-.002 15.51-.002 1.67-1.278 2.967-2.898 2.974-.703.003-1.405 0-2.1 0v10.862h25.7V.054h-25.72v11.294zM158.475 51.093c-.593-.083-1.228-.33-1.704-.69-.798-.602-1.12-1.466-1.118-2.518.022-15.63.015-31.258.015-46.887v-.97H134.95v47.71c0 .245.01.492-.006.737-.09 1.336-1.462 2.634-2.8 2.645-.85.007-1.704 0-2.59 0v10.85h31.48V51.12c-.894.002-1.74.09-2.56-.027z"/>
  <path class="logo-path" d="M52.292 6.505c-2.243-2.38-5.06-3.782-8.125-4.734C39.972.468 35.643.087 31.277.01c-.926-.016-1.853-.002-2.79-.002v12.072c.705.06 1.365.1 2.02.177 2.525.29 4.287 1.57 5.17 3.996.902 2.488.962 5.024.273 7.543-.738 2.7-2.382 4.55-5.31 4.953-.702.097-1.415.126-2.15.188v10.788c1.795 0 3.543.09 5.278-.017 4.815-.295 9.52-1.117 13.877-3.335 4.258-2.167 7.103-5.5 8.343-10.152.966-3.628 1.005-7.294.404-10.972-.537-3.292-1.775-6.275-4.1-8.74zM100.514 40.755c-.442-.002-.51.21-.573.57-.47 2.685-.982 5.365-1.43 8.055-.1.603-.283.812-.92.805-3.1-.035-6.2-.016-9.3-.016h-.865v11.805h25.092V40.83c-.13-.03-.2-.06-.27-.06-3.91-.005-7.822 0-11.733-.015zM98.177 12.972c.488 2.156.995 4.31 1.445 6.473.107.517.293.67.816.667 3.568-.023 7.135-.01 10.703-.015.188 0 .376-.035.563-.053V.05H87.41v12.18h10.57c.074.278.144.508.197.742zM158.37 11.87h2.622l1.426 11.416h12.175V.036H158.37V11.87zM132.046 11.854V.024h-16.04V23.25h12.286l1.333-11.398h2.42zM87.446 36.616H98.93V24.133H87.447v12.483zM177.874 11.348h1.997c1.83.003 3.022 1.202 3.023 3.048.002 6.08 0 12.16 0 18.242 0 5.17.005 10.34 0 15.51-.003 1.67-1.28 2.967-2.9 2.974-.702.003-1.404 0-2.1 0v10.862h25.7V.054h-25.718v11.294zM219.446 40.755c-.442-.002-.51.21-.573.57-.47 2.685-.983 5.365-1.43 8.055-.1.603-.284.812-.92.805-3.1-.035-6.2-.016-9.3-.016h-.866v11.805h25.092V40.83c-.132-.03-.2-.06-.27-.06-3.91-.005-7.822 0-11.734-.015zM217.11 12.972c.487 2.156.994 4.31 1.444 6.473.107.517.293.67.816.667 3.568-.023 7.135-.01 10.703-.015.187 0 .375-.035.562-.053V.05H206.34v12.18h10.572c.074.278.144.508.197.742zM206.378 36.616h11.485V24.133h-11.485v12.483z"/>
</svg>
