<svg class="logo-animated js-logo" xmlns="http://www.w3.org/2000/svg" viewBox="0 0 278 40">

  <g class="logo-animated__word" data-word="empowered">
    <g class="stroke">
      <path d="M103.077 28.627l6.778-11.79 5.995-6.917 1.538 5.995-3.536 7.378 10.607-8.3 5.38-3.382-6.457 17.217 17.062-21.06-8.762 24.134 3.843-21.058 11.068 1.23-3.997 4.61-5.226 3.076"/>
      <path d="M159.045 11.764l-6.302 3.997-4.15 4.305-.923 4.304 4.92 2.612 6.61-3.535 4.61-4.458-3.074-5.074 8.147-3.38.308 7.53.923 6.918-.307 4.458 11.375-17.83-3.535 9.683 2.92 5.12 14.297-15.988 7.686-1.122-5.38 9.838-1.384 7.225 5.226 2.46 6.61-2.768-8.3-5.84 8.147-1.538-5.227-4.92 6.456-1.383"/>
      <path d="M219.303 7.92L213 20.68l-.922 5.38-.307 3.843 7.226-15.064 8.147-3.383-4.92 6.763-3.074 3.075 4.765 5.84 5.226 3.075-2.612-9.223L233.445 7l5.073 2.766-5.073 8.762-2.152 5.226 2.767 4.92 9.684-2.46-7.993-6.61 8.917-2.306-5.995-3.997 8.3-1.997 8.916-3.535-7.993 21.674.922-14.91 10.453-2.153 3.996.153 1.538 4.304-5.688 4.304-7.07 3.537"/>
    </g>
    <g class="mask">
      <path d="M200.735 15.867l-.43.1-.56.924.43-.1zM199.547 17.353c-.23 0-.66.462-.76.825l.43-.066.33-.76zM158.82 25.207l.133.363.66-.396c-.1-.1-.165-.463-.265-.528l-.527.56zM208.392 12.666c-.033-.165-.495-.198-.693-.133l.1.396.592-.264zM160.075 15.47c-.132.134-.265.2-.363.2-.23 0-.363-.265-.396-.265-1.75 0-4.785 2.013-6.172 4.19-1.584.76-2.673 2.642-3.4 4.92.76-.067 1.75-.134 2.345-.364l5.94-2.475c.66-.264 2.08-.957 2.706-1.75l1.485-1.946-1.848-2.147c-.1-.296-.165-.494-.297-.362zM177.036 15.834l.363-.066c.33-.43.69-.957.494-1.287l-.858 1.354zM192.58 15.01c.893-.694 1.685-1.156 1.75-1.75l-1.814 1.42.065.33zM189.214 18.705h.033l1.155-1.09c-.956-.494-1.12.695-1.188 1.09zM197.534 22.105c-.43-.032-.562.165-.627.495v.363h.033c.197-.263.462-.528.594-.858zM157.632 26.264l.957-.495-.166-.33c-.593.296-.825.46-.792.824zM187.234 21.116l.198.197.396-.627-.165-.165zM187.828 20.158l.198.23c.198-.296.33-.46.1-.66l-.298.43zM194.628 13.425c.33-.23.627-.264.594-.76l-.66.463.066.297zM127.228 22.006c0 .198.033.363.065.562h.033l1.023-3.103h-.034c-.46.66-1.088 1.518-1.088 2.54zM128.88 17.617l-.364 1.023c.363-.265.66-.595.562-.76l-.2-.263zM128.944 17.386h.363l.396-1.023c-.46 0-.494.428-.76 1.023zM126.7 23.128c0 .165.033.33.033.396.264-.198.43-.825.132-.957-.1.1-.132.33-.165.56zM156.642 26.396c0 .1-.132.33-.066.396.132.1.396 0 .562-.066 0-.232-.166-.33-.496-.33zM107.426 24.91l.198.165c.165-.33.33-.462.1-.627l-.298.462zM106.898 25.9l.198.2.363-.694-.2-.132zM151.724 28.343c-.132.033-.264.066-.396.198l.99.166c-.132-.198-.362-.363-.594-.363zM151.427 20.455l.76-.925c-.496-.297-1.09.165-1.156.528 0 .2.1.364.397.397zM140.492 19.333h-.43c-.43 0-.79.462-.857.924.792-.23 1.717-.693 2.41-1.09-.397-.428-.595.166-1.123.166zM145.542 16.494c-.165.1-.33.132-.396.33-.1.264.726.066.726-.297 0-.1-.165-.13-.33-.033zM141.482 18.805c.264 0 .297.33.562.165l.56-.33c-.165-.165-.858-.23-1.122.165zM142.9 18.145c-.13.1.134.33.464.1.66-.397 1.848-.958 1.584-1.32l-2.047 1.22zM230.61 29.993c-.266.1.13.264.296.23.532-.18 1.053-.45 1.56-.738-.108-.048-.216-.095-.318-.15-.468.233-1.004.47-1.54.658zM250.937 27.617l.924-.495.166-.396-1.022.56zM230.18 30.16l-1.486.33c-.462-.133-.792.197-.032.428.627-.1 1.386-.33 1.848-.495v-.033c-.166 0-.23-.165-.33-.23zM254.04 25.505v-.033c-.495.264-1.32 1.022-1.617 1.386v.033l1.684-.824c-.134-.066-.232-.364-.067-.56zM232.553 25.406l-.265-.33c-.132.595-.165 1.023.1 1.222l.165-.892zM260.245 21.61c.197.133.462.198.692 0l.693-.494-.297-.1-1.088.595z"/>
      <path d="M0 0v40h278V0H0zm129.802 19.07h-.363c.13-.265.46-.595.626-.66l-.264.66zm-.627 0h-.528c0 .395.462.46.76.56-.165.363-.528.463-.925.43l-.924 2.904.396-.198.693-2.112.198.528-.462 1.65c-.165.594-.462 1.057-.792 1.057-.46 0-.362.593-.494 1.02l-.23-.296-.2.198c.166.33.496.76.496 1.155 0 .76-.825 2.178-1.386 3.465l-.562-.495c-.065.066-.165.1-.264.133-.1.032-.198.032-.33.032-1.254 0-2.706-2.112-2.706-3.3 0-1.354 2.706-6.205 3.895-8.812l-.1-.264c-.958.594-3.3 1.353-3.4 2.376l-5.84 4.983c-.562-.76-.958-.197-1.65-.197-.86 0-1.355-1.618-1.685-2.707.495-1.616 1.32-3.63 2.112-5.478l-.33-.66c-1.32 1.09-2.54 2.772-3.465 4.225-1.386 2.244-3.268 5.71-4.687 8.284-.33-.13-.066-.692.165-1.154-.363-.1-.627.462-.858 1.09-.23.66-.165 1.386.033 1.848-.165.132-.33.198-.528.198-1.353 0-3.234-2.41-3.234-3.136 0-.792 2.772-5.182 4.29-7.558 1.717-2.74 3.4-5.28 5.645-6.965.627-.957 1.98-2.87 3.168-2.87 1.848 0 2.508 2.31 3.267 4.158-.165.858-.065 2.113.265 2.872 1.056-.727 2.375-1.85 3.432-2.442.23-.132.527.065.692.33.265-.198.462-.562.297-.924 1.75-1.09 3.96-2.212 4.687-2.212.627 0 1.42.562 2.112 1.09.56 1.32 1.187 2.41 1.187 3.498 0 .957-.396 2.21-.99 2.014-.726-.23-1.057 1.32-1.222 1.683zm6.4 6.963c-.133 0-.33.198-.43.1.1-.462.462-1.287.66-1.354.462-.2-.066.824-.23 1.253zm7.82-7.328c-2.243 1.32-4.686 3.103-5.71 2.442-.395.66-1.153 2.607-1.318 2.607s-.066-.857-.43-.23c-.363.66-1.122 1.98-1.056 2.938 0 .197.528-.133.463.065l-1.485 4.324c-.1.33-.264 1.09-.297 1.52-.296 0-2.11-.66-2.573-1.32-.528-.793-.693-1.948-.693-2.608 1.056-3.267 3.53-9.043 5.313-12.87-.495-.364-.99-.826-1.254-1.156.23-.297.43-.76.495-1.155l-.825-.197c.23-.33.627-.56.892-.726v-.528c3.135.197 2.805-3.665 4.06-3.665.33 0 .495.066.726.133.496.165.925.43 1.486.495.264.66.594 1.254.726 1.98 1.023.032 2.047.065 3.235.264 1.75.264 2.805.924 2.805 2.805 0 2.31-1.75 3.334-4.29 5.116l-.266-.233zm20.54 3.895c.166.33-.065.693-.428.693l-.23-.43c-.265.066-.463.2-.265.562-.363 0-.957.298-.957.66 0 .495-.562.33-.958.43-.362.362-.66.792-1.056 1.32l-.362-.33c-.857.527-.396.89-1.287 1.32-.527.264-1.154.23-1.748.362-.1.1.297.23.264.363l-.594.198-.924-.562c-.528.33-.133 1.09-.792 1.32-.793.264-1.42.495-2.344.792-.562-.56-1.222-.363-1.684 0-1.155-.726-2.574-1.815-3.433-2.54-.792-.628-1.056-2.245-1.056-3.83 0-8.02 10-13.2 12.475-13.2.957 0 1.42.593 2.442 1.385 0 1.52 1.617 2.74 2.97 3.664 1.288.857 1.717 2.508 1.717 4.29 0 1.09-.56 2.576-1.748 3.533zm44.127 3.235l-2.244.824c.198.132.56.362.792.494.1.033.033.1-.066.133-1.65.56-3.696 1.122-5.544 1.584.495.23 1.22.23 1.848.066 1.32-.362 3.136-.99 4.753-1.55.1-.034.33-.133.166.197-.198.33-.462.56-.924.726-2.146.824-4.918 1.814-6.932 1.814-3.86 0-6.6-1.75-6.47-6.567.067-2.442 2.08-5.446 4.49-10.496-.068-.335-.088-.666-.065-1-.972.885-1.925 2.054-3.173 2.024-1.65 1.52-4.323 4.29-5.512 5.413l-.495-.43c.33 1.354-.858 2.277-1.716 3.564-.33-.164.032-.593.296-1.02-.363-.266-.727.296-1.09.856-.362.562-.626.957-.362 1.387-1.42 1.584-4.126 5.512-5.313 5.512-.462 0-.692-1.42-1.386-2.014l-.198.232-.924-1.354c-.43-.627-1.056-2.706-1.782-3.53-1.684 2.045-4.555 6.798-4.983 6.798-.363 0-1.155-1.254-1.452-1.254-.133 0-.23.033-.298.165-1.254-1.452-1.716-4.027-1.814-7.097-.133-3.4.197-7.327.33-10.727l.43-.33c1.55.76 2.64 3.532 2.97 5.018.527 2.443-1.65 6.37-.396 7.327l4.687-6.402.76-.265 1.75-2.606c.362-.562.296-1.85.923-1.85.693 0 1.584.86 1.85 1.75l.824 2.84c-1.154 1.55-1.814 3.762-2.97 5.114.693.066 1.188.99 1.716.99.892 0 7.624-10.595 11.222-11.122.363-.066 1.057-.133 1.485-.133-.297.298-.56.627-.165.76l1.485-1.155c.23.033.562.33.66.627l1.386.23c-.166.33-.528.76-.958 1.057l.265.1c.615 0 1.362-1.274 2.03-.956.082-.332.21-.67.448-1.025 1.65.198 2.607-2.343 3.762-2.343.628 0 2.377.495 2.806.627.033.727-.132 1.485-.594 2.377.56.133 2.145.298 2.87.298l.297.627c.165 0 .463-.198.825-.198.363 0 1.155.33 1.617.396.065 0 .132.065.065.132-1.32 1.188-2.244.462-2.014 1.452.99-.396 1.816-.627 2.74-1.057.133-.065.33-.297.363-.1.066.33-.528.53-.857.793-3.004 1.354-6.073 1.452-8.978 2.277-.363.594-.825 1.354-1.387 2.244 1.32-.132 4.06-1.254 5.018-1.254.958 0 1.255.33 1.947 1.52-.132.36.033.69.363.856l-.23.727c-2.014.33-6.932 1.122-8.582 1.85-.857.36-1.617 3.992-1.65 4.75 1.023.76 2.575.43 3.532.2l.198.33c.23 0 .527-.2.527-.397.495-.065.66.727 1.122.595 2.146-.594 4.688-1.45 6.337-1.98.1-.032.23-.065.265.034.064.168-.43.398-.695.53zm-1.584-.628c-.396.463-1.254.693-1.882.66-.924.693-2.08 1.155-2.475.528 1.52-.33 3.037-.825 4.258-1.32.133-.065.166.034.1.132zm37.56.628l-2.243.824c.198.132.56.362.792.494.1.033.033.1-.066.133-1.648.56-3.695 1.122-5.543 1.584.495.23 1.22.23 1.848.066 1.32-.362 3.136-.99 4.753-1.55.1-.034.33-.133.165.197-.198.33-.462.56-.924.726-2.147.824-4.92 1.814-6.933 1.814-.94 0-1.81-.106-2.59-.332-1.723 1.118-3.9 2.015-5.724 2.015-1.254-.43-2.673-1.023-3.53-1.882-1.618-1.584-6.04-7.888-8.022-8.91-.856 1.187-2.21 3.828-2.672 5.115-.198.43.43 1.287.264 1.914-.198.726-1.09 1.254-1.815 1.98-.627 0-1.485-.528-1.75-1.222l-.494-1.353c.792-.53-.297-.232-.297-.86 0-1.716 5.413-13.597 8.647-18.45 2.706 0 1.815 2.312 2.31 3.335 1.023-.43 2.344-.957 3.5-.957.726 0 1.286.065 1.88.23l-.23.528c.462.132.99.132.99-.297l.627.263c-.033.165-.165.363-.265.462.265.198.562.198.628-.165.66.628.924 1.09.924 1.85 0 .395-.165.923-.43 1.154-.89.792-1.814 1.716-3.036 2.772l-.36-.363c-1.42.892-.893 1.32-2.576 2.31-.495-.692-1.452-.13-2.442.793 3.136 2.87 6.602 7.56 9.803 7.56.35 0 .704-.027 1.052-.066-.588-.993-.903-2.3-.856-3.995.067-2.442 2.08-5.446 4.49-10.496-.166-.826-.133-1.618.462-2.51 1.65.198 2.607-2.343 3.762-2.343.628 0 2.377.495 2.806.627.033.727-.132 1.485-.594 2.377.56.133 2.146.298 2.87.298l.298.627c.165 0 .463-.198.825-.198.362 0 1.154.33 1.616.396.066 0 .133.065.066.132-1.32 1.188-2.244.462-2.014 1.452.99-.396 1.815-.627 2.74-1.057.132-.065.33-.297.362-.1.066.33-.528.53-.857.793-3.004 1.354-6.073 1.452-8.978 2.277-.363.594-.825 1.354-1.387 2.244 1.32-.132 4.06-1.254 5.017-1.254.958 0 1.255.33 1.947 1.52-.132.36.033.69.363.856l-.23.727c-2.014.33-6.932 1.122-8.582 1.85-.857.36-1.617 3.992-1.65 4.75 1.023.76 2.575.43 3.532.2l.198.33c.23 0 .527-.2.527-.397.495-.065.66.727 1.122.595 2.146-.594 4.688-1.45 6.337-1.98.1-.032.23-.065.264.034.063.168-.432.398-.695.53zm-22.572-6.337l-.892.43-.197-.298c.363-.264.924-.462 1.09-.132zm20.99 5.71c-.397.462-1.255.692-1.883.66-.924.692-2.08 1.154-2.475.527 1.518-.33 3.036-.825 4.257-1.32.133-.065.165.034.1.132zm22.178-5.875c-.23.23-.627.396-.892.362l.495-.527c-.198-.066-.528-.033-.726.165-.197.197-.726.627-1.386 1.154l.594.133c-3.597 3.103-8.02 5.842-11.85 7.524l-.296 1.815c-.627-.33-1.122 0-1.815 0-2.013 0-2.673-2.212-3.4-3.17.134-.362.232-.79.266-1.254l.825-.362c.462-.23.792-.43 1.022-.99.528-1.222.76-2.277 1.155-3.73l-.132-.494c.462-1.485 1.485-2.607 1.55-3.895.034-.925-1.187-1.52-1.153-2.344.032-.857 1.65-1.286 2.508-1.748l.33.23c1.552-1.683 1.65-5.082 3.4-5.082.296 0 1.484 1.947 1.65 2.376.13.528-.166 1.155-.298 1.85 1.122 0 2.343-.33 4.026-.1-.33.626.66.46.858 0 .33.264 1.254.164 1.98.395 3.036.925 3.2 3.467 3.366 4.886-.558.86-1.35 2.114-2.076 2.807z"/>
      <path d="M255.69 24.547c-.033.198-.132.43-.363.562-.23-.232-.594-.133-.957.197.198 0 .528.1.76.23 1.88-1.155 3.762-2.54 5.28-3.498v-.034c-.595 0-1.122.33-1.782.76-.727.462-1.882 1.122-2.938 1.78zM196.412 26.297l.165-.892-.265-.33c-.132.595-.165 1.024.1 1.222zM233.147 23.16l-.33.035-.363 1.22.23.297zM253.94 16.593l-.032 1.023c-.132.165-.396.264-.595.495v.034c.528-.43.463 1.056.165 1.056-.165-.032-.297-.1-.43-.197v.032c.133.198.2.43.232.693-.033.76-.693 1.684-.858 2.938 1.188-.726 3.86-1.782 5.512-3.2.132.13.264.13.495.197l-.2-.463.298-.197c.132.23.265.264.33.264.33 0 .957-.528 2.112-1.88.858.296 2.574-1.916 2.377-3.137-5.578 0-7.624 1.783-9.406 2.343zM264.106 18.74l.43.098.263-.298-.43-.098zM225.163 10.983c-.363-.132-.99-.066-1.22.066l1.055.164.165-.23zM235.524 17.353c-.23 0-.66.462-.76.825l.43-.066.33-.76zM244.37 12.666c-.034-.165-.496-.198-.694-.133l.1.396.593-.264zM236.712 15.867l-.43.1-.56.924.43-.1zM196.84 23.195l-.363 1.22.232.297.46-1.55zM212.885 25.34l.165.396.957-1.88-.165-.266zM233.51 22.105c-.43-.032-.562.165-.627.495v.363h.033c.198-.263.463-.528.594-.858z"/>
    </g>
  </g>

  <g class="logo-animated__word" data-word="embraced">
    <g class="stroke">
      <path d="M102.626 29.407l7.834-12.166 6.333-6.666.333 5.833-2.166 6.5 8.666-7.166 6.334-3.5-7 17 16.833-21.333-7.5 19.167 8.57-12.89 5.7-3.478-6.51 9.136 7.642-.12-1.334 4.446-12.33 6.226"/>
      <path d="M158.835 7.99l-7.25 15.626-.75 5.5 6.375-13.125 10.25-4.75-8.625 8.5 2.5 5.126 5.25 4.625 5.25-1.124 4.5-8.625 9.25-10.624.25 7.25-2.125 10-.25 5.125-6.875-7.75 10.625-3.5"/>
      <path d="M204.96 10.49l-7.5 4.126-5 5.625-2.375 4.876 4 3.375 6-2.124 3.375-1.25"/>
      <path d="M215.21 8.616l-4.625 8.125-3 5.5.25 5.376 5.75.375 6.375-2.25-8.5-6 7.75-1.624-4.75-4.5 6.375-1.75 10.5-3.75-7 20.375.375-13.874 10.25-2 4.625.5 1.25 4.25-7.75 4.75-5.875 3.125"/>
    </g>
    <g class="mask">
      <path d="M169.98 30.16l-1.486.33c-.462-.133-.792.197-.032.428.627-.1 1.386-.33 1.848-.495v-.033c-.166 0-.23-.165-.33-.23zM138.723 21.544c-.66 0-1.32-.462-1.717-.462-.362 0-.43.23-.594.23l.33.265c-.165.297-.396.627-.627.627.33.462.1.99-.165 1.65-.265.23-.627.396-.76.692.43 0 .298.198.165.33-.33.265-.527.463-.164 1.09l.562-.693-.033 1.023h-.23c-.067.165-.134.362-.134.594 1.453-.66 2.64-1.09 2.97-.76.166-.43.76-.726 1.486-1.12.33.593.462-.067.792-.067.265 0 .627.1.76-.462 1.42-.66 3.003-1.45 4.257-3.102-2.937-1.12-4.19.166-6.897.166zm-2.74 3.2c-.1-.064-.132-.13-.065-.263.033-.264.396-.66.594-.824l-.528 1.09zm.595-1.384c-.165-.066.132-.99.363-1.42l.2.165-.562 1.255zM152.685 25.34l.165.396.957-1.88-.165-.266zM164.963 10.983c-.363-.132-.99-.066-1.22.066l1.055.164.165-.23zM147.568 23.69l.23.264.628-.528c-.165-.23-.627.132-.858.264zM170.82 29.84c-.137.053-.274.105-.41.153-.266.1.13.264.296.23.074-.024.145-.064.22-.092-.027-.1-.06-.2-.107-.29zM182.088 27.683h.198l.132-.528-.2.1zM183.408 18.74l-.132.362h.297l-.033-.33zM178.16 24.515c.298-.165.793-.363 1.155-.595v-.032c-.726.032-1.022.1-1.155.627zM183.573 19.663l.033-.363h-.363c-.132.396.1.396.33.363zM177.038 24.053c-.264.1-.462.132-.692.23l-.396.562c.13-.066.89-.33 1.088-.792zM175.62 25.44c-.166.23-.23.362-.364.593l2.51-1.32c-.43-.33-1.52.396-2.147.726zM142.518 27.452c.165 0 .33-.133.463-.396-.297-.033-.792.132-.957.264.165.1.33.132.495.132zM128.944 17.386h.363l.396-1.023c-.46 0-.494.428-.76 1.023zM144.763 25.9c-.033.232.462.166.594.133l-.066-.297-.527.165zM127.228 22.006c0 .198.033.363.065.562h.033l1.023-3.103h-.034c-.46.66-1.088 1.518-1.088 2.54zM143.212 20.39l-.66-.1-.033.264c.328.066.658.033.692-.165zM126.7 23.128c0 .165.033.33.033.396.264-.198.43-.825.132-.957-.1.1-.132.33-.165.56zM128.88 17.617l-.364 1.023c.363-.265.66-.595.562-.76l-.2-.263z"/>
      <path d="M181.527 16.528l-.165-.165c.1-.265.198-.462.065-.595-.527.595-.76.892-.462 1.52-.495.66-.957 1.253-1.386 1.78-.596.76-1.486 2.18-2.245 3.27.66-.397 1.154-1.09 2.475-1.65 1.155-.496 1.85-.628 3.037-.958.1-.858.43-1.485.56-1.947l.563.495c.396-1.023.857-3.696 1.22-5.182l-.098-.33c-.628.032-2.146 1.88-3.565 3.762zm2.97-1.816h-.297l.265-.892.297-.132-.265 1.024zM137.238 29.102c0 .165.198.43.56.43.364 0 .43-.43.266-.43-.33.133-.66.033-.826 0zM134.532 26.43l.23.13.265-.362c-.198-.1-.33.033-.495.23zM136.578 29.73c.066.032.132.032.165.032.066 0 .165-.065.264-.165l-.594-.032.165.165zM135.82 23.063h-.364c0 .197-.1.462-.23.594l.13.23c.265-.23.463-.56.463-.824zM107.426 24.91l.198.165c.165-.33.33-.462.1-.627l-.298.462zM209.3 22.105c-.428-.032-.56.165-.626.495v.363h.033c.198-.263.463-.528.594-.858zM208.18 26.297l.164-.892-.265-.33c-.132.595-.165 1.024.1 1.222zM211.315 17.353c-.23 0-.66.462-.76.825l.43-.066.33-.76zM212.503 15.867l-.43.1-.56.924.43-.1zM194.736 19.53l.297.2c.693-.694.693-.826.693-.958-.33 0-.627.33-.99.76zM220.16 12.666c-.033-.165-.495-.198-.693-.133l.1.396.593-.264zM229.832 25.505v-.033c-.495.264-1.32 1.022-1.617 1.386v.033l1.683-.824c-.133-.066-.23-.364-.066-.56zM208.608 23.195l-.363 1.22.23.297.463-1.55zM231.482 24.547c-.033.198-.132.43-.363.562-.232-.232-.595-.133-.958.197.198 0 .528.1.76.23 1.88-1.155 3.762-2.54 5.28-3.498v-.034c-.595 0-1.122.33-1.782.76-.727.462-1.882 1.122-2.938 1.78zM106.898 25.9l.198.2.363-.694-.2-.132zM226.73 27.617l.923-.495.165-.396-1.022.56zM236.037 21.61c.198.133.462.198.692 0l.692-.494-.297-.1-1.088.595zM191.93 18.045c-.264-.1-.43-.032-.594.265l.33.198.264-.463zM229.733 16.593l-.033 1.023c-.132.165-.396.264-.595.495v.034c.528-.43.463 1.056.165 1.056-.165-.032-.297-.1-.43-.197v.032c.133.198.2.43.232.693-.033.76-.693 1.684-.858 2.938 1.188-.726 3.86-1.782 5.512-3.2.132.13.264.13.495.197l-.197-.463.297-.197c.132.23.265.264.33.264.33 0 .957-.528 2.112-1.88.858.296 2.574-1.916 2.377-3.137-5.58 0-7.625 1.783-9.407 2.343zM239.898 18.74l.43.098.263-.298-.428-.098z"/>
      <path d="M0 0v40h278V0H0zm129.802 19.07h-.363c.13-.265.46-.595.626-.66l-.264.66zm.594-1.684c-.726-.23-1.056 1.32-1.22 1.683h-.53c0 .395.463.46.76.56-.164.363-.527.463-.924.43l-.924 2.904.396-.198.693-2.112.198.528-.462 1.65c-.165.594-.462 1.057-.792 1.057-.46 0-.362.593-.494 1.02l-.23-.296-.2.198c.166.33.496.76.496 1.155 0 .76-.825 2.178-1.386 3.465l-.562-.495c-.065.066-.165.1-.264.133-.1.032-.198.032-.33.032-1.254 0-2.706-2.112-2.706-3.3 0-1.354 2.706-6.205 3.895-8.812l-.1-.264c-.958.594-3.3 1.353-3.4 2.376l-5.84 4.983c-.562-.76-.958-.197-1.65-.197-.86 0-1.355-1.618-1.685-2.707.495-1.616 1.32-3.63 2.112-5.478l-.33-.66c-1.32 1.09-2.54 2.772-3.465 4.225-1.386 2.244-3.268 5.71-4.687 8.284-.33-.13-.066-.692.165-1.154-.363-.1-.627.462-.858 1.09-.23.66-.165 1.386.033 1.848-.165.132-.33.198-.528.198-1.353 0-3.234-2.41-3.234-3.136 0-.792 2.772-5.182 4.29-7.558 1.717-2.74 3.4-5.28 5.645-6.965.627-.957 1.98-2.87 3.168-2.87 1.848 0 2.508 2.31 3.267 4.158-.165.858-.065 2.113.265 2.872 1.056-.727 2.375-1.85 3.432-2.442.23-.132.527.065.692.33.265-.198.462-.562.297-.924 1.75-1.09 3.96-2.212 4.687-2.212.627 0 1.42.562 2.112 1.09.56 1.32 1.187 2.41 1.187 3.498 0 .957-.396 2.21-.99 2.014zm13.245 9.835c0-.33.23-.527.628-.527.132 0 .23.033.33.1l-.957.428zm1.85-.956c-.727-.033-1.585.198-2.312.56l.133.496c-.76.693-1.98.958-2.44.495-.166.165-.266.528-.364.792-3.53 1.915-6.106 2.542-5.743 3.268-.23.198-.462.265-.693.265-.726 0-1.287-.99-2.244-1.122.066-.363.066-.76-.33-.562.1-.462 0-1.188-.165-1.65.563-.264 1.19-.527 1.75-.825-.594-.164-.99-.758-1.452-.956l.298-.495c-.33-.265-.43-.496-.562-.793l3.366-9.01c-.527-.265-.627-.76-.56-1.354l1.682-1.354c.628-1.75 1.75-4.29 2.674-5.678h.594c1.32 0 1.782 1.09 1.98 1.552h-.462c0 .396.165.924.396.924.924 0 1.683-.825 2.74-1.188.626-.198 1.616-.362 1.946-.362.726 0 1.55 1.947 1.848 2.838-.33.033-.594.264-.33.594-.495.793-.99 2.18-1.617 2.112-.428-.032-1.517 1.188-1.88 1.155-.627-.065-1.057.627-1.717 1.155l-.23-.165c-.363.265-1.122.76-1.42 1.155l.133.1c1.056-.066 2.574-.23 3.763-.23 1.616 0 2.903.923 3.926 1.683.495.792 1.123 2.574 1.453 3.63-.232.132-.43-.033-.66.066-.465.693-3.336 2.904-3.5 2.904zm40.592-3.466c-.265.562-.165 2.014-.858 2.674.462.264.198 1.09-.23 1.485.197.495.33.857-.363 1.782-.032.13.298-.034.363-.1-.065 1.12-.33 2.013-.66 3.003-1.022 0-1.947-.99-2.475-.792.033-.66-.066-.924-.528-.924l.033-.462c.165 0 .297-.1.33-.33-.165 0-.297-.1-.297-.33.065-.76.462-1.716.66-2.706.23 0 .23.43.197.924.23 0 .595-1.353.66-2.112l-.396-.165c-.033.528-.033 1.255-.43 1.09.1-.463.198-1.618.297-2.014l.562.694c-.033-.396.132-.495.066-.99-1.882-.066-6.865 2.607-8.35 3.63l-.166.43.132.396-.12.254c.092.104.176.213.224.308-.18.166-.38.33-.587.495-.373.842-.73 1.658-1.1 2.145l-1.364-.584c-1.412.71-2.956 1.21-4.31 1.21-1.253-.43-2.672-1.022-3.53-1.88-1.617-1.585-6.04-7.89-8.02-8.912-.858 1.188-2.212 3.83-2.674 5.116-.198.43.43 1.287.264 1.914-.198.726-1.09 1.254-1.815 1.98-.627 0-1.485-.528-1.75-1.222l-.494-1.353c.793-.527-.296-.23-.296-.857 0-1.717 5.413-13.598 8.647-18.45 2.707 0 1.816 2.31 2.312 3.334 1.022-.43 2.343-.957 3.498-.957.727 0 1.287.065 1.88.23l-.23.528c.463.132.99.132.99-.297l.628.265c-.033.165-.165.363-.264.462.264.198.56.198.627-.165.66.628.925 1.09.925 1.85 0 .395-.165.923-.43 1.154-.89.792-1.814 1.716-3.036 2.772l-.363-.363c-1.42.892-.892 1.32-2.575 2.31-.495-.692-1.452-.13-2.442.793 3.136 2.87 6.602 7.56 9.803 7.56.11 0 .224-.008.336-.013.936-4.876 6.24-10.06 9.264-14.114 1.55-2.046 3.103-3.432 4.39-4.455.23-.198 1.154.132 1.22-.495.43.132 1.355.528 1.85.924l-.595.198c-.033.562.792-.066.956.066 1.222 1.056.528 2.838 1.155 3.795.034.165-.03 3.004-.526 3.3.065.067.1.067.197.133-.196.727-.46 1.684-.526 2.607-.033.396 1.22 1.52 1.122 2.97-.597.067-1.224.2-1.784.265zm-24.816-3.3l-.892.43-.198-.298c.364-.264.925-.462 1.09-.132zm36.143 10.034c-.198 0-.43-.033-.628-.132l1.09-.363c.395.296.032.495-.463.495zm3.1-1.254c-.626.362-1.253.726-1.813.726-.165 0-.33-.033-.463-.1.628-.264 1.52-.43 2.277-.66v.034zm2.577-1.42l-.33-.396.89-.133.43.197-.99.33zM205 13.228c-1.353.33-2.97.99-4.125 1.814-.957.693-1.683 1.485-2.08 1.85l-.197-.33c-.363.593-1.617 1.583-2.54 2.408-.034.165-.133.528-.232.693-.594.627-3.86 4.39-3.86 6.007 0 .396.164.627.527.627 1.188 0 3.928-.792 5.907-1.09.463-.065.825.133.99.33-1.584.33-3.828.727-4.19 1.387.626.396 1.716.132 2.21-.363 1.75-.33 3.96-.79 5.645-1.022l.527.133.793-.1.362.232-1.716.264c-.428.066-.89.198-.593.627l.23.33c-.297.132-3.96 1.222-6.14 1.914-.362.133-.593.463-.395.693-.692.165-1.75.462-2.508.462-.363 0-.66-.527-.99-.527-.792 0-.99-.825-2.046-.693-.595-.562-1.85-2.674-2.112-3.17-.165-.263-.23-.758-.23-1.12v-.892c.527-.462.56-1.155.56-1.85l.33.2c.23-.364-.032-.826.133-1.19.69-1.385 2.012-3.597 2.44-3.597.43 0-.197.495.265.495.363 0 1.057-1.716 1.42-1.716h.395c-.1-.23-.132-.627-.165-.924h.23c.858-2.08 7.162-5.81 8.317-5.81.396 0 1.188.363 1.684.627.46 1.09 1.385 1.948 1.155 3.302zm-1.815 11.287c-.165.56-1.287.76-2.277.76-.594 0-1.155-.067-1.42-.2 1.32-.23 2.707-.495 3.697-.56zm16.645 1.32l-2.244.824c.198.132.56.362.792.494.1.033.033.1-.066.133-1.65.56-3.696 1.122-5.544 1.584.495.23 1.22.23 1.848.066 1.32-.362 3.136-.99 4.753-1.55.098-.034.33-.133.164.197-.198.33-.462.56-.924.726-2.146.824-4.918 1.814-6.932 1.814-3.86 0-6.6-1.75-6.47-6.567.067-2.442 2.08-5.446 4.49-10.496-.166-.824-.133-1.616.462-2.507 1.65.197 2.607-2.344 3.762-2.344.628 0 2.377.494 2.806.626.033.727-.132 1.485-.594 2.377.56.132 2.146.297 2.87.297l.298.627c.165 0 .463-.198.825-.198.363 0 1.155.33 1.617.395.066 0 .133.065.066.132-1.32 1.188-2.244.462-2.014 1.452.99-.397 1.815-.628 2.74-1.058.132-.065.33-.297.362-.1.066.33-.528.53-.857.793-3.003 1.354-6.072 1.452-8.977 2.277-.363.594-.825 1.354-1.387 2.244 1.32-.132 4.06-1.254 5.017-1.254.958 0 1.255.33 1.947 1.52-.132.36.033.69.363.856l-.23.727c-2.014.33-6.932 1.122-8.582 1.85-.856.36-1.616 3.992-1.648 4.75 1.022.76 2.574.43 3.53.2l.2.33c.23 0 .526-.2.526-.397.495-.065.66.727 1.122.595 2.146-.595 4.688-1.452 6.337-1.98.1-.033.23-.066.265.033.066.166-.43.396-.692.53zm-1.584-.628c-.396.463-1.254.693-1.882.66-.924.693-2.08 1.155-2.475.528 1.517-.33 3.035-.825 4.256-1.32.133-.065.165.034.1.132zm22.18-5.874c-.23.23-.627.396-.892.362l.495-.527c-.2-.066-.53-.033-.727.165-.198.197-.727.627-1.387 1.154l.594.133c-3.597 3.103-8.02 5.842-11.85 7.524l-.296 1.815c-.627-.33-1.122 0-1.815 0-2.014 0-2.674-2.212-3.4-3.17.133-.362.23-.79.265-1.254l.825-.362c.462-.23.792-.43 1.022-.99.528-1.222.76-2.277 1.155-3.73l-.132-.494c.462-1.485 1.485-2.607 1.55-3.895.034-.925-1.187-1.52-1.153-2.344.032-.857 1.65-1.286 2.508-1.748l.33.23c1.552-1.683 1.65-5.082 3.4-5.082.296 0 1.484 1.947 1.65 2.376.13.528-.166 1.155-.298 1.85 1.122 0 2.343-.33 4.026-.1-.33.626.66.46.858 0 .33.264 1.254.164 1.98.395 3.036.925 3.2 3.467 3.366 4.886-.558.86-1.35 2.114-2.076 2.807z"/>
      <path d="M191.6 24.217l.198.265.364-.727h-.33zM190.743 19.3l.297.23.428-.692-.263-.298zM192.79 22.238c-.133.23-.496.76-.33 1.056l1.022-1.518-.298-.165-.395.628zM194.373 20.06l.23.197.265-.33-.297-.198z"/>
    </g>
  </g>

  <g class="logo-animated__word" data-word="educated">
    <g class="stroke">
      <path d="M113.46 6.99l-6.073 19.057-1.177 3.694 1-16.5 12.5-.5 3.25 2.5-5.5 7-8 3 5.334 3.27 18.01-19.393-6.08 13.39.615 4.465 5-.846 5.543-3.54 6.926-13.007"/>
      <path d="M160.51 10.194l-7.466 4.08-5.54 5.772-2.464 5.618 4.002 2.77 11.39-3.54.155 4.85 7.388-14.393 6.85-6.387.692 6.773-1.924 9.39-1.077 6.002-7.08-6.85 12.313-4.617"/>
      <path d="M190.294 8.27l-5.156 14.392-1.847 7.004-3.847-15.624 15.546-2 12.16-2.925-4.85 6.696-3.078 6.618 1 6.235 7.543-1.54 4.31-1.076-9.928-6.39 9.774-1.462-5.925-5.08 8.158-1.538 9.312-4.08-7.542 22.243 1.154-15.085 10.698-1.77 4.387.924-1.462 5.002-10.852 6.542"/>
    </g>
    <g class="mask">
      <path d="M145.91 19.3l.297.23.428-.692-.263-.298zM147.097 18.045c-.264-.1-.43-.032-.594.265l.33.198.264-.463zM138.9 23.92l.923-1.022-.33-.33c-.495.495-.924.924-.594 1.352zM150.893 18.772c-.33 0-.627.33-.99.76l.297.197c.693-.695.693-.826.693-.958zM172.93 19.663l.034-.363h-.363c-.13.396.1.396.33.363zM148.65 21.776l-.3-.165-.395.628c-.132.23-.495.76-.33 1.056l1.024-1.518zM164.977 25.44c-.165.23-.23.362-.363.593l2.51-1.32c-.43-.33-1.52.396-2.147.726zM167.518 24.515c.298-.165.793-.363 1.155-.595v-.032c-.725.032-1.022.1-1.155.627zM147 23.755l-.233.462.198.265.364-.727zM171.446 27.683h.198l.132-.528-.198.1zM166.396 24.053c-.264.1-.462.132-.692.23l-.396.562c.13-.066.89-.33 1.088-.792zM150.035 19.927l-.297-.198-.198.33.23.197zM112.343 16.593l-.033 1.023c-.132.165-.396.264-.594.495v.034c.528-.43.462 1.056.165 1.056-.164-.032-.296-.1-.428-.197v.032c.132.198.198.43.23.693-.032.76-.692 1.684-.857 2.938 1.188-.726 3.86-1.782 5.512-3.2.132.13.264.13.495.197l-.198-.463.297-.197c.133.23.266.264.33.264.33 0 .958-.528 2.113-1.88.858.296 2.574-1.916 2.376-3.137-5.578 0-7.624 1.783-9.407 2.343zM114.093 24.547c-.033.198-.132.43-.363.562-.23-.232-.594-.133-.957.197.198 0 .528.1.76.23 1.88-1.155 3.762-2.54 5.28-3.498v-.034c-.595 0-1.122.33-1.782.76-.726.462-1.88 1.122-2.937 1.78zM118.648 21.61c.197.133.462.198.692 0l.693-.494-.297-.1-1.088.595zM109.34 27.617l.924-.495.165-.396-1.024.56zM112.442 25.505v-.033c-.495.264-1.32 1.022-1.617 1.386v.033l1.683-.824c-.13-.066-.23-.364-.066-.56zM129.888 28.376c.133.165.298.198.528.198.23 0 .528-.066.76-.1-.43-.758-1.618-.494-1.288-.098zM134.575 27.42c.693-.33 1.882-1.09 2.442-1.553-.792-.032-1.353.595-2.508 1.222l.065.33zM122.508 18.74l.43.098.264-.298-.43-.098zM133.52 27.485c-.563.198-1.355.1-1.288.858.66-.132 1.32-.396 1.914-.693-.1-.23-.395-.23-.627-.165zM131.34 15.11l-.825 1.352c-.032.066-.1.198-.065.23l.43.265c.23-.33.79-1.518.46-1.848zM221.5 16.593l-.034 1.023c-.132.165-.396.264-.595.495v.034c.53-.43.464 1.056.166 1.056-.165-.032-.297-.1-.43-.197v.032c.133.198.2.43.232.693-.033.76-.693 1.684-.858 2.938 1.188-.726 3.86-1.782 5.512-3.2.132.13.264.13.495.197l-.198-.463.296-.197c.132.23.265.264.33.264.33 0 .957-.528 2.112-1.88.858.296 2.574-1.916 2.377-3.137-5.578 0-7.624 1.783-9.406 2.343zM223.248 24.547c-.033.198-.132.43-.363.562-.23-.232-.594-.133-.957.197.198 0 .528.1.76.23 1.88-1.155 3.762-2.54 5.28-3.498v-.034c-.595 0-1.122.33-1.782.76-.727.462-1.883 1.122-2.938 1.78zM201.068 22.105c-.43-.032-.562.165-.627.495v.363h.034c.197-.263.462-.528.594-.858zM203.082 17.353c-.23 0-.66.462-.76.825l.43-.066.33-.76zM200.375 23.195l-.364 1.22.233.297.462-1.55zM204.27 15.867l-.43.1-.56.924.43-.1zM199.946 26.297l.165-.892-.264-.33c-.132.595-.165 1.024.1 1.222zM221.597 25.505v-.033c-.495.264-1.32 1.022-1.617 1.386v.033l1.683-.824c-.132-.066-.23-.364-.066-.56zM170.885 16.528l-.165-.165c.1-.265.198-.462.065-.595-.527.595-.76.892-.462 1.52-.495.66-.957 1.253-1.386 1.78-.595.76-1.485 2.18-2.244 3.27.66-.397 1.154-1.09 2.475-1.65 1.155-.496 1.85-.628 3.037-.958.1-.858.43-1.485.56-1.947l.563.495c.396-1.023.857-3.696 1.22-5.182l-.098-.33c-.627.032-2.146 1.88-3.565 3.762zm2.97-1.816h-.297l.265-.892.297-.132-.265 1.024zM211.926 12.666c-.033-.165-.495-.198-.693-.133l.1.396.593-.264zM218.495 27.617l.924-.495.164-.396-1.023.56z"/>
      <path d="M0 0v40h278V0H0zm122.145 19.696l.495-.527c-.198-.067-.528-.034-.726.164-.198.197-.727.627-1.386 1.154l.593.133c-3.595 3.104-8.018 5.843-11.847 7.525l-.297 1.815c-.627-.33-1.122 0-1.815 0-2.012 0-2.672-2.21-3.398-3.168.132-.363.23-.792.264-1.255l.825-.362c.463-.23.793-.43 1.024-.99.528-1.222.76-2.277 1.155-3.73l-.133-.494c.462-1.484 1.485-2.606 1.55-3.894.034-.925-1.187-1.52-1.154-2.344.033-.858 1.65-1.287 2.508-1.75l.33.23c1.552-1.682 1.65-5.08 3.4-5.08.297 0 1.485 1.946 1.65 2.375.132.528-.165 1.155-.297 1.85 1.122 0 2.343-.33 4.026-.1-.33.626.66.46.857 0 .33.264 1.253.164 1.98.395 3.036.924 3.2 3.466 3.366 4.885-.562.858-1.354 2.112-2.08 2.806-.228.23-.623.396-.888.363zm20.385-.792c-.628-.033-.693.858-2.74 3.366l.265.33c.825-1.056 1.617-2.178 2.277-3.267.23.297.165.594.065.792-4.62 8.515-11.42 9.505-13.334 9.505-.23 0-.23-.1-.264-.165 0-.1 0-.165-.232-.165-.23 0-.197.066-.197.165.033.066.066.165-.164.165-.925 0-1.354-.89-1.815-1.452l-.362.165c-1.32-.792-1.914-2.31-1.914-3.86 0-1.32.33-2.707.89-3.93 1.52-3.3 3.995-9.24 5.216-12.013.396-.33.727-.462 1.023-.462.727.033 1.75 2.706 2.014 3.4l.462-.33v.758c-.958 1.75-2.345 4.62-3.203 6.502-.197-.33-.197-.528-.032-.89.33-.1-.133-.463-.265-.266-.792 1.155.033 1.75-.297 2.442-.132.297-.297.627-.462 1.023-.296-.132-.626.23-.79.562.197.098.395 0 .593-.134h.033c-.23.495-.495 1.122-.693 1.585-.132-.197-.165-.462.066-.956l-.2-.198c-.263.495-.593 1.09-.593 1.485 0 .23.132.363.43.397-.133.33-.265.66-.364.924 6.733 0 9.736-5.016 12.443-10.626.1-.297.627-.132.924-.33.297-.165.165-.462-.363-.396.528-1.188 1.188-3.07 1.32-3.598.066-.297.265-.362.528-.362.198 0 .43.264.726.495.364.297.794.462.96.527.164.363.23 1.023.263 1.684.033.792.132 1.52.825 1.584l-.462 1.65c-.66-.065-1.585.43-.792.957.23.132-.033.627-.43.595l-.462-.23c-.43.79-.957 1.848-.528 1.88l-.364.694zm10.046 10.628c-.197 0-.43-.033-.627-.132l1.09-.363c.394.296.03.495-.464.495zm3.102-1.254c-.627.362-1.254.726-1.814.726-.165 0-.33-.033-.463-.1.63-.264 1.52-.43 2.278-.66v.034zm19.762-5.48c-.265.562-.165 2.014-.858 2.674.462.264.198 1.09-.23 1.485.197.495.33.857-.363 1.782-.034.13.296-.034.36-.1-.064 1.12-.33 2.013-.66 3.003-1.02 0-1.946-.99-2.474-.792.033-.66-.066-.924-.528-.924l.033-.462c.166 0 .298-.1.33-.33-.164 0-.296-.1-.296-.33.065-.76.462-1.716.66-2.706.23 0 .23.43.197.924.232 0 .596-1.353.66-2.112l-.395-.165c-.033.528-.033 1.255-.43 1.09.1-.463.198-1.618.297-2.014l.562.694c-.033-.396.132-.495.066-.99-1.882-.066-6.865 2.607-8.35 3.63l-.166.43.132.396c-.56 1.155-1.056 2.51-1.584 3.202l-2.08-.892c-.1-1.023-1.518-1.452-1.154-2.31h-.528c.066-.45.182-.904.32-1.36l-.707.237-.33-.396.89-.132.208.096c.057-.172.113-.343.178-.515l-1.01.154c-.43.066-.893.198-.595.627l.23.33c-.297.133-3.96 1.223-6.14 1.915-.362.133-.593.463-.395.693-.692.165-1.75.462-2.508.462-.363 0-.66-.527-.99-.527-.792 0-.99-.825-2.046-.693-.595-.562-1.85-2.674-2.112-3.17-.165-.263-.23-.758-.23-1.12v-.89c.527-.462.56-1.155.56-1.85l.33.2c.23-.364-.032-.826.133-1.19.692-1.385 2.013-3.597 2.442-3.597.43 0-.198.495.264.495.364 0 1.057-1.716 1.42-1.716h.396c-.1-.23-.132-.627-.165-.924h.23c.86-2.08 7.163-5.81 8.318-5.81.396 0 1.188.363 1.684.627.462 1.09 1.386 1.947 1.155 3.3-1.354.33-2.97.99-4.126 1.816-.956.694-1.682 1.486-2.078 1.85l-.198-.33c-.363.594-1.617 1.584-2.54 2.41-.034.164-.133.527-.232.692-.594.627-3.86 4.39-3.86 6.007 0 .395.164.626.527.626 1.187 0 3.927-.792 5.906-1.09.463-.065.825.133.99.33-1.584.33-3.828.727-4.19 1.387.626.396 1.716.132 2.21-.363 1.75-.33 3.96-.792 5.645-1.023l.53.133.575-.072c1.733-4.26 6.044-8.605 8.656-12.106 1.552-2.047 3.104-3.433 4.39-4.456.23-.198 1.156.132 1.222-.495.43.133 1.354.53 1.85.925l-.596.198c-.032.562.792-.066.957.066 1.222 1.055.528 2.837 1.155 3.794.033.165-.032 3.004-.527 3.3.066.067.1.067.198.133-.197.727-.462 1.684-.527 2.607-.032.396 1.222 1.52 1.123 2.97-.595.066-1.222.2-1.783.264zm-17.088 1.717c-.165.56-1.287.76-2.277.76-.594 0-1.155-.067-1.42-.2 1.32-.23 2.707-.495 3.697-.56zm33.316-9.044v-.36c-.297-.034-.527.13-.726.395-1.122.132-1.485.562-2.18 2.64-.098.298-.494.694-.69.86l.296.164c-.165.69-.66 2.012-.99 1.978-.363-.032-.033-.692-.23-.66-.364.066-.397.793-.562 1.32.165.43.197.693.197.957-.165.43-.33 1.155-.56 1.155-.33 0-.133-.627-.265-.89-.298.626-.528 1.22-.76 1.78l.265.166c.165-.297.33-.396.627-.33-.627 1.716-1.188 3.433-1.552 4.918-.792.065-1.584-.033-2.146-.165l.133-.364c-.858-.297-.792-1.42-.925-2.707-.132-.165-.264-.463-.264-.693 0-.825 1.88-5.71 3.53-9.473h-2.573c-1.452 0-1.55.462-2.607.198-.495-.76-1.09-2.212-1.09-3.2 0-.397.133-.76.463-1.09 1.286.13 4.355.264 6.37-.133 3.332-.694 1.88-3.83 4.95-3.83l1.42 2.84c2.177-.463 4.62-.99 6.138-1.19 1.42.364 2.574.96 3.003 2.147-.56.495-.263 1.354.034 1.85-.165.098-.33.164-.528.23l-.065-.198c-.197-.1-.362-.134-.46-.134-.134 0-.232.1-.232.23 0 .1.033.2.066.265-1.98.397-4.885.134-7.624 1.32h-.462zm19.928 10.365l-2.244.824c.198.132.56.362.792.494.1.033.033.1-.066.133-1.65.56-3.696 1.122-5.544 1.584.495.23 1.22.23 1.848.066 1.32-.362 3.136-.99 4.753-1.55.1-.034.33-.133.165.197-.198.33-.462.56-.924.726-2.146.824-4.918 1.814-6.932 1.814-3.86 0-6.6-1.75-6.47-6.567.067-2.442 2.08-5.446 4.49-10.496-.166-.824-.133-1.616.462-2.507 1.65.197 2.607-2.344 3.762-2.344.628 0 2.377.494 2.806.626.033.727-.132 1.485-.594 2.377.56.132 2.146.297 2.87.297l.298.627c.165 0 .463-.198.825-.198.363 0 1.155.33 1.617.395.066 0 .133.065.066.132-1.32 1.188-2.244.462-2.014 1.452.99-.397 1.815-.628 2.74-1.058.132-.065.33-.297.362-.1.066.33-.528.53-.858.793-3.003 1.354-6.072 1.452-8.977 2.277-.364.594-.826 1.354-1.388 2.244 1.32-.132 4.06-1.254 5.017-1.254.957 0 1.254.33 1.946 1.52-.132.36.033.69.363.856l-.23.727c-2.015.33-6.933 1.122-8.583 1.85-.857.36-1.617 3.992-1.65 4.75 1.023.76 2.575.43 3.532.2l.197.33c.23 0 .527-.2.527-.397.495-.065.66.727 1.122.595 2.146-.595 4.688-1.452 6.337-1.98.1-.033.23-.066.265.033.067.166-.428.396-.692.53zm-1.584-.628c-.396.463-1.254.693-1.882.66-.924.693-2.08 1.155-2.475.528 1.518-.33 3.036-.825 4.257-1.32.134-.065.166.034.1.132zm22.18-5.874c-.23.23-.627.396-.892.362l.495-.527c-.198-.066-.528-.033-.726.165-.2.197-.728.627-1.388 1.154l.594.133c-3.597 3.103-8.02 5.842-11.85 7.524l-.296 1.815c-.627-.33-1.122 0-1.815 0-2.013 0-2.673-2.212-3.4-3.17.134-.362.232-.79.266-1.254l.826-.362c.462-.23.792-.43 1.022-.99.528-1.222.76-2.277 1.155-3.73l-.132-.494c.463-1.485 1.486-2.607 1.552-3.895.033-.925-1.188-1.52-1.154-2.344.032-.857 1.65-1.286 2.508-1.748l.33.23c1.552-1.683 1.65-5.082 3.4-5.082.296 0 1.484 1.947 1.65 2.376.13.528-.166 1.155-.298 1.85 1.122 0 2.343-.33 4.026-.1-.33.626.66.46.858 0 .33.264 1.254.164 1.98.395 3.036.925 3.2 3.467 3.366 4.886-.558.86-1.35 2.114-2.076 2.807z"/>
      <path d="M231.664 18.74l.428.098.265-.298-.43-.098zM187.31 20.125l.2.23.263-.593-.132-.23zM227.802 21.61c.198.133.462.198.692 0l.693-.494-.297-.1-1.088.595zM172.766 18.74l-.132.362h.297l-.032-.33z"/>
    </g>
  </g>

  <g class="logo-animated__word" data-word="everyone">
    <g class="stroke">
      <path d="M105.457 7.443l2.397 6.56-.38 6.56-.25 9.712 7.19-8.452 5.17-7.82 6.182-5.677 6.433-.252-6.813 10.09-1.387 5.55 1.64 4.92 5.676-.125 5.802-2.272-10.722-6.18 9.46-2.27-5.55-4.795 17.534-3.658-8.956 20.56"/>
      <path d="M147.84 13.75l8.704-1.766-11.48 8.073 10.85 9.713 5.928-2.144 3.154 4.288 4.29-12.36 8.324-9.714-14.885-.505-1.514 8.073 12.11 3.28 14.886-8.83 3.784 3.91.505 5.93-5.677 3.153-6.685 1.893-3.406-2.902 5.802-6.558"/>
      <path d="M194.26 31.158l5.046-11.48 4.54-6.81 3.28 4.288.758 12.992 5.55-15.263 7.57-5.802 7.693.252-6.433 8.704-1.766 7.19 3.027 3.657 10.722-2.9-10.217-5.93 8.073-1.64-4.29-5.045 8.83-1.766"/>
    </g>
    <g class="mask">
      <path d="M181.16 28.343c-.133.033-.265.066-.397.198l.99.166c-.132-.198-.363-.363-.594-.363zM165.74 32.337l.263.13.198-.527-.362-.165zM158.755 30.158l-1.485.33c-.462-.132-.792.198-.032.43.627-.1 1.386-.33 1.848-.496v-.032c-.166 0-.232-.165-.33-.232zM120.595 16.263c.33-.033.527-.396.56-.825l-1.088.627c.198.165.396.198.528.198zM180.862 20.455l.76-.924c-.496-.296-1.09.166-1.156.53 0 .197.1.362.396.395zM188.255 25.207l.133.363.66-.396c-.1-.1-.165-.462-.265-.528l-.528.56zM187.067 26.264l.957-.495-.165-.33c-.595.296-.826.46-.793.824zM186.077 26.396c0 .1-.132.33-.066.396.134.1.397 0 .563-.066 0-.23-.166-.33-.496-.33zM153.738 10.982c-.363-.132-.99-.066-1.22.066l1.055.165.165-.23zM128.124 17.352c-.23 0-.66.462-.76.825l.43-.066.33-.758zM125.417 23.194l-.364 1.22.232.298.462-1.55zM141.46 25.34l.166.396.957-1.882-.165-.264zM124.988 26.297l.165-.89-.265-.33c-.132.593-.165 1.022.1 1.22zM129.31 15.867l-.428.1-.56.924.43-.1zM189.51 15.47c-.133.133-.266.2-.364.2-.23 0-.363-.265-.396-.265-1.75 0-4.785 2.013-6.172 4.19-1.584.76-2.673 2.642-3.4 4.92.76-.067 1.75-.133 2.345-.364l5.94-2.474c.66-.264 2.08-.957 2.707-1.75l1.485-1.947-1.85-2.146c-.097-.297-.164-.495-.296-.363zM126.11 22.105c-.43-.033-.562.165-.627.495v.363h.033c.197-.264.462-.528.594-.858zM136.968 12.666c-.033-.165-.495-.198-.693-.132l.1.396.593-.264zM221.642 24.415l.232.297.462-1.55-.33.032zM108.812 20.455l.066-.528h-.363c-.033.264.066.528.297.528zM222.072 22.6v.363h.033c.197-.264.462-.528.594-.858-.43-.033-.563.165-.628.495zM221.577 26.297l.165-.89-.265-.33c-.132.593-.165 1.022.1 1.22zM223.953 18.178l.43-.066.33-.76c-.232 0-.66.462-.76.826zM123.07 14.02c.462-.364.76-.826.857-1.024-.198.1-.297-.1-.33-.033l-.692.693c-.397.198-.265.693.164.363zM224.91 16.89l.43-.1.56-.923-.43.1zM232.864 12.534l.1.396.594-.264c-.034-.165-.496-.198-.694-.132zM108.713 18.97l-.132.594.364.132c0-.297.264-.726-.23-.726zM215.874 15.57c-.264.396-.792 1.09-.462 1.254l.693-1.057c.066-.098-.165-.296-.23-.197zM215.71 12.072l.56-.726-.263-.132c-.165.132-.363.363-.562.693.033.066.132.198.264.165z"/>
      <path d="M0 0v40h278V0H0zm126.073 9.167c.1-.132.264-.23.396-.23.098 0 .196.032.296.197-.165.1-.33.23-.66.594-.066-.1-.198-.1-.33-.1.065-.13.165-.296.297-.46zm-5.017 7.493c-.46 0-.693.66-1.023 1.122-2.574 3.63-7.327 8.086-10.958 12.046l-2.046-.693c-.562-.99-1.52-1.914-1.552-3.268-.066-1.88.528-12.707.66-14.654.033-.76-.693-2.046.066-2.64 2.54 1.022 3.597 3.464 3.73 6.237-.397 1.122.296 1.98.197 2.937l-.362.066c-.165 1.023-.396 2.046-.693 3.003l.528 1.452c3.268-2.97 5.94-6.205 8.582-9.736 1.386.066 1.022-1.22 2.706-1.056l1.288-1.386c.264-.297.76-.23.89.066-.36.495-1.78 2.046-3.1 3.234-.133.132.065.23.33.132 1.253-1.023 3.333-3.2 3.76-3.795.43.033.826-.858 1.42-.363-.362.297-.99.858-.89 1.42.33-.397.824-.925 1.154-.826l.1.033c-.496.562-1.32 1.65-1.85 2.51l.23.065c.596-.726 1.52-1.915 2.51-2.74.198-.13.43-.098.462.067-1.65 1.353-2.806 4.125-4.555 5.248-1.353-.164-.99 1.486-1.584 1.52zm1.52-1.156l-.266.56-.297-.263c.132-.33.364-.428.562-.296zm14.062 10.33l-2.244.826c.198.132.56.363.792.495.1.033.033.1-.066.132-1.65.56-3.696 1.122-5.544 1.584.495.232 1.22.232 1.848.067 1.32-.363 3.136-.99 4.753-1.55.1-.034.33-.133.165.197-.198.33-.462.56-.924.726-2.146.825-4.918 1.815-6.932 1.815-3.86 0-6.6-1.75-6.47-6.568.067-2.442 2.08-5.446 4.49-10.496-.166-.824-.133-1.616.462-2.507 1.65.198 2.607-2.343 3.762-2.343.628 0 2.377.495 2.806.627.033.726-.132 1.485-.594 2.376.56.132 2.146.297 2.87.297l.298.627c.165 0 .463-.198.825-.198.363 0 1.155.33 1.617.395.066 0 .133.066.066.132-1.32 1.188-2.244.462-2.014 1.452.99-.397 1.815-.628 2.74-1.057.132-.066.33-.297.362-.1.066.33-.528.53-.857.793-3.005 1.353-6.074 1.452-8.98 2.277-.362.594-.824 1.353-1.386 2.244 1.32-.132 4.06-1.254 5.017-1.254.96 0 1.256.33 1.948 1.518-.132.364.033.694.363.86l-.23.725c-2.013.33-6.93 1.123-8.58 1.85-.858.362-1.618 3.992-1.65 4.75 1.022.76 2.574.43 3.53.2l.2.33c.23 0 .526-.2.526-.397.495-.066.66.727 1.122.594 2.146-.594 4.688-1.452 6.337-1.98.1-.033.23-.066.265.033.067.167-.428.398-.692.53zm-1.584-.627c-.396.462-1.254.693-1.882.66-.924.693-2.08 1.155-2.475.528 1.518-.33 3.036-.825 4.257-1.32.134-.065.166.034.1.132zm31.543 6.27c-.43-.296-.132-1.154.43-1.352l.032.033-.463 1.32zm2.08-4.388l.296-.53.33.298c-.098.198-.297.363-.627.23zm3.696-6.437l-.462-.43c-.032 1.32-.99 2.18-1.484 2.94-.23.362-.165.824-.23 1.22l-.33-.23c.032-.232.032-.43-.133-.562-.362.628-.56.892.033 1.52l-.23.23-.463-.428c-.33.264-.89.66-.264 1.452-.265.396-.53.89-.793 1.42-.297.13-.562.33-.792.56l.264.66-.133.23-.396-.527c-.526.726-.89 1.75-1.055 2.74l.627.297c-.132.528-.198 1.056-.23 1.485-.265.13-.693.197-1.023.197-1.09 0-1.915-.396-2.443-.858-.033-.33-.23-.463-.462-.463-.265-.33-.363-.594-.33-.693.137-.72.383-1.46.693-2.227-1.805 1.383-4.443 2.623-6.588 2.623-1.254-.43-2.673-1.023-3.53-1.88-1.618-1.585-6.04-7.89-8.022-8.912-.857 1.188-2.21 3.83-2.673 5.116-.198.43.43 1.287.264 1.914-.2.726-1.09 1.254-1.816 1.98-.627 0-1.485-.528-1.75-1.22l-.494-1.354c.792-.528-.297-.23-.297-.858 0-1.716 5.413-13.598 8.647-18.45 2.706 0 1.815 2.31 2.31 3.333 1.023-.43 2.344-.958 3.5-.958.726 0 1.286.066 1.88.23l-.23.53c.462.13.99.13.99-.298l.627.264c-.033.165-.165.363-.264.462.264.198.56.198.627-.165.66.627.924 1.09.924 1.85 0 .395-.165.923-.43 1.154-.89.79-1.814 1.715-3.036 2.77l-.362-.362c-1.42.89-.892 1.32-2.575 2.31-.494-.693-1.45-.132-2.44.792 3.135 2.87 6.6 7.558 9.802 7.558 1.552 0 3.2-.462 3.928-.66.363.1.89.495 1.155.825-.627.165-1.222.33-1.85.56l.067.067c.43 0 1.09.066.89.198-.33.264-1.583.958-2.804 1.386-.265.1.132.264.297.23 1.353-.46 2.673-1.418 3.696-2.11.005.003.01.01.014.013.866-1.905 2.003-3.987 2.846-6.35l-.23-.2c-1.023 0-1.85-.197-2.74-.626-.132.2-.33.265-.594 0l-2.18-2.145h-.395c-2.013-2.937-.527-6.37 1.288-9.406l.462.197c.066-.165.132-.297.198-.363.1-.1.198-.165.297-.165.198 0 1.85.692 2.674 1.055l.526.924c-.297 1.88-1.484 2.804-1.683 4.718l-.495.396c-.23 1.386-.1 2.21.693 3.234 2.212.198 3.928-.825 4.918-2.21l3.5-4.918.263.43 1.32-1.915c.232-.33.53-.33.826-.1.858-.692 1.584-.758 2.18-.46-.034.395.13.56.69.626.364.496.628 1.19.76 1.948-.33.825-.857 1.617-1.55 2.41-1.288-.2-1.42.395-1.85 1.287l.463.23c-1.29 1.354-2.58 2.674-3.007 3.928zm-22.33-1.155l-.893.43-.198-.298c.363-.264.925-.462 1.09-.132zm26.456-3.994c-.2.23-.43.495-.66.726l-.2-.396c.165-.165.462-.528.86-.33zm16.442 7.79l-.23-.43c-.265.066-.463.198-.265.56-.363 0-.957.298-.957.66 0 .496-.562.33-.958.43-.362.363-.66.792-1.056 1.32l-.363-.33c-.858.528-.396.89-1.287 1.32-.528.264-1.155.23-1.75.363-.098.1.298.23.265.363l-.593.198-.924-.56c-.528.33-.133 1.088-.793 1.32-.792.263-1.42.494-2.343.79-.562-.56-1.222-.362-1.684 0-1.155-.725-2.574-1.814-3.433-2.54-.792-.628-1.056-2.245-1.056-3.83 0-8.02 10-13.202 12.476-13.202.957 0 1.42.594 2.442 1.386 0 1.518 1.617 2.74 2.97 3.664 1.288.858 1.717 2.508 1.717 4.29 0 1.09-.562 2.575-1.75 3.532.166.332-.066.695-.428.695zm20.324-.067l-.297-.198c.032-.463.065-1.09.46-.925l-.164 1.122zm2.542-6.073c-.198.264-.33-.132-.528 0-.066 1.188-.76 1.815-1.55 3.07-.166.297-.1.726-.3 1.188 0 .198-.494.396-.593.693-.825 2.542-1.947 5.182-3.003 7.888l-1.485-.693-.2.462c-2.11-.56-2.31-1.386-2.606-3.597-.1-.858.165-2.344-.066-3.07-.792-2.31-.032-3.3-.23-4.983l-.165-1.287c-1.023.33-2.18 1.32-3.037 2.87l.1.53c-1.65 3.1-3.136 7.392-4.62 9.372h-.925c-.956 0-1.484-2.21-1.88-2.41l-.198-1.45c-.165-1.024.132-1.387.363-2.014 2.343-5.677 6.105-9.11 8.713-11.783.99.363 3.696 2.046 4.158 3.267.396.99.792 3.07 1.122 4.423 2.245-3.895 5.545-8.746 6.27-9.01l.694-.1c-2.047 2.014-3.5 4.39-4.29 5.546-.298.495-.43.693-.364.726l.198.132c.957-1.485 3.168-4.62 5.115-6.502.364-.23 1.024-.396 1.718-.43 1.188-.032 2.112.133 2.673.53l-.658.46.065.133c.23 0 .858-.198 1.057-.33l.924.99c-1.717.792-4.787 3.07-6.47 5.38zm19.63-3.597c-3.003 1.353-6.072 1.452-8.977 2.277-.362.594-.824 1.353-1.386 2.244 1.32-.132 4.06-1.254 5.017-1.254.96 0 1.256.33 1.948 1.518-.132.363.033.693.363.858l-.23.726c-2.013.33-6.93 1.123-8.58 1.85-.858.362-1.618 3.992-1.65 4.75 1.022.76 2.574.43 3.53.2l.2.33c.23 0 .526-.2.526-.397.495-.067.66.726 1.122.593 2.146-.594 4.688-1.452 6.337-1.98.1-.033.23-.066.265.033.065.165-.43.396-.693.528l-2.244.825c.198.13.56.362.792.494.1.033.033.1-.066.132-1.65.56-3.697 1.122-5.545 1.584.495.23 1.22.23 1.848.066 1.32-.363 3.136-.99 4.753-1.55.1-.034.33-.133.165.197-.197.33-.46.56-.923.726-2.146.824-4.918 1.814-6.932 1.814-3.86 0-6.6-1.75-6.47-6.568.067-2.442 2.08-5.446 4.49-10.496-.166-.825-.133-1.617.462-2.508 1.65.198 2.607-2.343 3.762-2.343.627 0 2.376.494 2.805.626.033.726-.132 1.485-.594 2.376.562.132 2.147.297 2.872.297l.297.626c.164 0 .462-.198.824-.198.363 0 1.155.33 1.617.396.067 0 .134.066.067.132-1.32 1.188-2.244.462-2.014 1.452.99-.396 1.815-.627 2.74-1.056.132-.066.33-.297.362-.1.068.333-.527.53-.857.795zm-3.795 11.65c-.396.462-1.254.693-1.882.66-.923.693-2.078 1.155-2.474.528 1.518-.33 3.036-.825 4.257-1.32.133-.065.166.034.1.132z"/>
      <path d="M202.705 13.49c.396.33.76-.33.99-.56l-.264-.2-.725.76zM216.732 14.415l-.66.858c.198-.033.265.033.297.165l.594-.858c.065-.066-.067-.363-.232-.165zM118.548 18.375l.198.396c.562-.593.528-.99.297-1.122l-.495.727zM219.306 11.973c.33-.23.627-.264.562-.76l-.627.463.066.297z"/>
    </g>
  </g>

  <g class="logo-animated__logo">
    <path fill="#F97F8B" d="M11.56 6.523H0v4.918h.897c.82.002 1.357.525 1.357 1.33v8.007c0 2.23.002 4.46 0 6.69-.002.727-.575 1.292-1.303 1.295H.008V33.5h14.48v-4.752H11.56V6.523zM26.47 11.442h.898c.82 0 1.357.524 1.357 1.327v7.943c0 2.25.002 4.503 0 6.754-.002.727-.575 1.293-1.303 1.295h-.944v4.73H38.02V6.522H26.47v4.92zM71.373 28.75c-.266-.036-.55-.143-.765-.3-.36-.263-.503-.64-.503-1.097.01-6.806.007-13.612.007-20.42v-.422h-9.305V27.29c0 .107.005.215-.002.32-.04.583-.657 1.148-1.257 1.153-.383.004-.766.002-1.163.002v4.725h14.138v-4.725c-.402 0-.782.038-1.15-.012z" />
    <path fill="#F97F8B" d="M23.485 9.333c-1.007-1.036-2.272-1.647-3.65-2.062-1.883-.567-3.827-.733-5.788-.767-.416-.007-1.232 0-1.653 0v5.256c.317.025 1.013.043 1.308.076 1.133.127 1.925.683 2.32 1.74.407 1.083.433 2.187.124 3.284-.332 1.176-1.07 1.982-2.384 2.157-.316.042-.636.055-.966.082v4.697c.806 0 1.59.04 2.37-.007 2.163-.128 4.275-.486 6.232-1.452 1.912-.944 3.19-2.395 3.747-4.42.434-1.58.45-3.177.18-4.78-.24-1.432-.796-2.73-1.84-3.805zM45.142 24.248c-.198 0-.23.09-.257.248-.21 1.17-.442 2.337-.642 3.508-.045.263-.127.354-.413.35-1.392-.015-2.784-.007-4.177-.007h-.39v5.142h11.27v-9.21c-.06-.013-.09-.026-.12-.026-1.757 0-3.514 0-5.27-.006zM44.093 12.15c.22.938.447 1.875.65 2.818.047.225.13.292.365.29 1.602-.01 3.205-.004 4.807-.005.084 0 .168-.015.253-.023V6.523h-10.91v5.305h4.747c.032.12.064.22.088.32zM71.326 11.67h1.177l.64 4.97h5.67V6.517h-7.487v5.153zM59.304 11.662V6.51H52.1v10.116h5.518l.6-4.963h1.086zM39.273 22.446h5.158V17.01h-5.157v5.436zM80.638 11.45h.87c.794 0 1.313.523 1.314 1.326v7.937c0 2.25.002 4.5 0 6.748-.002.728-.557 1.292-1.262 1.295h-.914v4.726h11.182V6.537h-11.19v4.914zM98.725 24.244c-.192 0-.222.09-.25.248-.204 1.17-.427 2.335-.62 3.505-.045.262-.124.353-.4.35-1.35-.015-2.698-.007-4.047-.007h-.377v5.137h10.918v-9.2c-.057-.013-.087-.026-.117-.026-1.7 0-3.403 0-5.105-.006zM97.708 12.156c.212.938.433 1.875.63 2.816.046.225.127.292.354.29 1.552-.01 3.104-.005 4.657-.006.08 0 .162-.015.244-.023v-8.7h-10.57v5.3h4.6c.03.12.06.22.084.323zM93.04 22.443h4.996v-5.43H93.04v5.43z" />
  </g>

  <g class="logo-animated__frames">
    <path class="logo-animated__frame" data-word="empowered" d="M77.993 3.592c.387 2.57.808 5.137 1.22 7.704.008-.074.018-.148.027-.22.77 4.645 1.31 9.175 1.28 13.87-.02 2.764-1.487 8.477-.287 10.83h.002c0 .002.19.402.24.61 7.483-.59 15.37.108 22.883.065 1.394.192 3.837.662 5.16.29-.012.005-.028.01-.056.016 1.793.67 5.654-.112 7.684-.093 2.647.026 5.3.006 7.944.182 5.157.342 10.245.57 15.43.27 16.758-.97 34.14-.256 51.037.013 27.39.436 53.582-.088 81.006.084l-.078-4.096c-.03-1.11.026 1.365 0 0-.256-9.347 1.173-19.266.47-28.198l.072-.035c-.01-.236-12.216-.802-13.586-.802-.11.023-.225.047.028.055-8.66 1.21-18.23.35-26.93.02-10.008-.38-20.08-.72-30.028-.538-19.665.36-39.26-.048-58.93-.095-3.527-.008-36.318.247-36.28.073.047-.224-2.03-.01-3.39.004-2.696.03-5.39.02-8.085.008-5.61-.025-11.222.058-16.832-.016" />
    <path class="logo-animated__frame" data-word="embraced" d="M77.993 3.592c.387 2.57.808 5.137 1.22 7.704.008-.074.018-.148.027-.22.77 4.645 1.31 9.175 1.28 13.87-.02 2.764-1.487 8.477-.287 10.83h.002c0 .002.19.402.24.61 7.483-.59 15.37.108 22.883.065 1.394.192 3.837.662 5.16.29-.012.005-.028.01-.056.016 1.793.67 5.654-.112 7.684-.093 2.647.026 5.3.006 7.944.182 5.157.342 10.245.57 15.43.27 16.758-.97 2.14-.256 19.037.013 27.39.436 61.182-.088 88.606.084l-.078-4.096c-.03-1.11.026 1.365 0 0-.256-9.347 1.973-19.266 1.27-28.198l.072-.035c-.01-.236-12.216-.802-13.586-.802-.11.023-.225.047.028.055-8.66 1.21-26.63.35-35.33.02-10.008-.38-20.08-.72-30.028-.538-19.665.36-7.26-.048-26.93-.095-3.527-.008-36.318.247-36.28.073.047-.224-2.03-.01-3.39.004-2.696.03-5.39.02-8.085.008-5.232-.023-11.265.048-16.497-.003" />
    <path class="logo-animated__frame" data-word="educated" d="M77.993 3.592c.387 2.57.808 5.137 1.22 7.704.008-.074.018-.148.027-.22.77 4.645 1.31 9.175 1.28 13.87-.02 2.764-1.487 8.477-.287 10.83h.002c0 .002.19.402.24.61 7.483-.59 15.37.108 22.883.065 1.394.192 3.837.662 5.16.29-.012.005-.028.01-.056.016 1.793.67 5.654-.112 7.684-.093 2.647.026 5.3.006 7.944.182 5.157.342 10.245.57 15.43.27 16.758-.97 2.14-.256 19.037.013 27.39.436 52.782-.088 80.206.084l-.078-4.096c-.03-1.11.026 1.365 0 0-.256-9.347 1.973-19.266 1.27-28.198l.072-.035c-.01-.236-12.216-.802-13.586-.802-.11.023-.225.047.028.055-8.66 1.21-18.23.35-26.93.02-10.008-.38-20.08-.72-30.028-.538-19.665.36-7.26-.048-26.93-.095-3.527-.008-36.318.247-36.28.073.047-.224-2.03-.01-3.39.004-2.696.03-5.39.02-8.085.008-5.467-.024-10.933.054-16.4-.01" />
    <path class="logo-animated__frame" data-word="everyone" d="M77.993 3.592c.387 2.57.808 5.137 1.22 7.704.008-.074.018-.148.027-.22.77 4.645 1.31 9.175 1.28 13.87-.02 2.764-1.487 8.477-.287 10.83h.002c0 .002.19.402.24.61 7.483-.59 15.37.108 22.883.065 1.394.192 3.837.662 5.16.29-.012.005-.028.01-.056.016 1.793.67 5.654-.112 7.684-.093 2.647.026 5.3.006 7.944.182 5.157.342 10.245.57 15.43.27 16.758-.97 34.14-.256 51.037.013 27.39.436 22.782-.088 50.206.084-.026-1.365.348-2.73.322-4.096-.03-1.11.026 1.365 0 0-.256-9.347.773-19.266.07-28.198l.072-.035c-.01-.236-11.416-.802-12.786-.802-.11.023-.225.047.028.055-8.66 1.21-18.23.35-26.93.02-10.008-.38-20.08-.72-30.028-.538-19.665.36-9.26-.048-28.93-.095-3.527-.008-36.318.247-36.28.073.047-.224-2.03-.01-3.39.004-2.696.03-5.39.02-8.085.008-5.547-.025-11.095.057-16.643-.013" />
  </g>
</svg>
