<?xml version="1.0" encoding="utf-8"?>
<!-- Generator: Adobe Illustrator 19.1.0, SVG Export Plug-In . SVG Version: 6.00 Build 0)  -->
<svg version="1.1" id="Layer_1" xmlns="http://www.w3.org/2000/svg" xmlns:xlink="http://www.w3.org/1999/xlink" x="0px" y="0px"
	 viewBox="-302 394 6.6 6" enable-background="new -302 394 6.6 6" xml:space="preserve">
<path fill="#A19B97" d="M-300.1,397.2c-0.2-0.1-0.3-0.2-0.3-0.3c0-0.3,0.3-0.8,0.8-1.6c0.2-0.3,0.3-0.6,0.3-0.8
	c0-0.4-0.2-0.6-0.5-0.6c-0.2,0-0.4,0.2-0.7,0.5c-1,1.2-1.5,2.4-1.5,3.6c0,0.6,0.2,1,0.5,1.4c0.3,0.4,0.7,0.6,1.2,0.6
	c0.4,0,0.7-0.1,0.9-0.4c0.3-0.3,0.4-0.6,0.4-1C-299,397.9-299.4,397.4-300.1,397.2 M-296.5,397.2c-0.2-0.1-0.3-0.2-0.3-0.3
	c0-0.2,0.3-0.8,0.8-1.6c0.2-0.3,0.3-0.6,0.3-0.8c0-0.4-0.2-0.6-0.5-0.6c-0.2,0-0.4,0.2-0.7,0.5c-1,1.3-1.5,2.4-1.5,3.6
	c0,0.6,0.2,1,0.5,1.4c0.3,0.4,0.7,0.6,1.2,0.6c0.4,0,0.7-0.1,0.9-0.4c0.3-0.3,0.4-0.6,0.4-1C-295.5,397.9-295.8,397.4-296.5,397.2"
	/>
</svg>
