<?xml version="1.0" encoding="utf-8"?>
<!-- Generator: Adobe Illustrator 19.1.0, SVG Export Plug-In . SVG Version: 6.00 Build 0)  -->
<svg version="1.1" id="Layer_1" xmlns="http://www.w3.org/2000/svg" xmlns:xlink="http://www.w3.org/1999/xlink" x="0px" y="0px"
	 viewBox="-589 774 23 23" style="enable-background:new -589 774 23 23;" xml:space="preserve">
<style type="text/css">
	.st0{opacity:0.08;fill:#79706B;}
	.st1{fill:#79706B;}
</style>
<g>
	<g>
		<g>
			<g>
				<g>
					<g class="st0">
						<g>
							<path class="st1" d="M-577.5,797c6.4,0,11.5-5.2,11.5-11.5s-5.1-11.5-11.5-11.5s-11.5,5.2-11.5,11.5S-583.9,797-577.5,797"/>
						</g>
					</g>
					<g>
						<path class="st1" d="M-582.9,786.9c0.7,0,1.4-0.6,1.4-1.4s-0.6-1.4-1.4-1.4c-0.8,0-1.4,0.6-1.4,1.4S-583.7,786.9-582.9,786.9"
							/>
						<path class="st1" d="M-572.1,786.9c0.7,0,1.4-0.6,1.4-1.4s-0.6-1.4-1.4-1.4c-0.8,0-1.4,0.6-1.4,1.4S-572.8,786.9-572.1,786.9"
							/>
						<path class="st1" d="M-577.5,786.9c0.7,0,1.4-0.6,1.4-1.4s-0.6-1.4-1.4-1.4s-1.4,0.6-1.4,1.4S-578.2,786.9-577.5,786.9"/>
					</g>
				</g>
			</g>
		</g>
	</g>
</g>
</svg>
