<svg xmlns="http://www.w3.org/2000/svg" width="6.55" height="6" viewBox="0 0 6.55 6">
  <path d="M1.93 3.24c-.216-.057-.325-.156-.325-.296 0-.254.268-.775.804-1.564.206-.3.308-.563.308-.79 0-.393-.174-.59-.52-.59C2 0 1.774.154 1.52.465.508 1.713 0 2.895 0 4.015c0 .563.157 1.034.47 1.415.317.38.703.57 1.164.57.376 0 .69-.136.944-.408.253-.273.38-.606.38-1 0-.723-.343-1.174-1.03-1.353m3.594 0c-.207-.057-.31-.156-.31-.297 0-.235.268-.756.804-1.564.197-.3.296-.564.296-.79C6.31.197 6.136 0 5.79 0c-.198 0-.424.154-.677.465-1.014 1.258-1.52 2.442-1.52 3.55 0 .563.156 1.035.47 1.415.315.38.702.57 1.163.57.376 0 .69-.136.944-.408.253-.273.38-.606.38-1 0-.714-.343-1.165-1.028-1.353" fill="#A19B97"/>
</svg>
