<?xml version="1.0" encoding="utf-8"?>
<!-- Generator: Adobe Illustrator 19.1.0, SVG Export Plug-In . SVG Version: 6.00 Build 0)  -->
<svg version="1.1" id="Layer_1" xmlns="http://www.w3.org/2000/svg" xmlns:xlink="http://www.w3.org/1999/xlink" x="0px" y="0px"
	 viewBox="-590 774 20 20" enable-background="new -590 774 20 20" xml:space="preserve">
<path fill="#FFFFFF" d="M-575.1,784.8h-9.8c-0.4,0-0.8-0.3-0.8-0.8s0.3-0.8,0.8-0.8h9.8c0.4,0,0.8,0.3,0.8,0.8
	S-574.7,784.8-575.1,784.8z"/>
<path fill="#FFFFFF" d="M-582,788.2l-3.5-3.7c-0.3-0.3-0.3-0.7,0-1l3.5-3.7l1.1,1l-3,3.2l3,3.2L-582,788.2z"/>
<path fill="#FFFFFF" d="M-580,794c-5.5,0-10-4.5-10-10s4.5-10,10-10s10,4.5,10,10S-574.5,794-580,794z M-580,775.5
	c-4.7,0-8.5,3.8-8.5,8.5s3.8,8.5,8.5,8.5s8.5-3.8,8.5-8.5S-575.3,775.5-580,775.5z"/>
</svg>
