<svg xmlns="http://www.w3.org/2000/svg" width="6.626" height="6.07" viewBox="0 0 6.626 6.07">
  <path d="M1.952 3.277c-.218-.057-.328-.157-.328-.3 0-.256.27-.783.813-1.58.21-.305.313-.57.313-.8C2.75.2 2.574 0 2.223 0c-.2 0-.427.156-.684.47C.512 1.733 0 2.93 0 4.06c0 .57.16 1.048.477 1.433.32.385.71.577 1.176.577.38 0 .698-.138.955-.413.256-.276.384-.613.384-1.012 0-.73-.346-1.187-1.04-1.368m3.634 0c-.21-.057-.314-.157-.314-.3 0-.237.27-.764.813-1.58.2-.305.3-.57.3-.8C6.384.2 6.207 0 5.856 0c-.2 0-.428.156-.684.47-1.026 1.273-1.54 2.47-1.54 3.59 0 .57.16 1.048.478 1.433.32.385.71.577 1.177.577.38 0 .698-.138.955-.413.256-.276.384-.613.384-1.012 0-.722-.347-1.178-1.04-1.368" fill="#A19B97"/>
</svg>
