<?xml version="1.0" encoding="utf-8"?>
<!-- Generator: Adobe Illustrator 19.1.0, SVG Export Plug-In . SVG Version: 6.00 Build 0)  -->
<svg version="1.1" id="Layer_1" xmlns="http://www.w3.org/2000/svg" xmlns:xlink="http://www.w3.org/1999/xlink" x="0px" y="0px"
	 viewBox="-295 389 23 23" style="enable-background:new -295 389 23 23;" xml:space="preserve">
<style type="text/css">
	.st0{clip-path:url(#SVGID_2_);}
	.st1{opacity:8.000180e-02;clip-path:url(#SVGID_4_);}
	.st2{clip-path:url(#SVGID_6_);fill:#79706B;}
	.st3{clip-path:url(#SVGID_4_);fill:#79706B;}
</style>
<g>
	<defs>
		<rect id="SVGID_1_" x="-295" y="389" width="23" height="23"/>
	</defs>
	<clipPath id="SVGID_2_">
		<use xlink:href="#SVGID_1_"  style="overflow:visible;"/>
	</clipPath>
	<g class="st0">
		<defs>
			<rect id="SVGID_3_" x="-295" y="389" width="23" height="23"/>
		</defs>
		<clipPath id="SVGID_4_">
			<use xlink:href="#SVGID_3_"  style="overflow:visible;"/>
		</clipPath>
		<g class="st1">
			<g>
				<defs>
					<rect id="SVGID_5_" x="-304" y="382" width="41" height="31"/>
				</defs>
				<clipPath id="SVGID_6_">
					<use xlink:href="#SVGID_5_"  style="overflow:visible;"/>
				</clipPath>
				<path class="st2" d="M-283.5,412c6.4,0,11.5-5.2,11.5-11.5s-5.1-11.5-11.5-11.5s-11.5,5.2-11.5,11.5S-289.9,412-283.5,412"/>
			</g>
		</g>
		<path class="st3" d="M-288.9,401.9c0.7,0,1.4-0.6,1.4-1.4s-0.6-1.4-1.4-1.4s-1.4,0.6-1.4,1.4S-289.7,401.9-288.9,401.9"/>
		<path class="st3" d="M-278.1,401.9c0.7,0,1.4-0.6,1.4-1.4s-0.6-1.4-1.4-1.4s-1.4,0.6-1.4,1.4S-278.8,401.9-278.1,401.9"/>
		<path class="st3" d="M-283.5,401.9c0.7,0,1.4-0.6,1.4-1.4s-0.6-1.4-1.4-1.4s-1.4,0.6-1.4,1.4S-284.2,401.9-283.5,401.9"/>
	</g>
</g>
</svg>
