<?xml version="1.0" encoding="utf-8"?>
<!-- Generator: Adobe Illustrator 19.1.0, SVG Export Plug-In . SVG Version: 6.00 Build 0)  -->
<svg version="1.1" id="Layer_1" xmlns="http://www.w3.org/2000/svg" xmlns:xlink="http://www.w3.org/1999/xlink" x="0px" y="0px"
	 viewBox="-589.9 784.2 9 8.9" style="enable-background:new -589.9 784.2 9 8.9;" xml:space="preserve">
<style type="text/css">
	.st0{fill:#79706B;}
</style>
<g>
	<g>
		<path class="st0" d="M-589.2,793.1c-0.2,0-0.4-0.1-0.5-0.2c-0.3-0.3-0.3-0.8,0-1.1l7.4-7.4c0.3-0.3,0.8-0.3,1.1,0s0.3,0.8,0,1.1
			l-7.4,7.4C-588.9,793-589.1,793.1-589.2,793.1z"/>
	</g>
	<g>
		<path class="st0" d="M-581.8,793.1c-0.2,0-0.4-0.1-0.5-0.2l-7.4-7.4c-0.3-0.3-0.3-0.8,0-1.1c0.3-0.3,0.8-0.3,1.1,0l7.4,7.4
			c0.3,0.3,0.3,0.8,0,1.1C-581.4,793-581.6,793.1-581.8,793.1z"/>
	</g>
</g>
</svg>
