<?xml version="1.0" encoding="utf-8"?>
<!-- Generator: Adobe Illustrator 19.1.0, SVG Export Plug-In . SVG Version: 6.00 Build 0)  -->
<svg version="1.1" id="Layer_1" xmlns="http://www.w3.org/2000/svg" xmlns:xlink="http://www.w3.org/1999/xlink" x="0px" y="0px"
	 viewBox="-298 390 14 14" style="enable-background:new -298 390 14 14;" xml:space="preserve">
<style type="text/css">
	.svg-pin__grey-warm{fill:#79706B;}
</style>
<path class="svg-pin__grey-warm" d="M-284.3,393.6c-1.1-1.3-2.4-2.6-3.8-3.6h-0.1l-0.7,0.7c-0.1,0.1-0.2,0.3-0.2,0.5c0,1.5-3.4,4.3-6,4
	c-0.1,0-0.3,0-0.3,0.1c-0.5,0.5-0.5,1.3-0.1,1.8c0.5,0.6,1,1.2,1.6,1.7l-2.3,2.4c0,0-1.9,2.6-1.8,2.7s2.7-1.8,2.7-1.8l2.5-2.3
	c0.6,0.6,1.4,1.3,2,1.8c0.5,0.4,1.2,0.4,1.6,0l0,0c0.2,0,0.2-0.2,0.2-0.3c-0.3-2.6,2.6-5.9,4.2-5.8c0.1,0,0.3,0,0.4-0.1l0,0
	C-283.9,394.9-283.9,394.1-284.3,393.6z"/>
</svg>
