<?xml version="1.0" encoding="utf-8"?>
<!-- Generator: Adobe Illustrator 19.1.0, SVG Export Plug-In . SVG Version: 6.00 Build 0)  -->
<svg version="1.1" id="Layer_1" xmlns="http://www.w3.org/2000/svg" xmlns:xlink="http://www.w3.org/1999/xlink" x="0px" y="0px"
	 viewBox="-270 390 11 11" style="enable-background:new -270 390 11 11;" xml:space="preserve">
<style type="text/css">
	.st0{clip-path:url(#SVGID_2_);fill:#464646;}
</style>
<g>
	<defs>
		<rect id="SVGID_1_" x="-270" y="390" width="11" height="11"/>
	</defs>
	<clipPath id="SVGID_2_">
		<use xlink:href="#SVGID_1_"  style="overflow:visible;"/>
	</clipPath>
	<path class="st0" d="M-264.5,401c-3,0-5.5-2.5-5.5-5.5c0-3,2.5-5.5,5.5-5.5c3,0,5.5,2.5,5.5,5.5C-259,398.5-261.5,401-264.5,401z
		 M-264.5,391.5c-2.2,0-4,1.8-4,4c0,2.2,1.8,4,4,4c2.2,0,4-1.8,4-4C-260.5,393.3-262.3,391.5-264.5,391.5z"/>
	
		<rect x="-265.3" y="391" transform="matrix(0.7074 0.7068 -0.7068 0.7074 202.1481 302.6546)" class="st0" width="1.5" height="9.1"/>
</g>
</svg>
