<?xml version="1.0" encoding="utf-8"?>
<!-- Generator: Adobe Illustrator 19.1.0, SVG Export Plug-In . SVG Version: 6.00 Build 0)  -->
<svg version="1.1" id="Layer_1" xmlns="http://www.w3.org/2000/svg" xmlns:xlink="http://www.w3.org/1999/xlink" x="0px" y="0px"
	 viewBox="-868 1175.5 14 14" enable-background="new -868 1175.5 14 14" xml:space="preserve">
<g>
	<path fill="#464646" d="M-860.6,1186.3c-0.1,0-0.2,0-0.4,0c-2.9,0-5.3-1.8-5.5-4c0.2-2.2,2.6-4,5.5-4c1.3,0,2.5,0.4,3.4,1l0.6-1.4
		c-1.1-0.7-2.5-1.1-4-1.1c-3.7,0-6.8,2.4-7,5.4l0,0.1l0,0.1c0.2,3,3.2,5.3,6.7,5.4L-860.6,1186.3z"/>
	<path fill="#464646" d="M-854,1182.3c-0.1-1.3-0.7-2.5-1.7-3.5l-0.7,1.5c0.5,0.6,0.8,1.3,0.9,2c-0.2,1.7-1.5,3-3.4,3.6l-0.8,1.7
		c3-0.5,5.4-2.7,5.6-5.3V1182.3L-854,1182.3z"/>
</g>
<rect x="-860.2" y="1175.1" transform="matrix(0.9172 0.3984 -0.3984 0.9172 399.8893 440.3556)" fill="#464646" width="1.3" height="14.5"/>
<path fill="#464646" d="M-859.5,1183.8l2.5-5.8c-2.3-1.5-5.7-1.5-8,0l-0.2,0.2l-0.1,0.3c-0.1,0.4-0.2,0.8-0.2,1.1
	c0,2.5,2,4.5,4.5,4.5C-860.5,1184.1-860,1184-859.5,1183.8z M-864,1179.6c0-0.1,0-0.3,0-0.5c1.7-1,4.2-1,5.9,0c0,0.2,0,0.3,0,0.5
	c0,1.7-1.3,3-3,3S-864,1181.2-864,1179.6z"/>
</svg>
