<?xml version="1.0" encoding="utf-8"?>
<!-- Generator: Adobe Illustrator 19.1.0, SVG Export Plug-In . SVG Version: 6.00 Build 0)  -->
<svg version="1.1" id="Layer_1" xmlns="http://www.w3.org/2000/svg" xmlns:xlink="http://www.w3.org/1999/xlink" x="0px" y="0px"
	 viewBox="-296 390 18 13" enable-background="new -296 390 18 13" xml:space="preserve">
<path fill="#79706B" d="M-283.8,400.1c-0.9,0.8-2,1.2-3.2,1.2c-2.6,0-4.8-2.2-4.8-4.8v-0.2h2.2l-3.2-3.2l-3.2,3.2h2.5v0.2
	c0,3.6,2.9,6.5,6.5,6.5c1.7,0,3.2-0.7,4.4-1.7L-283.8,400.1z M-290.2,392.9c0.9-0.8,2-1.2,3.2-1.2c2.6,0,4.8,2.2,4.8,4.8v0.2h-2.2
	l3.2,3.2l3.2-3.2h-2.5v-0.2c0-3.6-2.9-6.5-6.5-6.5c-1.7,0-3.2,0.7-4.4,1.7L-290.2,392.9z"/>
</svg>
