<?xml version="1.0" encoding="utf-8"?>
<!-- Generator: Adobe Illustrator 19.1.0, SVG Export Plug-In . SVG Version: 6.00 Build 0)  -->
<svg version="1.1" id="Layer_1" xmlns="http://www.w3.org/2000/svg" xmlns:xlink="http://www.w3.org/1999/xlink" x="0px" y="0px"
	 viewBox="0 0 10 13.5" style="enable-background:new 0 0 10 13.5;" xml:space="preserve">
<style type="text/css">
	.st0{fill:#79706B;}
</style>
<g>
	<path class="st0" d="M9.3,13.5H0.7c-0.4,0-0.7-0.3-0.7-0.7V6.7C0,6.3,0.3,6,0.7,6h8.7C9.7,6,10,6.3,10,6.7v6.2
		C10,13.2,9.7,13.5,9.3,13.5z"/>
</g>
<g>
	<path class="st0" d="M8.8,9.2H7.2V3.8c0-1.2-1-2.2-2.2-2.2s-2.2,1-2.2,2.2v5.5H1.2V3.8C1.2,1.7,2.9,0,5,0s3.8,1.7,3.8,3.8V9.2z"/>
</g>
</svg>
