<?xml version="1.0" encoding="utf-8"?>
<!-- Generator: Adobe Illustrator 19.2.1, SVG Export Plug-In . SVG Version: 6.00 Build 0)  -->
<svg version="1.1" id="Layer_1" xmlns="http://www.w3.org/2000/svg" xmlns:xlink="http://www.w3.org/1999/xlink" x="0px" y="0px"
	 width="18px" height="13px" viewBox="0 0 18 13" style="enable-background:new 0 0 18 13;" xml:space="preserve">
<style type="text/css">
	.st0{fill:#79706B;}
</style>
<path class="st0" d="M12.2,10.1c-0.9,0.8-2,1.2-3.2,1.2c-2.6,0-4.8-2.2-4.8-4.8V6.3h2.2L3.2,3.1L0,6.3h2.5v0.2C2.5,10.1,5.4,13,9,13
	c1.7,0,3.2-0.7,4.4-1.7L12.2,10.1z M5.8,2.9c0.9-0.8,2-1.2,3.2-1.2c2.6,0,4.8,2.2,4.8,4.8v0.2h-2.2l3.2,3.2L18,6.7h-2.5V6.5
	C15.5,2.9,12.6,0,9,0C7.3,0,5.8,0.7,4.6,1.7L5.8,2.9z"/>
</svg>
