<?xml version="1.0" encoding="utf-8"?>
<!-- Generator: Adobe Illustrator 19.1.0, SVG Export Plug-In . SVG Version: 6.00 Build 0)  -->
<svg version="1.1" id="Layer_1" xmlns="http://www.w3.org/2000/svg" xmlns:xlink="http://www.w3.org/1999/xlink" x="0px" y="0px"
	 viewBox="-295 387 20 20" style="enable-background:new -295 387 20 20;" xml:space="preserve">
<style type="text/css">
	.st0{fill:#FFFFFF;}
</style>
<path class="st0" d="M-280.1,397.8h-9.8c-0.4,0-0.8-0.3-0.8-0.8s0.3-0.8,0.8-0.8h9.8c0.4,0,0.8,0.3,0.8,0.8
	S-279.7,397.8-280.1,397.8z"/>
<path class="st0" d="M-287,401.2l-3.5-3.7c-0.3-0.3-0.3-0.7,0-1l3.5-3.7l1.1,1l-3,3.2l3,3.2L-287,401.2z"/>
<path class="st0" d="M-285,407c-5.5,0-10-4.5-10-10s4.5-10,10-10s10,4.5,10,10S-279.5,407-285,407z M-285,388.5
	c-4.7,0-8.5,3.8-8.5,8.5c0,4.7,3.8,8.5,8.5,8.5c4.7,0,8.5-3.8,8.5-8.5C-276.5,392.3-280.3,388.5-285,388.5z"/>
</svg>
