<?xml version="1.0" encoding="utf-8"?>
<!-- Generator: Adobe Illustrator 19.1.0, SVG Export Plug-In . SVG Version: 6.00 Build 0)  -->
<svg version="1.1" id="Layer_1" xmlns="http://www.w3.org/2000/svg" xmlns:xlink="http://www.w3.org/1999/xlink" x="0px" y="0px"
	 viewBox="-553.9 793 56.9 56.9" style="enable-background:new -553.9 793 56.9 56.9;" xml:space="preserve">
<style type="text/css">
	.st0{fill:#79706B;}
</style>
<path class="st0" d="M-515.4,811.9l1.5-0.3l2.9,0.3l2.6,0.7l2.6,0.7l1.4,0.9l0.3,1.1l-1.6,0.3l-2.5-0.3l-3.8-1.1l-2.8-0.6l-1.4-0.8
	v-0.5L-515.4,811.9z"/>
<g>
	<path class="st0" d="M-546.2,811.7c0,0,3.9,0.6,5.6,1.1c1.7,0.4,4.9,1.2,5.3,2.7c0.4,1.5-0.8,0.8-1.5,0.8s-4.1-0.9-4.9-1
		c-0.8-0.1-3.1-1.1-3.1-1.1s-2.2-1-2.4-1.4c-0.2-0.5,0-0.7,0-0.7L-546.2,811.7z M-508.9,820.4c-1.3,0.2-1.4,2.4-0.8,3.6l-1.5-0.1
		c0,0-1.2-0.9-1.6-1.7c-0.4-0.8-0.4-3.1-0.4-3.1l5.8,0.6C-507.4,819.7-507.6,820.2-508.9,820.4 M-505.4,818l-5.8-0.4h-4
		c0,0,0.1,3.7,0.2,4.6c0.1,1,1.8,4.3,5.7,3.9C-505.4,825.7-505.2,819.4-505.4,818 M-539.8,821c-0.6-0.1-1.3,0-1.3,0.8
		s-0.4,2.4,0.5,2.5c-0.1,0.6-2.4,0.3-2.6-0.3s-1.4-2.2-1-4.6l5.9,0.6C-538.5,820.7-539.2,821-539.8,821 M-536.3,818.7l-9.8-0.6
		c0,0-0.3,2.1-0.1,3.9c0.1,1.7,1.9,4.4,5.5,4.4C-537.2,826.2-536.2,821.1-536.3,818.7 M-541.6,834c2.1,1.2,5.7,1.9,7.7,2.2
		s7.8,0.8,9.8,0.7c2.1-0.1,6.4-0.9,7.6-1.1c1.3-0.2,4-1,4.5-1.4c0.5-0.4,1.9-1.2,1.9-1.2c-0.7-0.1-0.6-1.5-0.1-1.8
		c0.6-0.3,1-0.3,1.3,0.1c0.4,0.4,1,1.5,1.7,1.6c0.6,0.1,2.4,0.6,2.1,1.3c-0.3,0.6-0.5,1.5-2.7,0.8c-1.6,0.6-4.7,2.4-8.2,3.1
		c-3.5,0.7-7.8,1.2-11.2,1c-3.4-0.1-6.9-0.8-10-1.3c-3.1-0.5-4.8-1.7-5.2-2.1s-1.2-1.1-1.5-1s-2.3,0.1-2.3-1c0-1,0.8-1.2,1.1-1
		s1.9,0.3,2.1,0.1c0.3-0.3,0.5-1.2,0.9-1.4c0.4-0.3,1.1-0.7,1.5-0.1c0.4,0.6,0.4,1.4,0.1,1.7C-540.6,833.4-541.6,834-541.6,834"/>
</g>
<g>
	<path class="st0" d="M-501.3,834.9h-0.2c-0.5,0-1,0-1.5-0.1c-1.8,3.4-4.8,7.8-8.7,9.5c-5.3,2.4-10.3,4.4-16.9,3.4
		c-6.5-1-13.3-4.9-16.8-9.1c-3.5-4.1-6.7-12.7-6.2-17.6c0.3-2.4,0.9-5.8,1.9-9c-0.3-0.3-0.6-0.6-1-0.8c-0.2-0.1-0.5-0.2-0.8-0.2
		c-0.8,1.9-1.5,3.9-1.9,6c-1.3,6.5-0.1,10.4,1.9,16.2c2,5.9,8.4,11.6,13.3,13.8c4.8,2.2,10.4,3.6,18.9,2.5c7.5-1,14.2-6.4,18.6-14.3
		C-500.9,835.2-501.1,835-501.3,834.9 M-500.2,808.3c-2.8-7.7-9.9-10.9-14-12.9c-4-2-7.1-2.1-12.7-2.4c0,0-5.1,1.2-6.6,1.6
		c-1.5,0.4-6.4,2.2-10.5,5.8c-2.4,2.1-4.8,5.3-6.6,9c0,0,0,0.1,0.1,0.1c0.3,0.2,0.6,0.4,0.9,0.5c0.2,0,0.5,0,0.7,0.1
		c0.9-2.1,2-4.1,3.4-5.3c3.7-3.5,7.9-6.8,11-7.9c3.1-1.1,7.5-1.4,7.5-1.4c3,0,7,0.6,7,0.6s3.1,0.8,3.3,0.8c0.2,0.1,4.5,2,4.5,2
		l3.1,2.5l4.3,4.2c0,0,2.2,4.2,2.5,4.5c0.3,0.3,2.1,5.6,2.2,5.7c0.1,0.2,0.6,7.1,0.6,7.3s-1,5.6-2.2,8.6c-0.2,0.4-0.4,0.9-0.7,1.4
		c0.4,0.2,0.9,0.3,1.3,0.5h1.1c0.2-0.3,0.3-0.6,0.5-0.9C-495,823.1-497.5,816-500.2,808.3 M-528,794.1
		C-528,794-528.2,794.1-528,794.1"/>
</g>
</svg>
