<svg id="Layer_1" xmlns="http://www.w3.org/2000/svg" viewBox="0 0 14 14">
  <style>
    .st0{fill:#1C7FA0;} .st1{fill:#A2A2A2;} .st2{fill:#FFFFFF;} .st3{fill:none;stroke:#1C7FA0;stroke-width:2.5;stroke-linejoin:round;} .st4{fill:none;stroke:#1C7FA0;stroke-width:1.5;stroke-linejoin:round;} .st5{fill:#79706B;} .st6{fill:none;stroke:#464646;stroke-width:1.5;stroke-miterlimit:10;} .st7{fill:none;stroke:#FFFFFF;stroke-width:1.5;stroke-miterlimit:10;}
  </style>
  <path class="st0" d="M10.4 1h-4v2H12v6h-2v3.3L7 9H2V6H0v1.4C0 8.9.9 11 3.6 11h3.2l2.4 2.4c.5.4 1 .6 1.4.6.3 0 .5-.1.6-.1.8-.5.8-1.6.8-1.9v-1.4c1.3-.6 2-1.6 2-3.1V5c0-1.6-.9-4-3.6-4z"/>
  <path class="st0" d="M0 1.8h5v1.5H0z"/>
  <path class="st0" d="M1.8 0h1.5v5H1.8z"/>
</svg>
