<?xml version="1.0" encoding="utf-8"?>
<!-- Generator: Adobe Illustrator 19.1.0, SVG Export Plug-In . SVG Version: 6.00 Build 0)  -->
<svg version="1.1" id="Layer_1" xmlns="http://www.w3.org/2000/svg" xmlns:xlink="http://www.w3.org/1999/xlink" x="0px" y="0px"
	 viewBox="-298 390 14 14" style="enable-background:new -298 390 14 14;" xml:space="preserve">
<style type="text/css">
	.st0{fill:#464646;}
	.st1{fill:#FFFFFF;}
</style>
<path class="st0" d="M-291,402.5c-3.7,0-6.7-2.4-6.9-5.4l0-0.1l0-0.1c0.2-3.1,3.3-5.5,6.9-5.5c3.7,0,6.7,2.4,6.9,5.4l0,0.1l0,0.1
	C-284.3,400-287.3,402.5-291,402.5z M-296.4,397c0.2,2.2,2.6,4,5.4,4c2.9,0,5.2-1.8,5.4-4c-0.2-2.2-2.6-4-5.4-4
	C-293.9,393-296.2,394.7-296.4,397z"/>
<path class="st0" d="M-291.7,403.9l-1.4-0.6l2-4.6c-2.5,0-4.5-2-4.5-4.4c0-0.5,0.1-1,0.4-1.4l0.1-0.1l0.1-0.1c1.2-0.7,2.6-1.1,4-1.1
	c0.9,0,1.9,0.2,2.8,0.5l0.8-1.9l1.4,0.6l-0.9,1.9l0.2,0.1v0.4c0,0.1,0,0.2,0,0.3c0,0.2,0.1,0.4,0.1,0.6c0,1.9-1.2,3.5-2.8,4.2
	L-291.7,403.9z M-294,393.8c-0.1,0.1-0.1,0.3-0.1,0.4c0,1.6,1.4,2.9,3,2.9c0.2,0,0.4,0,0.6-0.1l1.6-3.7
	C-290.4,392.7-292.4,392.9-294,393.8z"/>
<rect x="-289.2" y="389.7" transform="matrix(0.9166 0.3997 -0.3997 0.9166 134.9841 148.4678)" class="st1" width="1.5" height="16.3"/>
</svg>
