<svg id="Layer_1" xmlns="http://www.w3.org/2000/svg" viewBox="0 0 14 14">
  <style>
    .st0{fill:#1C7FA0;} .st1{fill:#A2A2A2;} .st2{fill:#FFFFFF;} .st3{fill:none;stroke:#1C7FA0;stroke-width:2.5;stroke-linejoin:round;} .st4{fill:none;stroke:#1C7FA0;stroke-width:1.5;stroke-linejoin:round;} .st5{fill:#79706B;} .st6{fill:none;stroke:#464646;stroke-width:1.5;stroke-miterlimit:10;} .st7{fill:none;stroke:#FFFFFF;stroke-width:1.5;stroke-miterlimit:10;}
  </style>
  <path class="st6" d="M7 2.2C3.7 2.2 1 4.3.8 7 1 9.6 3.7 11.7 7 11.7s6-2.1 6.2-4.8C13 4.3 10.3 2.2 7 2.2z"/>
  <path class="st6" d="M7 7.9c2.1 0 3.8-1.7 3.8-3.8 0-.3-.1-.6-.1-.9-1-.6-2.3-1-3.6-1s-2.6.4-3.6 1c-.2.3-.3.6-.3 1 0 2 1.7 3.7 3.8 3.7zM11.4.4L5.6 13.6"/>
  <path class="st7" d="M12.8.4L6.3 15.3"/>
</svg>
