<?xml version="1.0" encoding="utf-8"?>
<!-- Generator: Adobe Illustrator 19.1.0, SVG Export Plug-In . SVG Version: 6.00 Build 0)  -->
<svg version="1.1" id="Layer_1" xmlns="http://www.w3.org/2000/svg" xmlns:xlink="http://www.w3.org/1999/xlink" x="0px" y="0px"
	 viewBox="-298 390 14 14" enable-background="new -298 390 14 14" xml:space="preserve">
<g>
	<path fill="#1C7FA0" d="M-297.3,394.3c-1-1-1-2.6,0-3.6c1-1,2.6-1,3.6,0c0.1,0.1,0.1,0.1,0.2,0.2c-0.8,0.3-1.5,0.8-2.1,1.4
		c-0.6,0.6-1.1,1.3-1.4,2.1C-297.1,394.4-297.2,394.4-297.3,394.3"/>
	<path fill="#1C7FA0" d="M-284.7,394.3c-0.1,0.1-0.1,0.1-0.2,0.2c-0.3-0.8-0.8-1.5-1.4-2.1c-0.6-0.6-1.3-1.1-2.1-1.4
		c0.1-0.1,0.1-0.1,0.2-0.2c1-1,2.6-1,3.6,0C-283.8,391.7-283.8,393.3-284.7,394.3"/>
	<path fill="#1C7FA0" d="M-291,401.8L-291,401.8c-2.7,0-4.8-2.2-4.8-4.8c0-2.7,2.2-4.8,4.8-4.8c2.7,0,4.8,2.2,4.8,4.8
		C-286.2,399.7-288.3,401.8-291,401.8 M-287,401.4c1.2-1.1,1.9-2.6,1.9-4.4c0-3.3-2.7-5.9-5.9-5.9c-3.3,0-5.9,2.7-5.9,5.9
		c0,1.6,0.6,3.1,1.7,4.2c0.1,0.1,0.1,0.1,0.2,0.2l-0.6,0.9c-0.3,0.5-0.1,1.2,0.4,1.5c0.5,0.3,1.2,0.1,1.5-0.4l0.5-0.9
		c0.7,0.3,1.4,0.4,2.1,0.4l0,0c0.7,0,1.5-0.1,2.1-0.4l0.5,0.9c0.3,0.5,1,0.7,1.5,0.4c0.5-0.3,0.7-1,0.4-1.5L-287,401.4z"/>
	<path fill="#1C7FA0" d="M-290.4,396.4v-1v-2.1c0-0.3-0.3-0.6-0.6-0.6s-0.6,0.3-0.6,0.6v3.6c0,0.3,0.2,0.6,0.6,0.6h3
		c0.3,0,0.6-0.2,0.6-0.6c0-0.3-0.2-0.6-0.6-0.6L-290.4,396.4L-290.4,396.4z"/>
</g>
</svg>
