<?xml version="1.0" encoding="utf-8"?>
<!-- Generator: Adobe Illustrator 19.1.0, SVG Export Plug-In . SVG Version: 6.00 Build 0)  -->
<svg version="1.1" id="Layer_1" xmlns="http://www.w3.org/2000/svg" xmlns:xlink="http://www.w3.org/1999/xlink" x="0px" y="0px"
	 viewBox="-596 780 14 14" enable-background="new -596 780 14 14" xml:space="preserve">
<path fill="#1C7FA0" d="M-585.6,781h-4v2h5.6v6h-2v3.3l-3-3.3h-5v-3h-2v1.4c0,1.5,0.9,3.6,3.6,3.6h3.2l2.4,2.4
	c0.5,0.4,1,0.6,1.4,0.6c0.3,0,0.5-0.1,0.6-0.1c0.8-0.5,0.8-1.6,0.8-1.9v-1.4c1.3-0.6,2-1.6,2-3.1V785
	C-582,783.4-582.9,781-585.6,781z"/>
<path fill="#1C7FA0" d="M-596,781.8h5v1.5h-5V781.8z"/>
<path fill="#1C7FA0" d="M-594.2,780h1.5v5h-1.5V780z"/>
</svg>
